<svg width="36" height="36" viewBox="0 0 36 36" fill="none" xmlns="http://www.w3.org/2000/svg">
<g clip-path="url(#clip0)">
<rect width="36" height="36" fill="#3B364B"/>
<g opacity="0.2">
<path d="M2.77 9C2.70333 9 2.64667 8.97667 2.6 8.93C2.55333 8.88333 2.53 8.82667 2.53 8.76V3.6L1.02 4.76C0.98 4.79333 0.93 4.81 0.87 4.81C0.79 4.81 0.726667 4.77667 0.68 4.71L0.25 4.15C0.216667 4.10333 0.2 4.05667 0.2 4.01C0.2 3.93 0.236667 3.86333 0.31 3.81L2.55 2.07C2.62333 2.02333 2.70667 2 2.8 2H3.7C3.76667 2 3.82333 2.02333 3.87 2.07C3.91667 2.11667 3.94 2.17333 3.94 2.24V8.76C3.94 8.82667 3.91667 8.88333 3.87 8.93C3.82333 8.97667 3.76667 9 3.7 9H2.77Z" fill="#00FFE0"/>
<path d="M3.29 9.1C2.39667 9.1 1.73 8.85333 1.29 8.36C0.856667 7.86667 0.62 7.22 0.58 6.42C0.573333 6.24 0.57 5.93333 0.57 5.5C0.57 5.06 0.573333 4.74667 0.58 4.56C0.613333 3.77333 0.853333 3.13333 1.3 2.64C1.74667 2.14667 2.41 1.9 3.29 1.9C4.17 1.9 4.83333 2.14667 5.28 2.64C5.72667 3.13333 5.96667 3.77333 6 4.56C6.01333 4.93333 6.02 5.24667 6.02 5.5C6.02 5.75333 6.01333 6.06 6 6.42C5.96 7.22 5.72 7.86667 5.28 8.36C4.84667 8.85333 4.18333 9.1 3.29 9.1ZM3.29 7.93C3.70333 7.93 4.01333 7.79667 4.22 7.53C4.42667 7.25667 4.53667 6.87 4.55 6.37C4.55667 6.17667 4.56 5.88 4.56 5.48C4.56 5.08 4.55667 4.79 4.55 4.61C4.53667 4.12333 4.42667 3.74333 4.22 3.47C4.01333 3.19667 3.70333 3.05667 3.29 3.05C2.87667 3.05667 2.56667 3.19667 2.36 3.47C2.15333 3.74333 2.04333 4.12333 2.03 4.61C2.02333 4.79 2.02 5.08 2.02 5.48C2.02 5.88 2.02333 6.17667 2.03 6.37C2.04333 6.87 2.15333 7.25667 2.36 7.53C2.56667 7.79667 2.87667 7.93 3.29 7.93Z" transform="translate(9 18)" fill="#00FFE0"/>
<path d="M2.77 9C2.70333 9 2.64667 8.97667 2.6 8.93C2.55333 8.88333 2.53 8.82667 2.53 8.76V3.6L1.02 4.76C0.98 4.79333 0.93 4.81 0.87 4.81C0.79 4.81 0.726667 4.77667 0.68 4.71L0.25 4.15C0.216667 4.10333 0.2 4.05667 0.2 4.01C0.2 3.93 0.236667 3.86333 0.31 3.81L2.55 2.07C2.62333 2.02333 2.70667 2 2.8 2H3.7C3.76667 2 3.82333 2.02333 3.87 2.07C3.91667 2.11667 3.94 2.17333 3.94 2.24V8.76C3.94 8.82667 3.91667 8.88333 3.87 8.93C3.82333 8.97667 3.76667 9 3.7 9H2.77Z" transform="translate(27 18)" fill="#00FFE0"/>
<path d="M3.29 9.1C2.39667 9.1 1.73 8.85333 1.29 8.36C0.856667 7.86667 0.62 7.22 0.58 6.42C0.573333 6.24 0.57 5.93333 0.57 5.5C0.57 5.06 0.573333 4.74667 0.58 4.56C0.613333 3.77333 0.853333 3.13333 1.3 2.64C1.74667 2.14667 2.41 1.9 3.29 1.9C4.17 1.9 4.83333 2.14667 5.28 2.64C5.72667 3.13333 5.96667 3.77333 6 4.56C6.01333 4.93333 6.02 5.24667 6.02 5.5C6.02 5.75333 6.01333 6.06 6 6.42C5.96 7.22 5.72 7.86667 5.28 8.36C4.84667 8.85333 4.18333 9.1 3.29 9.1ZM3.29 7.93C3.70333 7.93 4.01333 7.79667 4.22 7.53C4.42667 7.25667 4.53667 6.87 4.55 6.37C4.55667 6.17667 4.56 5.88 4.56 5.48C4.56 5.08 4.55667 4.79 4.55 4.61C4.53667 4.12333 4.42667 3.74333 4.22 3.47C4.01333 3.19667 3.70333 3.05667 3.29 3.05C2.87667 3.05667 2.56667 3.19667 2.36 3.47C2.15333 3.74333 2.04333 4.12333 2.03 4.61C2.02333 4.79 2.02 5.08 2.02 5.48C2.02 5.88 2.02333 6.17667 2.03 6.37C2.04333 6.87 2.15333 7.25667 2.36 7.53C2.56667 7.79667 2.87667 7.93 3.29 7.93Z" transform="translate(18)" fill="#00FFE0"/>
</g>
</g>
<defs>
<clipPath id="clip0">
<rect width="36" height="36" fill="white"/>
</clipPath>
</defs>
</svg>
