<svg width="200" height="200" viewBox="0 0 200 200" fill="none" xmlns="http://www.w3.org/2000/svg">
<rect width="200" height="200" fill="#00FF9F"/>
<g opacity="0.1">
<path d="M7.33659 25.9958C7.14403 25.9958 6.98035 25.9284 6.84556 25.7936C6.71077 25.6781 6.64337 25.5144 6.64337 25.3026V23.2807C5.25693 23.1459 4.06305 22.8185 3.06173 22.2986C2.07966 21.7594 1.32867 21.1047 0.808758 20.3345C0.308099 19.545 0.0385123 18.7073 0 17.8216C0 17.6483 0.0577684 17.5038 0.173305 17.3883C0.308098 17.2728 0.462148 17.215 0.635453 17.215H3.20615C3.41797 17.215 3.58164 17.2631 3.69718 17.3594C3.83197 17.4364 3.95714 17.5712 4.07268 17.7638C4.28449 18.4185 4.72739 18.9673 5.40135 19.4102C6.09457 19.8531 7.04775 20.0745 8.26089 20.0745C9.60882 20.0745 10.6294 19.8531 11.3226 19.4102C12.0158 18.9481 12.3624 18.3126 12.3624 17.5038C12.3624 16.9647 12.1891 16.5218 11.8425 16.1752C11.4959 15.8286 10.9664 15.5301 10.2539 15.2798C9.54142 15.0102 8.49196 14.7021 7.10552 14.3555C4.83329 13.8163 3.16764 13.1038 2.10855 12.218C1.06872 11.313 0.5488 10.0325 0.5488 8.37642C0.5488 6.87445 1.08797 5.61317 2.16632 4.59259C3.26392 3.55276 4.75627 2.91731 6.64337 2.68623V0.693221C6.64337 0.481403 6.71077 0.317725 6.84556 0.202189C6.98035 0.0673962 7.14403 0 7.33659 0H9.09853C9.29109 0 9.45477 0.0673962 9.58956 0.202189C9.72436 0.336982 9.79175 0.50066 9.79175 0.693221V2.744C11.0434 2.91731 12.1121 3.2928 12.9979 3.87049C13.9029 4.42891 14.5865 5.08362 15.0487 5.83461C15.5301 6.5856 15.79 7.31734 15.8286 8.02981C15.8286 8.20312 15.7708 8.34754 15.6553 8.46308C15.5397 8.57861 15.3953 8.63638 15.222 8.63638H12.5358C12.1121 8.63638 11.8233 8.45345 11.6692 8.08758C11.5729 7.47139 11.1975 6.9611 10.5427 6.55672C9.88803 6.13308 9.06965 5.92127 8.08758 5.92127C7.0285 5.92127 6.19085 6.12346 5.57466 6.52784C4.95846 6.93221 4.65036 7.51953 4.65036 8.28977C4.65036 8.82894 4.80441 9.27184 5.11251 9.61845C5.42061 9.96506 5.90201 10.2732 6.55672 10.5427C7.23068 10.8123 8.19349 11.1108 9.44514 11.4382C11.1397 11.8233 12.4876 12.2565 13.4889 12.7379C14.5095 13.2193 15.2605 13.8259 15.7419 14.5576C16.2233 15.2894 16.464 16.2233 16.464 17.3594C16.464 19.0154 15.8671 20.373 14.6732 21.4321C13.4793 22.4719 11.8522 23.0978 9.79175 23.3096V25.3026C9.79175 25.4951 9.72436 25.6588 9.58956 25.7936C9.45477 25.9284 9.29109 25.9958 9.09853 25.9958H7.33659Z" fill="black"/>
<path d="M7.33659 25.9958C7.14403 25.9958 6.98035 25.9284 6.84556 25.7936C6.71077 25.6781 6.64337 25.5144 6.64337 25.3026V23.2807C5.25693 23.1459 4.06305 22.8185 3.06173 22.2986C2.07966 21.7594 1.32867 21.1047 0.808758 20.3345C0.308099 19.545 0.0385123 18.7073 0 17.8216C0 17.6483 0.0577684 17.5038 0.173305 17.3883C0.308098 17.2728 0.462148 17.215 0.635453 17.215H3.20615C3.41797 17.215 3.58164 17.2631 3.69718 17.3594C3.83197 17.4364 3.95714 17.5712 4.07268 17.7638C4.28449 18.4185 4.72739 18.9673 5.40135 19.4102C6.09457 19.8531 7.04775 20.0745 8.26089 20.0745C9.60882 20.0745 10.6294 19.8531 11.3226 19.4102C12.0158 18.9481 12.3624 18.3126 12.3624 17.5038C12.3624 16.9647 12.1891 16.5218 11.8425 16.1752C11.4959 15.8286 10.9664 15.5301 10.2539 15.2798C9.54142 15.0102 8.49196 14.7021 7.10552 14.3555C4.83329 13.8163 3.16764 13.1038 2.10855 12.218C1.06872 11.313 0.5488 10.0325 0.5488 8.37642C0.5488 6.87445 1.08797 5.61317 2.16632 4.59259C3.26392 3.55276 4.75627 2.91731 6.64337 2.68623V0.693221C6.64337 0.481403 6.71077 0.317725 6.84556 0.202189C6.98035 0.0673962 7.14403 0 7.33659 0H9.09853C9.29109 0 9.45477 0.0673962 9.58956 0.202189C9.72436 0.336982 9.79175 0.50066 9.79175 0.693221V2.744C11.0434 2.91731 12.1121 3.2928 12.9979 3.87049C13.9029 4.42891 14.5865 5.08362 15.0487 5.83461C15.5301 6.5856 15.79 7.31734 15.8286 8.02981C15.8286 8.20312 15.7708 8.34754 15.6553 8.46308C15.5397 8.57861 15.3953 8.63638 15.222 8.63638H12.5358C12.1121 8.63638 11.8233 8.45345 11.6692 8.08758C11.5729 7.47139 11.1975 6.9611 10.5427 6.55672C9.88803 6.13308 9.06965 5.92127 8.08758 5.92127C7.0285 5.92127 6.19085 6.12346 5.57466 6.52784C4.95846 6.93221 4.65036 7.51953 4.65036 8.28977C4.65036 8.82894 4.80441 9.27184 5.11251 9.61845C5.42061 9.96506 5.90201 10.2732 6.55672 10.5427C7.23068 10.8123 8.19349 11.1108 9.44514 11.4382C11.1397 11.8233 12.4876 12.2565 13.4889 12.7379C14.5095 13.2193 15.2605 13.8259 15.7419 14.5576C16.2233 15.2894 16.464 16.2233 16.464 17.3594C16.464 19.0154 15.8671 20.373 14.6732 21.4321C13.4793 22.4719 11.8522 23.0978 9.79175 23.3096V25.3026C9.79175 25.4951 9.72436 25.6588 9.58956 25.7936C9.45477 25.9284 9.29109 25.9958 9.09853 25.9958H7.33659Z" transform="translate(50 100)" fill="black"/>
<path d="M7.33659 25.9958C7.14403 25.9958 6.98035 25.9284 6.84556 25.7936C6.71077 25.6781 6.64337 25.5144 6.64337 25.3026V23.2807C5.25693 23.1459 4.06305 22.8185 3.06173 22.2986C2.07966 21.7594 1.32867 21.1047 0.808758 20.3345C0.308099 19.545 0.0385123 18.7073 0 17.8216C0 17.6483 0.0577684 17.5038 0.173305 17.3883C0.308098 17.2728 0.462148 17.215 0.635453 17.215H3.20615C3.41797 17.215 3.58164 17.2631 3.69718 17.3594C3.83197 17.4364 3.95714 17.5712 4.07268 17.7638C4.28449 18.4185 4.72739 18.9673 5.40135 19.4102C6.09457 19.8531 7.04775 20.0745 8.26089 20.0745C9.60882 20.0745 10.6294 19.8531 11.3226 19.4102C12.0158 18.9481 12.3624 18.3126 12.3624 17.5038C12.3624 16.9647 12.1891 16.5218 11.8425 16.1752C11.4959 15.8286 10.9664 15.5301 10.2539 15.2798C9.54142 15.0102 8.49196 14.7021 7.10552 14.3555C4.83329 13.8163 3.16764 13.1038 2.10855 12.218C1.06872 11.313 0.5488 10.0325 0.5488 8.37642C0.5488 6.87445 1.08797 5.61317 2.16632 4.59259C3.26392 3.55276 4.75627 2.91731 6.64337 2.68623V0.693221C6.64337 0.481403 6.71077 0.317725 6.84556 0.202189C6.98035 0.0673962 7.14403 0 7.33659 0H9.09853C9.29109 0 9.45477 0.0673962 9.58956 0.202189C9.72436 0.336982 9.79175 0.50066 9.79175 0.693221V2.744C11.0434 2.91731 12.1121 3.2928 12.9979 3.87049C13.9029 4.42891 14.5865 5.08362 15.0487 5.83461C15.5301 6.5856 15.79 7.31734 15.8286 8.02981C15.8286 8.20312 15.7708 8.34754 15.6553 8.46308C15.5397 8.57861 15.3953 8.63638 15.222 8.63638H12.5358C12.1121 8.63638 11.8233 8.45345 11.6692 8.08758C11.5729 7.47139 11.1975 6.9611 10.5427 6.55672C9.88803 6.13308 9.06965 5.92127 8.08758 5.92127C7.0285 5.92127 6.19085 6.12346 5.57466 6.52784C4.95846 6.93221 4.65036 7.51953 4.65036 8.28977C4.65036 8.82894 4.80441 9.27184 5.11251 9.61845C5.42061 9.96506 5.90201 10.2732 6.55672 10.5427C7.23068 10.8123 8.19349 11.1108 9.44514 11.4382C11.1397 11.8233 12.4876 12.2565 13.4889 12.7379C14.5095 13.2193 15.2605 13.8259 15.7419 14.5576C16.2233 15.2894 16.464 16.2233 16.464 17.3594C16.464 19.0154 15.8671 20.373 14.6732 21.4321C13.4793 22.4719 11.8522 23.0978 9.79175 23.3096V25.3026C9.79175 25.4951 9.72436 25.6588 9.58956 25.7936C9.45477 25.9284 9.29109 25.9958 9.09853 25.9958H7.33659Z" transform="translate(150 100)" fill="black"/>
<path d="M7.33659 25.9958C7.14403 25.9958 6.98035 25.9284 6.84556 25.7936C6.71077 25.6781 6.64337 25.5144 6.64337 25.3026V23.2807C5.25693 23.1459 4.06305 22.8185 3.06173 22.2986C2.07966 21.7594 1.32867 21.1047 0.808758 20.3345C0.308099 19.545 0.0385123 18.7073 0 17.8216C0 17.6483 0.0577684 17.5038 0.173305 17.3883C0.308098 17.2728 0.462148 17.215 0.635453 17.215H3.20615C3.41797 17.215 3.58164 17.2631 3.69718 17.3594C3.83197 17.4364 3.95714 17.5712 4.07268 17.7638C4.28449 18.4185 4.72739 18.9673 5.40135 19.4102C6.09457 19.8531 7.04775 20.0745 8.26089 20.0745C9.60882 20.0745 10.6294 19.8531 11.3226 19.4102C12.0158 18.9481 12.3624 18.3126 12.3624 17.5038C12.3624 16.9647 12.1891 16.5218 11.8425 16.1752C11.4959 15.8286 10.9664 15.5301 10.2539 15.2798C9.54142 15.0102 8.49196 14.7021 7.10552 14.3555C4.83329 13.8163 3.16764 13.1038 2.10855 12.218C1.06872 11.313 0.5488 10.0325 0.5488 8.37642C0.5488 6.87445 1.08797 5.61317 2.16632 4.59259C3.26392 3.55276 4.75627 2.91731 6.64337 2.68623V0.693221C6.64337 0.481403 6.71077 0.317725 6.84556 0.202189C6.98035 0.0673962 7.14403 0 7.33659 0H9.09853C9.29109 0 9.45477 0.0673962 9.58956 0.202189C9.72436 0.336982 9.79175 0.50066 9.79175 0.693221V2.744C11.0434 2.91731 12.1121 3.2928 12.9979 3.87049C13.9029 4.42891 14.5865 5.08362 15.0487 5.83461C15.5301 6.5856 15.79 7.31734 15.8286 8.02981C15.8286 8.20312 15.7708 8.34754 15.6553 8.46308C15.5397 8.57861 15.3953 8.63638 15.222 8.63638H12.5358C12.1121 8.63638 11.8233 8.45345 11.6692 8.08758C11.5729 7.47139 11.1975 6.9611 10.5427 6.55672C9.88803 6.13308 9.06965 5.92127 8.08758 5.92127C7.0285 5.92127 6.19085 6.12346 5.57466 6.52784C4.95846 6.93221 4.65036 7.51953 4.65036 8.28977C4.65036 8.82894 4.80441 9.27184 5.11251 9.61845C5.42061 9.96506 5.90201 10.2732 6.55672 10.5427C7.23068 10.8123 8.19349 11.1108 9.44514 11.4382C11.1397 11.8233 12.4876 12.2565 13.4889 12.7379C14.5095 13.2193 15.2605 13.8259 15.7419 14.5576C16.2233 15.2894 16.464 16.2233 16.464 17.3594C16.464 19.0154 15.8671 20.373 14.6732 21.4321C13.4793 22.4719 11.8522 23.0978 9.79175 23.3096V25.3026C9.79175 25.4951 9.72436 25.6588 9.58956 25.7936C9.45477 25.9284 9.29109 25.9958 9.09853 25.9958H7.33659Z" transform="translate(100)" fill="black"/>
</g>
</svg>
