<svg width="52" height="61" viewBox="0 0 52 61" fill="none" xmlns="http://www.w3.org/2000/svg">
<rect width="52" height="61" fill="white"/>
<path fill-rule="evenodd" clip-rule="evenodd" d="M4.85714 13.221C4.85714 5.9246 10.7356 0 18 0C25.2507 0 31.1429 5.9239 31.1429 13.221V18.0138C33.9084 18.4965 36 20.9229 36 23.8303V40.0963C36 43.3694 33.3754 46 30.1283 46H5.87171C2.62057 46 0 43.3507 0 40.0963V23.8303C0 20.9059 2.09481 18.4948 4.85714 18.0139V13.221ZM18 2C11.8522 2 6.85714 7.01714 6.85714 13.221V19.9236L5.86018 19.9266C3.73063 19.9331 2 21.6577 2 23.8303V40.0963C2 42.2589 3.73791 44 5.87171 44H30.1283C32.2629 44 34 42.2728 34 40.0963V23.8303C34 21.6711 32.2682 19.9318 30.1404 19.9266L29.1429 19.9242V13.221C29.1429 7.01784 24.1356 2 18 2ZM18 6.88907C14.5344 6.88907 11.7143 9.70994 11.7143 13.2243V17.9266H24.2857V13.2243C24.2857 9.71957 21.4574 6.88907 18 6.88907ZM9.71429 13.2243C9.71429 8.61629 13.4189 4.88907 18 4.88907C22.5731 4.88907 26.2857 8.62622 26.2857 13.2243V19.9266H9.71429V13.2243Z" transform="translate(8 11)" fill="black"/>
</svg>
