<svg width="52" height="61" viewBox="0 0 52 61" fill="none" xmlns="http://www.w3.org/2000/svg">
<path fill-rule="evenodd" clip-rule="evenodd" d="M12.8571 24.221C12.8571 16.9246 18.7356 11 26 11C33.2507 11 39.1429 16.9239 39.1429 24.221V29.0138C41.9084 29.4965 44 31.9229 44 34.8303V51.0963C44 54.3694 41.3754 57 38.1283 57H13.8717C10.6206 57 8 54.3507 8 51.0963V34.8303C8 31.9059 10.0948 29.4948 12.8571 29.0139V24.221ZM26 13C19.8522 13 14.8571 18.0171 14.8571 24.221V30.9236L13.8602 30.9266C11.7306 30.9331 10 32.6577 10 34.8303V51.0963C10 53.2589 11.7379 55 13.8717 55H38.1283C40.2629 55 42 53.2728 42 51.0963V34.8303C42 32.6711 40.2682 30.9318 38.1404 30.9266L37.1429 30.9242V24.221C37.1429 18.0178 32.1356 13 26 13ZM26 17.8891C22.5344 17.8891 19.7143 20.7099 19.7143 24.2243V28.9266H32.2857V24.2243C32.2857 20.7196 29.4574 17.8891 26 17.8891ZM17.7143 24.2243C17.7143 19.6163 21.4189 15.8891 26 15.8891C30.5731 15.8891 34.2857 19.6262 34.2857 24.2243V30.9266H17.7143V24.2243Z" fill="black"/>
</svg>
