<svg width="1202" height="1202" viewBox="0 0 1202 1202" fill="none" xmlns="http://www.w3.org/2000/svg">
<path fill-rule="evenodd" clip-rule="evenodd" d="M679.552 5.52863L602.471 597.02L602.448 0C628.131 0.180298 653.881 2.00113 679.552 5.52863ZM601.243 596.131L522.765 6.02145C496.961 9.23502 471.674 14.0838 446.992 20.4625L601.243 596.131ZM598.513 597.119L235.495 125.308C214.754 140.993 195.28 157.836 177.094 175.7L598.513 597.119ZM605.853 597.883L609.169 595.969L1027.32 177.819C1045.18 196.004 1062.03 215.479 1077.71 236.219L613.093 593.704L1121.39 300.237C1134.38 322.325 1146 345.303 1156.13 369.081L609.785 596.249L605.9 599.237L608.252 596.886L605.853 597.883ZM606.266 599.067L1182.5 444.666C1189.27 469.295 1194.53 494.559 1198.14 520.345L606.266 599.067ZM596.858 600.944L6.74744 679.422C9.96094 705.226 14.8098 730.513 21.1885 755.195L596.858 600.944ZM46.3708 831.155L597.158 602.165L80.1355 900.694C67.4553 878.364 56.1555 855.152 46.3708 831.155ZM1201.98 599.934H606.687L1197.65 676.924C1200.76 651.268 1202.19 625.556 1201.98 599.934ZM606.453 601.165L1182.69 755.566C1176.24 780.282 1168.16 804.791 1158.39 828.927L606.453 601.165ZM597.367 598.087L47.0774 370.995C36.9583 394.95 28.514 419.273 21.6971 443.837L597.367 598.087ZM5.52258 522.211L597.015 599.292L0 599.316C0.180298 573.638 2.0011 547.888 5.52258 522.211ZM1121.2 901.025L605.662 603.378L1078.95 965.533C1094.48 944.872 1108.57 923.317 1121.2 901.025ZM604.844 604.328L1026.68 1026.16C1008.73 1044.34 989.484 1061.53 968.957 1077.55L604.844 604.328ZM123.901 235.49L597.607 597.989L80.5613 299.5C93.5593 277.353 108.012 255.961 123.901 235.49ZM901.95 1120.66L604.303 605.126L833.106 1155.41C856.884 1145.28 879.863 1133.65 901.95 1120.66ZM603.121 605.539L757.521 1181.77C732.892 1188.55 707.629 1193.8 681.842 1197.41L603.121 605.539ZM371.031 45.6465L600.02 596.431L301.491 79.4125C323.822 66.7269 347.035 55.4294 371.031 45.6465ZM601.834 1201.98V606.688L524.843 1197.65C550.499 1200.76 576.211 1202.19 601.834 1201.98ZM600.603 606.455L446.201 1182.69C421.484 1176.24 396.976 1168.16 372.839 1158.39L600.603 606.455ZM603.68 597.368L830.772 47.0793C806.818 36.9601 782.494 28.5159 757.93 21.6992L603.68 597.368ZM301.994 1121.92L599.641 606.386L237.486 1079.67C258.146 1095.2 279.702 1109.29 301.994 1121.92ZM598.691 605.568L176.859 1027.4C158.678 1009.46 141.492 990.207 125.473 969.68L598.691 605.568ZM967.529 124.626L605.031 598.33L903.518 81.2874C925.668 94.2855 947.055 108.738 967.529 124.626Z" fill="#00FFE0"/>
</svg>
