<svg width="306" height="304" viewBox="0 0 306 304" fill="none" xmlns="http://www.w3.org/2000/svg">
<path d="M288 93.6199V286.549H17V93.6199C17.4705 93.6362 18.0174 93.655 18.6368 93.6763C21.034 93.7583 24.5181 93.8756 28.8668 94.0162C37.5639 94.2976 49.7197 94.6727 63.5546 95.0478C91.2192 95.7979 125.617 96.5485 152.5 96.5485C179.383 96.5485 213.781 95.7979 241.445 95.0478C255.28 94.6727 267.436 94.2976 276.133 94.0162C280.482 93.8756 283.966 93.7583 286.363 93.6763C286.983 93.655 287.53 93.6362 288 93.6199Z" fill="white" stroke="#5423E2" stroke-width="4"/>
<path opacity="0.9" d="M49.9095 163.739C48.1995 163.739 46.8695 163.302 45.9195 162.428C44.9695 161.554 44.4945 160.23 44.4945 158.457V150.724C44.4945 150.584 44.5325 150.47 44.6085 150.382C44.6971 150.293 44.8111 150.249 44.9505 150.249H46.6795C46.8188 150.249 46.9265 150.293 47.0025 150.382C47.0911 150.47 47.1355 150.584 47.1355 150.724V158.457C47.1355 159.47 47.3761 160.236 47.8575 160.756C48.3388 161.262 49.0228 161.516 49.9095 161.516C50.7961 161.516 51.4738 161.262 51.9425 160.756C52.4238 160.236 52.6645 159.47 52.6645 158.457V150.724C52.6645 150.584 52.7088 150.47 52.7975 150.382C52.8861 150.293 53.0001 150.249 53.1395 150.249H54.8495C54.9888 150.249 55.0965 150.293 55.1725 150.382C55.2611 150.47 55.3055 150.584 55.3055 150.724V158.457C55.3055 160.23 54.8305 161.554 53.8805 162.428C52.9431 163.302 51.6195 163.739 49.9095 163.739ZM61.6127 163.739C60.6627 163.739 59.8647 163.599 59.2187 163.321C58.5727 163.029 58.0914 162.694 57.7747 162.314C57.4707 161.921 57.3187 161.585 57.3187 161.307C57.3187 161.18 57.3631 161.079 57.4517 161.003C57.5404 160.927 57.6417 160.889 57.7557 160.889H59.2567C59.3707 160.889 59.4657 160.933 59.5417 161.022C59.5924 161.06 59.7254 161.174 59.9407 161.364C60.1561 161.566 60.4094 161.725 60.7007 161.839C60.9921 161.953 61.3151 162.01 61.6697 162.01C62.1764 162.01 62.5944 161.908 62.9237 161.706C63.2531 161.503 63.4177 161.224 63.4177 160.87C63.4177 160.604 63.3417 160.388 63.1897 160.224C63.0504 160.059 62.7907 159.913 62.4107 159.787C62.0307 159.647 61.4671 159.502 60.7197 159.35C59.6431 159.122 58.8451 158.773 58.3257 158.305C57.8191 157.836 57.5657 157.215 57.5657 156.443C57.5657 155.936 57.7177 155.461 58.0217 155.018C58.3257 154.562 58.7754 154.194 59.3707 153.916C59.9787 153.624 60.7007 153.479 61.5367 153.479C62.3854 153.479 63.1201 153.618 63.7407 153.897C64.3614 154.163 64.8301 154.486 65.1467 154.866C65.4761 155.233 65.6407 155.562 65.6407 155.854C65.6407 155.968 65.5964 156.069 65.5077 156.158C65.4317 156.234 65.3367 156.272 65.2227 156.272H63.8167C63.7154 156.272 63.6077 156.227 63.4937 156.139C63.4051 156.075 63.2657 155.955 63.0757 155.778C62.8857 155.6 62.6641 155.461 62.4107 155.36C62.1574 155.258 61.8597 155.208 61.5177 155.208C61.0491 155.208 60.6817 155.309 60.4157 155.512C60.1624 155.714 60.0357 155.98 60.0357 156.31C60.0357 156.55 60.0991 156.747 60.2257 156.899C60.3524 157.051 60.5994 157.196 60.9667 157.336C61.3341 157.475 61.8851 157.614 62.6197 157.754C63.8357 157.994 64.7034 158.368 65.2227 158.875C65.7547 159.381 66.0207 160.002 66.0207 160.737C66.0207 161.623 65.6344 162.345 64.8617 162.903C64.0891 163.46 63.0061 163.739 61.6127 163.739ZM72.238 163.739C70.832 163.739 69.711 163.333 68.875 162.523C68.0517 161.699 67.6147 160.547 67.564 159.065L67.545 158.59L67.564 158.115C67.6274 156.671 68.0707 155.537 68.894 154.714C69.73 153.89 70.8447 153.479 72.238 153.479C73.7327 153.479 74.8854 153.935 75.696 154.847C76.5194 155.759 76.931 156.975 76.931 158.495V158.894C76.931 159.02 76.8867 159.128 76.798 159.217C76.7094 159.305 76.5954 159.35 76.456 159.35H70.148V159.502C70.1734 160.198 70.3634 160.787 70.718 161.269C71.0854 161.737 71.5857 161.972 72.219 161.972C72.9664 161.972 73.568 161.68 74.024 161.098C74.138 160.958 74.2267 160.87 74.29 160.832C74.366 160.794 74.4737 160.775 74.613 160.775H76.247C76.361 160.775 76.456 160.813 76.532 160.889C76.6207 160.952 76.665 161.034 76.665 161.136C76.665 161.44 76.4814 161.801 76.114 162.219C75.7594 162.624 75.2464 162.979 74.575 163.283C73.9037 163.587 73.1247 163.739 72.238 163.739ZM74.347 157.754V157.697C74.347 156.949 74.157 156.348 73.777 155.892C73.4097 155.436 72.8967 155.208 72.238 155.208C71.5794 155.208 71.0664 155.436 70.699 155.892C70.3317 156.348 70.148 156.949 70.148 157.697V157.754H74.347ZM84.5747 167.159C84.4733 167.159 84.3847 167.121 84.3087 167.045C84.2327 166.969 84.1947 166.88 84.1947 166.779C84.1947 166.665 84.22 166.563 84.2707 166.475L85.7527 162.96L82.1047 154.353C82.054 154.239 82.0287 154.15 82.0287 154.087C82.0413 153.973 82.0857 153.878 82.1617 153.802C82.2377 153.713 82.3327 153.669 82.4467 153.669H83.9857C84.2263 153.669 84.3973 153.789 84.4987 154.03L87.0257 160.243L89.6287 154.03C89.73 153.789 89.901 153.669 90.1417 153.669H91.6617C91.763 153.669 91.8517 153.707 91.9277 153.783C92.0163 153.859 92.0607 153.947 92.0607 154.049C92.0607 154.137 92.0353 154.239 91.9847 154.353L86.6077 166.798C86.4937 167.038 86.3163 167.159 86.0757 167.159H84.5747ZM97.7163 163.739C96.2343 163.739 95.088 163.359 94.2773 162.599C93.4666 161.826 93.0296 160.775 92.9663 159.445L92.9473 158.609L92.9663 157.773C93.0296 156.455 93.473 155.41 94.2963 154.638C95.1196 153.865 96.2596 153.479 97.7163 153.479C99.173 153.479 100.313 153.865 101.136 154.638C101.96 155.41 102.403 156.455 102.466 157.773C102.479 157.925 102.485 158.203 102.485 158.609C102.485 159.014 102.479 159.293 102.466 159.445C102.403 160.775 101.966 161.826 101.155 162.599C100.345 163.359 99.1983 163.739 97.7163 163.739ZM97.7163 161.858C98.3876 161.858 98.907 161.649 99.2743 161.231C99.6416 160.8 99.8443 160.173 99.8823 159.35C99.895 159.223 99.9013 158.976 99.9013 158.609C99.9013 158.241 99.895 157.994 99.8823 157.868C99.8443 157.044 99.6416 156.424 99.2743 156.006C98.907 155.575 98.3876 155.36 97.7163 155.36C97.045 155.36 96.5256 155.575 96.1583 156.006C95.791 156.424 95.5883 157.044 95.5503 157.868L95.5313 158.609L95.5503 159.35C95.5883 160.173 95.791 160.8 96.1583 161.231C96.5256 161.649 97.045 161.858 97.7163 161.858ZM108.257 163.739C107.092 163.739 106.174 163.359 105.502 162.599C104.831 161.826 104.495 160.781 104.495 159.464V154.125C104.495 153.998 104.54 153.89 104.628 153.802C104.717 153.713 104.825 153.669 104.951 153.669H106.623C106.763 153.669 106.87 153.713 106.946 153.802C107.035 153.878 107.079 153.985 107.079 154.125V159.35C107.079 160.92 107.77 161.706 109.15 161.706C109.809 161.706 110.328 161.497 110.708 161.079C111.101 160.661 111.297 160.084 111.297 159.35V154.125C111.297 153.998 111.342 153.89 111.43 153.802C111.519 153.713 111.627 153.669 111.753 153.669H113.425C113.565 153.669 113.672 153.713 113.748 153.802C113.837 153.878 113.881 153.985 113.881 154.125V163.093C113.881 163.219 113.837 163.327 113.748 163.416C113.672 163.504 113.565 163.549 113.425 163.549H111.886C111.76 163.549 111.652 163.504 111.563 163.416C111.475 163.327 111.43 163.219 111.43 163.093V162.314C110.721 163.264 109.663 163.739 108.257 163.739ZM116.847 163.549C116.721 163.549 116.613 163.504 116.524 163.416C116.436 163.327 116.391 163.219 116.391 163.093V154.144C116.391 154.017 116.436 153.909 116.524 153.821C116.613 153.719 116.721 153.669 116.847 153.669H118.386C118.526 153.669 118.64 153.713 118.728 153.802C118.817 153.89 118.861 154.004 118.861 154.144V154.923C119.165 154.517 119.545 154.207 120.001 153.992C120.47 153.776 121.002 153.669 121.597 153.669H122.376C122.516 153.669 122.623 153.713 122.699 153.802C122.788 153.878 122.832 153.985 122.832 154.125V155.493C122.832 155.619 122.788 155.727 122.699 155.816C122.623 155.904 122.516 155.949 122.376 155.949H120.894C120.299 155.949 119.83 156.12 119.488 156.462C119.146 156.804 118.975 157.272 118.975 157.868V163.093C118.975 163.219 118.931 163.327 118.842 163.416C118.754 163.504 118.64 163.549 118.5 163.549H116.847ZM132.523 163.739C131.129 163.739 130.015 163.352 129.179 162.58C128.355 161.807 127.918 160.737 127.868 159.369L127.849 158.609L127.868 157.849C127.918 156.481 128.355 155.41 129.179 154.638C130.015 153.865 131.129 153.479 132.523 153.479C133.511 153.479 134.347 153.656 135.031 154.011C135.727 154.365 136.24 154.802 136.57 155.322C136.912 155.828 137.095 156.31 137.121 156.766C137.133 156.892 137.089 157 136.988 157.089C136.899 157.177 136.791 157.222 136.665 157.222H134.993C134.866 157.222 134.765 157.196 134.689 157.146C134.625 157.082 134.562 156.981 134.499 156.842C134.309 156.348 134.055 155.993 133.739 155.778C133.435 155.562 133.042 155.455 132.561 155.455C131.915 155.455 131.408 155.664 131.041 156.082C130.673 156.487 130.477 157.108 130.452 157.944L130.433 158.647L130.452 159.274C130.502 160.933 131.205 161.763 132.561 161.763C133.055 161.763 133.454 161.655 133.758 161.44C134.062 161.224 134.309 160.87 134.499 160.376C134.562 160.236 134.625 160.141 134.689 160.091C134.765 160.027 134.866 159.996 134.993 159.996H136.665C136.791 159.996 136.899 160.04 136.988 160.129C137.089 160.217 137.133 160.325 137.121 160.452C137.095 160.895 136.918 161.37 136.589 161.877C136.259 162.383 135.753 162.82 135.069 163.188C134.385 163.555 133.536 163.739 132.523 163.739ZM143.472 163.739C141.99 163.739 140.844 163.359 140.033 162.599C139.222 161.826 138.785 160.775 138.722 159.445L138.703 158.609L138.722 157.773C138.785 156.455 139.229 155.41 140.052 154.638C140.875 153.865 142.015 153.479 143.472 153.479C144.929 153.479 146.069 153.865 146.892 154.638C147.715 155.41 148.159 156.455 148.222 157.773C148.235 157.925 148.241 158.203 148.241 158.609C148.241 159.014 148.235 159.293 148.222 159.445C148.159 160.775 147.722 161.826 146.911 162.599C146.1 163.359 144.954 163.739 143.472 163.739ZM143.472 161.858C144.143 161.858 144.663 161.649 145.03 161.231C145.397 160.8 145.6 160.173 145.638 159.35C145.651 159.223 145.657 158.976 145.657 158.609C145.657 158.241 145.651 157.994 145.638 157.868C145.6 157.044 145.397 156.424 145.03 156.006C144.663 155.575 144.143 155.36 143.472 155.36C142.801 155.36 142.281 155.575 141.914 156.006C141.547 156.424 141.344 157.044 141.306 157.868L141.287 158.609L141.306 159.35C141.344 160.173 141.547 160.8 141.914 161.231C142.281 161.649 142.801 161.858 143.472 161.858ZM150.726 152.035C150.6 152.035 150.492 151.99 150.403 151.902C150.315 151.813 150.27 151.705 150.27 151.579V150.211C150.27 150.084 150.315 149.976 150.403 149.888C150.492 149.799 150.6 149.755 150.726 149.755H152.455C152.582 149.755 152.69 149.799 152.778 149.888C152.88 149.976 152.93 150.084 152.93 150.211V151.579C152.93 151.705 152.886 151.813 152.797 151.902C152.709 151.99 152.595 152.035 152.455 152.035H150.726ZM150.802 163.549C150.676 163.549 150.568 163.504 150.479 163.416C150.391 163.327 150.346 163.219 150.346 163.093V154.125C150.346 153.998 150.391 153.89 150.479 153.802C150.568 153.713 150.676 153.669 150.802 153.669H152.379C152.519 153.669 152.626 153.713 152.702 153.802C152.791 153.878 152.835 153.985 152.835 154.125V163.093C152.835 163.219 152.791 163.327 152.702 163.416C152.626 163.504 152.519 163.549 152.379 163.549H150.802ZM155.812 163.549C155.685 163.549 155.578 163.504 155.489 163.416C155.4 163.327 155.356 163.219 155.356 163.093V154.125C155.356 153.998 155.4 153.89 155.489 153.802C155.578 153.713 155.685 153.669 155.812 153.669H157.37C157.497 153.669 157.604 153.713 157.693 153.802C157.782 153.89 157.826 153.998 157.826 154.125V154.904C158.573 153.954 159.631 153.479 160.999 153.479C162.164 153.479 163.089 153.865 163.773 154.638C164.457 155.398 164.799 156.436 164.799 157.754V163.093C164.799 163.219 164.755 163.327 164.666 163.416C164.59 163.504 164.482 163.549 164.343 163.549H162.671C162.544 163.549 162.437 163.504 162.348 163.416C162.259 163.327 162.215 163.219 162.215 163.093V157.868C162.215 157.12 162.031 156.544 161.664 156.139C161.309 155.721 160.79 155.512 160.106 155.512C159.435 155.512 158.903 155.721 158.51 156.139C158.13 156.557 157.94 157.133 157.94 157.868V163.093C157.94 163.219 157.896 163.327 157.807 163.416C157.731 163.504 157.623 163.549 157.484 163.549H155.812ZM170.955 163.739C170.005 163.739 169.207 163.599 168.561 163.321C167.915 163.029 167.434 162.694 167.117 162.314C166.813 161.921 166.661 161.585 166.661 161.307C166.661 161.18 166.706 161.079 166.794 161.003C166.883 160.927 166.984 160.889 167.098 160.889H168.599C168.713 160.889 168.808 160.933 168.884 161.022C168.935 161.06 169.068 161.174 169.283 161.364C169.499 161.566 169.752 161.725 170.043 161.839C170.335 161.953 170.658 162.01 171.012 162.01C171.519 162.01 171.937 161.908 172.266 161.706C172.596 161.503 172.76 161.224 172.76 160.87C172.76 160.604 172.684 160.388 172.532 160.224C172.393 160.059 172.133 159.913 171.753 159.787C171.373 159.647 170.81 159.502 170.062 159.35C168.986 159.122 168.188 158.773 167.668 158.305C167.162 157.836 166.908 157.215 166.908 156.443C166.908 155.936 167.06 155.461 167.364 155.018C167.668 154.562 168.118 154.194 168.713 153.916C169.321 153.624 170.043 153.479 170.879 153.479C171.728 153.479 172.463 153.618 173.083 153.897C173.704 154.163 174.173 154.486 174.489 154.866C174.819 155.233 174.983 155.562 174.983 155.854C174.983 155.968 174.939 156.069 174.85 156.158C174.774 156.234 174.679 156.272 174.565 156.272H173.159C173.058 156.272 172.95 156.227 172.836 156.139C172.748 156.075 172.608 155.955 172.418 155.778C172.228 155.6 172.007 155.461 171.753 155.36C171.5 155.258 171.202 155.208 170.86 155.208C170.392 155.208 170.024 155.309 169.758 155.512C169.505 155.714 169.378 155.98 169.378 156.31C169.378 156.55 169.442 156.747 169.568 156.899C169.695 157.051 169.942 157.196 170.309 157.336C170.677 157.475 171.228 157.614 171.962 157.754C173.178 157.994 174.046 158.368 174.565 158.875C175.097 159.381 175.363 160.002 175.363 160.737C175.363 161.623 174.977 162.345 174.204 162.903C173.432 163.46 172.349 163.739 170.955 163.739ZM185.761 163.549C184.608 163.549 183.74 163.251 183.158 162.656C182.588 162.048 182.303 161.161 182.303 159.996V155.683H180.802C180.675 155.683 180.567 155.638 180.479 155.55C180.39 155.448 180.346 155.334 180.346 155.208V154.125C180.346 153.998 180.39 153.89 180.479 153.802C180.567 153.713 180.675 153.669 180.802 153.669H182.303V150.515C182.303 150.375 182.347 150.268 182.436 150.192C182.524 150.103 182.632 150.059 182.759 150.059H184.298C184.437 150.059 184.545 150.103 184.621 150.192C184.709 150.268 184.754 150.375 184.754 150.515V153.669H187.129C187.268 153.669 187.376 153.713 187.452 153.802C187.54 153.878 187.585 153.985 187.585 154.125V155.208C187.585 155.347 187.54 155.461 187.452 155.55C187.363 155.638 187.255 155.683 187.129 155.683H184.754V159.806C184.754 160.35 184.849 160.762 185.039 161.041C185.229 161.319 185.545 161.459 185.989 161.459H187.3C187.426 161.459 187.534 161.503 187.623 161.592C187.711 161.68 187.756 161.788 187.756 161.915V163.093C187.756 163.219 187.711 163.327 187.623 163.416C187.547 163.504 187.439 163.549 187.3 163.549H185.761ZM193.811 163.739C192.329 163.739 191.183 163.359 190.372 162.599C189.561 161.826 189.124 160.775 189.061 159.445L189.042 158.609L189.061 157.773C189.124 156.455 189.568 155.41 190.391 154.638C191.214 153.865 192.354 153.479 193.811 153.479C195.268 153.479 196.408 153.865 197.231 154.638C198.054 155.41 198.498 156.455 198.561 157.773C198.574 157.925 198.58 158.203 198.58 158.609C198.58 159.014 198.574 159.293 198.561 159.445C198.498 160.775 198.061 161.826 197.25 162.599C196.439 163.359 195.293 163.739 193.811 163.739ZM193.811 161.858C194.482 161.858 195.002 161.649 195.369 161.231C195.736 160.8 195.939 160.173 195.977 159.35C195.99 159.223 195.996 158.976 195.996 158.609C195.996 158.241 195.99 157.994 195.977 157.868C195.939 157.044 195.736 156.424 195.369 156.006C195.002 155.575 194.482 155.36 193.811 155.36C193.14 155.36 192.62 155.575 192.253 156.006C191.886 156.424 191.683 157.044 191.645 157.868L191.626 158.609L191.645 159.35C191.683 160.173 191.886 160.8 192.253 161.231C192.62 161.649 193.14 161.858 193.811 161.858ZM208.694 163.739C207.529 163.739 206.61 163.359 205.939 162.599C205.268 161.826 204.932 160.781 204.932 159.464V154.125C204.932 153.998 204.976 153.89 205.065 153.802C205.154 153.713 205.261 153.669 205.388 153.669H207.06C207.199 153.669 207.307 153.713 207.383 153.802C207.472 153.878 207.516 153.985 207.516 154.125V159.35C207.516 160.92 208.206 161.706 209.587 161.706C210.246 161.706 210.765 161.497 211.145 161.079C211.538 160.661 211.734 160.084 211.734 159.35V154.125C211.734 153.998 211.778 153.89 211.867 153.802C211.956 153.713 212.063 153.669 212.19 153.669H213.862C214.001 153.669 214.109 153.713 214.185 153.802C214.274 153.878 214.318 153.985 214.318 154.125V163.093C214.318 163.219 214.274 163.327 214.185 163.416C214.109 163.504 214.001 163.549 213.862 163.549H212.323C212.196 163.549 212.089 163.504 212 163.416C211.911 163.327 211.867 163.219 211.867 163.093V162.314C211.158 163.264 210.1 163.739 208.694 163.739ZM217.284 163.549C217.157 163.549 217.049 163.504 216.961 163.416C216.872 163.327 216.828 163.219 216.828 163.093V154.125C216.828 153.998 216.872 153.89 216.961 153.802C217.049 153.713 217.157 153.669 217.284 153.669H218.842C218.968 153.669 219.076 153.713 219.165 153.802C219.253 153.89 219.298 153.998 219.298 154.125V154.904C220.045 153.954 221.103 153.479 222.471 153.479C223.636 153.479 224.561 153.865 225.245 154.638C225.929 155.398 226.271 156.436 226.271 157.754V163.093C226.271 163.219 226.226 163.327 226.138 163.416C226.062 163.504 225.954 163.549 225.815 163.549H224.143C224.016 163.549 223.908 163.504 223.82 163.416C223.731 163.327 223.687 163.219 223.687 163.093V157.868C223.687 157.12 223.503 156.544 223.136 156.139C222.781 155.721 222.262 155.512 221.578 155.512C220.906 155.512 220.374 155.721 219.982 156.139C219.602 156.557 219.412 157.133 219.412 157.868V163.093C219.412 163.219 219.367 163.327 219.279 163.416C219.203 163.504 219.095 163.549 218.956 163.549H217.284ZM229.159 163.549C229.033 163.549 228.925 163.504 228.836 163.416C228.748 163.327 228.703 163.219 228.703 163.093V150.515C228.703 150.375 228.748 150.268 228.836 150.192C228.925 150.103 229.033 150.059 229.159 150.059H230.736C230.876 150.059 230.983 150.103 231.059 150.192C231.148 150.268 231.192 150.375 231.192 150.515V163.093C231.192 163.219 231.148 163.327 231.059 163.416C230.983 163.504 230.876 163.549 230.736 163.549H229.159ZM238.082 163.739C236.6 163.739 235.454 163.359 234.643 162.599C233.833 161.826 233.396 160.775 233.332 159.445L233.313 158.609L233.332 157.773C233.396 156.455 233.839 155.41 234.662 154.638C235.486 153.865 236.626 153.479 238.082 153.479C239.539 153.479 240.679 153.865 241.502 154.638C242.326 155.41 242.769 156.455 242.832 157.773C242.845 157.925 242.851 158.203 242.851 158.609C242.851 159.014 242.845 159.293 242.832 159.445C242.769 160.775 242.332 161.826 241.521 162.599C240.711 163.359 239.564 163.739 238.082 163.739ZM238.082 161.858C238.754 161.858 239.273 161.649 239.64 161.231C240.008 160.8 240.21 160.173 240.248 159.35C240.261 159.223 240.267 158.976 240.267 158.609C240.267 158.241 240.261 157.994 240.248 157.868C240.21 157.044 240.008 156.424 239.64 156.006C239.273 155.575 238.754 155.36 238.082 155.36C237.411 155.36 236.892 155.575 236.524 156.006C236.157 156.424 235.954 157.044 235.916 157.868L235.897 158.609L235.916 159.35C235.954 160.173 236.157 160.8 236.524 161.231C236.892 161.649 237.411 161.858 238.082 161.858ZM249.232 163.739C247.838 163.739 246.724 163.352 245.888 162.58C245.064 161.807 244.627 160.737 244.577 159.369L244.558 158.609L244.577 157.849C244.627 156.481 245.064 155.41 245.888 154.638C246.724 153.865 247.838 153.479 249.232 153.479C250.22 153.479 251.056 153.656 251.74 154.011C252.436 154.365 252.949 154.802 253.279 155.322C253.621 155.828 253.804 156.31 253.83 156.766C253.842 156.892 253.798 157 253.697 157.089C253.608 157.177 253.5 157.222 253.374 157.222H251.702C251.575 157.222 251.474 157.196 251.398 157.146C251.334 157.082 251.271 156.981 251.208 156.842C251.018 156.348 250.764 155.993 250.448 155.778C250.144 155.562 249.751 155.455 249.27 155.455C248.624 155.455 248.117 155.664 247.75 156.082C247.382 156.487 247.186 157.108 247.161 157.944L247.142 158.647L247.161 159.274C247.211 160.933 247.914 161.763 249.27 161.763C249.764 161.763 250.163 161.655 250.467 161.44C250.771 161.224 251.018 160.87 251.208 160.376C251.271 160.236 251.334 160.141 251.398 160.091C251.474 160.027 251.575 159.996 251.702 159.996H253.374C253.5 159.996 253.608 160.04 253.697 160.129C253.798 160.217 253.842 160.325 253.83 160.452C253.804 160.895 253.627 161.37 253.298 161.877C252.968 162.383 252.462 162.82 251.778 163.188C251.094 163.555 250.245 163.739 249.232 163.739ZM256.286 163.549C256.159 163.549 256.052 163.504 255.963 163.416C255.874 163.327 255.83 163.219 255.83 163.093V150.515C255.83 150.375 255.874 150.268 255.963 150.192C256.052 150.103 256.159 150.059 256.286 150.059H257.825C257.964 150.059 258.072 150.103 258.148 150.192C258.237 150.268 258.281 150.375 258.281 150.515V157.013L261.473 153.992C261.511 153.966 261.574 153.916 261.663 153.84C261.739 153.776 261.815 153.732 261.891 153.707C261.967 153.681 262.062 153.669 262.176 153.669H263.943C264.07 153.669 264.171 153.707 264.247 153.783C264.323 153.859 264.361 153.96 264.361 154.087C264.361 154.201 264.298 154.315 264.171 154.429L260.257 158.096L264.646 162.808C264.773 162.934 264.836 163.042 264.836 163.131C264.836 163.257 264.792 163.359 264.703 163.435C264.627 163.511 264.532 163.549 264.418 163.549H262.613C262.436 163.549 262.303 163.53 262.214 163.492C262.138 163.441 262.037 163.352 261.91 163.226L258.281 159.407V163.093C258.281 163.219 258.237 163.327 258.148 163.416C258.072 163.504 257.964 163.549 257.825 163.549H256.286ZM83.9231 186.549C82.7704 186.549 81.9028 186.251 81.3201 185.656C80.7501 185.048 80.4651 184.161 80.4651 182.996V178.683H78.9641C78.8374 178.683 78.7298 178.638 78.6411 178.55C78.5524 178.448 78.5081 178.334 78.5081 178.208V177.125C78.5081 176.998 78.5524 176.89 78.6411 176.802C78.7298 176.713 78.8374 176.669 78.9641 176.669H80.4651V173.515C80.4651 173.375 80.5094 173.268 80.5981 173.192C80.6868 173.103 80.7944 173.059 80.9211 173.059H82.4601C82.5994 173.059 82.7071 173.103 82.7831 173.192C82.8718 173.268 82.9161 173.375 82.9161 173.515V176.669H85.2911C85.4304 176.669 85.5381 176.713 85.6141 176.802C85.7028 176.878 85.7471 176.985 85.7471 177.125V178.208C85.7471 178.347 85.7028 178.461 85.6141 178.55C85.5254 178.638 85.4178 178.683 85.2911 178.683H82.9161V182.806C82.9161 183.35 83.0111 183.762 83.2011 184.041C83.3911 184.319 83.7078 184.459 84.1511 184.459H85.4621C85.5888 184.459 85.6964 184.503 85.7851 184.592C85.8738 184.68 85.9181 184.788 85.9181 184.915V186.093C85.9181 186.219 85.8738 186.327 85.7851 186.416C85.7091 186.504 85.6014 186.549 85.4621 186.549H83.9231ZM88.0786 186.549C87.9519 186.549 87.8443 186.504 87.7556 186.416C87.6669 186.327 87.6226 186.219 87.6226 186.093V173.515C87.6226 173.375 87.6669 173.268 87.7556 173.192C87.8443 173.103 87.9519 173.059 88.0786 173.059H89.7696C89.9089 173.059 90.0166 173.103 90.0926 173.192C90.1813 173.268 90.2256 173.375 90.2256 173.515V177.847C90.9856 176.935 92.0116 176.479 93.3036 176.479C94.4689 176.479 95.3999 176.865 96.0966 177.638C96.7933 178.398 97.1416 179.436 97.1416 180.754V186.093C97.1416 186.219 97.0973 186.327 97.0086 186.416C96.9326 186.504 96.8249 186.549 96.6856 186.549H94.9756C94.8489 186.549 94.7413 186.504 94.6526 186.416C94.5639 186.327 94.5196 186.219 94.5196 186.093V180.868C94.5196 180.12 94.3359 179.544 93.9686 179.139C93.6139 178.721 93.0946 178.512 92.4106 178.512C91.7393 178.512 91.2073 178.721 90.8146 179.139C90.4219 179.557 90.2256 180.133 90.2256 180.868V186.093C90.2256 186.219 90.1813 186.327 90.0926 186.416C90.0166 186.504 89.9089 186.549 89.7696 186.549H88.0786ZM99.9328 175.035C99.8062 175.035 99.6985 174.99 99.6098 174.902C99.5212 174.813 99.4768 174.705 99.4768 174.579V173.211C99.4768 173.084 99.5212 172.976 99.6098 172.888C99.6985 172.799 99.8062 172.755 99.9328 172.755H101.662C101.788 172.755 101.896 172.799 101.985 172.888C102.086 172.976 102.137 173.084 102.137 173.211V174.579C102.137 174.705 102.092 174.813 102.004 174.902C101.915 174.99 101.801 175.035 101.662 175.035H99.9328ZM100.009 186.549C99.8822 186.549 99.7745 186.504 99.6858 186.416C99.5972 186.327 99.5528 186.219 99.5528 186.093V177.125C99.5528 176.998 99.5972 176.89 99.6858 176.802C99.7745 176.713 99.8822 176.669 100.009 176.669H101.586C101.725 176.669 101.833 176.713 101.909 176.802C101.997 176.878 102.042 176.985 102.042 177.125V186.093C102.042 186.219 101.997 186.327 101.909 186.416C101.833 186.504 101.725 186.549 101.586 186.549H100.009ZM108.306 186.739C107.356 186.739 106.558 186.599 105.912 186.321C105.266 186.029 104.784 185.694 104.468 185.314C104.164 184.921 104.012 184.585 104.012 184.307C104.012 184.18 104.056 184.079 104.145 184.003C104.233 183.927 104.335 183.889 104.449 183.889H105.95C106.064 183.889 106.159 183.933 106.235 184.022C106.285 184.06 106.418 184.174 106.634 184.364C106.849 184.566 107.102 184.725 107.394 184.839C107.685 184.953 108.008 185.01 108.363 185.01C108.869 185.01 109.287 184.908 109.617 184.706C109.946 184.503 110.111 184.224 110.111 183.87C110.111 183.604 110.035 183.388 109.883 183.224C109.743 183.059 109.484 182.913 109.104 182.787C108.724 182.647 108.16 182.502 107.413 182.35C106.336 182.122 105.538 181.773 105.019 181.305C104.512 180.836 104.259 180.215 104.259 179.443C104.259 178.936 104.411 178.461 104.715 178.018C105.019 177.562 105.468 177.194 106.064 176.916C106.672 176.624 107.394 176.479 108.23 176.479C109.078 176.479 109.813 176.618 110.434 176.897C111.054 177.163 111.523 177.486 111.84 177.866C112.169 178.233 112.334 178.562 112.334 178.854C112.334 178.968 112.289 179.069 112.201 179.158C112.125 179.234 112.03 179.272 111.916 179.272H110.51C110.408 179.272 110.301 179.227 110.187 179.139C110.098 179.075 109.959 178.955 109.769 178.778C109.579 178.6 109.357 178.461 109.104 178.36C108.85 178.258 108.553 178.208 108.211 178.208C107.742 178.208 107.375 178.309 107.109 178.512C106.855 178.714 106.729 178.98 106.729 179.31C106.729 179.55 106.792 179.747 106.919 179.899C107.045 180.051 107.292 180.196 107.66 180.336C108.027 180.475 108.578 180.614 109.313 180.754C110.529 180.994 111.396 181.368 111.916 181.875C112.448 182.381 112.714 183.002 112.714 183.737C112.714 184.623 112.327 185.345 111.555 185.903C110.782 186.46 109.699 186.739 108.306 186.739ZM123.273 186.739C121.867 186.739 120.746 186.333 119.91 185.523C119.086 184.699 118.649 183.547 118.599 182.065L118.58 181.59L118.599 181.115C118.662 179.671 119.105 178.537 119.929 177.714C120.765 176.89 121.879 176.479 123.273 176.479C124.767 176.479 125.92 176.935 126.731 177.847C127.554 178.759 127.966 179.975 127.966 181.495V181.894C127.966 182.02 127.921 182.128 127.833 182.217C127.744 182.305 127.63 182.35 127.491 182.35H121.183V182.502C121.208 183.198 121.398 183.787 121.753 184.269C122.12 184.737 122.62 184.972 123.254 184.972C124.001 184.972 124.603 184.68 125.059 184.098C125.173 183.958 125.261 183.87 125.325 183.832C125.401 183.794 125.508 183.775 125.648 183.775H127.282C127.396 183.775 127.491 183.813 127.567 183.889C127.655 183.952 127.7 184.034 127.7 184.136C127.7 184.44 127.516 184.801 127.149 185.219C126.794 185.624 126.281 185.979 125.61 186.283C124.938 186.587 124.159 186.739 123.273 186.739ZM125.382 180.754V180.697C125.382 179.949 125.192 179.348 124.812 178.892C124.444 178.436 123.931 178.208 123.273 178.208C122.614 178.208 122.101 178.436 121.734 178.892C121.366 179.348 121.183 179.949 121.183 180.697V180.754H125.382ZM129.305 186.549C129.191 186.549 129.089 186.511 129.001 186.435C128.925 186.346 128.887 186.245 128.887 186.131C128.887 186.017 128.931 185.909 129.02 185.808L132.25 181.476L129.248 177.41C129.172 177.308 129.134 177.201 129.134 177.087C129.134 176.973 129.172 176.878 129.248 176.802C129.336 176.713 129.438 176.669 129.552 176.669H131.205C131.331 176.669 131.426 176.7 131.49 176.764C131.566 176.814 131.642 176.89 131.718 176.992L133.865 179.842L136.012 176.992C136.024 176.979 136.075 176.922 136.164 176.821C136.24 176.719 136.36 176.669 136.525 176.669H138.102C138.216 176.669 138.311 176.713 138.387 176.802C138.475 176.878 138.52 176.966 138.52 177.068C138.52 177.194 138.482 177.308 138.406 177.41L135.366 181.514L138.615 185.808C138.703 185.909 138.748 186.017 138.748 186.131C138.748 186.245 138.703 186.346 138.615 186.435C138.539 186.511 138.444 186.549 138.33 186.549H136.601C136.398 186.549 136.227 186.447 136.088 186.245L133.808 183.224L131.49 186.245C131.35 186.447 131.179 186.549 130.977 186.549H129.305ZM140.922 190.159C140.796 190.159 140.688 190.114 140.599 190.026C140.511 189.95 140.466 189.842 140.466 189.703V177.125C140.466 176.985 140.511 176.878 140.599 176.802C140.688 176.713 140.796 176.669 140.922 176.669H142.423C142.563 176.669 142.67 176.713 142.746 176.802C142.835 176.878 142.879 176.985 142.879 177.125V177.885C143.589 176.947 144.602 176.479 145.919 176.479C147.199 176.479 148.18 176.884 148.864 177.695C149.548 178.493 149.916 179.576 149.966 180.944C149.979 181.096 149.985 181.317 149.985 181.609C149.985 181.913 149.979 182.141 149.966 182.293C149.916 183.623 149.548 184.699 148.864 185.523C148.18 186.333 147.199 186.739 145.919 186.739C144.64 186.739 143.665 186.289 142.993 185.39V189.703C142.993 189.842 142.949 189.95 142.86 190.026C142.784 190.114 142.677 190.159 142.537 190.159H140.922ZM145.216 184.706C146.584 184.706 147.313 183.863 147.401 182.179C147.414 182.052 147.42 181.862 147.42 181.609C147.42 181.355 147.414 181.165 147.401 181.039C147.313 179.354 146.584 178.512 145.216 178.512C144.482 178.512 143.937 178.746 143.582 179.215C143.228 179.683 143.031 180.26 142.993 180.944L142.974 181.666L142.993 182.407C143.019 183.04 143.215 183.585 143.582 184.041C143.962 184.484 144.507 184.706 145.216 184.706ZM156.374 186.739C154.968 186.739 153.847 186.333 153.011 185.523C152.188 184.699 151.751 183.547 151.7 182.065L151.681 181.59L151.7 181.115C151.764 179.671 152.207 178.537 153.03 177.714C153.866 176.89 154.981 176.479 156.374 176.479C157.869 176.479 159.022 176.935 159.832 177.847C160.656 178.759 161.067 179.975 161.067 181.495V181.894C161.067 182.02 161.023 182.128 160.934 182.217C160.846 182.305 160.732 182.35 160.592 182.35H154.284V182.502C154.31 183.198 154.5 183.787 154.854 184.269C155.222 184.737 155.722 184.972 156.355 184.972C157.103 184.972 157.704 184.68 158.16 184.098C158.274 183.958 158.363 183.87 158.426 183.832C158.502 183.794 158.61 183.775 158.749 183.775H160.383C160.497 183.775 160.592 183.813 160.668 183.889C160.757 183.952 160.801 184.034 160.801 184.136C160.801 184.44 160.618 184.801 160.25 185.219C159.896 185.624 159.383 185.979 158.711 186.283C158.04 186.587 157.261 186.739 156.374 186.739ZM158.483 180.754V180.697C158.483 179.949 158.293 179.348 157.913 178.892C157.546 178.436 157.033 178.208 156.374 178.208C155.716 178.208 155.203 178.436 154.835 178.892C154.468 179.348 154.284 179.949 154.284 180.697V180.754H158.483ZM163.54 186.549C163.413 186.549 163.306 186.504 163.217 186.416C163.128 186.327 163.084 186.219 163.084 186.093V177.144C163.084 177.017 163.128 176.909 163.217 176.821C163.306 176.719 163.413 176.669 163.54 176.669H165.079C165.218 176.669 165.332 176.713 165.421 176.802C165.51 176.89 165.554 177.004 165.554 177.144V177.923C165.858 177.517 166.238 177.207 166.694 176.992C167.163 176.776 167.695 176.669 168.29 176.669H169.069C169.208 176.669 169.316 176.713 169.392 176.802C169.481 176.878 169.525 176.985 169.525 177.125V178.493C169.525 178.619 169.481 178.727 169.392 178.816C169.316 178.904 169.208 178.949 169.069 178.949H167.587C166.992 178.949 166.523 179.12 166.181 179.462C165.839 179.804 165.668 180.272 165.668 180.868V186.093C165.668 186.219 165.624 186.327 165.535 186.416C165.446 186.504 165.332 186.549 165.193 186.549H163.54ZM171.387 175.035C171.26 175.035 171.153 174.99 171.064 174.902C170.975 174.813 170.931 174.705 170.931 174.579V173.211C170.931 173.084 170.975 172.976 171.064 172.888C171.153 172.799 171.26 172.755 171.387 172.755H173.116C173.243 172.755 173.35 172.799 173.439 172.888C173.54 172.976 173.591 173.084 173.591 173.211V174.579C173.591 174.705 173.547 174.813 173.458 174.902C173.369 174.99 173.255 175.035 173.116 175.035H171.387ZM171.463 186.549C171.336 186.549 171.229 186.504 171.14 186.416C171.051 186.327 171.007 186.219 171.007 186.093V177.125C171.007 176.998 171.051 176.89 171.14 176.802C171.229 176.713 171.336 176.669 171.463 176.669H173.04C173.179 176.669 173.287 176.713 173.363 176.802C173.452 176.878 173.496 176.985 173.496 177.125V186.093C173.496 186.219 173.452 186.327 173.363 186.416C173.287 186.504 173.179 186.549 173.04 186.549H171.463ZM180.273 186.739C178.867 186.739 177.746 186.333 176.91 185.523C176.086 184.699 175.649 183.547 175.599 182.065L175.58 181.59L175.599 181.115C175.662 179.671 176.105 178.537 176.929 177.714C177.765 176.89 178.879 176.479 180.273 176.479C181.767 176.479 182.92 176.935 183.731 177.847C184.554 178.759 184.966 179.975 184.966 181.495V181.894C184.966 182.02 184.921 182.128 184.833 182.217C184.744 182.305 184.63 182.35 184.491 182.35H178.183V182.502C178.208 183.198 178.398 183.787 178.753 184.269C179.12 184.737 179.62 184.972 180.254 184.972C181.001 184.972 181.603 184.68 182.059 184.098C182.173 183.958 182.261 183.87 182.325 183.832C182.401 183.794 182.508 183.775 182.648 183.775H184.282C184.396 183.775 184.491 183.813 184.567 183.889C184.655 183.952 184.7 184.034 184.7 184.136C184.7 184.44 184.516 184.801 184.149 185.219C183.794 185.624 183.281 185.979 182.61 186.283C181.938 186.587 181.159 186.739 180.273 186.739ZM182.382 180.754V180.697C182.382 179.949 182.192 179.348 181.812 178.892C181.444 178.436 180.931 178.208 180.273 178.208C179.614 178.208 179.101 178.436 178.734 178.892C178.366 179.348 178.183 179.949 178.183 180.697V180.754H182.382ZM187.439 186.549C187.312 186.549 187.204 186.504 187.116 186.416C187.027 186.327 186.983 186.219 186.983 186.093V177.125C186.983 176.998 187.027 176.89 187.116 176.802C187.204 176.713 187.312 176.669 187.439 176.669H188.997C189.123 176.669 189.231 176.713 189.32 176.802C189.408 176.89 189.453 176.998 189.453 177.125V177.904C190.2 176.954 191.258 176.479 192.626 176.479C193.791 176.479 194.716 176.865 195.4 177.638C196.084 178.398 196.426 179.436 196.426 180.754V186.093C196.426 186.219 196.381 186.327 196.293 186.416C196.217 186.504 196.109 186.549 195.97 186.549H194.298C194.171 186.549 194.063 186.504 193.975 186.416C193.886 186.327 193.842 186.219 193.842 186.093V180.868C193.842 180.12 193.658 179.544 193.291 179.139C192.936 178.721 192.417 178.512 191.733 178.512C191.061 178.512 190.529 178.721 190.137 179.139C189.757 179.557 189.567 180.133 189.567 180.868V186.093C189.567 186.219 189.522 186.327 189.434 186.416C189.358 186.504 189.25 186.549 189.111 186.549H187.439ZM203.114 186.739C201.721 186.739 200.606 186.352 199.77 185.58C198.947 184.807 198.51 183.737 198.459 182.369L198.44 181.609L198.459 180.849C198.51 179.481 198.947 178.41 199.77 177.638C200.606 176.865 201.721 176.479 203.114 176.479C204.102 176.479 204.938 176.656 205.622 177.011C206.319 177.365 206.832 177.802 207.161 178.322C207.503 178.828 207.687 179.31 207.712 179.766C207.725 179.892 207.68 180 207.579 180.089C207.49 180.177 207.383 180.222 207.256 180.222H205.584C205.457 180.222 205.356 180.196 205.28 180.146C205.217 180.082 205.153 179.981 205.09 179.842C204.9 179.348 204.647 178.993 204.33 178.778C204.026 178.562 203.633 178.455 203.152 178.455C202.506 178.455 201.999 178.664 201.632 179.082C201.265 179.487 201.068 180.108 201.043 180.944L201.024 181.647L201.043 182.274C201.094 183.933 201.797 184.763 203.152 184.763C203.646 184.763 204.045 184.655 204.349 184.44C204.653 184.224 204.9 183.87 205.09 183.376C205.153 183.236 205.217 183.141 205.28 183.091C205.356 183.027 205.457 182.996 205.584 182.996H207.256C207.383 182.996 207.49 183.04 207.579 183.129C207.68 183.217 207.725 183.325 207.712 183.452C207.687 183.895 207.509 184.37 207.18 184.877C206.851 185.383 206.344 185.82 205.66 186.188C204.976 186.555 204.127 186.739 203.114 186.739ZM213.949 186.739C212.543 186.739 211.422 186.333 210.586 185.523C209.763 184.699 209.326 183.547 209.275 182.065L209.256 181.59L209.275 181.115C209.339 179.671 209.782 178.537 210.605 177.714C211.441 176.89 212.556 176.479 213.949 176.479C215.444 176.479 216.597 176.935 217.407 177.847C218.231 178.759 218.642 179.975 218.642 181.495V181.894C218.642 182.02 218.598 182.128 218.509 182.217C218.421 182.305 218.307 182.35 218.167 182.35H211.859V182.502C211.885 183.198 212.075 183.787 212.429 184.269C212.797 184.737 213.297 184.972 213.93 184.972C214.678 184.972 215.279 184.68 215.735 184.098C215.849 183.958 215.938 183.87 216.001 183.832C216.077 183.794 216.185 183.775 216.324 183.775H217.958C218.072 183.775 218.167 183.813 218.243 183.889C218.332 183.952 218.376 184.034 218.376 184.136C218.376 184.44 218.193 184.801 217.825 185.219C217.471 185.624 216.958 185.979 216.286 186.283C215.615 186.587 214.836 186.739 213.949 186.739ZM216.058 180.754V180.697C216.058 179.949 215.868 179.348 215.488 178.892C215.121 178.436 214.608 178.208 213.949 178.208C213.291 178.208 212.778 178.436 212.41 178.892C212.043 179.348 211.859 179.949 211.859 180.697V180.754H216.058ZM223.593 182.977C223.492 182.977 223.403 182.939 223.327 182.863C223.251 182.787 223.213 182.698 223.213 182.597V181.989C223.277 181.393 223.46 180.874 223.764 180.431C224.081 179.975 224.524 179.455 225.094 178.873C225.512 178.467 225.829 178.119 226.044 177.828C226.26 177.536 226.386 177.239 226.424 176.935C226.475 176.415 226.304 176.004 225.911 175.7C225.519 175.383 225.044 175.225 224.486 175.225C223.245 175.225 222.498 175.839 222.244 177.068C222.156 177.359 221.972 177.505 221.693 177.505H220.078C219.952 177.505 219.85 177.467 219.774 177.391C219.698 177.302 219.66 177.188 219.66 177.049C219.686 176.352 219.895 175.7 220.287 175.092C220.68 174.484 221.25 173.996 221.997 173.629C222.745 173.249 223.619 173.059 224.619 173.059C225.671 173.059 226.532 173.23 227.203 173.572C227.887 173.901 228.381 174.325 228.685 174.845C229.002 175.364 229.16 175.902 229.16 176.46C229.16 177.106 229.015 177.663 228.723 178.132C228.445 178.588 228.02 179.12 227.45 179.728C227.045 180.171 226.728 180.551 226.5 180.868C226.285 181.172 226.139 181.501 226.063 181.856C226.013 182.172 225.981 182.388 225.968 182.502C225.867 182.818 225.696 182.977 225.455 182.977H223.593ZM223.536 186.549C223.41 186.549 223.302 186.504 223.213 186.416C223.125 186.327 223.08 186.219 223.08 186.093V184.44C223.08 184.313 223.125 184.205 223.213 184.117C223.302 184.015 223.41 183.965 223.536 183.965H225.379C225.519 183.965 225.633 184.009 225.721 184.098C225.81 184.186 225.854 184.3 225.854 184.44V186.093C225.854 186.219 225.81 186.327 225.721 186.416C225.633 186.504 225.519 186.549 225.379 186.549H223.536Z" fill="#5423E2"/>
<rect x="73" y="215.549" width="160" height="41" fill="#5423E2"/>
<path d="M131.59 242.406C130.15 242.406 129.03 242.038 128.23 241.302C127.43 240.566 127.03 239.451 127.03 237.958V231.446C127.03 231.328 127.062 231.232 127.126 231.158C127.201 231.083 127.297 231.046 127.414 231.046H128.87C128.988 231.046 129.078 231.083 129.142 231.158C129.217 231.232 129.254 231.328 129.254 231.446V237.958C129.254 238.811 129.457 239.456 129.862 239.894C130.268 240.32 130.844 240.534 131.59 240.534C132.337 240.534 132.908 240.32 133.302 239.894C133.708 239.456 133.91 238.811 133.91 237.958V231.446C133.91 231.328 133.948 231.232 134.022 231.158C134.097 231.083 134.193 231.046 134.31 231.046H135.75C135.868 231.046 135.958 231.083 136.022 231.158C136.097 231.232 136.134 231.328 136.134 231.446V237.958C136.134 239.451 135.734 240.566 134.934 241.302C134.145 242.038 133.03 242.406 131.59 242.406ZM138.724 242.246C138.618 242.246 138.527 242.208 138.452 242.134C138.378 242.059 138.34 241.968 138.34 241.862V234.31C138.34 234.203 138.378 234.112 138.452 234.038C138.527 233.963 138.618 233.926 138.724 233.926H140.036C140.143 233.926 140.234 233.963 140.308 234.038C140.383 234.112 140.42 234.203 140.42 234.31V234.966C141.05 234.166 141.94 233.766 143.092 233.766C144.074 233.766 144.852 234.091 145.428 234.742C146.004 235.382 146.292 236.256 146.292 237.366V241.862C146.292 241.968 146.255 242.059 146.18 242.134C146.116 242.208 146.026 242.246 145.908 242.246H144.5C144.394 242.246 144.303 242.208 144.228 242.134C144.154 242.059 144.116 241.968 144.116 241.862V237.462C144.116 236.832 143.962 236.347 143.652 236.006C143.354 235.654 142.916 235.478 142.34 235.478C141.775 235.478 141.327 235.654 140.996 236.006C140.676 236.358 140.516 236.843 140.516 237.462V241.862C140.516 241.968 140.479 242.059 140.404 242.134C140.34 242.208 140.25 242.246 140.132 242.246H138.724ZM148.725 242.246C148.618 242.246 148.527 242.208 148.453 242.134C148.378 242.059 148.341 241.968 148.341 241.862V231.27C148.341 231.152 148.378 231.062 148.453 230.998C148.527 230.923 148.618 230.886 148.725 230.886H150.053C150.17 230.886 150.261 230.923 150.325 230.998C150.399 231.062 150.437 231.152 150.437 231.27V241.862C150.437 241.968 150.399 242.059 150.325 242.134C150.261 242.208 150.17 242.246 150.053 242.246H148.725ZM156.239 242.406C154.991 242.406 154.026 242.086 153.343 241.446C152.661 240.795 152.293 239.91 152.239 238.79L152.223 238.086L152.239 237.382C152.293 236.272 152.666 235.392 153.359 234.742C154.053 234.091 155.013 233.766 156.239 233.766C157.466 233.766 158.426 234.091 159.119 234.742C159.813 235.392 160.186 236.272 160.239 237.382C160.25 237.51 160.255 237.744 160.255 238.086C160.255 238.427 160.25 238.662 160.239 238.79C160.186 239.91 159.818 240.795 159.135 241.446C158.453 242.086 157.487 242.406 156.239 242.406ZM156.239 240.822C156.805 240.822 157.242 240.646 157.551 240.294C157.861 239.931 158.031 239.403 158.063 238.71C158.074 238.603 158.079 238.395 158.079 238.086C158.079 237.776 158.074 237.568 158.063 237.462C158.031 236.768 157.861 236.246 157.551 235.894C157.242 235.531 156.805 235.35 156.239 235.35C155.674 235.35 155.237 235.531 154.927 235.894C154.618 236.246 154.447 236.768 154.415 237.462L154.399 238.086L154.415 238.71C154.447 239.403 154.618 239.931 154.927 240.294C155.237 240.646 155.674 240.822 156.239 240.822ZM165.628 242.406C164.455 242.406 163.516 242.08 162.812 241.43C162.119 240.779 161.751 239.878 161.708 238.726L161.692 238.086L161.708 237.446C161.751 236.294 162.119 235.392 162.812 234.742C163.516 234.091 164.455 233.766 165.628 233.766C166.46 233.766 167.164 233.915 167.74 234.214C168.327 234.512 168.759 234.88 169.036 235.318C169.324 235.744 169.479 236.15 169.5 236.534C169.511 236.64 169.473 236.731 169.388 236.806C169.313 236.88 169.223 236.918 169.116 236.918H167.708C167.601 236.918 167.516 236.896 167.452 236.854C167.399 236.8 167.345 236.715 167.292 236.598C167.132 236.182 166.919 235.883 166.652 235.702C166.396 235.52 166.065 235.43 165.66 235.43C165.116 235.43 164.689 235.606 164.38 235.958C164.071 236.299 163.905 236.822 163.884 237.526L163.868 238.118L163.884 238.646C163.927 240.043 164.519 240.742 165.66 240.742C166.076 240.742 166.412 240.651 166.668 240.47C166.924 240.288 167.132 239.99 167.292 239.574C167.345 239.456 167.399 239.376 167.452 239.334C167.516 239.28 167.601 239.254 167.708 239.254H169.116C169.223 239.254 169.313 239.291 169.388 239.366C169.473 239.44 169.511 239.531 169.5 239.638C169.479 240.011 169.329 240.411 169.052 240.838C168.775 241.264 168.348 241.632 167.772 241.942C167.196 242.251 166.481 242.406 165.628 242.406ZM171.569 242.246C171.462 242.246 171.371 242.208 171.297 242.134C171.222 242.059 171.185 241.968 171.185 241.862V231.27C171.185 231.152 171.222 231.062 171.297 230.998C171.371 230.923 171.462 230.886 171.569 230.886H172.865C172.982 230.886 173.073 230.923 173.137 230.998C173.211 231.062 173.249 231.152 173.249 231.27V236.742L175.937 234.198C175.969 234.176 176.022 234.134 176.097 234.07C176.161 234.016 176.225 233.979 176.289 233.958C176.353 233.936 176.433 233.926 176.529 233.926H178.017C178.123 233.926 178.209 233.958 178.273 234.022C178.337 234.086 178.369 234.171 178.369 234.278C178.369 234.374 178.315 234.47 178.209 234.566L174.913 237.654L178.609 241.622C178.715 241.728 178.769 241.819 178.769 241.894C178.769 242 178.731 242.086 178.657 242.15C178.593 242.214 178.513 242.246 178.417 242.246H176.897C176.747 242.246 176.635 242.23 176.561 242.198C176.497 242.155 176.411 242.08 176.305 241.974L173.249 238.758V241.862C173.249 241.968 173.211 242.059 173.137 242.134C173.073 242.208 172.982 242.246 172.865 242.246H171.569Z" fill="white"/>
</svg>
