<svg width="52" height="61" viewBox="0 0 52 61" fill="none" xmlns="http://www.w3.org/2000/svg">
<rect width="52" height="61" fill="white"/>
<path fill-rule="evenodd" clip-rule="evenodd" d="M4.85714 13.1412C4.85714 5.88268 10.7418 0 18 0C25.2446 0 31.1429 5.88199 31.1429 13.1412V19.0103C31.1429 21.0038 29.8065 23.0476 27.7143 23.0476C25.6125 23.0476 24.2857 21.017 24.2857 19.0103V13.1429C24.2857 9.67282 21.464 6.85876 18 6.85876C14.5281 6.85876 11.7143 9.6662 11.7143 13.1429V24.2857H30.1453C33.3834 24.2935 36 26.9208 36 30.1574V46.3171C36 49.5786 33.3693 52.1889 30.1283 52.1889H5.87171C2.62674 52.1889 0 49.5601 0 46.3171V30.1574C0 27.244 2.09895 24.8506 4.85714 24.3726V13.1412ZM18 2C11.846 2 6.85714 6.9876 6.85714 13.1412V26.2827L5.86016 26.2857C3.72448 26.2922 2 28.0088 2 30.1574V46.3171C2 48.4559 3.73174 50.1889 5.87171 50.1889H30.1283C32.269 50.1889 34 48.4697 34 46.3171V30.1574C34 28.0225 32.2751 26.2917 30.1419 26.2857H9.86175L9.76397 25.3948C9.73075 25.0922 9.71429 24.7854 9.71429 24.4778V13.1429C9.71429 8.5599 13.4253 4.85876 18 4.85876C22.5665 4.85876 26.2857 8.56623 26.2857 13.1429V19.0103C26.2857 20.3583 27.1155 21.0476 27.7143 21.0476C28.3032 21.0476 29.1429 20.3455 29.1429 19.0103V13.1412C29.1429 6.98829 24.1417 2 18 2Z" transform="translate(8 5)" fill="black"/>
</svg>
