<svg width="306" height="304" viewBox="0 0 306 304" fill="none" xmlns="http://www.w3.org/2000/svg">
<g clip-path="url(#clip0)">
<circle cx="151.5" cy="60.5" r="57.5" transform="rotate(-24.8319 151.5 60.5)" fill="#FFE817"/>
<circle cx="151.5" cy="60.5" r="57.5" transform="rotate(-24.8319 151.5 60.5)" fill="url(#paint0_angular)"/>
<circle cx="151.5" cy="60.5" r="57.5" transform="rotate(155.168 151.5 60.5)" fill="url(#paint1_angular)"/>
<circle cx="151.5" cy="60.5" r="52.5" transform="rotate(-24.8319 151.5 60.5)" fill="#FFE817"/>
<circle cx="151.5" cy="60.5" r="47.5" transform="rotate(-24.8319 151.5 60.5)" fill="url(#paint2_linear)"/>
<circle cx="151.5" cy="60.5" r="47" transform="rotate(-24.8319 151.5 60.5)" stroke="black" stroke-opacity="0.03"/>
<g filter="url(#filter0_ii)">
<path d="M161.18 64.6152C157.834 51.9862 154.355 41.7693 150.743 33.9644C150.463 33.3594 150.212 32.8149 149.988 32.3308L148.21 28.9662C156 28.8141 162.402 28.2025 167.415 27.1312C170.161 34.9695 172.518 42.8409 174.486 50.7451C176.486 58.5609 177.77 64.4311 178.338 68.3557L179.279 74.2007C175.165 76.1045 171.175 78.8323 167.309 82.3842L165.376 84.1601L145.07 60.2799C146.367 67.6867 148.747 77.751 152.21 90.473C149.459 90.7178 146.448 90.6417 143.179 90.2445C139.882 89.7868 137.204 89.0794 135.145 88.1222C133.095 81.9455 131.408 75.6007 130.084 69.088C128.82 62.5473 128.077 57.5286 127.855 54.0321L127.473 48.9199C131.287 45.098 136.128 41.352 141.996 37.6818L161.18 64.6152Z" fill="#FFE817"/>
</g>
</g>
<defs>
<filter id="filter0_ii" x="114.903" y="21.3229" width="73.9717" height="75.2394" filterUnits="userSpaceOnUse" color-interpolation-filters="sRGB">
<feFlood flood-opacity="0" result="BackgroundImageFix"/>
<feBlend mode="normal" in="SourceGraphic" in2="BackgroundImageFix" result="shape"/>
<feColorMatrix in="SourceAlpha" type="matrix" values="0 0 0 0 0 0 0 0 0 0 0 0 0 0 0 0 0 0 127 0" result="hardAlpha"/>
<feOffset dx="0.5" dy="-0.5"/>
<feComposite in2="hardAlpha" operator="arithmetic" k2="-1" k3="1"/>
<feColorMatrix type="matrix" values="0 0 0 0 0 0 0 0 0 0 0 0 0 0 0 0 0 0 0.25 0"/>
<feBlend mode="normal" in2="shape" result="effect1_innerShadow"/>
<feColorMatrix in="SourceAlpha" type="matrix" values="0 0 0 0 0 0 0 0 0 0 0 0 0 0 0 0 0 0 127 0" result="hardAlpha"/>
<feOffset dx="-0.5" dy="0.5"/>
<feComposite in2="hardAlpha" operator="arithmetic" k2="-1" k3="1"/>
<feColorMatrix type="matrix" values="0 0 0 0 1 0 0 0 0 1 0 0 0 0 1 0 0 0 0.25 0"/>
<feBlend mode="normal" in2="effect1_innerShadow" result="effect2_innerShadow"/>
</filter>
<radialGradient id="paint0_angular" cx="0" cy="0" r="1" gradientUnits="userSpaceOnUse" gradientTransform="translate(151.5 60.5) rotate(90) scale(57.5)">
<stop stop-color="white" stop-opacity="0"/>
<stop offset="0.425414" stop-color="white" stop-opacity="0.451923"/>
<stop offset="0.574586" stop-color="white" stop-opacity="0.8"/>
<stop offset="0.685083" stop-color="white" stop-opacity="0"/>
</radialGradient>
<radialGradient id="paint1_angular" cx="0" cy="0" r="1" gradientUnits="userSpaceOnUse" gradientTransform="translate(151.5 60.5) rotate(90) scale(57.5)">
<stop stop-color="white" stop-opacity="0"/>
<stop offset="0.425414" stop-color="white" stop-opacity="0.451923"/>
<stop offset="0.574586" stop-color="white" stop-opacity="0.8"/>
<stop offset="0.685083" stop-color="white" stop-opacity="0"/>
</radialGradient>
<linearGradient id="paint2_linear" x1="172.75" y1="8.00001" x2="130.25" y2="114.25" gradientUnits="userSpaceOnUse">
<stop stop-color="#E9D312"/>
<stop offset="1" stop-color="#DCC80C"/>
</linearGradient>
<clipPath id="clip0">
<rect width="306" height="304" fill="white"/>
</clipPath>
</defs>
</svg>
