<svg width="52" height="61" viewBox="0 0 52 61" fill="none" xmlns="http://www.w3.org/2000/svg">
<path fill-rule="evenodd" clip-rule="evenodd" d="M12.8571 18.1412C12.8571 10.8827 18.7418 5 26 5C33.2446 5 39.1429 10.882 39.1429 18.1412V24.0103C39.1429 26.0038 37.8065 28.0476 35.7143 28.0476C33.6125 28.0476 32.2857 26.017 32.2857 24.0103V18.1429C32.2857 14.6728 29.464 11.8588 26 11.8588C22.5281 11.8588 19.7143 14.6662 19.7143 18.1429V29.2857H38.1453C41.3834 29.2935 44 31.9208 44 35.1574V51.3171C44 54.5786 41.3693 57.1889 38.1283 57.1889H13.8717C10.6267 57.1889 8 54.5601 8 51.3171V35.1574C8 32.244 10.099 29.8506 12.8571 29.3726V18.1412ZM26 7C19.846 7 14.8571 11.9876 14.8571 18.1412V31.2827L13.8602 31.2857C11.7245 31.2922 10 33.0088 10 35.1574V51.3171C10 53.4559 11.7317 55.1889 13.8717 55.1889H38.1283C40.269 55.1889 42 53.4697 42 51.3171V35.1574C42 33.0225 40.2751 31.2917 38.1419 31.2857H17.8618L17.764 30.3948C17.7308 30.0922 17.7143 29.7854 17.7143 29.4778V18.1429C17.7143 13.5599 21.4253 9.85876 26 9.85876C30.5665 9.85876 34.2857 13.5662 34.2857 18.1429V24.0103C34.2857 25.3583 35.1155 26.0476 35.7143 26.0476C36.3032 26.0476 37.1429 25.3455 37.1429 24.0103V18.1412C37.1429 11.9883 32.1417 7 26 7Z" fill="black"/>
</svg>
