<svg width="340" height="40" viewBox="0 0 340 40" fill="none" xmlns="http://www.w3.org/2000/svg">
<path d="M2.794 7.92C1.914 7.92 1.22833 7.71467 0.737 7.304C0.245667 6.886 0 6.30667 0 5.566C0 5.39 0.0183336 5.181 0.0550003 4.939C0.143 4.411 0.282334 3.75833 0.473001 2.981C0.707667 2.02767 1.13667 1.29433 1.76 0.781C2.38333 0.260333 3.19733 0 4.202 0C4.78133 0 5.28733 0.0916665 5.72 0.275C6.16 0.451 6.49733 0.700334 6.732 1.023C6.96667 1.34567 7.084 1.716 7.084 2.134C7.084 2.222 7.06933 2.36133 7.04 2.552C7.02533 2.618 6.996 2.673 6.952 2.717C6.91533 2.761 6.864 2.783 6.798 2.783H5.742C5.55867 2.783 5.467 2.695 5.467 2.519C5.51833 1.683 5.06367 1.265 4.103 1.265C3.58967 1.265 3.15333 1.408 2.794 1.694C2.43467 1.98 2.18167 2.42733 2.035 3.036C1.881 3.63733 1.749 4.25333 1.639 4.884C1.60233 5.104 1.584 5.28733 1.584 5.434C1.584 6.248 2.01667 6.655 2.882 6.655C3.33667 6.655 3.72533 6.55967 4.048 6.369C4.37067 6.17833 4.63467 5.85567 4.84 5.401C4.89133 5.29833 4.939 5.22867 4.983 5.192C5.03433 5.15533 5.104 5.137 5.192 5.137H6.259C6.325 5.137 6.37633 5.159 6.413 5.203C6.44233 5.23233 6.457 5.269 6.457 5.313C6.457 5.32767 6.45333 5.346 6.446 5.368C6.24067 6.13067 5.83 6.74667 5.214 7.216C4.598 7.68533 3.79133 7.92 2.794 7.92Z" transform="translate(0.795532 15.9631) rotate(-12.5)" fill="#5423E2"/>
<path d="M10.2808 7.92C9.45212 7.92 8.78112 7.722 8.26779 7.326C7.76179 6.92267 7.50879 6.33967 7.50879 5.577C7.50879 5.357 7.53079 5.13333 7.57479 4.906C7.67012 4.36333 7.80212 3.73633 7.97079 3.025C8.21279 2.02767 8.64546 1.276 9.26879 0.77C9.89212 0.256667 10.7025 0 11.6998 0C12.5285 0 13.1958 0.209 13.7018 0.627C14.2078 1.03767 14.4608 1.62433 14.4608 2.387C14.4608 2.62167 14.4425 2.83433 14.4058 3.025C14.3105 3.60433 14.1785 4.23133 14.0098 4.906C13.7605 5.918 13.3241 6.67333 12.7008 7.172C12.0848 7.67067 11.2781 7.92 10.2808 7.92ZM10.3798 6.655C10.8858 6.655 11.3185 6.50833 11.6778 6.215C12.0371 5.91433 12.2938 5.45967 12.4478 4.851C12.6091 4.16167 12.7338 3.56767 12.8218 3.069C12.8585 2.88567 12.8768 2.68767 12.8768 2.475C12.8768 1.66833 12.4515 1.265 11.6008 1.265C11.0948 1.265 10.6621 1.41533 10.3028 1.716C9.94346 2.00933 9.69046 2.46033 9.54379 3.069C9.38246 3.69233 9.25412 4.28633 9.15879 4.851C9.12212 5.03433 9.10379 5.23233 9.10379 5.445C9.10379 5.863 9.21012 6.171 9.42279 6.369C9.63546 6.55967 9.95446 6.655 10.3798 6.655Z" transform="translate(0.795532 15.9631) rotate(-12.5)" fill="#5423E2"/>
<path d="M15.1352 7.81C15.0546 7.81 14.9922 7.78433 14.9482 7.733C14.9116 7.68167 14.9006 7.61933 14.9152 7.546L16.4442 0.385C16.4589 0.304333 16.4956 0.238333 16.5542 0.187C16.6129 0.135667 16.6789 0.11 16.7522 0.11H17.5882C17.7349 0.11 17.8302 0.168667 17.8742 0.286L20.0082 5.258L21.0532 0.385C21.0679 0.304333 21.1046 0.238333 21.1632 0.187C21.2219 0.135667 21.2916 0.11 21.3722 0.11H22.2962C22.3769 0.11 22.4356 0.135667 22.4722 0.187C22.5016 0.223667 22.5162 0.267667 22.5162 0.319C22.5162 0.341 22.5126 0.363 22.5052 0.385L20.9872 7.535C20.9726 7.61567 20.9359 7.68167 20.8772 7.733C20.8186 7.78433 20.7489 7.81 20.6682 7.81H19.8322C19.6856 7.81 19.5902 7.75133 19.5462 7.634L17.4012 2.772L16.3892 7.546C16.3746 7.62667 16.3342 7.69267 16.2682 7.744C16.2096 7.788 16.1436 7.81 16.0702 7.81H15.1352Z" transform="translate(0.795532 15.9631) rotate(-12.5)" fill="#5423E2"/>
<path d="M25.4203 7.92C24.8116 7.92 24.2946 7.83567 23.8693 7.667C23.444 7.49833 23.1213 7.27467 22.9013 6.996C22.6886 6.71 22.5823 6.39467 22.5823 6.05C22.5823 5.99867 22.5896 5.91433 22.6043 5.797C22.6116 5.731 22.6373 5.676 22.6813 5.632C22.7326 5.588 22.7913 5.566 22.8573 5.566H23.8693C23.95 5.566 24.0123 5.58433 24.0563 5.621C24.1003 5.65767 24.1333 5.709 24.1553 5.775C24.1846 6.017 24.3093 6.226 24.5293 6.402C24.7566 6.57067 25.0866 6.655 25.5193 6.655C26.04 6.655 26.4543 6.57067 26.7623 6.402C27.0776 6.226 27.2683 5.984 27.3343 5.676C27.349 5.588 27.3563 5.52933 27.3563 5.5C27.3563 5.33867 27.294 5.203 27.1693 5.093C27.052 4.983 26.8723 4.884 26.6303 4.796C26.3883 4.708 26.04 4.60167 25.5853 4.477C24.9033 4.301 24.39 4.06633 24.0453 3.773C23.708 3.47233 23.5393 3.08733 23.5393 2.618C23.5393 2.44933 23.5613 2.27333 23.6053 2.09C23.7373 1.44467 24.0783 0.935 24.6283 0.561C25.1856 0.187 25.9006 0 26.7733 0C27.316 0 27.789 0.0953334 28.1923 0.286C28.5956 0.469333 28.9036 0.707667 29.1163 1.001C29.329 1.287 29.4353 1.57667 29.4353 1.87C29.4353 1.914 29.428 1.98 29.4133 2.068C29.3986 2.134 29.3693 2.189 29.3253 2.233C29.2813 2.277 29.2263 2.299 29.1603 2.299H28.1153C27.9613 2.299 27.866 2.22933 27.8293 2.09C27.8366 1.86267 27.7303 1.66833 27.5103 1.507C27.2976 1.34567 27.0226 1.265 26.6853 1.265C26.2673 1.265 25.919 1.342 25.6403 1.496C25.369 1.65 25.2003 1.87367 25.1343 2.167C25.1196 2.255 25.1123 2.321 25.1123 2.365C25.1123 2.59233 25.2296 2.77567 25.4643 2.915C25.699 3.05433 26.1133 3.20467 26.7073 3.366C27.4846 3.54933 28.0493 3.784 28.4013 4.07C28.7606 4.356 28.9403 4.73733 28.9403 5.214C28.9403 5.40467 28.922 5.577 28.8853 5.731C28.7313 6.44967 28.3573 6.996 27.7633 7.37C27.1766 7.73667 26.3956 7.92 25.4203 7.92Z" transform="translate(0.795532 15.9631) rotate(-12.5)" fill="#5423E2"/>
<path d="M32.8632 7.92C32.0272 7.92 31.3672 7.73667 30.8832 7.37C30.3992 6.996 30.1572 6.44233 30.1572 5.709C30.1572 5.45233 30.1902 5.17 30.2562 4.862L31.2022 0.385C31.2169 0.304333 31.2535 0.238333 31.3122 0.187C31.3782 0.135667 31.4479 0.11 31.5212 0.11H32.5222C32.6029 0.11 32.6615 0.135667 32.6982 0.187C32.7275 0.223667 32.7422 0.267667 32.7422 0.319C32.7422 0.341 32.7385 0.363 32.7312 0.385L31.7742 4.862C31.7229 5.09667 31.6972 5.31667 31.6972 5.522C31.6972 5.896 31.7999 6.17467 32.0052 6.358C32.2105 6.54133 32.5295 6.633 32.9622 6.633C33.4975 6.633 33.9339 6.48633 34.2712 6.193C34.6159 5.89967 34.8505 5.456 34.9752 4.862L35.9322 0.385C35.9469 0.304333 35.9835 0.238333 36.0422 0.187C36.1082 0.135667 36.1815 0.11 36.2622 0.11H37.2522C37.3329 0.11 37.3915 0.135667 37.4282 0.187C37.4575 0.223667 37.4722 0.267667 37.4722 0.319C37.4722 0.341 37.4685 0.363 37.4612 0.385L36.5152 4.862C36.2879 5.918 35.8809 6.69167 35.2942 7.183C34.7075 7.67433 33.8972 7.92 32.8632 7.92Z" transform="translate(0.795532 15.9631) rotate(-12.5)" fill="#5423E2"/>
<path d="M37.812 7.81C37.7313 7.81 37.669 7.78433 37.625 7.733C37.5883 7.68167 37.5773 7.61933 37.592 7.546L39.121 0.385C39.1357 0.304333 39.1723 0.238333 39.231 0.187C39.2897 0.135667 39.3593 0.11 39.44 0.11H40.32C40.474 0.11 40.573 0.179666 40.617 0.319L41.904 4.279L44.885 0.319C44.9803 0.179666 45.1013 0.11 45.248 0.11H46.117C46.1976 0.11 46.26 0.135667 46.304 0.187C46.3333 0.223667 46.348 0.267667 46.348 0.319C46.348 0.341 46.3443 0.363 46.337 0.385L44.808 7.546C44.7933 7.62667 44.753 7.69267 44.687 7.744C44.6283 7.788 44.5623 7.81 44.489 7.81H43.554C43.4733 7.81 43.411 7.78433 43.367 7.733C43.3303 7.68167 43.3193 7.61933 43.334 7.546L44.335 2.882L42.223 5.72C42.1057 5.88133 41.9663 5.962 41.805 5.962H41.354C41.1926 5.962 41.0863 5.88133 41.035 5.72L40.089 2.717L39.066 7.546C39.0513 7.62667 39.011 7.69267 38.945 7.744C38.8863 7.788 38.8203 7.81 38.747 7.81H37.812Z" transform="translate(0.795532 15.9631) rotate(-12.5)" fill="#5423E2"/>
<path d="M46.7387 7.81C46.6581 7.81 46.5957 7.78433 46.5517 7.733C46.5151 7.68167 46.5041 7.61933 46.5187 7.546L48.0477 0.385C48.0624 0.304333 48.0991 0.238333 48.1577 0.187C48.2164 0.135667 48.2861 0.11 48.3667 0.11H53.2067C53.2874 0.11 53.3461 0.135667 53.3827 0.187C53.4121 0.223667 53.4267 0.267667 53.4267 0.319C53.4267 0.341 53.4231 0.363 53.4157 0.385L53.2617 1.111C53.2471 1.19167 53.2067 1.25767 53.1407 1.309C53.0821 1.353 53.0161 1.375 52.9427 1.375H49.3237L48.9057 3.322H52.2827C52.3634 3.322 52.4221 3.34767 52.4587 3.399C52.4881 3.43567 52.5027 3.47967 52.5027 3.531C52.5027 3.54567 52.4991 3.564 52.4917 3.586L52.3487 4.268C52.3341 4.34867 52.2937 4.41467 52.2277 4.466C52.1691 4.51 52.1031 4.532 52.0297 4.532H48.6527L48.2127 6.545H51.9307C52.0114 6.545 52.0701 6.57067 52.1067 6.622C52.1361 6.65867 52.1507 6.70267 52.1507 6.754C52.1507 6.776 52.1471 6.798 52.1397 6.82L51.9857 7.546C51.9711 7.62667 51.9307 7.69267 51.8647 7.744C51.8061 7.788 51.7401 7.81 51.6667 7.81H46.7387Z" transform="translate(0.795532 15.9631) rotate(-12.5)" fill="#5423E2"/>
<path d="M4.20123 20.92C3.32123 20.92 2.63556 20.7147 2.14423 20.304C1.65289 19.886 1.40723 19.3067 1.40723 18.566C1.40723 18.39 1.42556 18.181 1.46223 17.939C1.55023 17.411 1.68956 16.7583 1.88023 15.981C2.11489 15.0277 2.54389 14.2943 3.16723 13.781C3.79056 13.2603 4.60456 13 5.60923 13C6.18856 13 6.69456 13.0917 7.12723 13.275C7.56723 13.451 7.90456 13.7003 8.13923 14.023C8.37389 14.3457 8.49123 14.716 8.49123 15.134C8.49123 15.222 8.47656 15.3613 8.44723 15.552C8.43256 15.618 8.40323 15.673 8.35923 15.717C8.32256 15.761 8.27123 15.783 8.20523 15.783H7.14923C6.96589 15.783 6.87423 15.695 6.87423 15.519C6.92556 14.683 6.47089 14.265 5.51023 14.265C4.99689 14.265 4.56056 14.408 4.20123 14.694C3.84189 14.98 3.58889 15.4273 3.44223 16.036C3.28823 16.6373 3.15623 17.2533 3.04623 17.884C3.00956 18.104 2.99123 18.2873 2.99123 18.434C2.99123 19.248 3.42389 19.655 4.28923 19.655C4.74389 19.655 5.13256 19.5597 5.45523 19.369C5.77789 19.1783 6.04189 18.8557 6.24723 18.401C6.29856 18.2983 6.34623 18.2287 6.39023 18.192C6.44156 18.1553 6.51123 18.137 6.59923 18.137H7.66623C7.73223 18.137 7.78356 18.159 7.82023 18.203C7.84956 18.2323 7.86423 18.269 7.86423 18.313C7.86423 18.3277 7.86056 18.346 7.85323 18.368C7.64789 19.1307 7.23723 19.7467 6.62123 20.216C6.00523 20.6853 5.19856 20.92 4.20123 20.92Z" transform="translate(0.795532 15.9631) rotate(-12.5)" fill="#5423E2"/>
<path d="M11.688 20.92C10.8593 20.92 10.1883 20.722 9.67502 20.326C9.16902 19.9227 8.91602 19.3397 8.91602 18.577C8.91602 18.357 8.93802 18.1333 8.98202 17.906C9.07735 17.3633 9.20935 16.7363 9.37802 16.025C9.62002 15.0277 10.0527 14.276 10.676 13.77C11.2993 13.2567 12.1097 13 13.107 13C13.9357 13 14.603 13.209 15.109 13.627C15.615 14.0377 15.868 14.6243 15.868 15.387C15.868 15.6217 15.8497 15.8343 15.813 16.025C15.7177 16.6043 15.5857 17.2313 15.417 17.906C15.1677 18.918 14.7313 19.6733 14.108 20.172C13.492 20.6707 12.6853 20.92 11.688 20.92ZM11.787 19.655C12.293 19.655 12.7257 19.5083 13.085 19.215C13.4443 18.9143 13.701 18.4597 13.855 17.851C14.0163 17.1617 14.141 16.5677 14.229 16.069C14.2657 15.8857 14.284 15.6877 14.284 15.475C14.284 14.6683 13.8587 14.265 13.008 14.265C12.502 14.265 12.0693 14.4153 11.71 14.716C11.3507 15.0093 11.0977 15.4603 10.951 16.069C10.7897 16.6923 10.6613 17.2863 10.566 17.851C10.5293 18.0343 10.511 18.2323 10.511 18.445C10.511 18.863 10.6173 19.171 10.83 19.369C11.0427 19.5597 11.3617 19.655 11.787 19.655Z" transform="translate(0.795532 15.9631) rotate(-12.5)" fill="#5423E2"/>
<path d="M16.5425 20.81C16.4618 20.81 16.3995 20.7843 16.3555 20.733C16.3188 20.6817 16.3078 20.6193 16.3225 20.546L17.8515 13.385C17.8661 13.3043 17.9028 13.2383 17.9615 13.187C18.0201 13.1357 18.0861 13.11 18.1595 13.11H18.9955C19.1421 13.11 19.2375 13.1687 19.2815 13.286L21.4155 18.258L22.4605 13.385C22.4751 13.3043 22.5118 13.2383 22.5705 13.187C22.6291 13.1357 22.6988 13.11 22.7795 13.11H23.7035C23.7841 13.11 23.8428 13.1357 23.8795 13.187C23.9088 13.2237 23.9235 13.2677 23.9235 13.319C23.9235 13.341 23.9198 13.363 23.9125 13.385L22.3945 20.535C22.3798 20.6157 22.3431 20.6817 22.2845 20.733C22.2258 20.7843 22.1561 20.81 22.0755 20.81H21.2395C21.0928 20.81 20.9975 20.7513 20.9535 20.634L18.8085 15.772L17.7965 20.546C17.7818 20.6267 17.7415 20.6927 17.6755 20.744C17.6168 20.788 17.5508 20.81 17.4775 20.81H16.5425Z" transform="translate(0.795532 15.9631) rotate(-12.5)" fill="#5423E2"/>
<path d="M25.9915 20.81C25.9109 20.81 25.8522 20.7843 25.8155 20.733C25.7862 20.6963 25.7715 20.6523 25.7715 20.601C25.7715 20.5863 25.7752 20.568 25.7825 20.546L27.0805 14.463H25.0455C24.9649 14.463 24.9025 14.4373 24.8585 14.386C24.8219 14.3347 24.8109 14.2723 24.8255 14.199L25.0015 13.385C25.0162 13.3043 25.0529 13.2383 25.1115 13.187C25.1702 13.1357 25.2399 13.11 25.3205 13.11H30.9305C31.0112 13.11 31.0735 13.1357 31.1175 13.187C31.1469 13.2237 31.1615 13.2677 31.1615 13.319C31.1615 13.341 31.1579 13.363 31.1505 13.385L30.9745 14.199C30.9599 14.2797 30.9195 14.3457 30.8535 14.397C30.7949 14.441 30.7289 14.463 30.6555 14.463H28.6205L27.3225 20.546C27.3079 20.6267 27.2712 20.6927 27.2125 20.744C27.1539 20.788 27.0842 20.81 27.0035 20.81H25.9915Z" transform="translate(0.795532 15.9631) rotate(-12.5)" fill="#5423E2"/>
<path d="M30.937 20.81C30.8563 20.81 30.794 20.7843 30.75 20.733C30.7133 20.6817 30.7023 20.6193 30.717 20.546L32.246 13.385C32.2607 13.3043 32.2973 13.2383 32.356 13.187C32.4147 13.1357 32.4843 13.11 32.565 13.11H37.405C37.4857 13.11 37.5443 13.1357 37.581 13.187C37.6103 13.2237 37.625 13.2677 37.625 13.319C37.625 13.341 37.6213 13.363 37.614 13.385L37.46 14.111C37.4453 14.1917 37.405 14.2577 37.339 14.309C37.2803 14.353 37.2143 14.375 37.141 14.375H33.522L33.104 16.322H36.481C36.5617 16.322 36.6203 16.3477 36.657 16.399C36.6863 16.4357 36.701 16.4797 36.701 16.531C36.701 16.5457 36.6973 16.564 36.69 16.586L36.547 17.268C36.5323 17.3487 36.492 17.4147 36.426 17.466C36.3673 17.51 36.3013 17.532 36.228 17.532H32.851L32.411 19.545H36.129C36.2096 19.545 36.2683 19.5707 36.305 19.622C36.3343 19.6587 36.349 19.7027 36.349 19.754C36.349 19.776 36.3453 19.798 36.338 19.82L36.184 20.546C36.1693 20.6267 36.129 20.6927 36.063 20.744C36.0043 20.788 35.9383 20.81 35.865 20.81H30.937Z" transform="translate(0.795532 15.9631) rotate(-12.5)" fill="#5423E2"/>
<path d="M37.769 20.81C37.6883 20.81 37.626 20.7843 37.582 20.733C37.5453 20.6817 37.5344 20.6193 37.549 20.546L39.078 13.385C39.0927 13.3043 39.1294 13.2383 39.188 13.187C39.2467 13.1357 39.3127 13.11 39.386 13.11H40.222C40.3687 13.11 40.464 13.1687 40.508 13.286L42.642 18.258L43.687 13.385C43.7017 13.3043 43.7383 13.2383 43.797 13.187C43.8557 13.1357 43.9254 13.11 44.006 13.11H44.93C45.0107 13.11 45.0694 13.1357 45.106 13.187C45.1354 13.2237 45.15 13.2677 45.15 13.319C45.15 13.341 45.1463 13.363 45.139 13.385L43.621 20.535C43.6064 20.6157 43.5697 20.6817 43.511 20.733C43.4524 20.7843 43.3827 20.81 43.302 20.81H42.466C42.3194 20.81 42.224 20.7513 42.18 20.634L40.035 15.772L39.023 20.546C39.0084 20.6267 38.968 20.6927 38.902 20.744C38.8433 20.788 38.7774 20.81 38.704 20.81H37.769Z" transform="translate(0.795532 15.9631) rotate(-12.5)" fill="#5423E2"/>
<path d="M47.2181 20.81C47.1374 20.81 47.0788 20.7843 47.0421 20.733C47.0128 20.6963 46.9981 20.6523 46.9981 20.601C46.9981 20.5863 47.0018 20.568 47.0091 20.546L48.3071 14.463H46.2721C46.1914 14.463 46.1291 14.4373 46.0851 14.386C46.0484 14.3347 46.0374 14.2723 46.0521 14.199L46.2281 13.385C46.2428 13.3043 46.2794 13.2383 46.3381 13.187C46.3968 13.1357 46.4664 13.11 46.5471 13.11H52.1571C52.2378 13.11 52.3001 13.1357 52.3441 13.187C52.3734 13.2237 52.3881 13.2677 52.3881 13.319C52.3881 13.341 52.3844 13.363 52.3771 13.385L52.2011 14.199C52.1864 14.2797 52.1461 14.3457 52.0801 14.397C52.0214 14.441 51.9554 14.463 51.8821 14.463H49.8471L48.5491 20.546C48.5344 20.6267 48.4978 20.6927 48.4391 20.744C48.3804 20.788 48.3108 20.81 48.2301 20.81H47.2181Z" transform="translate(0.795532 15.9631) rotate(-12.5)" fill="#5423E2"/>
<path d="M5.19992 7.7C5.11925 7.7 5.05692 7.67433 5.01292 7.623C4.97625 7.57167 4.96525 7.50933 4.97992 7.436L6.50892 0.275C6.52359 0.194333 6.56025 0.128333 6.61892 0.0770004C6.67758 0.0256668 6.74725 0 6.82792 0H11.6679C11.7486 0 11.8073 0.0256668 11.8439 0.0770004C11.8733 0.113667 11.8879 0.157667 11.8879 0.209C11.8879 0.231 11.8843 0.253 11.8769 0.275L11.7229 1.001C11.7083 1.08167 11.6679 1.14767 11.6019 1.199C11.5433 1.243 11.4773 1.265 11.4039 1.265H7.78492L7.36692 3.212H10.7439C10.8246 3.212 10.8833 3.23767 10.9199 3.289C10.9493 3.32567 10.9639 3.36967 10.9639 3.421C10.9639 3.43567 10.9603 3.454 10.9529 3.476L10.8099 4.158C10.7953 4.23867 10.7549 4.30467 10.6889 4.356C10.6303 4.4 10.5643 4.422 10.4909 4.422H7.11392L6.67392 6.435H10.3919C10.4726 6.435 10.5313 6.46067 10.5679 6.512C10.5973 6.54867 10.6119 6.59267 10.6119 6.644C10.6119 6.666 10.6083 6.688 10.6009 6.71L10.4469 7.436C10.4323 7.51667 10.3919 7.58267 10.3259 7.634C10.2673 7.678 10.2013 7.7 10.1279 7.7H5.19992Z" transform="translate(137.392 14.8127) rotate(-12.5)" fill="#5423E2"/>
<path d="M11.306 7.7C11.24 7.7 11.1886 7.68167 11.1519 7.645C11.1153 7.60833 11.0969 7.56067 11.0969 7.502C11.0969 7.458 11.1079 7.414 11.1299 7.37L15.288 0.275C15.398 0.0916667 15.5446 0 15.7279 0H17.004C17.1946 0 17.3046 0.0916667 17.334 0.275L18.478 7.37C18.4853 7.392 18.4889 7.41767 18.4889 7.447C18.4889 7.513 18.4706 7.568 18.4339 7.612C18.3826 7.67067 18.3166 7.7 18.236 7.7H17.3009C17.1176 7.7 17.015 7.61567 16.993 7.447L16.7509 6.149H13.4839L12.681 7.491C12.5856 7.63033 12.4646 7.7 12.3179 7.7H11.306ZM16.6409 4.884L16.1129 1.485L14.1329 4.884H16.6409Z" transform="translate(137.392 14.8127) rotate(-12.5)" fill="#5423E2"/>
<path d="M19.8339 7.7C19.7605 7.7 19.7055 7.67433 19.6689 7.623C19.6395 7.59367 19.6249 7.55333 19.6249 7.502C19.6249 7.48 19.6285 7.458 19.6359 7.436L21.1539 0.275C21.1685 0.194333 21.2052 0.128333 21.2639 0.0770004C21.3225 0.0256668 21.3922 0 21.4729 0H24.3219C25.0919 0 25.6859 0.157667 26.1039 0.473001C26.5292 0.781 26.7419 1.22833 26.7419 1.815C26.7419 1.99833 26.7199 2.19633 26.6759 2.409C26.5659 2.94433 26.3422 3.39533 26.0049 3.762C25.6675 4.12133 25.2495 4.38167 24.7509 4.543L25.7629 7.348C25.7702 7.36267 25.7739 7.381 25.7739 7.403C25.7739 7.425 25.7702 7.447 25.7629 7.469C25.7555 7.535 25.7225 7.59 25.6639 7.634C25.6052 7.678 25.5465 7.7 25.4879 7.7H24.4869C24.3695 7.7 24.2852 7.67433 24.2339 7.623C24.1825 7.56433 24.1422 7.491 24.1129 7.403L23.2549 4.796H21.7259L21.1649 7.436C21.1502 7.50933 21.1099 7.57167 21.0439 7.623C20.9852 7.67433 20.9155 7.7 20.8349 7.7H19.8339ZM23.5299 3.553C23.9772 3.553 24.3292 3.454 24.5859 3.256C24.8499 3.058 25.0222 2.772 25.1029 2.398C25.1249 2.27333 25.1359 2.167 25.1359 2.079C25.1359 1.507 24.7655 1.221 24.0249 1.221H22.4739L21.9899 3.553H23.5299Z" transform="translate(137.392 14.8127) rotate(-12.5)" fill="#5423E2"/>
<path d="M27.1032 7.7C27.0226 7.7 26.9602 7.67433 26.9162 7.623C26.8796 7.57167 26.8686 7.50933 26.8832 7.436L28.4122 0.275C28.4269 0.194333 28.4636 0.128333 28.5222 0.0770004C28.5809 0.0256668 28.6469 0 28.7202 0H29.5562C29.7029 0 29.7982 0.0586668 29.8422 0.176L31.9762 5.148L33.0212 0.275C33.0359 0.194333 33.0726 0.128333 33.1312 0.0770004C33.1899 0.0256668 33.2596 0 33.3402 0H34.2642C34.3449 0 34.4036 0.0256668 34.4402 0.0770004C34.4696 0.113667 34.4842 0.157667 34.4842 0.209C34.4842 0.231 34.4806 0.253 34.4732 0.275L32.9552 7.425C32.9406 7.50567 32.9039 7.57167 32.8452 7.623C32.7866 7.67433 32.7169 7.7 32.6362 7.7H31.8002C31.6536 7.7 31.5582 7.64133 31.5142 7.524L29.3692 2.662L28.3572 7.436C28.3426 7.51667 28.3022 7.58267 28.2362 7.634C28.1776 7.678 28.1116 7.7 28.0382 7.7H27.1032Z" transform="translate(137.392 14.8127) rotate(-12.5)" fill="#5423E2"/>
<path d="M0.226285 20.7C0.145618 20.7 0.0832857 20.6743 0.0392857 20.623C0.00261904 20.5717 -0.00838095 20.5093 0.00628572 20.436L1.53529 13.275C1.54995 13.1943 1.58662 13.1283 1.64529 13.077C1.70395 13.0257 1.77362 13 1.85429 13H4.67029C5.44762 13 6.05995 13.1613 6.50729 13.484C6.96195 13.7993 7.18929 14.2613 7.18929 14.87C7.18929 15.0387 7.16729 15.2293 7.12329 15.442C6.77862 17.0553 5.70062 17.862 3.88929 17.862H2.12929L1.57929 20.436C1.56462 20.5167 1.52795 20.5827 1.46929 20.634C1.41062 20.678 1.34095 20.7 1.26029 20.7H0.226285ZM3.92229 16.641C4.34029 16.641 4.69595 16.5383 4.98929 16.333C5.28262 16.1277 5.46962 15.8307 5.55029 15.442C5.58695 15.2587 5.60529 15.112 5.60529 15.002C5.60529 14.7453 5.52095 14.551 5.35229 14.419C5.19095 14.287 4.91229 14.221 4.51628 14.221H2.88828L2.37129 16.641H3.92229Z" transform="translate(137.392 14.8127) rotate(-12.5)" fill="#5423E2"/>
<path d="M10.282 20.81C9.45334 20.81 8.78234 20.612 8.269 20.216C7.763 19.8127 7.51 19.2297 7.51 18.467C7.51 18.247 7.532 18.0233 7.576 17.796C7.67134 17.2533 7.80334 16.6263 7.972 15.915C8.214 14.9177 8.64667 14.166 9.27 13.66C9.89334 13.1467 10.7037 12.89 11.701 12.89C12.5297 12.89 13.197 13.099 13.703 13.517C14.209 13.9277 14.462 14.5143 14.462 15.277C14.462 15.5117 14.4437 15.7243 14.407 15.915C14.3117 16.4943 14.1797 17.1213 14.011 17.796C13.7617 18.808 13.3253 19.5633 12.702 20.062C12.086 20.5607 11.2793 20.81 10.282 20.81ZM10.381 19.545C10.887 19.545 11.3197 19.3983 11.679 19.105C12.0383 18.8043 12.295 18.3497 12.449 17.741C12.6103 17.0517 12.735 16.4577 12.823 15.959C12.8597 15.7757 12.878 15.5777 12.878 15.365C12.878 14.5583 12.4527 14.155 11.602 14.155C11.096 14.155 10.6633 14.3053 10.304 14.606C9.94467 14.8993 9.69167 15.3503 9.545 15.959C9.38367 16.5823 9.25534 17.1763 9.16 17.741C9.12334 17.9243 9.105 18.1223 9.105 18.335C9.105 18.753 9.21134 19.061 9.424 19.259C9.63667 19.4497 9.95567 19.545 10.381 19.545Z" transform="translate(137.392 14.8127) rotate(-12.5)" fill="#5423E2"/>
<path d="M15.1144 20.7C15.0338 20.7 14.9751 20.6743 14.9384 20.623C14.9091 20.5863 14.8944 20.5423 14.8944 20.491C14.8944 20.4763 14.8981 20.458 14.9054 20.436L16.4344 13.264C16.4491 13.1833 16.4858 13.121 16.5444 13.077C16.6104 13.0257 16.6801 13 16.7534 13H17.7874C17.8608 13 17.9194 13.022 17.9634 13.066C18.0001 13.1027 18.0184 13.1503 18.0184 13.209C18.0184 13.2237 18.0148 13.242 18.0074 13.264L16.4674 20.436C16.4528 20.5167 16.4161 20.5827 16.3574 20.634C16.2988 20.678 16.2328 20.7 16.1594 20.7H15.1144Z" transform="translate(137.392 14.8127) rotate(-12.5)" fill="#5423E2"/>
<path d="M18.4235 20.7C18.3429 20.7 18.2805 20.6743 18.2365 20.623C18.1999 20.5717 18.1889 20.5093 18.2036 20.436L19.7326 13.275C19.7472 13.1943 19.7839 13.1283 19.8426 13.077C19.9012 13.0257 19.9672 13 20.0406 13H20.8766C21.0232 13 21.1186 13.0587 21.1626 13.176L23.2966 18.148L24.3416 13.275C24.3562 13.1943 24.3929 13.1283 24.4515 13.077C24.5102 13.0257 24.5799 13 24.6606 13H25.5846C25.6652 13 25.7239 13.0257 25.7606 13.077C25.7899 13.1137 25.8046 13.1577 25.8046 13.209C25.8046 13.231 25.8009 13.253 25.7936 13.275L24.2756 20.425C24.2609 20.5057 24.2242 20.5717 24.1656 20.623C24.1069 20.6743 24.0372 20.7 23.9566 20.7H23.1206C22.9739 20.7 22.8786 20.6413 22.8346 20.524L20.6896 15.662L19.6776 20.436C19.6629 20.5167 19.6226 20.5827 19.5566 20.634C19.4979 20.678 19.4319 20.7 19.3586 20.7H18.4235Z" transform="translate(137.392 14.8127) rotate(-12.5)" fill="#5423E2"/>
<path d="M27.8726 20.7C27.792 20.7 27.7333 20.6743 27.6966 20.623C27.6673 20.5863 27.6526 20.5423 27.6526 20.491C27.6526 20.4763 27.6563 20.458 27.6636 20.436L28.9616 14.353H26.9266C26.846 14.353 26.7836 14.3273 26.7396 14.276C26.703 14.2247 26.692 14.1623 26.7066 14.089L26.8826 13.275C26.8973 13.1943 26.934 13.1283 26.9926 13.077C27.0513 13.0257 27.121 13 27.2016 13H32.8116C32.8923 13 32.9546 13.0257 32.9986 13.077C33.028 13.1137 33.0426 13.1577 33.0426 13.209C33.0426 13.231 33.039 13.253 33.0316 13.275L32.8556 14.089C32.841 14.1697 32.8006 14.2357 32.7346 14.287C32.676 14.331 32.61 14.353 32.5366 14.353H30.5016L29.2036 20.436C29.189 20.5167 29.1523 20.5827 29.0936 20.634C29.035 20.678 28.9653 20.7 28.8846 20.7H27.8726Z" transform="translate(137.392 14.8127) rotate(-12.5)" fill="#5423E2"/>
<path d="M35.3151 20.81C34.7064 20.81 34.1894 20.7257 33.7641 20.557C33.3388 20.3883 33.0161 20.1647 32.7961 19.886C32.5834 19.6 32.4771 19.2847 32.4771 18.94C32.4771 18.8887 32.4844 18.8043 32.4991 18.687C32.5064 18.621 32.5321 18.566 32.5761 18.522C32.6274 18.478 32.6861 18.456 32.7521 18.456H33.7641C33.8448 18.456 33.9071 18.4743 33.9511 18.511C33.9951 18.5477 34.0281 18.599 34.0501 18.665C34.0794 18.907 34.2041 19.116 34.4241 19.292C34.6514 19.4607 34.9814 19.545 35.4141 19.545C35.9347 19.545 36.3491 19.4607 36.6571 19.292C36.9724 19.116 37.1631 18.874 37.2291 18.566C37.2438 18.478 37.2511 18.4193 37.2511 18.39C37.2511 18.2287 37.1887 18.093 37.0641 17.983C36.9467 17.873 36.7671 17.774 36.5251 17.686C36.2831 17.598 35.9348 17.4917 35.4801 17.367C34.7981 17.191 34.2847 16.9563 33.9401 16.663C33.6027 16.3623 33.4341 15.9773 33.4341 15.508C33.4341 15.3393 33.4561 15.1633 33.5001 14.98C33.6321 14.3347 33.9731 13.825 34.5231 13.451C35.0804 13.077 35.7954 12.89 36.6681 12.89C37.2107 12.89 37.6837 12.9853 38.0871 13.176C38.4904 13.3593 38.7984 13.5977 39.0111 13.891C39.2237 14.177 39.3301 14.4667 39.3301 14.76C39.3301 14.804 39.3227 14.87 39.3081 14.958C39.2934 15.024 39.2641 15.079 39.2201 15.123C39.1761 15.167 39.1211 15.189 39.0551 15.189H38.0101C37.8561 15.189 37.7607 15.1193 37.7241 14.98C37.7314 14.7527 37.6251 14.5583 37.4051 14.397C37.1924 14.2357 36.9174 14.155 36.5801 14.155C36.1621 14.155 35.8138 14.232 35.5351 14.386C35.2638 14.54 35.0951 14.7637 35.0291 15.057C35.0144 15.145 35.0071 15.211 35.0071 15.255C35.0071 15.4823 35.1244 15.6657 35.3591 15.805C35.5937 15.9443 36.0081 16.0947 36.6021 16.256C37.3794 16.4393 37.9441 16.674 38.2961 16.96C38.6554 17.246 38.8351 17.6273 38.8351 18.104C38.8351 18.2947 38.8167 18.467 38.7801 18.621C38.6261 19.3397 38.2521 19.886 37.6581 20.26C37.0714 20.6267 36.2904 20.81 35.3151 20.81Z" transform="translate(137.392 14.8127) rotate(-12.5)" fill="#5423E2"/>
<path d="M9.22261 7.81C9.14928 7.81 9.09061 7.78433 9.04661 7.733C9.00994 7.68167 8.99895 7.61933 9.01361 7.546L10.5316 0.385C10.5463 0.304333 10.5829 0.238333 10.6416 0.187C10.7076 0.135667 10.7773 0.11 10.8506 0.11H15.7126C15.7933 0.11 15.8519 0.135667 15.8886 0.187C15.9253 0.238333 15.9363 0.304333 15.9216 0.385L15.7676 1.122C15.7529 1.20267 15.7126 1.26867 15.6466 1.32C15.5879 1.364 15.5219 1.386 15.4486 1.386H11.8296L11.4116 3.311H14.7886C14.8693 3.311 14.9279 3.33667 14.9646 3.388C15.0013 3.43933 15.0123 3.50533 14.9976 3.586L14.8546 4.279C14.8399 4.35967 14.7996 4.42567 14.7336 4.477C14.6749 4.521 14.6053 4.543 14.5246 4.543H11.1586L10.7296 6.534H14.4366C14.5173 6.534 14.5759 6.55967 14.6126 6.611C14.6493 6.66233 14.6603 6.72467 14.6456 6.798L14.4916 7.546C14.4769 7.62667 14.4366 7.69267 14.3706 7.744C14.3119 7.788 14.2459 7.81 14.1726 7.81H9.22261Z" transform="translate(258.5 18.2518) rotate(-12.5)" fill="#5423E2"/>
<path d="M15.3944 7.81C15.3284 7.81 15.2771 7.79167 15.2404 7.755C15.2037 7.711 15.1854 7.65967 15.1854 7.601C15.1854 7.535 15.2037 7.48367 15.2404 7.447L18.5624 3.85L16.8684 0.462C16.8464 0.418 16.8354 0.377667 16.8354 0.341C16.8354 0.275 16.8574 0.22 16.9014 0.176C16.9527 0.132 17.015 0.11 17.0884 0.11H18.1004C18.2104 0.11 18.2874 0.132 18.3314 0.176C18.3754 0.212667 18.412 0.260333 18.4414 0.319L19.6514 2.717L21.8074 0.319C21.8147 0.311667 21.8367 0.289667 21.8734 0.253C21.91 0.209 21.9577 0.176 22.0164 0.154C22.0824 0.124667 22.1557 0.11 22.2364 0.11H23.3474C23.406 0.11 23.4537 0.132 23.4904 0.176C23.5344 0.212667 23.5564 0.260333 23.5564 0.319C23.5564 0.377667 23.5344 0.429 23.4904 0.473L20.3224 4.07L22.0494 7.469C22.064 7.491 22.0714 7.52767 22.0714 7.579C22.0714 7.645 22.0457 7.7 21.9944 7.744C21.9504 7.788 21.8917 7.81 21.8184 7.81H20.8174C20.7074 7.81 20.6304 7.79167 20.5864 7.755C20.5424 7.71833 20.502 7.67067 20.4654 7.612L19.2444 5.214L17.0224 7.612C17.0077 7.61933 16.9674 7.656 16.9014 7.722C16.8427 7.78067 16.7437 7.81 16.6044 7.81H15.3944Z" transform="translate(258.5 18.2518) rotate(-12.5)" fill="#5423E2"/>
<path d="M25.8963 7.92C25.0163 7.92 24.3306 7.71833 23.8393 7.315C23.348 6.90433 23.1023 6.32867 23.1023 5.588C23.1023 5.346 23.1206 5.12967 23.1573 4.939C23.2453 4.411 23.3846 3.75833 23.5753 2.981C23.81 2.02767 24.2353 1.29433 24.8513 0.781C25.4746 0.260333 26.2923 0 27.3043 0C27.8836 0 28.3896 0.0916665 28.8223 0.275C29.2623 0.451 29.5996 0.704 29.8343 1.034C30.0763 1.35667 30.1973 1.73067 30.1973 2.156C30.1973 2.28067 30.1863 2.41633 30.1643 2.563C30.1496 2.629 30.1203 2.684 30.0763 2.728C30.0323 2.772 29.9773 2.794 29.9113 2.794H28.8333C28.738 2.794 28.6683 2.77567 28.6243 2.739C28.5803 2.695 28.5583 2.62167 28.5583 2.519C28.6096 1.69033 28.1586 1.276 27.2053 1.276C26.692 1.276 26.2593 1.419 25.9073 1.705C25.5553 1.991 25.306 2.43467 25.1593 3.036C25.0053 3.63733 24.8733 4.25333 24.7633 4.884C24.7266 5.11867 24.7083 5.302 24.7083 5.434C24.7083 6.24067 25.1373 6.644 25.9953 6.644C26.4426 6.644 26.8276 6.54867 27.1503 6.358C27.473 6.16733 27.7333 5.84833 27.9313 5.401C27.9826 5.29833 28.034 5.22867 28.0853 5.192C28.1366 5.148 28.2063 5.126 28.2943 5.126H29.3723C29.4383 5.126 29.4896 5.148 29.5263 5.192C29.563 5.236 29.574 5.291 29.5593 5.357C29.3613 6.127 28.9506 6.74667 28.3273 7.216C27.7113 7.68533 26.901 7.92 25.8963 7.92Z" transform="translate(258.5 18.2518) rotate(-12.5)" fill="#5423E2"/>
<path d="M30.5888 7.81C30.5155 7.81 30.4568 7.78433 30.4128 7.733C30.3762 7.68167 30.3652 7.61933 30.3798 7.546L31.9088 0.374C31.9162 0.300667 31.9492 0.238333 32.0078 0.187C32.0738 0.135667 32.1435 0.11 32.2168 0.11H33.2618C33.3352 0.11 33.3938 0.135667 33.4378 0.187C33.4818 0.231 33.4965 0.293333 33.4818 0.374L32.1728 6.49H35.6598C35.7405 6.49 35.7992 6.51567 35.8358 6.567C35.8725 6.61833 35.8835 6.68067 35.8688 6.754L35.7038 7.546C35.6892 7.62667 35.6488 7.69267 35.5828 7.744C35.5242 7.788 35.4582 7.81 35.3848 7.81H30.5888Z" transform="translate(258.5 18.2518) rotate(-12.5)" fill="#5423E2"/>
<path d="M39.6266 7.92C38.7906 7.92 38.1306 7.73667 37.6466 7.37C37.1626 7.00333 36.9206 6.45333 36.9206 5.72C36.9206 5.456 36.9536 5.17 37.0196 4.862L37.9656 0.385C37.9803 0.304333 38.0169 0.238333 38.0756 0.187C38.1343 0.135667 38.2039 0.11 38.2846 0.11H39.2966C39.3773 0.11 39.4359 0.135667 39.4726 0.187C39.5166 0.238333 39.5313 0.304333 39.5166 0.385L38.5596 4.862C38.5083 5.09667 38.4826 5.32033 38.4826 5.533C38.4826 5.89967 38.5816 6.171 38.7796 6.347C38.9849 6.523 39.3003 6.611 39.7256 6.611C40.2609 6.611 40.6973 6.468 41.0346 6.182C41.3793 5.88867 41.6103 5.44867 41.7276 4.862L42.6846 0.385C42.6993 0.304333 42.7359 0.238333 42.7946 0.187C42.8606 0.135667 42.9339 0.11 43.0146 0.11H44.0266C44.1073 0.11 44.1659 0.135667 44.2026 0.187C44.2393 0.238333 44.2503 0.304333 44.2356 0.385L43.2896 4.862C43.0623 5.918 42.6516 6.69167 42.0576 7.183C41.4709 7.67433 40.6606 7.92 39.6266 7.92Z" transform="translate(258.5 18.2518) rotate(-12.5)" fill="#5423E2"/>
<path d="M47.0941 7.92C46.4855 7.92 45.9648 7.83567 45.5321 7.667C45.1068 7.49833 44.7841 7.271 44.5641 6.985C44.3515 6.699 44.2451 6.38367 44.2451 6.039C44.2451 5.98767 44.2525 5.90333 44.2671 5.786C44.2745 5.72733 44.3001 5.676 44.3441 5.632C44.3955 5.58067 44.4541 5.555 44.5201 5.555H45.5431C45.6238 5.555 45.6861 5.57333 45.7301 5.61C45.7741 5.64667 45.8108 5.698 45.8401 5.764C45.8695 6.006 45.9941 6.215 46.2141 6.391C46.4415 6.55967 46.7678 6.644 47.1931 6.644C47.7065 6.644 48.1171 6.55967 48.4251 6.391C48.7405 6.215 48.9275 5.97667 48.9861 5.676C49.0008 5.60267 49.0081 5.54767 49.0081 5.511C49.0081 5.34967 48.9458 5.214 48.8211 5.104C48.7038 4.994 48.5241 4.895 48.2821 4.807C48.0475 4.719 47.7028 4.609 47.2481 4.477C46.5588 4.30833 46.0455 4.07733 45.7081 3.784C45.3708 3.48333 45.2021 3.09467 45.2021 2.618C45.2021 2.42 45.2205 2.244 45.2571 2.09C45.3965 1.44467 45.7411 0.935 46.2911 0.561C46.8485 0.187 47.5671 0 48.4471 0C48.9898 0 49.4628 0.0953334 49.8661 0.286C50.2695 0.469333 50.5775 0.707667 50.7901 1.001C51.0028 1.287 51.1091 1.57667 51.1091 1.87C51.1091 1.914 51.1018 1.98 51.0871 2.068C51.0725 2.134 51.0431 2.189 50.9991 2.233C50.9551 2.277 50.9001 2.299 50.8341 2.299H49.7671C49.6131 2.299 49.5178 2.233 49.4811 2.101C49.4885 1.87367 49.3858 1.67933 49.1731 1.518C48.9605 1.35667 48.6855 1.276 48.3481 1.276C47.9375 1.276 47.5965 1.353 47.3251 1.507C47.0538 1.661 46.8851 1.88467 46.8191 2.178C46.8045 2.266 46.7971 2.332 46.7971 2.376C46.7971 2.596 46.9145 2.77567 47.1491 2.915C47.3838 3.05433 47.7945 3.201 48.3811 3.355C49.1585 3.53833 49.7268 3.77667 50.0861 4.07C50.4455 4.356 50.6251 4.741 50.6251 5.225C50.6251 5.357 50.6068 5.52567 50.5701 5.731C50.4161 6.44967 50.0421 6.996 49.4481 7.37C48.8541 7.73667 48.0695 7.92 47.0941 7.92Z" transform="translate(258.5 18.2518) rotate(-12.5)" fill="#5423E2"/>
<path d="M51.6328 7.81C51.5521 7.81 51.4898 7.78433 51.4458 7.733C51.4091 7.68167 51.3981 7.61933 51.4128 7.546L52.9528 0.374C52.9601 0.300667 52.9931 0.238333 53.0518 0.187C53.1178 0.135667 53.1874 0.11 53.2608 0.11H54.3278C54.4011 0.11 54.4561 0.135667 54.4928 0.187C54.5368 0.238333 54.5514 0.300667 54.5368 0.374L53.0078 7.546C52.9931 7.61933 52.9564 7.68167 52.8978 7.733C52.8391 7.78433 52.7731 7.81 52.6998 7.81H51.6328Z" transform="translate(258.5 18.2518) rotate(-12.5)" fill="#5423E2"/>
<path d="M56.8996 7.81C56.7823 7.81 56.6943 7.78433 56.6356 7.733C56.5769 7.67433 56.544 7.59733 56.5366 7.502L55.6786 0.396C55.6713 0.308 55.6933 0.238333 55.7446 0.187C55.796 0.135667 55.8583 0.11 55.9316 0.11H56.8996C56.9949 0.11 57.0646 0.135667 57.1086 0.187C57.1599 0.231 57.1893 0.286 57.1966 0.352L57.8346 5.984L60.8706 0.352C60.9586 0.190667 61.0833 0.11 61.2446 0.11H62.3336C62.3923 0.11 62.4363 0.128333 62.4656 0.165C62.5023 0.201667 62.5206 0.249333 62.5206 0.308C62.5206 0.359334 62.5096 0.407 62.4876 0.451L58.6376 7.502C58.5203 7.70733 58.3589 7.81 58.1536 7.81H56.8996Z" transform="translate(258.5 18.2518) rotate(-12.5)" fill="#5423E2"/>
<path d="M62.3535 7.81C62.2801 7.81 62.2215 7.78433 62.1775 7.733C62.1408 7.68167 62.1298 7.61933 62.1445 7.546L63.6625 0.385C63.6771 0.304333 63.7138 0.238333 63.7725 0.187C63.8385 0.135667 63.9081 0.11 63.9815 0.11H68.8435C68.9241 0.11 68.9828 0.135667 69.0195 0.187C69.0561 0.238333 69.0671 0.304333 69.0525 0.385L68.8985 1.122C68.8838 1.20267 68.8435 1.26867 68.7775 1.32C68.7188 1.364 68.6528 1.386 68.5795 1.386H64.9605L64.5425 3.311H67.9195C68.0001 3.311 68.0588 3.33667 68.0955 3.388C68.1321 3.43933 68.1431 3.50533 68.1285 3.586L67.9855 4.279C67.9708 4.35967 67.9305 4.42567 67.8645 4.477C67.8058 4.521 67.7361 4.543 67.6555 4.543H64.2895L63.8605 6.534H67.5675C67.6481 6.534 67.7068 6.55967 67.7435 6.611C67.7801 6.66233 67.7911 6.72467 67.7765 6.798L67.6225 7.546C67.6078 7.62667 67.5675 7.69267 67.5015 7.744C67.4428 7.788 67.3768 7.81 67.3035 7.81H62.3535Z" transform="translate(258.5 18.2518) rotate(-12.5)" fill="#5423E2"/>
<path d="M0.215287 20.81C0.141954 20.81 0.0832865 20.7843 0.0392865 20.733C0.0026198 20.6817 -0.00838114 20.6193 0.00628553 20.546L1.52429 13.385C1.53895 13.3043 1.57562 13.2383 1.63429 13.187C1.70029 13.1357 1.76995 13.11 1.84329 13.11H6.70529C6.78595 13.11 6.84462 13.1357 6.88129 13.187C6.91795 13.2383 6.92895 13.3043 6.91429 13.385L6.76029 14.122C6.74562 14.2027 6.70529 14.2687 6.63929 14.32C6.58062 14.364 6.51462 14.386 6.44129 14.386H2.82229L2.40429 16.311H5.78129C5.86195 16.311 5.92062 16.3367 5.95729 16.388C5.99395 16.4393 6.00495 16.5053 5.99029 16.586L5.84729 17.279C5.83262 17.3597 5.79229 17.4257 5.72629 17.477C5.66762 17.521 5.59795 17.543 5.51729 17.543H2.15129L1.72229 19.534H5.42929C5.50995 19.534 5.56862 19.5597 5.60529 19.611C5.64195 19.6623 5.65295 19.7247 5.63829 19.798L5.48429 20.546C5.46962 20.6267 5.42929 20.6927 5.36329 20.744C5.30462 20.788 5.23862 20.81 5.16529 20.81H0.215287Z" transform="translate(258.5 18.2518) rotate(-12.5)" fill="#5423E2"/>
<path d="M6.38706 20.81C6.32106 20.81 6.26973 20.7917 6.23306 20.755C6.19639 20.711 6.17806 20.6597 6.17806 20.601C6.17806 20.535 6.19639 20.4837 6.23306 20.447L9.55506 16.85L7.86106 13.462C7.83906 13.418 7.82806 13.3777 7.82806 13.341C7.82806 13.275 7.85006 13.22 7.89406 13.176C7.94539 13.132 8.00773 13.11 8.08106 13.11H9.09306C9.20306 13.11 9.28006 13.132 9.32406 13.176C9.36806 13.2127 9.40473 13.2603 9.43406 13.319L10.6441 15.717L12.8001 13.319C12.8074 13.3117 12.8294 13.2897 12.8661 13.253C12.9027 13.209 12.9504 13.176 13.0091 13.154C13.0751 13.1247 13.1484 13.11 13.2291 13.11H14.3401C14.3987 13.11 14.4464 13.132 14.4831 13.176C14.5271 13.2127 14.5491 13.2603 14.5491 13.319C14.5491 13.3777 14.5271 13.429 14.4831 13.473L11.3151 17.07L13.0421 20.469C13.0567 20.491 13.0641 20.5277 13.0641 20.579C13.0641 20.645 13.0384 20.7 12.9871 20.744C12.9431 20.788 12.8844 20.81 12.8111 20.81H11.8101C11.7001 20.81 11.6231 20.7917 11.5791 20.755C11.5351 20.7183 11.4947 20.6707 11.4581 20.612L10.2371 18.214L8.01506 20.612C8.00039 20.6193 7.96006 20.656 7.89406 20.722C7.83539 20.7807 7.73639 20.81 7.59706 20.81H6.38706Z" transform="translate(258.5 18.2518) rotate(-12.5)" fill="#5423E2"/>
<path d="M14.352 20.81C14.2787 20.81 14.22 20.7843 14.176 20.733C14.1393 20.6817 14.1283 20.6193 14.143 20.546L15.661 13.385C15.6757 13.3043 15.7123 13.2383 15.771 13.187C15.837 13.1357 15.9067 13.11 15.98 13.11H18.807C19.5843 13.11 20.2003 13.2713 20.655 13.594C21.1097 13.9167 21.337 14.3823 21.337 14.991C21.337 15.1597 21.315 15.3503 21.271 15.563C20.9263 17.169 19.8447 17.972 18.026 17.972H16.288L15.738 20.546C15.7233 20.6267 15.683 20.6927 15.617 20.744C15.5583 20.788 15.4923 20.81 15.419 20.81H14.352ZM18.059 16.74C18.477 16.74 18.829 16.6373 19.115 16.432C19.4083 16.2267 19.5953 15.9333 19.676 15.552C19.7127 15.3833 19.731 15.2403 19.731 15.123C19.731 14.8663 19.6467 14.672 19.478 14.54C19.3167 14.408 19.0417 14.342 18.653 14.342H17.036L16.519 16.74H18.059Z" transform="translate(258.5 18.2518) rotate(-12.5)" fill="#5423E2"/>
<path d="M21.6245 20.81C21.5511 20.81 21.4925 20.7843 21.4485 20.733C21.4118 20.6817 21.4008 20.6193 21.4155 20.546L22.9335 13.385C22.9481 13.3043 22.9848 13.2383 23.0435 13.187C23.1095 13.1357 23.1791 13.11 23.2525 13.11H28.1145C28.1951 13.11 28.2538 13.1357 28.2905 13.187C28.3271 13.2383 28.3381 13.3043 28.3235 13.385L28.1695 14.122C28.1548 14.2027 28.1145 14.2687 28.0485 14.32C27.9898 14.364 27.9238 14.386 27.8505 14.386H24.2315L23.8135 16.311H27.1905C27.2711 16.311 27.3298 16.3367 27.3665 16.388C27.4031 16.4393 27.4141 16.5053 27.3995 16.586L27.2565 17.279C27.2418 17.3597 27.2015 17.4257 27.1355 17.477C27.0768 17.521 27.0071 17.543 26.9265 17.543H23.5605L23.1315 19.534H26.8385C26.9191 19.534 26.9778 19.5597 27.0145 19.611C27.0511 19.6623 27.0621 19.7247 27.0475 19.798L26.8935 20.546C26.8788 20.6267 26.8385 20.6927 26.7725 20.744C26.7138 20.788 26.6478 20.81 26.5745 20.81H21.6245Z" transform="translate(258.5 18.2518) rotate(-12.5)" fill="#5423E2"/>
<path d="M28.6212 20.81C28.5406 20.81 28.4819 20.7843 28.4452 20.733C28.4086 20.6817 28.3976 20.6193 28.4122 20.546L29.9302 13.385C29.9449 13.3043 29.9816 13.2383 30.0402 13.187C30.1062 13.1357 30.1796 13.11 30.2602 13.11H33.1092C33.8866 13.11 34.4842 13.2677 34.9022 13.583C35.3276 13.891 35.5402 14.3383 35.5402 14.925C35.5402 15.1083 35.5182 15.3063 35.4742 15.519C35.3642 16.0543 35.1406 16.5053 34.8032 16.872C34.4732 17.2313 34.0589 17.4917 33.5602 17.653L34.5612 20.458C34.5686 20.4947 34.5686 20.535 34.5612 20.579C34.5539 20.645 34.5209 20.7 34.4622 20.744C34.4036 20.788 34.3449 20.81 34.2862 20.81H33.2742C33.1496 20.81 33.0616 20.7843 33.0102 20.733C32.9589 20.6743 32.9222 20.601 32.9002 20.513L32.0312 17.906H30.5242L29.9632 20.546C29.9486 20.6193 29.9082 20.6817 29.8422 20.733C29.7836 20.7843 29.7139 20.81 29.6332 20.81H28.6212ZM32.3282 16.652C32.7609 16.652 33.1056 16.5567 33.3622 16.366C33.6262 16.168 33.7986 15.882 33.8792 15.508C33.9012 15.398 33.9122 15.2917 33.9122 15.189C33.9122 14.9177 33.8206 14.7087 33.6372 14.562C33.4539 14.4153 33.1789 14.342 32.8122 14.342H31.2722L30.7882 16.652H32.3282Z" transform="translate(258.5 18.2518) rotate(-12.5)" fill="#5423E2"/>
<path d="M35.8793 20.81C35.7987 20.81 35.7363 20.7843 35.6923 20.733C35.6557 20.6817 35.6447 20.6193 35.6593 20.546L37.1993 13.374C37.2067 13.3007 37.2397 13.2383 37.2983 13.187C37.3643 13.1357 37.434 13.11 37.5073 13.11H38.5743C38.6477 13.11 38.7027 13.1357 38.7393 13.187C38.7833 13.2383 38.798 13.3007 38.7833 13.374L37.2543 20.546C37.2397 20.6193 37.203 20.6817 37.1443 20.733C37.0857 20.7843 37.0197 20.81 36.9463 20.81H35.8793Z" transform="translate(258.5 18.2518) rotate(-12.5)" fill="#5423E2"/>
<path d="M39.1772 20.81C39.1039 20.81 39.0452 20.7843 39.0012 20.733C38.9645 20.6817 38.9535 20.6193 38.9682 20.546L40.4862 13.385C40.5009 13.3043 40.5375 13.2383 40.5962 13.187C40.6622 13.1357 40.7319 13.11 40.8052 13.11H45.6672C45.7479 13.11 45.8065 13.1357 45.8432 13.187C45.8799 13.2383 45.8909 13.3043 45.8762 13.385L45.7222 14.122C45.7075 14.2027 45.6672 14.2687 45.6012 14.32C45.5425 14.364 45.4765 14.386 45.4032 14.386H41.7842L41.3662 16.311H44.7432C44.8239 16.311 44.8825 16.3367 44.9192 16.388C44.9559 16.4393 44.9669 16.5053 44.9522 16.586L44.8092 17.279C44.7945 17.3597 44.7542 17.4257 44.6882 17.477C44.6295 17.521 44.5599 17.543 44.4792 17.543H41.1132L40.6842 19.534H44.3912C44.4719 19.534 44.5305 19.5597 44.5672 19.611C44.6039 19.6623 44.6149 19.7247 44.6002 19.798L44.4462 20.546C44.4315 20.6267 44.3912 20.6927 44.3252 20.744C44.2665 20.788 44.2005 20.81 44.1272 20.81H39.1772Z" transform="translate(258.5 18.2518) rotate(-12.5)" fill="#5423E2"/>
<path d="M46.02 20.81C45.9466 20.81 45.888 20.7843 45.844 20.733C45.8073 20.6817 45.7963 20.6193 45.811 20.546L47.329 13.385C47.3436 13.3043 47.3803 13.2383 47.439 13.187C47.4976 13.1357 47.5673 13.11 47.648 13.11H48.495C48.6416 13.11 48.737 13.1723 48.781 13.297L50.904 18.225L51.938 13.385C51.9526 13.3043 51.9893 13.2383 52.048 13.187C52.1066 13.1357 52.1763 13.11 52.257 13.11H53.203C53.2836 13.11 53.3423 13.1357 53.379 13.187C53.4156 13.2383 53.4266 13.3043 53.412 13.385L51.894 20.535C51.8793 20.6157 51.8426 20.6817 51.784 20.733C51.7253 20.7843 51.6556 20.81 51.575 20.81H50.728C50.64 20.81 50.574 20.7917 50.53 20.755C50.4933 20.7183 50.4603 20.6743 50.431 20.623L48.308 15.805L47.296 20.546C47.2813 20.6267 47.241 20.6927 47.175 20.744C47.1163 20.788 47.0503 20.81 46.977 20.81H46.02Z" transform="translate(258.5 18.2518) rotate(-12.5)" fill="#5423E2"/>
<path d="M56.6458 20.92C55.7658 20.92 55.0801 20.7183 54.5888 20.315C54.0975 19.9043 53.8518 19.3287 53.8518 18.588C53.8518 18.346 53.8701 18.1297 53.9068 17.939C53.9948 17.411 54.1341 16.7583 54.3248 15.981C54.5595 15.0277 54.9848 14.2943 55.6008 13.781C56.2241 13.2603 57.0418 13 58.0538 13C58.6331 13 59.1391 13.0917 59.5718 13.275C60.0118 13.451 60.3491 13.704 60.5838 14.034C60.8258 14.3567 60.9468 14.7307 60.9468 15.156C60.9468 15.2807 60.9358 15.4163 60.9138 15.563C60.8991 15.629 60.8698 15.684 60.8258 15.728C60.7818 15.772 60.7268 15.794 60.6608 15.794H59.5828C59.4875 15.794 59.4178 15.7757 59.3738 15.739C59.3298 15.695 59.3078 15.6217 59.3078 15.519C59.3591 14.6903 58.9081 14.276 57.9548 14.276C57.4415 14.276 57.0088 14.419 56.6568 14.705C56.3048 14.991 56.0555 15.4347 55.9088 16.036C55.7548 16.6373 55.6228 17.2533 55.5128 17.884C55.4761 18.1187 55.4578 18.302 55.4578 18.434C55.4578 19.2407 55.8868 19.644 56.7448 19.644C57.1921 19.644 57.5771 19.5487 57.8998 19.358C58.2225 19.1673 58.4828 18.8483 58.6808 18.401C58.7321 18.2983 58.7835 18.2287 58.8348 18.192C58.8861 18.148 58.9558 18.126 59.0438 18.126H60.1218C60.1878 18.126 60.2391 18.148 60.2758 18.192C60.3125 18.236 60.3235 18.291 60.3088 18.357C60.1108 19.127 59.7001 19.7467 59.0768 20.216C58.4608 20.6853 57.6505 20.92 56.6458 20.92Z" transform="translate(258.5 18.2518) rotate(-12.5)" fill="#5423E2"/>
<path d="M61.3383 20.81C61.265 20.81 61.2063 20.7843 61.1623 20.733C61.1257 20.6817 61.1147 20.6193 61.1293 20.546L62.6473 13.385C62.662 13.3043 62.6987 13.2383 62.7573 13.187C62.8233 13.1357 62.893 13.11 62.9663 13.11H67.8283C67.909 13.11 67.9677 13.1357 68.0043 13.187C68.041 13.2383 68.052 13.3043 68.0373 13.385L67.8833 14.122C67.8687 14.2027 67.8283 14.2687 67.7623 14.32C67.7037 14.364 67.6377 14.386 67.5643 14.386H63.9453L63.5273 16.311H66.9043C66.985 16.311 67.0437 16.3367 67.0803 16.388C67.117 16.4393 67.128 16.5053 67.1133 16.586L66.9703 17.279C66.9557 17.3597 66.9153 17.4257 66.8493 17.477C66.7907 17.521 66.721 17.543 66.6403 17.543H63.2743L62.8453 19.534H66.5523C66.633 19.534 66.6917 19.5597 66.7283 19.611C66.765 19.6623 66.776 19.7247 66.7613 19.798L66.6073 20.546C66.5927 20.6267 66.5523 20.6927 66.4863 20.744C66.4277 20.788 66.3617 20.81 66.2883 20.81H61.3383Z" transform="translate(258.5 18.2518) rotate(-12.5)" fill="#5423E2"/>
<path d="M70.7001 20.92C70.0914 20.92 69.5708 20.8357 69.1381 20.667C68.7128 20.4983 68.3901 20.271 68.1701 19.985C67.9574 19.699 67.8511 19.3837 67.8511 19.039C67.8511 18.9877 67.8584 18.9033 67.8731 18.786C67.8804 18.7273 67.9061 18.676 67.9501 18.632C68.0014 18.5807 68.0601 18.555 68.1261 18.555H69.1491C69.2298 18.555 69.2921 18.5733 69.3361 18.61C69.3801 18.6467 69.4168 18.698 69.4461 18.764C69.4754 19.006 69.6001 19.215 69.8201 19.391C70.0474 19.5597 70.3738 19.644 70.7991 19.644C71.3124 19.644 71.7231 19.5597 72.0311 19.391C72.3464 19.215 72.5334 18.9767 72.5921 18.676C72.6068 18.6027 72.6141 18.5477 72.6141 18.511C72.6141 18.3497 72.5518 18.214 72.4271 18.104C72.3098 17.994 72.1301 17.895 71.8881 17.807C71.6534 17.719 71.3088 17.609 70.8541 17.477C70.1648 17.3083 69.6514 17.0773 69.3141 16.784C68.9768 16.4833 68.8081 16.0947 68.8081 15.618C68.8081 15.42 68.8264 15.244 68.8631 15.09C69.0024 14.4447 69.3471 13.935 69.8971 13.561C70.4544 13.187 71.1731 13 72.0531 13C72.5958 13 73.0688 13.0953 73.4721 13.286C73.8754 13.4693 74.1834 13.7077 74.3961 14.001C74.6088 14.287 74.7151 14.5767 74.7151 14.87C74.7151 14.914 74.7078 14.98 74.6931 15.068C74.6784 15.134 74.6491 15.189 74.6051 15.233C74.5611 15.277 74.5061 15.299 74.4401 15.299H73.3731C73.2191 15.299 73.1238 15.233 73.0871 15.101C73.0944 14.8737 72.9918 14.6793 72.7791 14.518C72.5664 14.3567 72.2914 14.276 71.9541 14.276C71.5434 14.276 71.2024 14.353 70.9311 14.507C70.6598 14.661 70.4911 14.8847 70.4251 15.178C70.4104 15.266 70.4031 15.332 70.4031 15.376C70.4031 15.596 70.5204 15.7757 70.7551 15.915C70.9898 16.0543 71.4004 16.201 71.9871 16.355C72.7644 16.5383 73.3328 16.7767 73.6921 17.07C74.0514 17.356 74.2311 17.741 74.2311 18.225C74.2311 18.357 74.2128 18.5257 74.1761 18.731C74.0221 19.4497 73.6481 19.996 73.0541 20.37C72.4601 20.7367 71.6754 20.92 70.7001 20.92Z" transform="translate(258.5 18.2518) rotate(-12.5)" fill="#5423E2"/>
<path d="M75.6017 18.665C75.5284 18.665 75.4734 18.643 75.4367 18.599C75.4001 18.5477 75.3891 18.4817 75.4037 18.401L76.4707 13.374C76.4781 13.3007 76.5111 13.2383 76.5697 13.187C76.6357 13.1357 76.7054 13.11 76.7787 13.11H77.6917C77.7724 13.11 77.8311 13.1357 77.8677 13.187C77.9044 13.2383 77.9154 13.3007 77.9007 13.374L76.8337 18.401C76.8191 18.4743 76.7787 18.5367 76.7127 18.588C76.6541 18.6393 76.5881 18.665 76.5147 18.665H75.6017ZM75.0847 20.81C75.0041 20.81 74.9417 20.7843 74.8977 20.733C74.8611 20.6817 74.8501 20.6193 74.8647 20.546L75.0847 19.501C75.0994 19.4277 75.1361 19.3653 75.1947 19.314C75.2607 19.2627 75.3341 19.237 75.4147 19.237H76.4597C76.5331 19.237 76.5881 19.2627 76.6247 19.314C76.6687 19.3653 76.6834 19.4277 76.6687 19.501L76.4487 20.546C76.4341 20.6193 76.3937 20.6817 76.3277 20.733C76.2691 20.7843 76.2031 20.81 76.1297 20.81H75.0847Z" transform="translate(258.5 18.2518) rotate(-12.5)" fill="#5423E2"/>
<path d="M0 4.79875C0 4.79875 18.989 -0.717399 33.0275 0.0785371C51.0644 1.10117 61.5293 8.93292 63 10.2595M63 10.2595L61.7418 4.79875M63 10.2595L57.4396 11" transform="translate(66 9.99998)" stroke="#29EDE1" stroke-width="2"/>
<path d="M0 4.18872C0 4.18872 16.4633 -0.626202 28.6346 0.0685534C44.2725 0.961192 53.3455 7.79735 54.6206 8.95528M54.6206 8.95528L53.5297 4.18873M54.6206 8.95528L49.7997 9.60166" transform="translate(190.099 34.744) scale(1 -1) rotate(-2.5)" stroke="#29EDE1" stroke-width="2"/>
</svg>
