<svg width="193" height="102" viewBox="0 0 193 102" fill="none" xmlns="http://www.w3.org/2000/svg">
<mask id="mask0" mask-type="alpha" maskUnits="userSpaceOnUse" x="0" y="0" width="193" height="102">
<rect x="1" y="1" width="191" height="100" fill="black" stroke="black" stroke-width="2"/>
</mask>
<g mask="url(#mask0)">
<rect width="193" height="102" fill="url(#paint0_linear)"/>
<path d="M28.6496 3.35031C25.6701 0.372594 21.9312 -0.717384 20.74 0.473704L15.9472 5.26805C15.22 5.99526 14.5855 8.4291 14.8772 10.8913L0.368697 25.401C-0.491869 26.2599 0.205362 28.3521 1.92594 30.0731C3.64707 31.7959 5.74098 32.4909 6.59988 31.632L21.1084 17.1239C23.5723 17.4156 26.0062 16.7806 26.7318 16.054L31.5263 11.2596C32.7174 10.0685 31.6274 6.3297 28.6496 3.35031ZM12.6955 17.8495C12.0322 17.1884 12.2494 15.8995 13.1738 14.9729C14.0983 14.0462 15.3872 13.8318 16.0505 14.4929C16.71 15.154 16.4967 16.4428 15.5705 17.3695C14.6444 18.2961 13.3572 18.5106 12.6961 17.8495H12.6955ZM24.6956 7.30579C22.3878 4.99806 21.8084 1.95479 22.0128 1.74868C22.219 1.54257 25.1434 2.24311 27.4529 4.55029C29.7607 6.85802 30.4518 9.78908 30.2529 9.98852C30.054 10.188 27.0012 9.61353 24.6956 7.30579Z" transform="translate(16.8624 13.3035) rotate(15.5136)" fill="white"/>
<path d="M28.6496 3.35031C25.6701 0.372594 21.9312 -0.717384 20.74 0.473704L15.9472 5.26805C15.22 5.99526 14.5855 8.4291 14.8772 10.8913L0.368697 25.401C-0.491869 26.2599 0.205362 28.3521 1.92594 30.0731C3.64707 31.7959 5.74098 32.4909 6.59988 31.632L21.1084 17.1239C23.5723 17.4156 26.0062 16.7806 26.7318 16.054L31.5263 11.2596C32.7174 10.0685 31.6274 6.3297 28.6496 3.35031ZM12.6955 17.8495C12.0322 17.1884 12.2494 15.8995 13.1738 14.9729C14.0983 14.0462 15.3872 13.8318 16.0505 14.4929C16.71 15.154 16.4967 16.4428 15.5705 17.3695C14.6444 18.2961 13.3572 18.5106 12.6961 17.8495H12.6955ZM24.6956 7.30579C22.3878 4.99806 21.8084 1.95479 22.0128 1.74868C22.219 1.54257 25.1434 2.24311 27.4529 4.55029C29.7607 6.85802 30.4518 9.78908 30.2529 9.98852C30.054 10.188 27.0012 9.61353 24.6956 7.30579Z" transform="translate(23.7804 59.5624) rotate(65.9318)" fill="white"/>
<path d="M28.6496 3.35031C25.6701 0.372594 21.9312 -0.717384 20.74 0.473704L15.9472 5.26805C15.22 5.99526 14.5855 8.4291 14.8772 10.8913L0.368697 25.401C-0.491869 26.2599 0.205362 28.3521 1.92594 30.0731C3.64707 31.7959 5.74098 32.4909 6.59988 31.632L21.1084 17.1239C23.5723 17.4156 26.0062 16.7806 26.7318 16.054L31.5263 11.2596C32.7174 10.0685 31.6274 6.3297 28.6496 3.35031ZM12.6955 17.8495C12.0322 17.1884 12.2494 15.8995 13.1738 14.9729C14.0983 14.0462 15.3872 13.8318 16.0505 14.4929C16.71 15.154 16.4967 16.4428 15.5705 17.3695C14.6444 18.2961 13.3572 18.5106 12.6961 17.8495H12.6955ZM24.6956 7.30579C22.3878 4.99806 21.8084 1.95479 22.0128 1.74868C22.219 1.54257 25.1434 2.24311 27.4529 4.55029C29.7607 6.85802 30.4518 9.78908 30.2529 9.98852C30.054 10.188 27.0012 9.61353 24.6956 7.30579Z" transform="translate(76.7509 40.0117) rotate(-16.8223)" fill="white"/>
<path d="M28.6496 3.35031C25.6701 0.372594 21.9312 -0.717384 20.74 0.473704L15.9472 5.26805C15.22 5.99526 14.5855 8.4291 14.8772 10.8913L0.368697 25.401C-0.491869 26.2599 0.205362 28.3521 1.92594 30.0731C3.64707 31.7959 5.74098 32.4909 6.59988 31.632L21.1084 17.1239C23.5723 17.4156 26.0062 16.7806 26.7318 16.054L31.5263 11.2596C32.7174 10.0685 31.6274 6.3297 28.6496 3.35031ZM12.6955 17.8495C12.0322 17.1884 12.2494 15.8995 13.1738 14.9729C14.0983 14.0462 15.3872 13.8318 16.0505 14.4929C16.71 15.154 16.4967 16.4428 15.5705 17.3695C14.6444 18.2961 13.3572 18.5106 12.6961 17.8495H12.6955ZM24.6956 7.30579C22.3878 4.99806 21.8084 1.95479 22.0128 1.74868C22.219 1.54257 25.1434 2.24311 27.4529 4.55029C29.7607 6.85802 30.4518 9.78908 30.2529 9.98852C30.054 10.188 27.0012 9.61353 24.6956 7.30579Z" transform="translate(167.943 40.8461) rotate(-176.591)" fill="white"/>
<path d="M28.6496 3.35031C25.6701 0.372594 21.9312 -0.717384 20.74 0.473704L15.9472 5.26805C15.22 5.99526 14.5855 8.4291 14.8772 10.8913L0.368697 25.401C-0.491869 26.2599 0.205362 28.3521 1.92594 30.0731C3.64707 31.7959 5.74098 32.4909 6.59988 31.632L21.1084 17.1239C23.5723 17.4156 26.0062 16.7806 26.7318 16.054L31.5263 11.2596C32.7174 10.0685 31.6274 6.3297 28.6496 3.35031ZM12.6955 17.8495C12.0322 17.1884 12.2494 15.8995 13.1738 14.9729C14.0983 14.0462 15.3872 13.8318 16.0505 14.4929C16.71 15.154 16.4967 16.4428 15.5705 17.3695C14.6444 18.2961 13.3572 18.5106 12.6961 17.8495H12.6955ZM24.6956 7.30579C22.3878 4.99806 21.8084 1.95479 22.0128 1.74868C22.219 1.54257 25.1434 2.24311 27.4529 4.55029C29.7607 6.85802 30.4518 9.78908 30.2529 9.98852C30.054 10.188 27.0012 9.61353 24.6956 7.30579Z" transform="translate(86.6562 23.3848) rotate(-141.938)" fill="white"/>
<path d="M28.6496 3.35031C25.6701 0.372594 21.9312 -0.717384 20.74 0.473704L15.9472 5.26805C15.22 5.99526 14.5855 8.4291 14.8772 10.8913L0.368697 25.401C-0.491869 26.2599 0.205362 28.3521 1.92594 30.0731C3.64707 31.7959 5.74098 32.4909 6.59988 31.632L21.1084 17.1239C23.5723 17.4156 26.0062 16.7806 26.7318 16.054L31.5263 11.2596C32.7174 10.0685 31.6274 6.3297 28.6496 3.35031ZM12.6955 17.8495C12.0322 17.1884 12.2494 15.8995 13.1738 14.9729C14.0983 14.0462 15.3872 13.8318 16.0505 14.4929C16.71 15.154 16.4967 16.4428 15.5705 17.3695C14.6444 18.2961 13.3572 18.5106 12.6961 17.8495H12.6955ZM24.6956 7.30579C22.3878 4.99806 21.8084 1.95479 22.0128 1.74868C22.219 1.54257 25.1434 2.24311 27.4529 4.55029C29.7607 6.85802 30.4518 9.78908 30.2529 9.98852C30.054 10.188 27.0012 9.61353 24.6956 7.30579Z" transform="translate(168.491 102.002) rotate(-107.545)" fill="white"/>
<path d="M46.9705 13C46.8865 13 46.8165 12.972 46.7605 12.916C46.7045 12.86 46.6765 12.79 46.6765 12.706L46.7045 12.58L50.0645 3.55C50.1578 3.31667 50.3258 3.2 50.5685 3.2H52.1085C52.3511 3.2 52.5191 3.31667 52.6125 3.55L55.9725 12.58L56.0005 12.706C56.0005 12.79 55.9678 12.86 55.9025 12.916C55.8465 12.972 55.7811 13 55.7065 13H54.4605C54.2645 13 54.1291 12.9113 54.0545 12.734L53.4105 11.04H49.2665L48.6225 12.734C48.5478 12.9113 48.4125 13 48.2165 13H46.9705ZM49.7565 9.416H52.9205L51.3385 5.104L49.7565 9.416ZM60.2916 15.66C60.1982 15.66 60.1189 15.6273 60.0536 15.562C59.9882 15.506 59.9556 15.4267 59.9556 15.324V6.056C59.9556 5.95333 59.9882 5.874 60.0536 5.818C60.1189 5.75267 60.1982 5.72 60.2916 5.72H61.4116C61.5142 5.72 61.5982 5.75267 61.6636 5.818C61.7289 5.88333 61.7616 5.96267 61.7616 6.056V6.616C62.2562 5.92533 62.9982 5.58 63.9876 5.58C64.9302 5.58 65.6536 5.87867 66.1576 6.476C66.6616 7.064 66.9322 7.85733 66.9696 8.856C66.9789 8.968 66.9836 9.136 66.9836 9.36C66.9836 9.584 66.9789 9.752 66.9696 9.864C66.9416 10.844 66.6709 11.6373 66.1576 12.244C65.6536 12.8413 64.9302 13.14 63.9876 13.14C63.0542 13.14 62.3402 12.8087 61.8456 12.146V15.324C61.8456 15.4267 61.8129 15.506 61.7476 15.562C61.6916 15.6273 61.6122 15.66 61.5096 15.66H60.2916ZM63.4556 11.628C64.4542 11.628 64.9862 11.012 65.0516 9.78C65.0609 9.68667 65.0656 9.54667 65.0656 9.36C65.0656 9.17333 65.0609 9.03333 65.0516 8.94C64.9862 7.708 64.4542 7.092 63.4556 7.092C62.9236 7.092 62.5269 7.26467 62.2656 7.61C62.0042 7.95533 61.8642 8.37533 61.8456 8.87C61.8362 8.982 61.8316 9.15933 61.8316 9.402C61.8316 9.64467 61.8362 9.82667 61.8456 9.948C61.8642 10.4147 62.0089 10.8113 62.2796 11.138C62.5502 11.4647 62.9422 11.628 63.4556 11.628ZM71.7752 13.14C70.6739 13.14 69.8245 12.86 69.2272 12.3C68.6299 11.74 68.3079 10.9653 68.2612 9.976L68.2472 9.36L68.2612 8.744C68.3079 7.764 68.6345 6.994 69.2412 6.434C69.8479 5.86467 70.6925 5.58 71.7752 5.58C72.8485 5.58 73.6885 5.86467 74.2952 6.434C74.9019 6.994 75.2285 7.764 75.2752 8.744C75.2845 8.856 75.2892 9.06133 75.2892 9.36C75.2892 9.65867 75.2845 9.864 75.2752 9.976C75.2285 10.9653 74.9065 11.74 74.3092 12.3C73.7119 12.86 72.8672 13.14 71.7752 13.14ZM71.7752 11.726C72.2699 11.726 72.6479 11.572 72.9092 11.264C73.1799 10.956 73.3245 10.5033 73.3432 9.906C73.3525 9.81267 73.3572 9.63067 73.3572 9.36C73.3572 9.08933 73.3525 8.90733 73.3432 8.814C73.3245 8.21667 73.1799 7.764 72.9092 7.456C72.6385 7.13867 72.2605 6.98 71.7752 6.98C71.2805 6.98 70.8979 7.13867 70.6272 7.456C70.3565 7.764 70.2119 8.21667 70.1932 8.814L70.1792 9.36L70.1932 9.906C70.2119 10.5033 70.3565 10.956 70.6272 11.264C70.8979 11.572 71.2805 11.726 71.7752 11.726ZM77.19 15.66C77.0967 15.66 77.0173 15.6273 76.952 15.562C76.8867 15.506 76.854 15.4267 76.854 15.324V6.056C76.854 5.95333 76.8867 5.874 76.952 5.818C77.0173 5.75267 77.0967 5.72 77.19 5.72H78.31C78.4127 5.72 78.4967 5.75267 78.562 5.818C78.6273 5.88333 78.66 5.96267 78.66 6.056V6.616C79.1547 5.92533 79.8967 5.58 80.886 5.58C81.8287 5.58 82.552 5.87867 83.056 6.476C83.56 7.064 83.8307 7.85733 83.868 8.856C83.8773 8.968 83.882 9.136 83.882 9.36C83.882 9.584 83.8773 9.752 83.868 9.864C83.84 10.844 83.5693 11.6373 83.056 12.244C82.552 12.8413 81.8287 13.14 80.886 13.14C79.9527 13.14 79.2387 12.8087 78.744 12.146V15.324C78.744 15.4267 78.7113 15.506 78.646 15.562C78.59 15.6273 78.5107 15.66 78.408 15.66H77.19ZM80.354 11.628C81.3527 11.628 81.8847 11.012 81.95 9.78C81.9593 9.68667 81.964 9.54667 81.964 9.36C81.964 9.17333 81.9593 9.03333 81.95 8.94C81.8847 7.708 81.3527 7.092 80.354 7.092C79.822 7.092 79.4253 7.26467 79.164 7.61C78.9027 7.95533 78.7627 8.37533 78.744 8.87C78.7347 8.982 78.73 9.15933 78.73 9.402C78.73 9.64467 78.7347 9.82667 78.744 9.948C78.7627 10.4147 78.9073 10.8113 79.178 11.138C79.4487 11.4647 79.8407 11.628 80.354 11.628ZM88.1416 13.14C87.283 13.14 86.6063 12.86 86.1116 12.3C85.617 11.74 85.3696 10.97 85.3696 9.99V6.056C85.3696 5.95333 85.4023 5.874 85.4676 5.818C85.533 5.75267 85.6123 5.72 85.7056 5.72H86.9656C87.059 5.72 87.1383 5.75267 87.2036 5.818C87.269 5.88333 87.3016 5.96267 87.3016 6.056V9.906C87.3016 11.054 87.801 11.628 88.7996 11.628C89.285 11.628 89.6676 11.474 89.9476 11.166C90.237 10.858 90.3816 10.438 90.3816 9.906V6.056C90.3816 5.95333 90.4143 5.874 90.4796 5.818C90.545 5.75267 90.6243 5.72 90.7176 5.72H91.9636C92.0663 5.72 92.1456 5.75267 92.2016 5.818C92.267 5.874 92.2996 5.95333 92.2996 6.056V12.664C92.2996 12.7573 92.267 12.8367 92.2016 12.902C92.1456 12.9673 92.0663 13 91.9636 13H90.8016C90.7083 13 90.629 12.9673 90.5636 12.902C90.4983 12.8367 90.4656 12.7573 90.4656 12.664V12.09C89.9523 12.79 89.1776 13.14 88.1416 13.14ZM94.4986 13C94.4053 13 94.3259 12.9673 94.2606 12.902C94.1953 12.8367 94.1626 12.7573 94.1626 12.664V3.396C94.1626 3.29333 94.1953 3.214 94.2606 3.158C94.3259 3.09267 94.4053 3.06 94.4986 3.06H95.6746C95.7773 3.06 95.8566 3.09267 95.9126 3.158C95.9779 3.214 96.0106 3.29333 96.0106 3.396V12.664C96.0106 12.7573 95.9779 12.8367 95.9126 12.902C95.8566 12.9673 95.7773 13 95.6746 13H94.4986ZM99.9814 13.14C99.5054 13.14 99.0667 13.0467 98.6654 12.86C98.2734 12.664 97.9607 12.4027 97.7274 12.076C97.5034 11.7493 97.3914 11.39 97.3914 10.998C97.3914 10.3633 97.648 9.85 98.1614 9.458C98.6747 9.066 99.3794 8.8 100.275 8.66L102.193 8.38V8.086C102.193 7.68467 102.091 7.38133 101.885 7.176C101.68 6.97067 101.353 6.868 100.905 6.868C100.597 6.868 100.35 6.924 100.163 7.036C99.9767 7.148 99.8227 7.26467 99.7014 7.386C99.5894 7.498 99.5147 7.57267 99.4774 7.61C99.44 7.722 99.37 7.778 99.2674 7.778H98.1754C98.0914 7.778 98.0167 7.75 97.9514 7.694C97.8954 7.638 97.8674 7.56333 97.8674 7.47C97.8767 7.23667 97.9887 6.97533 98.2034 6.686C98.4274 6.38733 98.768 6.13067 99.2254 5.916C99.6827 5.692 100.247 5.58 100.919 5.58C102.021 5.58 102.823 5.82733 103.327 6.322C103.831 6.81667 104.083 7.46533 104.083 8.268V12.664C104.083 12.7573 104.051 12.8367 103.985 12.902C103.929 12.9673 103.85 13 103.747 13H102.585C102.492 13 102.413 12.9673 102.347 12.902C102.282 12.8367 102.249 12.7573 102.249 12.664V12.118C102.044 12.4167 101.755 12.664 101.381 12.86C101.008 13.0467 100.541 13.14 99.9814 13.14ZM100.457 11.796C100.971 11.796 101.391 11.628 101.717 11.292C102.044 10.956 102.207 10.4707 102.207 9.836V9.556L100.807 9.78C99.734 9.948 99.1974 10.3073 99.1974 10.858C99.1974 11.1567 99.3187 11.39 99.5614 11.558C99.8134 11.7167 100.112 11.796 100.457 11.796ZM106.215 13C106.122 13 106.042 12.9673 105.977 12.902C105.912 12.8367 105.879 12.7573 105.879 12.664V6.07C105.879 5.96733 105.912 5.88333 105.977 5.818C106.042 5.75267 106.122 5.72 106.215 5.72H107.363C107.466 5.72 107.55 5.75267 107.615 5.818C107.68 5.88333 107.713 5.96733 107.713 6.07V6.644C108.18 6.028 108.852 5.72 109.729 5.72H110.317C110.42 5.72 110.499 5.75267 110.555 5.818C110.62 5.874 110.653 5.95333 110.653 6.056V7.078C110.653 7.17133 110.62 7.25067 110.555 7.316C110.499 7.38133 110.42 7.414 110.317 7.414H109.211C108.772 7.414 108.427 7.54 108.175 7.792C107.923 8.044 107.797 8.38933 107.797 8.828V12.664C107.797 12.7573 107.764 12.8367 107.699 12.902C107.634 12.9673 107.554 13 107.461 13H106.215ZM20.6633 30C20.57 30 20.4907 29.9673 20.4253 29.902C20.36 29.8367 20.3273 29.7573 20.3273 29.664V23.056C20.3273 22.9533 20.36 22.874 20.4253 22.818C20.4907 22.7527 20.57 22.72 20.6633 22.72H21.8253C21.928 22.72 22.0073 22.7527 22.0633 22.818C22.1287 22.874 22.1613 22.9533 22.1613 23.056V23.63C22.7307 22.93 23.51 22.58 24.4993 22.58C25.358 22.58 26.0393 22.86 26.5433 23.42C27.0473 23.98 27.2993 24.75 27.2993 25.73V29.664C27.2993 29.7573 27.2667 29.8367 27.2013 29.902C27.1453 29.9673 27.066 30 26.9633 30H25.7033C25.61 30 25.5307 29.9673 25.4653 29.902C25.4 29.8367 25.3673 29.7573 25.3673 29.664V25.814C25.3673 25.2727 25.232 24.8527 24.9613 24.554C24.7 24.246 24.322 24.092 23.8273 24.092C23.3513 24.092 22.9687 24.246 22.6793 24.554C22.39 24.862 22.2453 25.282 22.2453 25.814V29.664C22.2453 29.7573 22.2127 29.8367 22.1473 29.902C22.0913 29.9673 22.012 30 21.9093 30H20.6633ZM31.1913 30.14C30.7153 30.14 30.2767 30.0467 29.8753 29.86C29.4833 29.664 29.1707 29.4027 28.9373 29.076C28.7133 28.7493 28.6013 28.39 28.6013 27.998C28.6013 27.3633 28.858 26.85 29.3713 26.458C29.8847 26.066 30.5893 25.8 31.4853 25.66L33.4033 25.38V25.086C33.4033 24.6847 33.3007 24.3813 33.0953 24.176C32.89 23.9707 32.5633 23.868 32.1153 23.868C31.8073 23.868 31.56 23.924 31.3733 24.036C31.1867 24.148 31.0327 24.2647 30.9113 24.386C30.7993 24.498 30.7247 24.5727 30.6873 24.61C30.65 24.722 30.58 24.778 30.4773 24.778H29.3853C29.3013 24.778 29.2267 24.75 29.1613 24.694C29.1053 24.638 29.0773 24.5633 29.0773 24.47C29.0867 24.2367 29.1987 23.9753 29.4133 23.686C29.6373 23.3873 29.978 23.1307 30.4353 22.916C30.8927 22.692 31.4573 22.58 32.1293 22.58C33.2307 22.58 34.0333 22.8273 34.5373 23.322C35.0413 23.8167 35.2933 24.4653 35.2933 25.268V29.664C35.2933 29.7573 35.2607 29.8367 35.1953 29.902C35.1393 29.9673 35.06 30 34.9573 30H33.7953C33.702 30 33.6227 29.9673 33.5573 29.902C33.492 29.8367 33.4593 29.7573 33.4593 29.664V29.118C33.254 29.4167 32.9647 29.664 32.5913 29.86C32.218 30.0467 31.7513 30.14 31.1913 30.14ZM31.6673 28.796C32.1807 28.796 32.6007 28.628 32.9273 28.292C33.254 27.956 33.4173 27.4707 33.4173 26.836V26.556L32.0173 26.78C30.944 26.948 30.4073 27.3073 30.4073 27.858C30.4073 28.1567 30.5287 28.39 30.7713 28.558C31.0233 28.7167 31.322 28.796 31.6673 28.796ZM40.3247 30C39.4753 30 38.836 29.7807 38.4067 29.342C37.9773 28.894 37.7627 28.2407 37.7627 27.382V24.218H36.6567C36.5633 24.218 36.484 24.1853 36.4187 24.12C36.3533 24.0547 36.3207 23.9753 36.3207 23.882V23.056C36.3207 22.9627 36.3533 22.8833 36.4187 22.818C36.484 22.7527 36.5633 22.72 36.6567 22.72H37.7627V20.396C37.7627 20.2933 37.7953 20.214 37.8607 20.158C37.926 20.0927 38.0053 20.06 38.0987 20.06H39.2607C39.3633 20.06 39.4427 20.0927 39.4987 20.158C39.564 20.214 39.5967 20.2933 39.5967 20.396V22.72H41.3467C41.44 22.72 41.5193 22.7527 41.5847 22.818C41.65 22.8833 41.6827 22.9627 41.6827 23.056V23.882C41.6827 23.9753 41.65 24.0547 41.5847 24.12C41.5193 24.1853 41.44 24.218 41.3467 24.218H39.5967V27.228C39.5967 27.6293 39.6667 27.9327 39.8067 28.138C39.9467 28.3433 40.1753 28.446 40.4927 28.446H41.4727C41.5753 28.446 41.6547 28.4787 41.7107 28.544C41.776 28.6 41.8087 28.6793 41.8087 28.782V29.664C41.8087 29.7573 41.776 29.8367 41.7107 29.902C41.6547 29.9673 41.5753 30 41.4727 30H40.3247ZM45.752 30.14C44.8933 30.14 44.2166 29.86 43.722 29.3C43.2273 28.74 42.98 27.97 42.98 26.99V23.056C42.98 22.9533 43.0126 22.874 43.078 22.818C43.1433 22.7527 43.2226 22.72 43.316 22.72H44.576C44.6693 22.72 44.7486 22.7527 44.814 22.818C44.8793 22.8833 44.912 22.9627 44.912 23.056V26.906C44.912 28.054 45.4113 28.628 46.41 28.628C46.8953 28.628 47.278 28.474 47.558 28.166C47.8473 27.858 47.992 27.438 47.992 26.906V23.056C47.992 22.9533 48.0246 22.874 48.09 22.818C48.1553 22.7527 48.2346 22.72 48.328 22.72H49.574C49.6766 22.72 49.756 22.7527 49.812 22.818C49.8773 22.874 49.91 22.9533 49.91 23.056V29.664C49.91 29.7573 49.8773 29.8367 49.812 29.902C49.756 29.9673 49.6766 30 49.574 30H48.412C48.3186 30 48.2393 29.9673 48.174 29.902C48.1086 29.8367 48.076 29.7573 48.076 29.664V29.09C47.5626 29.79 46.788 30.14 45.752 30.14ZM52.095 30C52.0016 30 51.9223 29.9673 51.857 29.902C51.7916 29.8367 51.759 29.7573 51.759 29.664V23.07C51.759 22.9673 51.7916 22.8833 51.857 22.818C51.9223 22.7527 52.0016 22.72 52.095 22.72H53.243C53.3456 22.72 53.4296 22.7527 53.495 22.818C53.5603 22.8833 53.593 22.9673 53.593 23.07V23.644C54.0596 23.028 54.7316 22.72 55.609 22.72H56.197C56.2996 22.72 56.379 22.7527 56.435 22.818C56.5003 22.874 56.533 22.9533 56.533 23.056V24.078C56.533 24.1713 56.5003 24.2507 56.435 24.316C56.379 24.3813 56.2996 24.414 56.197 24.414H55.091C54.6523 24.414 54.307 24.54 54.055 24.792C53.803 25.044 53.677 25.3893 53.677 25.828V29.664C53.677 29.7573 53.6443 29.8367 53.579 29.902C53.5136 29.9673 53.4343 30 53.341 30H52.095ZM59.6288 30.14C59.1528 30.14 58.7142 30.0467 58.3128 29.86C57.9208 29.664 57.6082 29.4027 57.3748 29.076C57.1508 28.7493 57.0388 28.39 57.0388 27.998C57.0388 27.3633 57.2955 26.85 57.8088 26.458C58.3222 26.066 59.0268 25.8 59.9228 25.66L61.8408 25.38V25.086C61.8408 24.6847 61.7382 24.3813 61.5328 24.176C61.3275 23.9707 61.0008 23.868 60.5528 23.868C60.2448 23.868 59.9975 23.924 59.8108 24.036C59.6242 24.148 59.4702 24.2647 59.3488 24.386C59.2368 24.498 59.1622 24.5727 59.1248 24.61C59.0875 24.722 59.0175 24.778 58.9148 24.778H57.8228C57.7388 24.778 57.6642 24.75 57.5988 24.694C57.5428 24.638 57.5148 24.5633 57.5148 24.47C57.5242 24.2367 57.6362 23.9753 57.8508 23.686C58.0748 23.3873 58.4155 23.1307 58.8728 22.916C59.3302 22.692 59.8948 22.58 60.5668 22.58C61.6682 22.58 62.4708 22.8273 62.9748 23.322C63.4788 23.8167 63.7308 24.4653 63.7308 25.268V29.664C63.7308 29.7573 63.6982 29.8367 63.6328 29.902C63.5768 29.9673 63.4975 30 63.3948 30H62.2328C62.1395 30 62.0602 29.9673 61.9948 29.902C61.9295 29.8367 61.8968 29.7573 61.8968 29.664V29.118C61.6915 29.4167 61.4022 29.664 61.0288 29.86C60.6555 30.0467 60.1888 30.14 59.6288 30.14ZM60.1048 28.796C60.6182 28.796 61.0382 28.628 61.3648 28.292C61.6915 27.956 61.8548 27.4707 61.8548 26.836V26.556L60.4548 26.78C59.3815 26.948 58.8448 27.3073 58.8448 27.858C58.8448 28.1567 58.9662 28.39 59.2088 28.558C59.4608 28.7167 59.7595 28.796 60.1048 28.796ZM65.8765 30C65.7832 30 65.7039 29.9673 65.6385 29.902C65.5732 29.8367 65.5405 29.7573 65.5405 29.664V20.396C65.5405 20.2933 65.5732 20.214 65.6385 20.158C65.7039 20.0927 65.7832 20.06 65.8765 20.06H67.0525C67.1552 20.06 67.2345 20.0927 67.2905 20.158C67.3559 20.214 67.3885 20.2933 67.3885 20.396V29.664C67.3885 29.7573 67.3559 29.8367 67.2905 29.902C67.2345 29.9673 67.1552 30 67.0525 30H65.8765ZM69.5253 26.612C69.432 26.612 69.3526 26.5793 69.2873 26.514C69.222 26.4487 69.1893 26.3693 69.1893 26.276V25.324C69.1893 25.2307 69.222 25.1513 69.2873 25.086C69.3526 25.0207 69.432 24.988 69.5253 24.988H73.8373C73.94 24.988 74.0193 25.0207 74.0753 25.086C74.1406 25.142 74.1733 25.2213 74.1733 25.324V26.276C74.1733 26.3693 74.1406 26.4487 74.0753 26.514C74.01 26.5793 73.9306 26.612 73.8373 26.612H69.5253ZM76.3219 30C76.2285 30 76.1492 29.9673 76.0839 29.902C76.0185 29.8367 75.9859 29.7573 75.9859 29.664V20.396C75.9859 20.2933 76.0185 20.214 76.0839 20.158C76.1492 20.0927 76.2285 20.06 76.3219 20.06H77.4979C77.6005 20.06 77.6799 20.0927 77.7359 20.158C77.8012 20.214 77.8339 20.2933 77.8339 20.396V29.664C77.8339 29.7573 77.8012 29.8367 77.7359 29.902C77.6799 29.9673 77.6005 30 77.4979 30H76.3219ZM81.8046 30.14C81.3286 30.14 80.8899 30.0467 80.4886 29.86C80.0966 29.664 79.7839 29.4027 79.5506 29.076C79.3266 28.7493 79.2146 28.39 79.2146 27.998C79.2146 27.3633 79.4713 26.85 79.9846 26.458C80.4979 26.066 81.2026 25.8 82.0986 25.66L84.0166 25.38V25.086C84.0166 24.6847 83.9139 24.3813 83.7086 24.176C83.5033 23.9707 83.1766 23.868 82.7286 23.868C82.4206 23.868 82.1733 23.924 81.9866 24.036C81.7999 24.148 81.6459 24.2647 81.5246 24.386C81.4126 24.498 81.3379 24.5727 81.3006 24.61C81.2633 24.722 81.1933 24.778 81.0906 24.778H79.9986C79.9146 24.778 79.8399 24.75 79.7746 24.694C79.7186 24.638 79.6906 24.5633 79.6906 24.47C79.6999 24.2367 79.8119 23.9753 80.0266 23.686C80.2506 23.3873 80.5913 23.1307 81.0486 22.916C81.5059 22.692 82.0706 22.58 82.7426 22.58C83.8439 22.58 84.6466 22.8273 85.1506 23.322C85.6546 23.8167 85.9066 24.4653 85.9066 25.268V29.664C85.9066 29.7573 85.8739 29.8367 85.8086 29.902C85.7526 29.9673 85.6733 30 85.5706 30H84.4086C84.3153 30 84.2359 29.9673 84.1706 29.902C84.1053 29.8367 84.0726 29.7573 84.0726 29.664V29.118C83.8673 29.4167 83.5779 29.664 83.2046 29.86C82.8313 30.0467 82.3646 30.14 81.8046 30.14ZM82.2806 28.796C82.7939 28.796 83.2139 28.628 83.5406 28.292C83.8673 27.956 84.0306 27.4707 84.0306 26.836V26.556L82.6306 26.78C81.5573 26.948 81.0206 27.3073 81.0206 27.858C81.0206 28.1567 81.1419 28.39 81.3846 28.558C81.6366 28.7167 81.9353 28.796 82.2806 28.796ZM88.0383 30C87.945 30 87.8657 29.9673 87.8003 29.902C87.735 29.8367 87.7023 29.7573 87.7023 29.664V23.056C87.7023 22.9533 87.735 22.874 87.8003 22.818C87.8657 22.7527 87.945 22.72 88.0383 22.72H89.2003C89.303 22.72 89.3823 22.7527 89.4383 22.818C89.5037 22.874 89.5363 22.9533 89.5363 23.056V23.63C90.1057 22.93 90.885 22.58 91.8743 22.58C92.733 22.58 93.4143 22.86 93.9183 23.42C94.4223 23.98 94.6743 24.75 94.6743 25.73V29.664C94.6743 29.7573 94.6417 29.8367 94.5763 29.902C94.5203 29.9673 94.441 30 94.3383 30H93.0783C92.985 30 92.9057 29.9673 92.8403 29.902C92.775 29.8367 92.7423 29.7573 92.7423 29.664V25.814C92.7423 25.2727 92.607 24.8527 92.3363 24.554C92.075 24.246 91.697 24.092 91.2023 24.092C90.7263 24.092 90.3437 24.246 90.0543 24.554C89.765 24.862 89.6203 25.282 89.6203 25.814V29.664C89.6203 29.7573 89.5877 29.8367 89.5223 29.902C89.4663 29.9673 89.387 30 89.2843 30H88.0383ZM99.7423 33.08C98.9117 33.08 98.2397 32.94 97.7263 32.66C97.213 32.3893 96.849 32.0767 96.6343 31.722C96.4197 31.3673 96.3123 31.064 96.3123 30.812C96.3123 30.7187 96.345 30.6393 96.4103 30.574C96.4757 30.518 96.555 30.49 96.6483 30.49H97.8943C97.9783 30.49 98.0483 30.5087 98.1043 30.546C98.1697 30.5927 98.221 30.672 98.2583 30.784C98.361 31.0267 98.515 31.232 98.7203 31.4C98.9257 31.5773 99.243 31.666 99.6723 31.666C100.232 31.666 100.643 31.54 100.904 31.288C101.166 31.0453 101.296 30.616 101.296 30V29.048C100.792 29.6453 100.078 29.944 99.1543 29.944C98.1837 29.944 97.451 29.65 96.9563 29.062C96.471 28.474 96.2097 27.6713 96.1723 26.654L96.1583 26.276L96.1723 25.898C96.2097 24.8993 96.4757 24.0967 96.9703 23.49C97.465 22.8833 98.193 22.58 99.1543 22.58C99.649 22.58 100.083 22.6733 100.456 22.86C100.83 23.0467 101.138 23.2987 101.38 23.616V23.07C101.38 22.9673 101.413 22.8833 101.478 22.818C101.553 22.7527 101.637 22.72 101.73 22.72H102.878C102.972 22.72 103.051 22.7527 103.116 22.818C103.182 22.8833 103.214 22.9673 103.214 23.07L103.228 29.818C103.228 30.854 102.939 31.6567 102.36 32.226C101.782 32.7953 100.909 33.08 99.7423 33.08ZM99.6863 28.46C100.209 28.46 100.601 28.292 100.862 27.956C101.124 27.62 101.268 27.2093 101.296 26.724C101.306 26.6493 101.31 26.5 101.31 26.276C101.31 26.052 101.306 25.9027 101.296 25.828C101.268 25.3427 101.124 24.932 100.862 24.596C100.601 24.26 100.209 24.092 99.6863 24.092C98.6783 24.092 98.1463 24.708 98.0903 25.94L98.0763 26.276C98.0763 27.732 98.613 28.46 99.6863 28.46ZM107.781 30.14C106.923 30.14 106.246 29.86 105.751 29.3C105.257 28.74 105.009 27.97 105.009 26.99V23.056C105.009 22.9533 105.042 22.874 105.107 22.818C105.173 22.7527 105.252 22.72 105.345 22.72H106.605C106.699 22.72 106.778 22.7527 106.843 22.818C106.909 22.8833 106.941 22.9627 106.941 23.056V26.906C106.941 28.054 107.441 28.628 108.439 28.628C108.925 28.628 109.307 28.474 109.587 28.166C109.877 27.858 110.021 27.438 110.021 26.906V23.056C110.021 22.9533 110.054 22.874 110.119 22.818C110.185 22.7527 110.264 22.72 110.357 22.72H111.603C111.706 22.72 111.785 22.7527 111.841 22.818C111.907 22.874 111.939 22.9533 111.939 23.056V29.664C111.939 29.7573 111.907 29.8367 111.841 29.902C111.785 29.9673 111.706 30 111.603 30H110.441C110.348 30 110.269 29.9673 110.203 29.902C110.138 29.8367 110.105 29.7573 110.105 29.664V29.09C109.592 29.79 108.817 30.14 107.781 30.14ZM115.902 30.14C115.426 30.14 114.988 30.0467 114.586 29.86C114.194 29.664 113.882 29.4027 113.648 29.076C113.424 28.7493 113.312 28.39 113.312 27.998C113.312 27.3633 113.569 26.85 114.082 26.458C114.596 26.066 115.3 25.8 116.196 25.66L118.114 25.38V25.086C118.114 24.6847 118.012 24.3813 117.806 24.176C117.601 23.9707 117.274 23.868 116.826 23.868C116.518 23.868 116.271 23.924 116.084 24.036C115.898 24.148 115.744 24.2647 115.622 24.386C115.51 24.498 115.436 24.5727 115.398 24.61C115.361 24.722 115.291 24.778 115.188 24.778H114.096C114.012 24.778 113.938 24.75 113.872 24.694C113.816 24.638 113.788 24.5633 113.788 24.47C113.798 24.2367 113.91 23.9753 114.124 23.686C114.348 23.3873 114.689 23.1307 115.146 22.916C115.604 22.692 116.168 22.58 116.84 22.58C117.942 22.58 118.744 22.8273 119.248 23.322C119.752 23.8167 120.004 24.4653 120.004 25.268V29.664C120.004 29.7573 119.972 29.8367 119.906 29.902C119.85 29.9673 119.771 30 119.668 30H118.506C118.413 30 118.334 29.9673 118.268 29.902C118.203 29.8367 118.17 29.7573 118.17 29.664V29.118C117.965 29.4167 117.676 29.664 117.302 29.86C116.929 30.0467 116.462 30.14 115.902 30.14ZM116.378 28.796C116.892 28.796 117.312 28.628 117.638 28.292C117.965 27.956 118.128 27.4707 118.128 26.836V26.556L116.728 26.78C115.655 26.948 115.118 27.3073 115.118 27.858C115.118 28.1567 115.24 28.39 115.482 28.558C115.734 28.7167 116.033 28.796 116.378 28.796ZM125.09 33.08C124.259 33.08 123.587 32.94 123.074 32.66C122.561 32.3893 122.197 32.0767 121.982 31.722C121.767 31.3673 121.66 31.064 121.66 30.812C121.66 30.7187 121.693 30.6393 121.758 30.574C121.823 30.518 121.903 30.49 121.996 30.49H123.242C123.326 30.49 123.396 30.5087 123.452 30.546C123.517 30.5927 123.569 30.672 123.606 30.784C123.709 31.0267 123.863 31.232 124.068 31.4C124.273 31.5773 124.591 31.666 125.02 31.666C125.58 31.666 125.991 31.54 126.252 31.288C126.513 31.0453 126.644 30.616 126.644 30V29.048C126.14 29.6453 125.426 29.944 124.502 29.944C123.531 29.944 122.799 29.65 122.304 29.062C121.819 28.474 121.557 27.6713 121.52 26.654L121.506 26.276L121.52 25.898C121.557 24.8993 121.823 24.0967 122.318 23.49C122.813 22.8833 123.541 22.58 124.502 22.58C124.997 22.58 125.431 22.6733 125.804 22.86C126.177 23.0467 126.485 23.2987 126.728 23.616V23.07C126.728 22.9673 126.761 22.8833 126.826 22.818C126.901 22.7527 126.985 22.72 127.078 22.72H128.226C128.319 22.72 128.399 22.7527 128.464 22.818C128.529 22.8833 128.562 22.9673 128.562 23.07L128.576 29.818C128.576 30.854 128.287 31.6567 127.708 32.226C127.129 32.7953 126.257 33.08 125.09 33.08ZM125.034 28.46C125.557 28.46 125.949 28.292 126.21 27.956C126.471 27.62 126.616 27.2093 126.644 26.724C126.653 26.6493 126.658 26.5 126.658 26.276C126.658 26.052 126.653 25.9027 126.644 25.828C126.616 25.3427 126.471 24.932 126.21 24.596C125.949 24.26 125.557 24.092 125.034 24.092C124.026 24.092 123.494 24.708 123.438 25.94L123.424 26.276C123.424 27.732 123.961 28.46 125.034 28.46ZM133.577 30.14C132.532 30.14 131.701 29.8413 131.085 29.244C130.478 28.6467 130.156 27.7973 130.119 26.696L130.105 26.346C130.105 25.1793 130.408 24.26 131.015 23.588C131.631 22.916 132.48 22.58 133.563 22.58C134.674 22.58 135.528 22.916 136.125 23.588C136.732 24.26 137.035 25.156 137.035 26.276V26.57C137.035 26.6633 137.002 26.7427 136.937 26.808C136.872 26.8733 136.788 26.906 136.685 26.906H132.037V27.018C132.056 27.5407 132.196 27.9747 132.457 28.32C132.728 28.656 133.096 28.824 133.563 28.824C134.095 28.824 134.529 28.6093 134.865 28.18C134.949 28.0773 135.014 28.0167 135.061 27.998C135.108 27.97 135.187 27.956 135.299 27.956H136.531C136.615 27.956 136.685 27.9793 136.741 28.026C136.806 28.0727 136.839 28.138 136.839 28.222C136.839 28.446 136.704 28.712 136.433 29.02C136.172 29.3187 135.794 29.58 135.299 29.804C134.804 30.028 134.23 30.14 133.577 30.14ZM135.103 25.716V25.688C135.103 25.1373 134.963 24.6987 134.683 24.372C134.412 24.036 134.039 23.868 133.563 23.868C133.087 23.868 132.714 24.036 132.443 24.372C132.172 24.6987 132.037 25.1373 132.037 25.688V25.716H135.103ZM13.744 37.53C13.6507 37.53 13.5714 37.4973 13.506 37.432C13.4407 37.3667 13.408 37.2873 13.408 37.194V36.172C13.408 36.0693 13.4407 35.9853 13.506 35.92C13.5714 35.8547 13.6507 35.822 13.744 35.822H15.032C15.1347 35.822 15.2187 35.8547 15.284 35.92C15.3494 35.9853 15.382 36.0693 15.382 36.172V37.194C15.382 37.2873 15.3447 37.3667 15.27 37.432C15.2047 37.4973 15.1254 37.53 15.032 37.53H13.744ZM13.8 46C13.7067 46 13.6274 45.9673 13.562 45.902C13.4967 45.8367 13.464 45.7573 13.464 45.664V39.056C13.464 38.9533 13.4967 38.874 13.562 38.818C13.6274 38.7527 13.7067 38.72 13.8 38.72H14.99C15.0834 38.72 15.1627 38.7527 15.228 38.818C15.2934 38.8833 15.326 38.9627 15.326 39.056V45.664C15.326 45.7573 15.2934 45.8367 15.228 45.902C15.1627 45.9673 15.0834 46 14.99 46H13.8ZM17.5051 46C17.4118 46 17.3325 45.9673 17.2671 45.902C17.2018 45.8367 17.1691 45.7573 17.1691 45.664V39.056C17.1691 38.9533 17.2018 38.874 17.2671 38.818C17.3325 38.7527 17.4118 38.72 17.5051 38.72H18.6671C18.7698 38.72 18.8491 38.7527 18.9051 38.818C18.9705 38.874 19.0031 38.9533 19.0031 39.056V39.63C19.5725 38.93 20.3518 38.58 21.3411 38.58C22.1998 38.58 22.8811 38.86 23.3851 39.42C23.8891 39.98 24.1411 40.75 24.1411 41.73V45.664C24.1411 45.7573 24.1085 45.8367 24.0431 45.902C23.9871 45.9673 23.9078 46 23.8051 46H22.5451C22.4518 46 22.3725 45.9673 22.3071 45.902C22.2418 45.8367 22.2091 45.7573 22.2091 45.664V41.814C22.2091 41.2727 22.0738 40.8527 21.8031 40.554C21.5418 40.246 21.1638 40.092 20.6691 40.092C20.1931 40.092 19.8105 40.246 19.5211 40.554C19.2318 40.862 19.0871 41.282 19.0871 41.814V45.664C19.0871 45.7573 19.0545 45.8367 18.9891 45.902C18.9331 45.9673 18.8538 46 18.7511 46H17.5051ZM29.1411 46C28.2918 46 27.6524 45.7807 27.2231 45.342C26.7938 44.894 26.5791 44.2407 26.5791 43.382V40.218H25.4731C25.3798 40.218 25.3004 40.1853 25.2351 40.12C25.1698 40.0547 25.1371 39.9753 25.1371 39.882V39.056C25.1371 38.9627 25.1698 38.8833 25.2351 38.818C25.3004 38.7527 25.3798 38.72 25.4731 38.72H26.5791V36.396C26.5791 36.2933 26.6118 36.214 26.6771 36.158C26.7424 36.0927 26.8218 36.06 26.9151 36.06H28.0771C28.1798 36.06 28.2591 36.0927 28.3151 36.158C28.3804 36.214 28.4131 36.2933 28.4131 36.396V38.72H30.1631C30.2564 38.72 30.3358 38.7527 30.4011 38.818C30.4664 38.8833 30.4991 38.9627 30.4991 39.056V39.882C30.4991 39.9753 30.4664 40.0547 30.4011 40.12C30.3358 40.1853 30.2564 40.218 30.1631 40.218H28.4131V43.228C28.4131 43.6293 28.4831 43.9327 28.6231 44.138C28.7631 44.3433 28.9918 44.446 29.3091 44.446H30.2891C30.3918 44.446 30.4711 44.4787 30.5271 44.544C30.5924 44.6 30.6251 44.6793 30.6251 44.782V45.664C30.6251 45.7573 30.5924 45.8367 30.5271 45.902C30.4711 45.9673 30.3918 46 30.2891 46H29.1411ZM35.0164 46.14C33.971 46.14 33.1404 45.8413 32.5244 45.244C31.9177 44.6467 31.5957 43.7973 31.5584 42.696L31.5444 42.346C31.5444 41.1793 31.8477 40.26 32.4544 39.588C33.0704 38.916 33.9197 38.58 35.0024 38.58C36.113 38.58 36.967 38.916 37.5644 39.588C38.1711 40.26 38.4744 41.156 38.4744 42.276V42.57C38.4744 42.6633 38.4417 42.7427 38.3764 42.808C38.3111 42.8733 38.227 42.906 38.1244 42.906H33.4764V43.018C33.495 43.5407 33.635 43.9747 33.8964 44.32C34.167 44.656 34.5357 44.824 35.0024 44.824C35.5344 44.824 35.9684 44.6093 36.3044 44.18C36.3884 44.0773 36.4537 44.0167 36.5004 43.998C36.547 43.97 36.6264 43.956 36.7384 43.956H37.9704C38.0544 43.956 38.1244 43.9793 38.1804 44.026C38.2457 44.0727 38.2784 44.138 38.2784 44.222C38.2784 44.446 38.1431 44.712 37.8724 45.02C37.611 45.3187 37.233 45.58 36.7384 45.804C36.2437 46.028 35.6697 46.14 35.0164 46.14ZM36.5424 41.716V41.688C36.5424 41.1373 36.4024 40.6987 36.1224 40.372C35.8517 40.036 35.4784 39.868 35.0024 39.868C34.5264 39.868 34.153 40.036 33.8824 40.372C33.6117 40.6987 33.4764 41.1373 33.4764 41.688V41.716H36.5424ZM40.2961 46C40.2028 46 40.1235 45.9673 40.0581 45.902C39.9928 45.8367 39.9601 45.7573 39.9601 45.664V39.07C39.9601 38.9673 39.9928 38.8833 40.0581 38.818C40.1235 38.7527 40.2028 38.72 40.2961 38.72H41.4441C41.5468 38.72 41.6308 38.7527 41.6961 38.818C41.7615 38.8833 41.7941 38.9673 41.7941 39.07V39.644C42.2608 39.028 42.9328 38.72 43.8101 38.72H44.3981C44.5008 38.72 44.5801 38.7527 44.6361 38.818C44.7015 38.874 44.7341 38.9533 44.7341 39.056V40.078C44.7341 40.1713 44.7015 40.2507 44.6361 40.316C44.5801 40.3813 44.5008 40.414 44.3981 40.414H43.2921C42.8535 40.414 42.5081 40.54 42.2561 40.792C42.0041 41.044 41.8781 41.3893 41.8781 41.828V45.664C41.8781 45.7573 41.8455 45.8367 41.7801 45.902C41.7148 45.9673 41.6355 46 41.5421 46H40.2961ZM46.9454 46C46.852 46 46.7727 45.9673 46.7074 45.902C46.642 45.8367 46.6094 45.7573 46.6094 45.664V40.218H45.4754C45.382 40.218 45.3027 40.1853 45.2374 40.12C45.172 40.0547 45.1394 39.9753 45.1394 39.882V39.056C45.1394 38.9627 45.172 38.8833 45.2374 38.818C45.3027 38.7527 45.382 38.72 45.4754 38.72H46.6094V38.16C46.6094 37.3107 46.838 36.6807 47.2954 36.27C47.7527 35.85 48.4434 35.64 49.3674 35.64H50.3334C50.4267 35.64 50.506 35.6727 50.5714 35.738C50.6367 35.8033 50.6694 35.8827 50.6694 35.976V36.802C50.6694 36.8953 50.6367 36.9747 50.5714 37.04C50.506 37.1053 50.4267 37.138 50.3334 37.138H49.4374C49.0734 37.138 48.8167 37.2267 48.6674 37.404C48.518 37.5813 48.4434 37.8567 48.4434 38.23V38.72H50.1934C50.2867 38.72 50.366 38.7527 50.4314 38.818C50.4967 38.8833 50.5294 38.9627 50.5294 39.056V39.882C50.5294 39.9753 50.4967 40.0547 50.4314 40.12C50.366 40.1853 50.2867 40.218 50.1934 40.218H48.4434V45.664C48.4434 45.7573 48.4107 45.8367 48.3454 45.902C48.2894 45.9673 48.21 46 48.1074 46H46.9454ZM53.6542 46.14C53.1782 46.14 52.7395 46.0467 52.3382 45.86C51.9462 45.664 51.6335 45.4027 51.4002 45.076C51.1762 44.7493 51.0642 44.39 51.0642 43.998C51.0642 43.3633 51.3209 42.85 51.8342 42.458C52.3475 42.066 53.0522 41.8 53.9482 41.66L55.8662 41.38V41.086C55.8662 40.6847 55.7635 40.3813 55.5582 40.176C55.3529 39.9707 55.0262 39.868 54.5782 39.868C54.2702 39.868 54.0229 39.924 53.8362 40.036C53.6495 40.148 53.4955 40.2647 53.3742 40.386C53.2622 40.498 53.1875 40.5727 53.1502 40.61C53.1129 40.722 53.0429 40.778 52.9402 40.778H51.8482C51.7642 40.778 51.6895 40.75 51.6242 40.694C51.5682 40.638 51.5402 40.5633 51.5402 40.47C51.5495 40.2367 51.6615 39.9753 51.8762 39.686C52.1002 39.3873 52.4409 39.1307 52.8982 38.916C53.3555 38.692 53.9202 38.58 54.5922 38.58C55.6935 38.58 56.4962 38.8273 57.0002 39.322C57.5042 39.8167 57.7562 40.4653 57.7562 41.268V45.664C57.7562 45.7573 57.7235 45.8367 57.6582 45.902C57.6022 45.9673 57.5229 46 57.4202 46H56.2582C56.1649 46 56.0855 45.9673 56.0202 45.902C55.9549 45.8367 55.9222 45.7573 55.9222 45.664V45.118C55.7169 45.4167 55.4275 45.664 55.0542 45.86C54.6809 46.0467 54.2142 46.14 53.6542 46.14ZM54.1302 44.796C54.6435 44.796 55.0635 44.628 55.3902 44.292C55.7169 43.956 55.8802 43.4707 55.8802 42.836V42.556L54.4802 42.78C53.4069 42.948 52.8702 43.3073 52.8702 43.858C52.8702 44.1567 52.9915 44.39 53.2342 44.558C53.4862 44.7167 53.7849 44.796 54.1302 44.796ZM62.7019 46.14C61.6753 46.14 60.8539 45.8553 60.2379 45.286C59.6313 44.7167 59.3093 43.928 59.2719 42.92L59.2579 42.36L59.2719 41.8C59.3093 40.792 59.6313 40.0033 60.2379 39.434C60.8539 38.8647 61.6753 38.58 62.7019 38.58C63.4393 38.58 64.0599 38.7107 64.5639 38.972C65.0773 39.2333 65.4553 39.5553 65.6979 39.938C65.9499 40.3113 66.0853 40.6707 66.1039 41.016C66.1133 41.1093 66.0806 41.1887 66.0059 41.254C65.9406 41.3193 65.8613 41.352 65.7679 41.352H64.5219C64.4193 41.352 64.3446 41.3333 64.2979 41.296C64.2513 41.2493 64.2046 41.17 64.1579 41.058C64.0179 40.7033 63.8313 40.4467 63.5979 40.288C63.3739 40.1293 63.0846 40.05 62.7299 40.05C62.2539 40.05 61.8806 40.1993 61.6099 40.498C61.3486 40.7967 61.2086 41.254 61.1899 41.87L61.1759 42.388L61.1899 42.85C61.2459 44.0633 61.7593 44.67 62.7299 44.67C63.0939 44.67 63.3879 44.5953 63.6119 44.446C63.8359 44.2873 64.0179 44.026 64.1579 43.662C64.1953 43.5593 64.2373 43.4847 64.2839 43.438C64.3399 43.3913 64.4193 43.368 64.5219 43.368H65.7679C65.8613 43.368 65.9406 43.4007 66.0059 43.466C66.0806 43.5313 66.1133 43.6107 66.1039 43.704C66.0853 44.0307 65.9546 44.3853 65.7119 44.768C65.4693 45.1413 65.0959 45.4633 64.5919 45.734C64.0879 46.0047 63.4579 46.14 62.7019 46.14ZM70.7136 46.14C69.6683 46.14 68.8376 45.8413 68.2216 45.244C67.615 44.6467 67.293 43.7973 67.2556 42.696L67.2416 42.346C67.2416 41.1793 67.545 40.26 68.1516 39.588C68.7676 38.916 69.617 38.58 70.6996 38.58C71.8103 38.58 72.6643 38.916 73.2616 39.588C73.8683 40.26 74.1716 41.156 74.1716 42.276V42.57C74.1716 42.6633 74.139 42.7427 74.0736 42.808C74.0083 42.8733 73.9243 42.906 73.8216 42.906H69.1736V43.018C69.1923 43.5407 69.3323 43.9747 69.5936 44.32C69.8643 44.656 70.233 44.824 70.6996 44.824C71.2316 44.824 71.6656 44.6093 72.0016 44.18C72.0856 44.0773 72.151 44.0167 72.1976 43.998C72.2443 43.97 72.3236 43.956 72.4356 43.956H73.6676C73.7516 43.956 73.8216 43.9793 73.8776 44.026C73.943 44.0727 73.9756 44.138 73.9756 44.222C73.9756 44.446 73.8403 44.712 73.5696 45.02C73.3083 45.3187 72.9303 45.58 72.4356 45.804C71.941 46.028 71.367 46.14 70.7136 46.14ZM72.2396 41.716V41.688C72.2396 41.1373 72.0996 40.6987 71.8196 40.372C71.549 40.036 71.1756 39.868 70.6996 39.868C70.2236 39.868 69.8503 40.036 69.5796 40.372C69.309 40.6987 69.1736 41.1373 69.1736 41.688V41.716H72.2396ZM81.8735 46C81.0242 46 80.3848 45.7807 79.9555 45.342C79.5262 44.894 79.3115 44.2407 79.3115 43.382V40.218H78.2055C78.1122 40.218 78.0328 40.1853 77.9675 40.12C77.9022 40.0547 77.8695 39.9753 77.8695 39.882V39.056C77.8695 38.9627 77.9022 38.8833 77.9675 38.818C78.0328 38.7527 78.1122 38.72 78.2055 38.72H79.3115V36.396C79.3115 36.2933 79.3442 36.214 79.4095 36.158C79.4748 36.0927 79.5542 36.06 79.6475 36.06H80.8095C80.9122 36.06 80.9915 36.0927 81.0475 36.158C81.1128 36.214 81.1455 36.2933 81.1455 36.396V38.72H82.8955C82.9888 38.72 83.0682 38.7527 83.1335 38.818C83.1988 38.8833 83.2315 38.9627 83.2315 39.056V39.882C83.2315 39.9753 83.1988 40.0547 83.1335 40.12C83.0682 40.1853 82.9888 40.218 82.8955 40.218H81.1455V43.228C81.1455 43.6293 81.2155 43.9327 81.3555 44.138C81.4955 44.3433 81.7242 44.446 82.0415 44.446H83.0215C83.1242 44.446 83.2035 44.4787 83.2595 44.544C83.3248 44.6 83.3575 44.6793 83.3575 44.782V45.664C83.3575 45.7573 83.3248 45.8367 83.2595 45.902C83.2035 45.9673 83.1242 46 83.0215 46H81.8735ZM87.8328 46.14C86.7315 46.14 85.8821 45.86 85.2848 45.3C84.6875 44.74 84.3655 43.9653 84.3188 42.976L84.3048 42.36L84.3188 41.744C84.3655 40.764 84.6921 39.994 85.2988 39.434C85.9055 38.8647 86.7501 38.58 87.8328 38.58C88.9061 38.58 89.7461 38.8647 90.3528 39.434C90.9595 39.994 91.2861 40.764 91.3328 41.744C91.3421 41.856 91.3468 42.0613 91.3468 42.36C91.3468 42.6587 91.3421 42.864 91.3328 42.976C91.2861 43.9653 90.9641 44.74 90.3668 45.3C89.7695 45.86 88.9248 46.14 87.8328 46.14ZM87.8328 44.726C88.3275 44.726 88.7055 44.572 88.9668 44.264C89.2375 43.956 89.3821 43.5033 89.4008 42.906C89.4101 42.8127 89.4148 42.6307 89.4148 42.36C89.4148 42.0893 89.4101 41.9073 89.4008 41.814C89.3821 41.2167 89.2375 40.764 88.9668 40.456C88.6961 40.1387 88.3181 39.98 87.8328 39.98C87.3381 39.98 86.9555 40.1387 86.6848 40.456C86.4141 40.764 86.2695 41.2167 86.2508 41.814L86.2368 42.36L86.2508 42.906C86.2695 43.5033 86.4141 43.956 86.6848 44.264C86.9555 44.572 87.3381 44.726 87.8328 44.726ZM96.5872 46C96.4938 46 96.4145 45.9673 96.3492 45.902C96.2838 45.8367 96.2512 45.7573 96.2512 45.664V36.55C96.2512 36.4473 96.2792 36.3633 96.3352 36.298C96.4005 36.2327 96.4845 36.2 96.5872 36.2H97.7212C97.8985 36.2 98.0385 36.2887 98.1412 36.466L100.843 41.478L103.545 36.466C103.648 36.2887 103.788 36.2 103.965 36.2H105.085C105.188 36.2 105.272 36.2327 105.337 36.298C105.403 36.3633 105.435 36.4473 105.435 36.55V45.664C105.435 45.7667 105.403 45.8507 105.337 45.916C105.272 45.972 105.188 46 105.085 46H103.881C103.788 46 103.709 45.9673 103.643 45.902C103.578 45.8367 103.545 45.7573 103.545 45.664V39.644L101.599 43.34C101.497 43.5453 101.343 43.648 101.137 43.648H100.549C100.353 43.648 100.195 43.5453 100.073 43.34L98.1272 39.644V45.664C98.1272 45.7573 98.0945 45.8367 98.0292 45.902C97.9732 45.9673 97.8938 46 97.7912 46H96.5872ZM109.559 46.14C109.083 46.14 108.644 46.0467 108.243 45.86C107.851 45.664 107.538 45.4027 107.305 45.076C107.081 44.7493 106.969 44.39 106.969 43.998C106.969 43.3633 107.225 42.85 107.739 42.458C108.252 42.066 108.957 41.8 109.853 41.66L111.771 41.38V41.086C111.771 40.6847 111.668 40.3813 111.463 40.176C111.257 39.9707 110.931 39.868 110.483 39.868C110.175 39.868 109.927 39.924 109.741 40.036C109.554 40.148 109.4 40.2647 109.279 40.386C109.167 40.498 109.092 40.5727 109.055 40.61C109.017 40.722 108.947 40.778 108.845 40.778H107.753C107.669 40.778 107.594 40.75 107.529 40.694C107.473 40.638 107.445 40.5633 107.445 40.47C107.454 40.2367 107.566 39.9753 107.781 39.686C108.005 39.3873 108.345 39.1307 108.803 38.916C109.26 38.692 109.825 38.58 110.497 38.58C111.598 38.58 112.401 38.8273 112.905 39.322C113.409 39.8167 113.661 40.4653 113.661 41.268V45.664C113.661 45.7573 113.628 45.8367 113.563 45.902C113.507 45.9673 113.427 46 113.325 46H112.163C112.069 46 111.99 45.9673 111.925 45.902C111.859 45.8367 111.827 45.7573 111.827 45.664V45.118C111.621 45.4167 111.332 45.664 110.959 45.86C110.585 46.0467 110.119 46.14 109.559 46.14ZM110.035 44.796C110.548 44.796 110.968 44.628 111.295 44.292C111.621 43.956 111.785 43.4707 111.785 42.836V42.556L110.385 42.78C109.311 42.948 108.775 43.3073 108.775 43.858C108.775 44.1567 108.896 44.39 109.139 44.558C109.391 44.7167 109.689 44.796 110.035 44.796ZM118.606 46.14C117.58 46.14 116.758 45.8553 116.142 45.286C115.536 44.7167 115.214 43.928 115.176 42.92L115.162 42.36L115.176 41.8C115.214 40.792 115.536 40.0033 116.142 39.434C116.758 38.8647 117.58 38.58 118.606 38.58C119.344 38.58 119.964 38.7107 120.468 38.972C120.982 39.2333 121.36 39.5553 121.602 39.938C121.854 40.3113 121.99 40.6707 122.008 41.016C122.018 41.1093 121.985 41.1887 121.91 41.254C121.845 41.3193 121.766 41.352 121.672 41.352H120.426C120.324 41.352 120.249 41.3333 120.202 41.296C120.156 41.2493 120.109 41.17 120.062 41.058C119.922 40.7033 119.736 40.4467 119.502 40.288C119.278 40.1293 118.989 40.05 118.634 40.05C118.158 40.05 117.785 40.1993 117.514 40.498C117.253 40.7967 117.113 41.254 117.094 41.87L117.08 42.388L117.094 42.85C117.15 44.0633 117.664 44.67 118.634 44.67C118.998 44.67 119.292 44.5953 119.516 44.446C119.74 44.2873 119.922 44.026 120.062 43.662C120.1 43.5593 120.142 43.4847 120.188 43.438C120.244 43.3913 120.324 43.368 120.426 43.368H121.672C121.766 43.368 121.845 43.4007 121.91 43.466C121.985 43.5313 122.018 43.6107 122.008 43.704C121.99 44.0307 121.859 44.3853 121.616 44.768C121.374 45.1413 121 45.4633 120.496 45.734C119.992 46.0047 119.362 46.14 118.606 46.14ZM130.601 46.14C129.323 46.14 128.329 45.818 127.619 45.174C126.91 44.53 126.537 43.5733 126.499 42.304C126.49 42.0333 126.485 41.6367 126.485 41.114C126.485 40.582 126.49 40.1807 126.499 39.91C126.537 38.6687 126.919 37.7167 127.647 37.054C128.375 36.3913 129.36 36.06 130.601 36.06C131.833 36.06 132.813 36.3913 133.541 37.054C134.279 37.7167 134.666 38.6687 134.703 39.91C134.722 40.4513 134.731 40.8527 134.731 41.114C134.731 41.366 134.722 41.7627 134.703 42.304C134.666 43.5733 134.288 44.53 133.569 45.174C132.86 45.818 131.871 46.14 130.601 46.14ZM130.601 44.516C131.227 44.516 131.721 44.3293 132.085 43.956C132.449 43.5827 132.645 43.0087 132.673 42.234C132.692 41.674 132.701 41.296 132.701 41.1C132.701 40.8853 132.692 40.5073 132.673 39.966C132.645 39.2007 132.445 38.6313 132.071 38.258C131.698 37.8753 131.208 37.684 130.601 37.684C129.985 37.684 129.491 37.8753 129.117 38.258C128.744 38.6313 128.548 39.2007 128.529 39.966C128.52 40.2367 128.515 40.6147 128.515 41.1C128.515 41.576 128.52 41.954 128.529 42.234C128.548 42.9993 128.739 43.5733 129.103 43.956C129.477 44.3293 129.976 44.516 130.601 44.516ZM139.972 46.14C139.132 46.14 138.413 46.014 137.816 45.762C137.219 45.51 136.766 45.1787 136.458 44.768C136.15 44.3573 135.987 43.9093 135.968 43.424C135.968 43.3493 135.996 43.284 136.052 43.228C136.108 43.1627 136.178 43.13 136.262 43.13H137.536C137.639 43.13 137.723 43.1533 137.788 43.2C137.853 43.2467 137.914 43.312 137.97 43.396C138.063 43.7133 138.273 43.9793 138.6 44.194C138.936 44.4087 139.393 44.516 139.972 44.516C140.625 44.516 141.115 44.4087 141.442 44.194C141.778 43.97 141.946 43.6667 141.946 43.284C141.946 43.032 141.862 42.822 141.694 42.654C141.526 42.486 141.269 42.3413 140.924 42.22C140.588 42.0893 140.084 41.9353 139.412 41.758C138.311 41.4967 137.503 41.1513 136.99 40.722C136.477 40.2927 136.22 39.6767 136.22 38.874C136.22 38.3327 136.369 37.852 136.668 37.432C136.967 37.0027 137.391 36.6667 137.942 36.424C138.502 36.1813 139.151 36.06 139.888 36.06C140.663 36.06 141.33 36.1953 141.89 36.466C142.459 36.7367 142.889 37.0773 143.178 37.488C143.477 37.8893 143.635 38.2907 143.654 38.692C143.654 38.7667 143.626 38.8367 143.57 38.902C143.514 38.958 143.444 38.986 143.36 38.986H142.03C141.825 38.986 141.685 38.902 141.61 38.734C141.563 38.4353 141.381 38.188 141.064 37.992C140.747 37.7867 140.355 37.684 139.888 37.684C139.375 37.684 138.969 37.782 138.67 37.978C138.381 38.174 138.236 38.4587 138.236 38.832C138.236 39.084 138.311 39.294 138.46 39.462C138.609 39.63 138.843 39.7793 139.16 39.91C139.477 40.0313 139.939 40.1713 140.546 40.33C141.377 40.5167 142.035 40.7267 142.52 40.96C143.015 41.1933 143.379 41.4873 143.612 41.842C143.845 42.1967 143.962 42.6493 143.962 43.2C143.962 43.8067 143.794 44.334 143.458 44.782C143.131 45.2207 142.665 45.5567 142.058 45.79C141.461 46.0233 140.765 46.14 139.972 46.14Z" transform="translate(18 26)" fill="black"/>
</g>
<defs>
<linearGradient id="paint0_linear" x2="1" gradientUnits="userSpaceOnUse" gradientTransform="translate(193) scale(193 102) rotate(90)">
<stop stop-color="#FFE817"/>
<stop offset="1" stop-color="white"/>
</linearGradient>
</defs>
</svg>
