<svg width="145" height="88" viewBox="0 0 145 88" fill="none" xmlns="http://www.w3.org/2000/svg">
<path d="M40.7647 19C40.6313 19 40.5247 18.9533 40.4447 18.86C40.378 18.7667 40.358 18.6533 40.3847 18.52L43.1447 5.5C43.1713 5.35333 43.238 5.23333 43.3447 5.14C43.4647 5.04667 43.5913 5 43.7247 5H52.4447C52.5913 5 52.698 5.04667 52.7647 5.14C52.8313 5.23333 52.8513 5.35333 52.8247 5.5L52.5247 6.94C52.498 7.08667 52.4247 7.20667 52.3047 7.3C52.198 7.38 52.078 7.42 51.9447 7.42H45.5247L44.7247 11.18H50.7247C50.8713 11.18 50.978 11.2267 51.0447 11.32C51.1113 11.4 51.1313 11.5133 51.1047 11.66L50.8047 13.1C50.7913 13.2333 50.7247 13.3467 50.6047 13.44C50.498 13.5333 50.3713 13.58 50.2247 13.58H44.2047L43.1647 18.52C43.138 18.6667 43.0647 18.7867 42.9447 18.88C42.838 18.96 42.718 19 42.5847 19H40.7647ZM53.0955 19C52.9488 19 52.8421 18.9533 52.7755 18.86C52.7088 18.7667 52.6888 18.6533 52.7155 18.52L55.4755 5.5C55.5021 5.35333 55.5688 5.23333 55.6755 5.14C55.7955 5.04667 55.9288 5 56.0755 5H61.2555C62.6688 5 63.7555 5.28667 64.5155 5.86C65.2888 6.42 65.6755 7.23333 65.6755 8.3C65.6755 8.63333 65.6355 8.99333 65.5555 9.38C65.3555 10.3533 64.9488 11.1733 64.3355 11.84C63.7355 12.4933 62.9821 12.9667 62.0755 13.26L63.8955 18.36C63.9088 18.4267 63.9088 18.5 63.8955 18.58C63.8821 18.7 63.8221 18.8 63.7155 18.88C63.6088 18.96 63.5021 19 63.3955 19H61.5555C61.3288 19 61.1688 18.9533 61.0755 18.86C60.9821 18.7533 60.9155 18.62 60.8755 18.46L59.2955 13.72H56.5555L55.5355 18.52C55.5088 18.6533 55.4355 18.7667 55.3155 18.86C55.2088 18.9533 55.0821 19 54.9355 19H53.0955ZM59.8355 11.44C60.6221 11.44 61.2488 11.2667 61.7155 10.92C62.1955 10.56 62.5088 10.04 62.6555 9.36C62.6955 9.16 62.7155 8.96667 62.7155 8.78C62.7155 8.28667 62.5488 7.90667 62.2155 7.64C61.8821 7.37333 61.3821 7.24 60.7155 7.24H57.9155L57.0355 11.44H59.8355ZM66.292 19C66.1587 19 66.052 18.9533 65.972 18.86C65.9053 18.7667 65.8853 18.6533 65.912 18.52L68.672 5.5C68.6987 5.35333 68.7653 5.23333 68.872 5.14C68.992 5.04667 69.1187 5 69.252 5H78.092C78.2387 5 78.3454 5.04667 78.412 5.14C78.4787 5.23333 78.4987 5.35333 78.472 5.5L78.192 6.84C78.1654 6.98667 78.092 7.10667 77.972 7.2C77.8653 7.28 77.7453 7.32 77.612 7.32H71.032L70.272 10.82H76.412C76.5587 10.82 76.6654 10.8667 76.732 10.96C76.7987 11.0533 76.8187 11.1733 76.792 11.32L76.532 12.58C76.5053 12.7267 76.432 12.8467 76.312 12.94C76.2053 13.02 76.0787 13.06 75.932 13.06H69.812L69.032 16.68H75.772C75.9187 16.68 76.0254 16.7267 76.092 16.82C76.1587 16.9133 76.1787 17.0267 76.152 17.16L75.872 18.52C75.8454 18.6667 75.772 18.7867 75.652 18.88C75.5453 18.96 75.4253 19 75.292 19H66.292ZM78.7334 19C78.6001 19 78.4934 18.9533 78.4134 18.86C78.3468 18.7667 78.3268 18.6533 78.3534 18.52L81.1134 5.5C81.1401 5.35333 81.2068 5.23333 81.3134 5.14C81.4334 5.04667 81.5601 5 81.6934 5H90.5334C90.6801 5 90.7868 5.04667 90.8534 5.14C90.9201 5.23333 90.9401 5.35333 90.9134 5.5L90.6334 6.84C90.6068 6.98667 90.5334 7.10667 90.4134 7.2C90.3068 7.28 90.1868 7.32 90.0534 7.32H83.4734L82.7134 10.82H88.8534C89.0001 10.82 89.1068 10.8667 89.1734 10.96C89.2401 11.0533 89.2601 11.1733 89.2334 11.32L88.9734 12.58C88.9468 12.7267 88.8734 12.8467 88.7534 12.94C88.6468 13.02 88.5201 13.06 88.3734 13.06H82.2534L81.4734 16.68H88.2134C88.3601 16.68 88.4668 16.7267 88.5334 16.82C88.6001 16.9133 88.6201 17.0267 88.5934 17.16L88.3134 18.52C88.2868 18.6667 88.2134 18.7867 88.0934 18.88C87.9868 18.96 87.8668 19 87.7334 19H78.7334ZM27.1905 42C27.0571 42 26.9505 41.9533 26.8705 41.86C26.8038 41.7667 26.7838 41.6533 26.8105 41.52L29.5705 28.5C29.5971 28.3533 29.6638 28.2333 29.7705 28.14C29.8905 28.0467 30.0171 28 30.1505 28H35.2905C36.7038 28 37.8238 28.2933 38.6505 28.88C39.4771 29.4667 39.8905 30.3133 39.8905 31.42C39.8905 31.7267 39.8505 32.0733 39.7705 32.46C39.1438 35.38 37.1771 36.84 33.8705 36.84H30.7105L29.7105 41.52C29.6838 41.6667 29.6105 41.7867 29.4905 41.88C29.3838 41.96 29.2638 42 29.1305 42H27.1905ZM33.9305 34.6C34.6905 34.6 35.3305 34.4133 35.8505 34.04C36.3838 33.6667 36.7238 33.1333 36.8705 32.44C36.9371 32.1333 36.9705 31.8733 36.9705 31.66C36.9705 31.1933 36.8171 30.84 36.5105 30.6C36.2171 30.36 35.7171 30.24 35.0105 30.24H32.0705L31.1305 34.6H33.9305ZM45.5331 42.2C44.0131 42.2 42.7864 41.8333 41.8531 41.1C40.9331 40.3667 40.4731 39.3 40.4731 37.9C40.4731 37.46 40.5064 37.0667 40.5731 36.72C40.8398 35.3067 41.0864 34.1667 41.3131 33.3C41.7531 31.4867 42.5398 30.12 43.6731 29.2C44.8064 28.2667 46.2798 27.8 48.0931 27.8C49.6131 27.8 50.8331 28.1733 51.7531 28.92C52.6864 29.6667 53.1531 30.7333 53.1531 32.12C53.1531 32.48 53.1131 32.8733 53.0331 33.3C52.8598 34.3533 52.6198 35.4933 52.3131 36.72C51.8598 38.56 51.0664 39.9333 49.9331 40.84C48.8131 41.7467 47.3464 42.2 45.5331 42.2ZM45.7131 39.88C46.6198 39.88 47.3998 39.6133 48.0531 39.08C48.7064 38.5467 49.1664 37.7267 49.4331 36.62C49.7131 35.42 49.9464 34.34 50.1331 33.38C50.1998 32.9533 50.2331 32.6067 50.2331 32.34C50.2331 30.86 49.4664 30.12 47.9331 30.12C47.0131 30.12 46.2264 30.3867 45.5731 30.92C44.9198 31.4533 44.4598 32.2733 44.1931 33.38C43.8998 34.5933 43.6731 35.6733 43.5131 36.62C43.4464 36.9533 43.4131 37.3133 43.4131 37.7C43.4131 38.4467 43.6064 39 43.9931 39.36C44.3798 39.7067 44.9531 39.88 45.7131 39.88ZM54.3194 42C54.1727 42 54.0594 41.9533 53.9794 41.86C53.9127 41.7667 53.8927 41.6533 53.9194 41.52L56.7194 28.48C56.7327 28.3467 56.7927 28.2333 56.8994 28.14C57.0194 28.0467 57.146 28 57.2794 28H59.2194C59.3527 28 59.4527 28.0467 59.5194 28.14C59.5994 28.2333 59.626 28.3467 59.5994 28.48L56.8194 41.52C56.7927 41.6533 56.726 41.7667 56.6194 41.86C56.5127 41.9533 56.3927 42 56.2594 42H54.3194ZM60.3155 42C60.1821 42 60.0755 41.9533 59.9955 41.86C59.9288 41.7667 59.9088 41.6533 59.9355 41.52L62.6955 28.5C62.7221 28.3533 62.7888 28.2333 62.8955 28.14C63.0021 28.0467 63.1288 28 63.2755 28H64.8155C65.0821 28 65.2555 28.1133 65.3355 28.34L69.1955 37.3L71.0755 28.5C71.1021 28.3533 71.1688 28.2333 71.2755 28.14C71.3821 28.0467 71.5088 28 71.6555 28H73.3755C73.5221 28 73.6288 28.0467 73.6955 28.14C73.7621 28.2333 73.7821 28.3533 73.7555 28.5L70.9955 41.5C70.9688 41.6467 70.9021 41.7667 70.7955 41.86C70.6888 41.9533 70.5621 42 70.4155 42H68.8755C68.7155 42 68.5955 41.9667 68.5155 41.9C68.4488 41.8333 68.3888 41.7533 68.3355 41.66L64.4755 32.9L62.6355 41.52C62.6088 41.6667 62.5355 41.7867 62.4155 41.88C62.3088 41.96 62.1888 42 62.0555 42H60.3155ZM77.5351 42C77.3885 42 77.2751 41.9533 77.1951 41.86C77.1285 41.7667 77.1085 41.6533 77.1351 41.52L79.4951 30.5H75.7951C75.6618 30.5 75.5551 30.4533 75.4751 30.36C75.4085 30.2533 75.3885 30.1333 75.4151 30L75.7351 28.5C75.7618 28.3533 75.8285 28.2333 75.9351 28.14C76.0418 28.0467 76.1685 28 76.3151 28H86.5551C86.7018 28 86.8085 28.0467 86.8751 28.14C86.9418 28.2333 86.9618 28.3533 86.9351 28.5L86.6151 30C86.5885 30.1467 86.5151 30.2667 86.3951 30.36C86.2885 30.4533 86.1685 30.5 86.0351 30.5H82.3551L79.9951 41.52C79.9685 41.6667 79.8951 41.7867 79.7751 41.88C79.6685 41.96 79.5485 42 79.4151 42H77.5351ZM91.1064 42.2C89.9997 42.2 89.0531 42.0467 88.2664 41.74C87.4931 41.4333 86.9064 41.02 86.5064 40.5C86.1197 39.98 85.9264 39.4067 85.9264 38.78C85.9264 38.6867 85.9397 38.5333 85.9664 38.32C85.9797 38.2133 86.0264 38.12 86.1064 38.04C86.1997 37.9467 86.3064 37.9 86.4264 37.9H88.2864C88.4331 37.9 88.5464 37.9333 88.6264 38C88.7064 38.0667 88.7731 38.16 88.8264 38.28C88.8797 38.72 89.1064 39.1 89.5064 39.42C89.9197 39.7267 90.5131 39.88 91.2864 39.88C92.2197 39.88 92.9664 39.7267 93.5264 39.42C94.0997 39.1 94.4397 38.6667 94.5464 38.12C94.5731 37.9867 94.5864 37.8867 94.5864 37.82C94.5864 37.5267 94.4731 37.28 94.2464 37.08C94.0331 36.88 93.7064 36.7 93.2664 36.54C92.8397 36.38 92.2131 36.18 91.3864 35.94C90.1331 35.6333 89.1997 35.2133 88.5864 34.68C87.9731 34.1333 87.6664 33.4267 87.6664 32.56C87.6664 32.2 87.6997 31.88 87.7664 31.6C88.0197 30.4267 88.6464 29.5 89.6464 28.82C90.6597 28.14 91.9664 27.8 93.5664 27.8C94.5531 27.8 95.4131 27.9733 96.1464 28.32C96.8797 28.6533 97.4397 29.0867 97.8264 29.62C98.2131 30.14 98.4064 30.6667 98.4064 31.2C98.4064 31.28 98.3931 31.4 98.3664 31.56C98.3397 31.68 98.2864 31.78 98.2064 31.86C98.1264 31.94 98.0264 31.98 97.9064 31.98H95.9664C95.6864 31.98 95.5131 31.86 95.4464 31.62C95.4597 31.2067 95.2731 30.8533 94.8864 30.56C94.4997 30.2667 93.9997 30.12 93.3864 30.12C92.6397 30.12 92.0197 30.26 91.5264 30.54C91.0331 30.82 90.7264 31.2267 90.6064 31.76C90.5797 31.92 90.5664 32.04 90.5664 32.12C90.5664 32.52 90.7797 32.8467 91.2064 33.1C91.6331 33.3533 92.3797 33.62 93.4464 33.9C94.8597 34.2333 95.8931 34.6667 96.5464 35.2C97.1997 35.72 97.5264 36.42 97.5264 37.3C97.5264 37.54 97.4931 37.8467 97.4264 38.22C97.1464 39.5267 96.4664 40.52 95.3864 41.2C94.3064 41.8667 92.8797 42.2 91.1064 42.2ZM100.018 38.1C99.8851 38.1 99.7851 38.06 99.7184 37.98C99.6518 37.8867 99.6318 37.7667 99.6584 37.62L101.598 28.48C101.612 28.3467 101.672 28.2333 101.778 28.14C101.898 28.0467 102.025 28 102.158 28H103.818C103.965 28 104.072 28.0467 104.138 28.14C104.205 28.2333 104.225 28.3467 104.198 28.48L102.258 37.62C102.232 37.7533 102.158 37.8667 102.038 37.96C101.932 38.0533 101.812 38.1 101.678 38.1H100.018ZM99.0784 42C98.9318 42 98.8184 41.9533 98.7384 41.86C98.6718 41.7667 98.6518 41.6533 98.6784 41.52L99.0784 39.62C99.1051 39.4867 99.1718 39.3733 99.2784 39.28C99.3984 39.1867 99.5318 39.14 99.6784 39.14H101.578C101.712 39.14 101.812 39.1867 101.878 39.28C101.958 39.3733 101.985 39.4867 101.958 39.62L101.558 41.52C101.532 41.6533 101.458 41.7667 101.338 41.86C101.232 41.9533 101.112 42 100.978 42H99.0784Z" transform="translate(0 28.2193) rotate(-12.5)" fill="#5423E2"/>
<path d="M27.0411 8C26.9811 8 26.9331 7.979 26.8971 7.937C26.8671 7.895 26.8581 7.844 26.8701 7.784L27.6171 4.283H26.8881C26.8221 4.283 26.7741 4.262 26.7441 4.22C26.7141 4.178 26.7051 4.127 26.7171 4.067L26.8251 3.536C26.8371 3.476 26.8671 3.425 26.9151 3.383C26.9691 3.341 27.0291 3.32 27.0951 3.32H27.8151L27.8961 2.96C28.1301 1.88 28.7991 1.34 29.9031 1.34H30.6321C30.6981 1.34 30.7461 1.361 30.7761 1.403C30.8061 1.445 30.8151 1.496 30.8031 1.556L30.6861 2.087C30.6741 2.147 30.6411 2.198 30.5871 2.24C30.5391 2.282 30.4851 2.303 30.4251 2.303H29.8851C29.6511 2.303 29.4681 2.363 29.3361 2.483C29.2041 2.597 29.1141 2.771 29.0661 3.005L28.9941 3.32H30.1191C30.1851 3.32 30.2331 3.341 30.2631 3.383C30.2931 3.425 30.3021 3.476 30.2901 3.536L30.1731 4.067C30.1671 4.127 30.1371 4.178 30.0831 4.22C30.0351 4.262 29.9781 4.283 29.9121 4.283H28.7961L28.0491 7.784C28.0371 7.85 28.0041 7.904 27.9501 7.946C27.9021 7.982 27.8481 8 27.7881 8H27.0411ZM32.1189 8.09C31.5129 8.09 31.0389 7.946 30.6969 7.658C30.3609 7.364 30.1929 6.965 30.1929 6.461C30.1929 6.317 30.2049 6.182 30.2289 6.056C30.2829 5.738 30.3399 5.474 30.3999 5.264C30.5619 4.622 30.8619 4.124 31.2999 3.77C31.7379 3.41 32.3079 3.23 33.0099 3.23C33.6159 3.23 34.0899 3.377 34.4319 3.671C34.7739 3.965 34.9449 4.367 34.9449 4.877C34.9449 4.955 34.9329 5.084 34.9089 5.264C34.8189 5.696 34.7619 5.96 34.7379 6.056C34.5699 6.698 34.2699 7.199 33.8379 7.559C33.4059 7.913 32.8329 8.09 32.1189 8.09ZM32.2089 7.181C32.5269 7.181 32.7969 7.082 33.0189 6.884C33.2469 6.686 33.4089 6.395 33.5049 6.011C33.5469 5.843 33.5979 5.609 33.6579 5.309C33.6819 5.183 33.6939 5.054 33.6939 4.922C33.6939 4.394 33.4359 4.13 32.9199 4.13C32.6019 4.13 32.3319 4.232 32.1099 4.436C31.8879 4.64 31.7289 4.931 31.6329 5.309C31.5669 5.519 31.5159 5.753 31.4799 6.011C31.4559 6.137 31.4439 6.269 31.4439 6.407C31.4439 6.923 31.6989 7.181 32.2089 7.181ZM35.5463 8C35.4803 8 35.4293 7.979 35.3933 7.937C35.3633 7.895 35.3543 7.844 35.3663 7.784L36.2753 3.545C36.2873 3.479 36.3173 3.425 36.3653 3.383C36.4193 3.341 36.4763 3.32 36.5363 3.32H37.2743C37.3403 3.32 37.3883 3.344 37.4183 3.392C37.4543 3.434 37.4663 3.485 37.4543 3.545L37.3733 3.914C37.6733 3.518 38.1233 3.32 38.7233 3.32H39.1733C39.2393 3.32 39.2873 3.341 39.3173 3.383C39.3473 3.425 39.3563 3.476 39.3443 3.536L39.2003 4.193C39.1943 4.253 39.1643 4.304 39.1103 4.346C39.0623 4.388 39.0053 4.409 38.9393 4.409H38.2283C37.9463 4.409 37.7063 4.49 37.5083 4.652C37.3163 4.814 37.1903 5.036 37.1303 5.318L36.6083 7.784C36.5963 7.844 36.5633 7.895 36.5093 7.937C36.4613 7.979 36.4073 8 36.3473 8H35.5463ZM42.8891 8.09C42.4631 8.09 42.1151 8.03 41.8451 7.91C41.5751 7.79 41.3801 7.646 41.2601 7.478C41.1401 7.31 41.0801 7.154 41.0801 7.01C41.0801 6.926 41.1071 6.86 41.1611 6.812C41.2151 6.758 41.2721 6.731 41.3321 6.731H42.0701C42.1121 6.731 42.1481 6.755 42.1781 6.803C42.2081 6.827 42.2651 6.884 42.3491 6.974C42.4391 7.064 42.5441 7.136 42.6641 7.19C42.7841 7.238 42.9251 7.262 43.0871 7.262C43.3571 7.262 43.5791 7.205 43.7531 7.091C43.9331 6.977 44.0231 6.815 44.0231 6.605C44.0231 6.473 43.9451 6.368 43.7891 6.29C43.6331 6.206 43.3331 6.113 42.8891 6.011C42.4691 5.915 42.1571 5.78 41.9531 5.606C41.7551 5.426 41.6561 5.198 41.6561 4.922C41.6561 4.862 41.6681 4.766 41.6921 4.634C41.7461 4.394 41.8691 4.169 42.0611 3.959C42.2531 3.743 42.5051 3.569 42.8171 3.437C43.1291 3.299 43.4831 3.23 43.8791 3.23C44.2811 3.23 44.6141 3.293 44.8781 3.419C45.1481 3.545 45.3401 3.698 45.4541 3.878C45.5681 4.052 45.6131 4.208 45.5891 4.346C45.5831 4.406 45.5561 4.457 45.5081 4.499C45.4601 4.541 45.4091 4.562 45.3551 4.562H44.6801C44.6201 4.562 44.5751 4.538 44.5451 4.49C44.5091 4.454 44.4521 4.397 44.3741 4.319C44.2961 4.241 44.2031 4.178 44.0951 4.13C43.9931 4.082 43.8611 4.058 43.6991 4.058C43.4531 4.058 43.2551 4.121 43.1051 4.247C42.9551 4.367 42.8801 4.517 42.8801 4.697C42.8801 4.811 42.9551 4.91 43.1051 4.994C43.2611 5.072 43.5491 5.156 43.9691 5.246C44.8691 5.426 45.3191 5.804 45.3191 6.38C45.3191 6.476 45.3101 6.569 45.2921 6.659C45.2021 7.085 44.9441 7.43 44.5181 7.694C44.0921 7.958 43.5491 8.09 42.8891 8.09ZM46.0229 8C45.9569 8 45.9059 7.979 45.8699 7.937C45.8399 7.895 45.8309 7.844 45.8429 7.784L47.1209 1.826C47.1329 1.76 47.1629 1.709 47.2109 1.673C47.2589 1.631 47.3129 1.61 47.3729 1.61H48.1919C48.2579 1.61 48.3059 1.631 48.3359 1.673C48.3719 1.715 48.3839 1.766 48.3719 1.826L47.9309 3.878C48.1349 3.668 48.3569 3.509 48.5969 3.401C48.8369 3.287 49.1129 3.23 49.4249 3.23C49.9109 3.23 50.2889 3.359 50.5589 3.617C50.8349 3.875 50.9729 4.232 50.9729 4.688C50.9729 4.88 50.9519 5.069 50.9099 5.255L50.3699 7.784C50.3579 7.844 50.3279 7.895 50.2799 7.937C50.2319 7.979 50.1779 8 50.1179 8H49.2899C49.2239 8 49.1729 7.979 49.1369 7.937C49.1069 7.895 49.0979 7.844 49.1099 7.784L49.6319 5.309C49.6619 5.189 49.6769 5.054 49.6769 4.904C49.6769 4.436 49.4309 4.202 48.9389 4.202C48.6269 4.202 48.3479 4.301 48.1019 4.499C47.8559 4.697 47.6969 4.967 47.6249 5.309L47.1029 7.784C47.0909 7.85 47.0579 7.904 47.0039 7.946C46.9559 7.982 46.9019 8 46.8419 8H46.0229ZM53.2308 8.09C52.7148 8.09 52.3248 7.946 52.0608 7.658C51.7968 7.37 51.6648 6.977 51.6648 6.479C51.6648 6.329 51.6798 6.155 51.7098 5.957C51.7338 5.789 51.7758 5.591 51.8358 5.363C52.0038 4.715 52.2798 4.199 52.6638 3.815C53.0478 3.425 53.5488 3.23 54.1668 3.23C54.5148 3.23 54.7878 3.284 54.9858 3.392C55.1838 3.494 55.3428 3.641 55.4628 3.833L55.5258 3.536C55.5378 3.47 55.5678 3.419 55.6158 3.383C55.6698 3.341 55.7268 3.32 55.7868 3.32H56.5068C56.5728 3.32 56.6208 3.341 56.6508 3.383C56.6868 3.425 56.6988 3.476 56.6868 3.536L55.7868 7.784C55.7748 7.85 55.7418 7.904 55.6878 7.946C55.6398 7.982 55.5858 8 55.5258 8H54.8058C54.7398 8 54.6888 7.979 54.6528 7.937C54.6228 7.895 54.6138 7.844 54.6258 7.784L54.6978 7.451C54.4878 7.661 54.2718 7.82 54.0498 7.928C53.8338 8.036 53.5608 8.09 53.2308 8.09ZM53.6448 7.118C53.9868 7.118 54.2718 7.007 54.4998 6.785C54.7278 6.563 54.8808 6.293 54.9588 5.975C55.0188 5.729 55.0668 5.498 55.1028 5.282C55.1208 5.18 55.1298 5.084 55.1298 4.994C55.1298 4.76 55.0668 4.571 54.9408 4.427C54.8148 4.277 54.6138 4.202 54.3378 4.202C53.7318 4.202 53.3118 4.598 53.0778 5.39C53.0298 5.552 52.9908 5.732 52.9608 5.93C52.9368 6.11 52.9248 6.242 52.9248 6.326C52.9248 6.578 52.9788 6.773 53.0868 6.911C53.1948 7.049 53.3808 7.118 53.6448 7.118ZM57.1586 8C57.0926 8 57.0416 7.979 57.0056 7.937C56.9756 7.895 56.9666 7.844 56.9786 7.784L57.8876 3.545C57.8996 3.479 57.9296 3.425 57.9776 3.383C58.0316 3.341 58.0886 3.32 58.1486 3.32H58.8866C58.9526 3.32 59.0006 3.344 59.0306 3.392C59.0666 3.434 59.0786 3.485 59.0666 3.545L58.9856 3.914C59.2856 3.518 59.7356 3.32 60.3356 3.32H60.7856C60.8516 3.32 60.8996 3.341 60.9296 3.383C60.9596 3.425 60.9686 3.476 60.9566 3.536L60.8126 4.193C60.8066 4.253 60.7766 4.304 60.7226 4.346C60.6746 4.388 60.6176 4.409 60.5516 4.409H59.8406C59.5586 4.409 59.3186 4.49 59.1206 4.652C58.9286 4.814 58.8026 5.036 58.7426 5.318L58.2206 7.784C58.2086 7.844 58.1756 7.895 58.1216 7.937C58.0736 7.979 58.0196 8 57.9596 8H57.1586ZM62.0539 2.555C61.9939 2.555 61.9459 2.534 61.9099 2.492C61.8799 2.45 61.8709 2.399 61.8829 2.339L62.0269 1.682C62.0329 1.622 62.0599 1.571 62.1079 1.529C62.1619 1.481 62.2219 1.457 62.2879 1.457H63.1159C63.1759 1.457 63.2239 1.478 63.2599 1.52C63.2959 1.562 63.3079 1.616 63.2959 1.682L63.1519 2.339C63.1399 2.399 63.1069 2.45 63.0529 2.492C63.0049 2.534 62.9509 2.555 62.8909 2.555H62.0539ZM60.9379 8C60.8719 8 60.8209 7.979 60.7849 7.937C60.7549 7.895 60.7459 7.844 60.7579 7.784L61.6669 3.536C61.6789 3.47 61.7089 3.419 61.7569 3.383C61.8109 3.341 61.8679 3.32 61.9279 3.32H62.6929C62.7529 3.32 62.7979 3.341 62.8279 3.383C62.8579 3.425 62.8669 3.476 62.8549 3.536L61.9549 7.784C61.9429 7.844 61.9129 7.895 61.8649 7.937C61.8169 7.979 61.7629 8 61.7029 8H60.9379ZM63.3198 8C63.2538 8 63.2028 7.979 63.1668 7.937C63.1368 7.895 63.1278 7.844 63.1398 7.784L64.0488 3.536C64.0608 3.47 64.0908 3.419 64.1388 3.383C64.1928 3.341 64.2498 3.32 64.3098 3.32H65.0568C65.1228 3.32 65.1708 3.341 65.2008 3.383C65.2308 3.425 65.2398 3.476 65.2278 3.536L65.1468 3.905C65.3448 3.701 65.5758 3.539 65.8398 3.419C66.1038 3.293 66.3948 3.23 66.7128 3.23C67.2048 3.23 67.5798 3.353 67.8378 3.599C68.1018 3.845 68.2338 4.19 68.2338 4.634C68.2338 4.808 68.2098 5.015 68.1618 5.255L67.6218 7.784C67.6098 7.85 67.5768 7.904 67.5228 7.946C67.4748 7.982 67.4208 8 67.3608 8H66.5598C66.4938 8 66.4428 7.979 66.4068 7.937C66.3768 7.895 66.3678 7.844 66.3798 7.784L66.9018 5.309C66.9438 5.099 66.9648 4.943 66.9648 4.841C66.9648 4.625 66.9048 4.466 66.7848 4.364C66.6708 4.256 66.4848 4.202 66.2268 4.202C65.8908 4.202 65.6058 4.301 65.3718 4.499C65.1378 4.691 64.9818 4.961 64.9038 5.309L64.3818 7.784C64.3698 7.85 64.3368 7.904 64.2828 7.946C64.2348 7.982 64.1808 8 64.1208 8H63.3198ZM70.4568 9.98C69.9468 9.98 69.5418 9.893 69.2418 9.719C68.9418 9.545 68.7378 9.344 68.6298 9.116C68.5158 8.888 68.4708 8.696 68.4948 8.54C68.5008 8.48 68.5278 8.426 68.5758 8.378C68.6238 8.336 68.6778 8.315 68.7378 8.315H69.5658C69.6198 8.315 69.6618 8.327 69.6918 8.351C69.7278 8.381 69.7488 8.432 69.7548 8.504C69.8028 8.882 70.0608 9.071 70.5288 9.071C71.2428 9.071 71.6748 8.714 71.8248 8L71.9508 7.388C71.7528 7.574 71.5428 7.718 71.3208 7.82C71.1048 7.916 70.8438 7.964 70.5378 7.964C69.9978 7.964 69.5958 7.826 69.3318 7.55C69.0678 7.274 68.9358 6.89 68.9358 6.398C68.9358 6.188 68.9508 6.005 68.9808 5.849C69.0048 5.699 69.0378 5.537 69.0798 5.363C69.2538 4.709 69.5298 4.19 69.9078 3.806C70.2858 3.422 70.7838 3.23 71.4018 3.23C71.7258 3.23 72.0018 3.293 72.2298 3.419C72.4638 3.539 72.6348 3.698 72.7428 3.896L72.8238 3.545C72.8358 3.479 72.8658 3.425 72.9138 3.383C72.9678 3.341 73.0248 3.32 73.0848 3.32H73.8318C73.8918 3.32 73.9368 3.344 73.9668 3.392C74.0028 3.434 74.0148 3.485 74.0028 3.545L73.0848 7.883C72.9348 8.573 72.6558 9.095 72.2478 9.449C71.8398 9.803 71.2428 9.98 70.4568 9.98ZM70.9428 7.01C71.2788 7.01 71.5638 6.902 71.7978 6.686C72.0318 6.464 72.1878 6.2 72.2658 5.894C72.3198 5.684 72.3588 5.492 72.3828 5.318C72.4008 5.228 72.4098 5.135 72.4098 5.039C72.4098 4.793 72.3438 4.592 72.2118 4.436C72.0858 4.28 71.8848 4.202 71.6088 4.202C71.2728 4.202 70.9968 4.313 70.7808 4.535C70.5708 4.757 70.4178 5.042 70.3218 5.39C70.2738 5.546 70.2408 5.69 70.2228 5.822C70.1988 6.002 70.1868 6.134 70.1868 6.218C70.1868 6.746 70.4388 7.01 70.9428 7.01ZM76.5618 9.71C76.5198 9.71 76.4838 9.695 76.4538 9.665C76.4298 9.641 76.4178 9.608 76.4178 9.566C76.4178 9.506 76.4328 9.458 76.4628 9.422L77.5608 7.694L76.6788 3.572C76.6668 3.506 76.6788 3.449 76.7148 3.401C76.7568 3.347 76.8228 3.32 76.9128 3.32H77.5968C77.7168 3.32 77.7888 3.377 77.8128 3.491L78.4068 6.425L80.2698 3.491C80.3358 3.377 80.4318 3.32 80.5578 3.32H81.3408C81.3888 3.32 81.4278 3.335 81.4578 3.365C81.4878 3.389 81.5028 3.425 81.5028 3.473C81.5028 3.509 81.4908 3.548 81.4668 3.59L77.6238 9.539C77.5578 9.653 77.4618 9.71 77.3358 9.71H76.5618ZM83.2801 8.09C82.6741 8.09 82.2001 7.946 81.8581 7.658C81.5221 7.364 81.3541 6.965 81.3541 6.461C81.3541 6.317 81.3661 6.182 81.3901 6.056C81.4441 5.738 81.5011 5.474 81.5611 5.264C81.7231 4.622 82.0231 4.124 82.4611 3.77C82.8991 3.41 83.4691 3.23 84.1711 3.23C84.7771 3.23 85.2511 3.377 85.5931 3.671C85.9351 3.965 86.1061 4.367 86.1061 4.877C86.1061 4.955 86.0941 5.084 86.0701 5.264C85.9801 5.696 85.9231 5.96 85.8991 6.056C85.7311 6.698 85.4311 7.199 84.9991 7.559C84.5671 7.913 83.9941 8.09 83.2801 8.09ZM83.3701 7.181C83.6881 7.181 83.9581 7.082 84.1801 6.884C84.4081 6.686 84.5701 6.395 84.6661 6.011C84.7081 5.843 84.7591 5.609 84.8191 5.309C84.8431 5.183 84.8551 5.054 84.8551 4.922C84.8551 4.394 84.5971 4.13 84.0811 4.13C83.7631 4.13 83.4931 4.232 83.2711 4.436C83.0491 4.64 82.8901 4.931 82.7941 5.309C82.7281 5.519 82.6771 5.753 82.6411 6.011C82.6171 6.137 82.6051 6.269 82.6051 6.407C82.6051 6.923 82.8601 7.181 83.3701 7.181ZM88.2915 8.09C87.8055 8.09 87.4305 7.967 87.1665 7.721C86.9085 7.475 86.7795 7.127 86.7795 6.677C86.7795 6.497 86.8035 6.293 86.8515 6.065L87.3825 3.536C87.3945 3.476 87.4245 3.425 87.4725 3.383C87.5265 3.341 87.5865 3.32 87.6525 3.32H88.4535C88.5195 3.32 88.5675 3.341 88.5975 3.383C88.6275 3.425 88.6365 3.476 88.6245 3.536L88.1025 6.011C88.0605 6.221 88.0395 6.38 88.0395 6.488C88.0395 6.698 88.0965 6.857 88.2105 6.965C88.3245 7.067 88.5105 7.118 88.7685 7.118C89.0925 7.118 89.3715 7.019 89.6055 6.821C89.8455 6.623 90.0045 6.353 90.0825 6.011L90.6045 3.536C90.6165 3.476 90.6465 3.425 90.6945 3.383C90.7485 3.341 90.8055 3.32 90.8655 3.32H91.6755C91.7355 3.32 91.7805 3.341 91.8105 3.383C91.8405 3.425 91.8495 3.476 91.8375 3.536L90.9375 7.784C90.9255 7.844 90.8955 7.895 90.8475 7.937C90.7995 7.979 90.7455 8 90.6855 8H89.9385C89.8725 8 89.8215 7.979 89.7855 7.937C89.7555 7.895 89.7465 7.844 89.7585 7.784L89.8395 7.415C89.6175 7.655 89.3955 7.829 89.1735 7.937C88.9515 8.039 88.6575 8.09 88.2915 8.09ZM92.3061 8C92.2401 8 92.1891 7.979 92.1531 7.937C92.1231 7.895 92.1141 7.844 92.1261 7.784L93.0351 3.545C93.0471 3.479 93.0771 3.425 93.1251 3.383C93.1791 3.341 93.2361 3.32 93.2961 3.32H94.0341C94.1001 3.32 94.1481 3.344 94.1781 3.392C94.2141 3.434 94.2261 3.485 94.2141 3.545L94.1331 3.914C94.4331 3.518 94.8831 3.32 95.4831 3.32H95.9331C95.9991 3.32 96.0471 3.341 96.0771 3.383C96.1071 3.425 96.1161 3.476 96.1041 3.536L95.9601 4.193C95.9541 4.253 95.9241 4.304 95.8701 4.346C95.8221 4.388 95.7651 4.409 95.6991 4.409H94.9881C94.7061 4.409 94.4661 4.49 94.2681 4.652C94.0761 4.814 93.9501 5.036 93.8901 5.318L93.3681 7.784C93.3561 7.844 93.3231 7.895 93.2691 7.937C93.2211 7.979 93.1671 8 93.1071 8H92.3061ZM99.5408 8.09C99.0248 8.09 98.6318 7.946 98.3618 7.658C98.0918 7.364 97.9568 6.968 97.9568 6.47C97.9568 6.326 97.9718 6.155 98.0018 5.957C98.0258 5.789 98.0678 5.591 98.1278 5.363C98.2898 4.721 98.5628 4.205 98.9468 3.815C99.3368 3.425 99.8348 3.23 100.441 3.23C100.765 3.23 101.035 3.284 101.251 3.392C101.473 3.5 101.641 3.644 101.755 3.824L102.178 1.826C102.19 1.76 102.22 1.709 102.268 1.673C102.322 1.631 102.379 1.61 102.439 1.61H103.222C103.282 1.61 103.327 1.631 103.357 1.673C103.393 1.715 103.405 1.766 103.393 1.826L102.124 7.784C102.112 7.844 102.082 7.895 102.034 7.937C101.986 7.979 101.932 8 101.872 8H101.143C101.077 8 101.026 7.979 100.99 7.937C100.96 7.895 100.951 7.844 100.963 7.784L101.035 7.451C100.825 7.661 100.606 7.82 100.378 7.928C100.156 8.036 99.8768 8.09 99.5408 8.09ZM99.9638 7.118C100.306 7.118 100.594 7.007 100.828 6.785C101.062 6.557 101.218 6.287 101.296 5.975C101.356 5.729 101.404 5.498 101.44 5.282C101.458 5.192 101.467 5.105 101.467 5.021C101.467 4.781 101.401 4.586 101.269 4.436C101.137 4.28 100.93 4.202 100.648 4.202C100.318 4.202 100.048 4.313 99.8378 4.535C99.6278 4.751 99.4718 5.036 99.3698 5.39C99.3098 5.6 99.2708 5.78 99.2528 5.93C99.2288 6.11 99.2168 6.236 99.2168 6.308C99.2168 6.848 99.4658 7.118 99.9638 7.118ZM105.042 8.09C104.526 8.09 104.136 7.946 103.872 7.658C103.608 7.37 103.476 6.977 103.476 6.479C103.476 6.329 103.491 6.155 103.521 5.957C103.545 5.789 103.587 5.591 103.647 5.363C103.815 4.715 104.091 4.199 104.475 3.815C104.859 3.425 105.36 3.23 105.978 3.23C106.326 3.23 106.599 3.284 106.797 3.392C106.995 3.494 107.154 3.641 107.274 3.833L107.337 3.536C107.349 3.47 107.379 3.419 107.427 3.383C107.481 3.341 107.538 3.32 107.598 3.32H108.318C108.384 3.32 108.432 3.341 108.462 3.383C108.498 3.425 108.51 3.476 108.498 3.536L107.598 7.784C107.586 7.85 107.553 7.904 107.499 7.946C107.451 7.982 107.397 8 107.337 8H106.617C106.551 8 106.5 7.979 106.464 7.937C106.434 7.895 106.425 7.844 106.437 7.784L106.509 7.451C106.299 7.661 106.083 7.82 105.861 7.928C105.645 8.036 105.372 8.09 105.042 8.09ZM105.456 7.118C105.798 7.118 106.083 7.007 106.311 6.785C106.539 6.563 106.692 6.293 106.77 5.975C106.83 5.729 106.878 5.498 106.914 5.282C106.932 5.18 106.941 5.084 106.941 4.994C106.941 4.76 106.878 4.571 106.752 4.427C106.626 4.277 106.425 4.202 106.149 4.202C105.543 4.202 105.123 4.598 104.889 5.39C104.841 5.552 104.802 5.732 104.772 5.93C104.748 6.11 104.736 6.242 104.736 6.326C104.736 6.578 104.79 6.773 104.898 6.911C105.006 7.049 105.192 7.118 105.456 7.118ZM110.932 8C110.434 8 110.065 7.907 109.825 7.721C109.591 7.529 109.474 7.244 109.474 6.866C109.474 6.686 109.495 6.503 109.537 6.317L109.978 4.283H109.267C109.201 4.283 109.153 4.262 109.123 4.22C109.093 4.178 109.084 4.127 109.096 4.067L109.204 3.536C109.216 3.476 109.246 3.425 109.294 3.383C109.348 3.341 109.408 3.32 109.474 3.32H110.176L110.5 1.826C110.512 1.76 110.542 1.709 110.59 1.673C110.638 1.631 110.692 1.61 110.752 1.61H111.499C111.565 1.61 111.613 1.631 111.643 1.673C111.679 1.715 111.691 1.766 111.679 1.826L111.355 3.32H112.48C112.546 3.32 112.594 3.341 112.624 3.383C112.654 3.425 112.663 3.476 112.651 3.536L112.534 4.067C112.528 4.127 112.498 4.178 112.444 4.22C112.396 4.262 112.339 4.283 112.273 4.283H111.157L110.734 6.218C110.698 6.38 110.68 6.518 110.68 6.632C110.68 6.758 110.713 6.851 110.779 6.911C110.845 6.971 110.959 7.001 111.121 7.001H111.778C111.844 7.001 111.892 7.022 111.922 7.064C111.952 7.106 111.961 7.157 111.949 7.217L111.832 7.784C111.82 7.85 111.787 7.904 111.733 7.946C111.685 7.982 111.631 8 111.571 8H110.932ZM114.332 8.09C113.816 8.09 113.426 7.946 113.162 7.658C112.898 7.37 112.766 6.977 112.766 6.479C112.766 6.329 112.781 6.155 112.811 5.957C112.835 5.789 112.877 5.591 112.937 5.363C113.105 4.715 113.381 4.199 113.765 3.815C114.149 3.425 114.65 3.23 115.268 3.23C115.616 3.23 115.889 3.284 116.087 3.392C116.285 3.494 116.444 3.641 116.564 3.833L116.627 3.536C116.639 3.47 116.669 3.419 116.717 3.383C116.771 3.341 116.828 3.32 116.888 3.32H117.608C117.674 3.32 117.722 3.341 117.752 3.383C117.788 3.425 117.8 3.476 117.788 3.536L116.888 7.784C116.876 7.85 116.843 7.904 116.789 7.946C116.741 7.982 116.687 8 116.627 8H115.907C115.841 8 115.79 7.979 115.754 7.937C115.724 7.895 115.715 7.844 115.727 7.784L115.799 7.451C115.589 7.661 115.373 7.82 115.151 7.928C114.935 8.036 114.662 8.09 114.332 8.09ZM114.746 7.118C115.088 7.118 115.373 7.007 115.601 6.785C115.829 6.563 115.982 6.293 116.06 5.975C116.12 5.729 116.168 5.498 116.204 5.282C116.222 5.18 116.231 5.084 116.231 4.994C116.231 4.76 116.168 4.571 116.042 4.427C115.916 4.277 115.715 4.202 115.439 4.202C114.833 4.202 114.413 4.598 114.179 5.39C114.131 5.552 114.092 5.732 114.062 5.93C114.038 6.11 114.026 6.242 114.026 6.326C114.026 6.578 114.08 6.773 114.188 6.911C114.296 7.049 114.482 7.118 114.746 7.118Z" transform="translate(1.60077 77.0139) rotate(-12.5)" fill="#5423E2"/>
<path d="M7.69847 0C7.69847 0 8.4247 3.74404 10.0392 5.35894C11.6538 6.97384 15.3969 7.70025 15.3969 7.70025C15.3969 7.70025 11.6538 8.42665 10.0392 10.0416C8.4247 11.6565 7.69847 15.4005 7.69847 15.4005C7.69847 15.4005 6.97223 11.6565 5.3577 10.0416C3.74317 8.42665 0 7.70025 0 7.70025C0 7.70025 3.74317 6.97384 5.3577 5.35894C6.97223 3.74404 7.69847 0 7.69847 0Z" transform="translate(10 15.985) rotate(-15)" fill="#00FFE0"/>
<path d="M7.69847 0C7.69847 0 8.4247 3.74404 10.0392 5.35894C11.6538 6.97384 15.3969 7.70025 15.3969 7.70025C15.3969 7.70025 11.6538 8.42665 10.0392 10.0416C8.4247 11.6565 7.69847 15.4005 7.69847 15.4005C7.69847 15.4005 6.97223 11.6565 5.3577 10.0416C3.74317 8.42665 0 7.70025 0 7.70025C0 7.70025 3.74317 6.97384 5.3577 5.35894C6.97223 3.74404 7.69847 0 7.69847 0Z" transform="translate(113 71.985) rotate(-15)" fill="#00FFE0"/>
<path d="M4.79302 0C4.79302 0 5.24517 2.33102 6.25036 3.33644C7.25556 4.34187 9.58604 4.79413 9.58604 4.79413C9.58604 4.79413 7.25556 5.24638 6.25036 6.25181C5.24517 7.25724 4.79302 9.58826 4.79302 9.58826C4.79302 9.58826 4.34087 7.25724 3.33567 6.25181C2.33048 5.24638 0 4.79413 0 4.79413C0 4.79413 2.33048 4.34187 3.33567 3.33644C4.34087 2.33102 4.79302 0 4.79302 0Z" transform="translate(10 34.4811) rotate(-15)" fill="#00FFE0"/>
<path d="M4.79302 0C4.79302 0 5.24517 2.33102 6.25036 3.33644C7.25556 4.34187 9.58604 4.79413 9.58604 4.79413C9.58604 4.79413 7.25556 5.24638 6.25036 6.25181C5.24517 7.25724 4.79302 9.58826 4.79302 9.58826C4.79302 9.58826 4.34087 7.25724 3.33567 6.25181C2.33048 5.24638 0 4.79413 0 4.79413C0 4.79413 2.33048 4.34187 3.33567 3.33644C4.34087 2.33102 4.79302 0 4.79302 0Z" transform="translate(123 58.4811) rotate(-15)" fill="#00FFE0"/>
</svg>
