<svg width="439" height="115" viewBox="0 0 439 115" fill="none" xmlns="http://www.w3.org/2000/svg">
<g clip-path="url(#clip0)">
<path d="M0.645 21.3C0.425 21.3 0.255 21.23 0.135 21.09C0.015 20.95 -0.025 20.77 0.015 20.55L4.155 1.08C4.195 0.86 4.295 0.679999 4.455 0.54C4.635 0.38 4.835 0.3 5.055 0.3H8.415C8.915 0.3 9.225 0.49 9.345 0.869999L14.055 12.12L16.425 1.08C16.465 0.86 16.565 0.679999 16.725 0.54C16.905 0.38 17.105 0.3 17.325 0.3H21.135C21.355 0.3 21.515 0.38 21.615 0.54C21.735 0.679999 21.775 0.86 21.735 1.08L17.595 20.52C17.555 20.74 17.445 20.93 17.265 21.09C17.105 21.23 16.915 21.3 16.695 21.3H13.335C13.055 21.3 12.855 21.25 12.735 21.15C12.615 21.03 12.505 20.89 12.405 20.73L7.635 9.93L5.355 20.55C5.315 20.77 5.205 20.95 5.025 21.09C4.845 21.23 4.655 21.3 4.455 21.3H0.645Z" transform="translate(8.28503 13.7)" fill="white"/>
<path d="M20.4054 21.3C20.2254 21.3 20.0854 21.25 19.9854 21.15C19.8854 21.03 19.8354 20.89 19.8354 20.73C19.8354 20.63 19.8654 20.52 19.9254 20.4L30.9954 1.17C31.3354 0.59 31.7954 0.3 32.3754 0.3H37.2354C37.8354 0.3 38.1754 0.59 38.2554 1.17L41.1654 20.4C41.1854 20.68 41.1254 20.9 40.9854 21.06C40.8454 21.22 40.6654 21.3 40.4454 21.3H36.6354C36.0954 21.3 35.7854 21.06 35.7054 20.58L35.2254 17.73H27.3954L25.6554 20.64C25.3754 21.08 24.9954 21.3 24.5154 21.3H20.4054ZM29.5854 13.23H34.9254L33.8754 5.58L29.5854 13.23Z" transform="translate(8.28503 13.7)" fill="white"/>
<path d="M46.3678 21.3C46.1478 21.3 45.9778 21.23 45.8578 21.09C45.7378 20.95 45.6978 20.77 45.7378 20.55L49.0078 5.19H43.7278C43.5078 5.19 43.3378 5.12 43.2178 4.98C43.0978 4.84 43.0578 4.66 43.0978 4.44L43.8178 1.08C43.8578 0.86 43.9678 0.679999 44.1478 0.54C44.3278 0.38 44.5278 0.3 44.7478 0.3H61.0378C61.2578 0.3 61.4278 0.38 61.5478 0.54C61.6678 0.679999 61.7078 0.86 61.6678 1.08L60.9178 4.44C60.8778 4.66 60.7678 4.84 60.5878 4.98C60.4278 5.12 60.2378 5.19 60.0178 5.19H54.7378L51.4378 20.55C51.3978 20.77 51.2878 20.95 51.1078 21.09C50.9478 21.23 50.7578 21.3 50.5378 21.3H46.3678Z" transform="translate(8.28503 13.7)" fill="white"/>
<path d="M60.7329 21.3C60.5129 21.3 60.3429 21.23 60.2229 21.09C60.1029 20.95 60.0629 20.77 60.1029 20.55L64.2429 1.08C64.2829 0.86 64.3929 0.679999 64.5729 0.54C64.7529 0.38 64.9529 0.3 65.1729 0.3H79.3329C79.5529 0.3 79.7129 0.38 79.8129 0.54C79.9329 0.679999 79.9729 0.86 79.9329 1.08L79.3029 4.05C79.2629 4.27 79.1529 4.45 78.9729 4.59C78.7929 4.73 78.5929 4.8 78.3729 4.8H68.8929L68.0529 8.61H76.9029C77.1229 8.61 77.2829 8.69 77.3829 8.85C77.5029 8.99 77.5429 9.17 77.5029 9.39L76.9329 12.12C76.8929 12.34 76.7829 12.53 76.6029 12.69C76.4229 12.83 76.2229 12.9 76.0029 12.9H67.1529L66.3429 16.8H76.0629C76.2829 16.8 76.4429 16.88 76.5429 17.04C76.6629 17.18 76.7029 17.36 76.6629 17.58L76.0329 20.55C75.9929 20.77 75.8829 20.95 75.7029 21.09C75.5229 21.23 75.3329 21.3 75.1329 21.3H60.7329Z" transform="translate(8.28503 13.7)" fill="white"/>
<path d="M86.3384 21.3C86.1184 21.3 85.9484 21.23 85.8284 21.09C85.7084 20.95 85.6684 20.77 85.7084 20.55L89.8484 1.08C89.8884 0.86 89.9984 0.679999 90.1784 0.54C90.3584 0.38 90.5584 0.3 90.7784 0.3H98.8184C101.058 0.3 102.858 0.76 104.218 1.68C105.598 2.6 106.288 3.94 106.288 5.7C106.288 6.2 106.228 6.72 106.108 7.26C105.608 9.58 104.588 11.3 103.048 12.42C101.528 13.52 99.4484 14.07 96.8084 14.07H92.9084L91.5284 20.55C91.4884 20.77 91.3784 20.95 91.1984 21.09C91.0384 21.23 90.8484 21.3 90.6284 21.3H86.3384ZM97.0184 9.78C97.8184 9.78 98.5184 9.57 99.1184 9.15C99.7184 8.71 100.108 8.07 100.288 7.23C100.368 6.79 100.408 6.49 100.408 6.33C100.408 5.19 99.6884 4.62 98.2484 4.62H94.8284L93.7184 9.78H97.0184Z" transform="translate(8.28503 13.7)" fill="white"/>
<path d="M103.667 21.3C103.487 21.3 103.347 21.25 103.247 21.15C103.147 21.03 103.097 20.89 103.097 20.73C103.097 20.63 103.127 20.52 103.187 20.4L114.257 1.17C114.597 0.59 115.057 0.3 115.637 0.3H120.497C121.097 0.3 121.437 0.59 121.517 1.17L124.427 20.4C124.447 20.68 124.387 20.9 124.247 21.06C124.107 21.22 123.927 21.3 123.707 21.3H119.897C119.357 21.3 119.047 21.06 118.967 20.58L118.487 17.73H110.657L108.917 20.64C108.637 21.08 108.257 21.3 107.777 21.3H103.667ZM112.847 13.23H118.187L117.137 5.58L112.847 13.23Z" transform="translate(8.28503 13.7)" fill="white"/>
<path d="M127.685 21.3C127.485 21.3 127.325 21.23 127.205 21.09C127.105 20.95 127.075 20.77 127.115 20.55L131.225 1.08C131.265 0.86 131.375 0.679999 131.555 0.54C131.735 0.38 131.935 0.3 132.155 0.3H140.405C142.685 0.3 144.445 0.75 145.685 1.65C146.925 2.55 147.545 3.84 147.545 5.52C147.545 6.04 147.485 6.59 147.365 7.17C147.085 8.57 146.515 9.76 145.655 10.74C144.795 11.72 143.735 12.48 142.475 13.02L144.965 20.34C145.005 20.48 145.015 20.59 144.995 20.67C144.955 20.85 144.855 21 144.695 21.12C144.555 21.24 144.395 21.3 144.215 21.3H139.985C139.425 21.3 139.075 21.03 138.935 20.49L137.015 13.98H134.135L132.725 20.55C132.685 20.77 132.575 20.95 132.395 21.09C132.215 21.23 132.015 21.3 131.795 21.3H127.685ZM138.395 9.57C139.255 9.57 139.955 9.36 140.495 8.94C141.035 8.5 141.385 7.9 141.545 7.14C141.585 6.98 141.605 6.75 141.605 6.45C141.605 5.89 141.425 5.45 141.065 5.13C140.705 4.79 140.165 4.62 139.445 4.62H136.115L135.065 9.57H138.395Z" transform="translate(8.28503 13.7)" fill="white"/>
<path d="M148.545 21.3C148.345 21.3 148.185 21.23 148.065 21.09C147.965 20.95 147.935 20.77 147.975 20.55L152.085 1.08C152.125 0.86 152.235 0.679999 152.415 0.54C152.595 0.38 152.795 0.3 153.015 0.3H161.265C163.545 0.3 165.305 0.75 166.545 1.65C167.785 2.55 168.405 3.84 168.405 5.52C168.405 6.04 168.345 6.59 168.225 7.17C167.945 8.57 167.375 9.76 166.515 10.74C165.655 11.72 164.595 12.48 163.335 13.02L165.825 20.34C165.865 20.48 165.875 20.59 165.855 20.67C165.815 20.85 165.715 21 165.555 21.12C165.415 21.24 165.255 21.3 165.075 21.3H160.845C160.285 21.3 159.935 21.03 159.795 20.49L157.875 13.98H154.995L153.585 20.55C153.545 20.77 153.435 20.95 153.255 21.09C153.075 21.23 152.875 21.3 152.655 21.3H148.545ZM159.255 9.57C160.115 9.57 160.815 9.36 161.355 8.94C161.895 8.5 162.245 7.9 162.405 7.14C162.445 6.98 162.465 6.75 162.465 6.45C162.465 5.89 162.285 5.45 161.925 5.13C161.565 4.79 161.025 4.62 160.305 4.62H156.975L155.925 9.57H159.255Z" transform="translate(8.28503 13.7)" fill="white"/>
<path d="M177.236 21.6C175.676 21.6 174.276 21.35 173.036 20.85C171.816 20.35 170.846 19.61 170.126 18.63C169.406 17.65 169.046 16.45 169.046 15.03C169.046 14.61 169.096 14.08 169.196 13.44C169.536 11.5 169.906 9.77 170.306 8.25C170.986 5.53 172.186 3.48 173.906 2.1C175.646 0.7 177.976 0 180.896 0C182.436 0 183.826 0.26 185.066 0.780001C186.306 1.3 187.286 2.07 188.006 3.09C188.726 4.09 189.086 5.3 189.086 6.72C189.086 7.14 189.036 7.65 188.936 8.25C188.656 9.87 188.286 11.6 187.826 13.44C187.146 16.18 185.936 18.23 184.196 19.59C182.476 20.93 180.156 21.6 177.236 21.6ZM177.686 17.1C178.766 17.1 179.676 16.79 180.416 16.17C181.176 15.53 181.716 14.56 182.036 13.26C182.476 11.44 182.826 9.8 183.086 8.34C183.166 7.94 183.206 7.53 183.206 7.11C183.206 5.37 182.296 4.5 180.476 4.5C179.396 4.5 178.476 4.82 177.716 5.46C176.976 6.08 176.446 7.04 176.126 8.34C175.786 9.6 175.426 11.24 175.046 13.26C174.966 13.66 174.926 14.07 174.926 14.49C174.926 16.23 175.846 17.1 177.686 17.1Z" transform="translate(8.28503 13.7)" fill="white"/>
<path d="M194.551 21.3C194.331 21.3 194.161 21.23 194.041 21.09C193.921 20.95 193.881 20.77 193.921 20.55L197.191 5.19H191.911C191.691 5.19 191.521 5.12 191.401 4.98C191.281 4.84 191.241 4.66 191.281 4.44L192.001 1.08C192.041 0.86 192.151 0.679999 192.331 0.54C192.511 0.38 192.711 0.3 192.931 0.3H209.221C209.441 0.3 209.611 0.38 209.731 0.54C209.851 0.679999 209.891 0.86 209.851 1.08L209.101 4.44C209.061 4.66 208.951 4.84 208.771 4.98C208.611 5.12 208.421 5.19 208.201 5.19H202.921L199.621 20.55C199.581 20.77 199.471 20.95 199.291 21.09C199.131 21.23 198.941 21.3 198.721 21.3H194.551Z" transform="translate(8.28503 13.7)" fill="white"/>
<path d="M213.506 21.3C213.286 21.3 213.116 21.23 212.996 21.09C212.876 20.95 212.836 20.77 212.876 20.55L216.146 5.19H210.866C210.646 5.19 210.476 5.12 210.356 4.98C210.236 4.84 210.196 4.66 210.236 4.44L210.956 1.08C210.996 0.86 211.106 0.679999 211.286 0.54C211.466 0.38 211.666 0.3 211.886 0.3H228.176C228.396 0.3 228.566 0.38 228.686 0.54C228.806 0.679999 228.846 0.86 228.806 1.08L228.056 4.44C228.016 4.66 227.906 4.84 227.726 4.98C227.566 5.12 227.376 5.19 227.156 5.19H221.876L218.576 20.55C218.536 20.77 218.426 20.95 218.246 21.09C218.086 21.23 217.896 21.3 217.676 21.3H213.506Z" transform="translate(8.28503 13.7)" fill="white"/>
<path d="M233.584 21.3C233.364 21.3 233.194 21.23 233.074 21.09C232.954 20.95 232.914 20.77 232.954 20.55L237.094 1.08C237.134 0.86 237.244 0.679999 237.424 0.54C237.604 0.38 237.804 0.3 238.024 0.3H245.404C246.984 0.3 248.404 0.56 249.664 1.08C250.924 1.6 251.924 2.36 252.664 3.36C253.404 4.36 253.774 5.56 253.774 6.96C253.774 7.38 253.724 7.89 253.624 8.49C253.344 10.11 253.024 11.64 252.664 13.08C251.944 15.94 250.764 18.03 249.124 19.35C247.504 20.65 245.164 21.3 242.104 21.3H233.584ZM242.404 16.8C243.644 16.8 244.634 16.5 245.374 15.9C246.114 15.3 246.644 14.34 246.964 13.02C247.384 11.24 247.704 9.75 247.924 8.55C247.984 8.15 248.014 7.79 248.014 7.47C248.014 6.57 247.744 5.9 247.204 5.46C246.684 5.02 245.884 4.8 244.804 4.8H241.954L239.374 16.8H242.404Z" transform="translate(8.28503 13.7)" fill="white"/>
<path d="M263.428 21.6C261.868 21.6 260.468 21.35 259.228 20.85C258.008 20.35 257.038 19.61 256.318 18.63C255.598 17.65 255.238 16.45 255.238 15.03C255.238 14.61 255.288 14.08 255.388 13.44C255.728 11.5 256.098 9.77 256.498 8.25C257.178 5.53 258.378 3.48 260.098 2.1C261.838 0.7 264.168 0 267.088 0C268.628 0 270.018 0.26 271.258 0.780001C272.498 1.3 273.478 2.07 274.198 3.09C274.918 4.09 275.278 5.3 275.278 6.72C275.278 7.14 275.228 7.65 275.128 8.25C274.848 9.87 274.478 11.6 274.018 13.44C273.338 16.18 272.128 18.23 270.388 19.59C268.668 20.93 266.348 21.6 263.428 21.6ZM263.878 17.1C264.958 17.1 265.868 16.79 266.608 16.17C267.368 15.53 267.908 14.56 268.228 13.26C268.668 11.44 269.018 9.8 269.278 8.34C269.358 7.94 269.398 7.53 269.398 7.11C269.398 5.37 268.488 4.5 266.668 4.5C265.588 4.5 264.668 4.82 263.908 5.46C263.168 6.08 262.638 7.04 262.318 8.34C261.978 9.6 261.618 11.24 261.238 13.26C261.158 13.66 261.118 14.07 261.118 14.49C261.118 16.23 262.038 17.1 263.878 17.1Z" transform="translate(8.28503 13.7)" fill="white"/>
<path d="M280.743 21.3C280.523 21.3 280.353 21.23 280.233 21.09C280.113 20.95 280.073 20.77 280.113 20.55L283.383 5.19H278.103C277.883 5.19 277.713 5.12 277.593 4.98C277.473 4.84 277.433 4.66 277.473 4.44L278.193 1.08C278.233 0.86 278.343 0.679999 278.523 0.54C278.703 0.38 278.903 0.3 279.123 0.3H295.413C295.633 0.3 295.803 0.38 295.923 0.54C296.043 0.679999 296.083 0.86 296.043 1.08L295.293 4.44C295.253 4.66 295.143 4.84 294.963 4.98C294.803 5.12 294.613 5.19 294.393 5.19H289.113L285.813 20.55C285.773 20.77 285.663 20.95 285.483 21.09C285.323 21.23 285.133 21.3 284.913 21.3H280.743Z" transform="translate(8.28503 13.7)" fill="white"/>
<path d="M309.161 21.6C306.661 21.6 304.661 21.05 303.161 19.95C301.681 18.83 300.941 17.22 300.941 15.12C300.941 14.66 300.991 14.11 301.091 13.47C301.331 12.03 301.711 10.25 302.231 8.13C302.891 5.47 304.101 3.45 305.861 2.07C307.641 0.69 309.961 0 312.821 0C314.381 0 315.801 0.24 317.081 0.72C318.381 1.2 319.401 1.9 320.141 2.82C320.901 3.72 321.281 4.8 321.281 6.06C321.281 6.5 321.241 6.91 321.161 7.29C321.121 7.47 321.031 7.62 320.891 7.74C320.771 7.86 320.621 7.92 320.441 7.92H316.121C315.841 7.92 315.631 7.87 315.491 7.77C315.371 7.65 315.301 7.44 315.281 7.14C315.301 6.18 315.051 5.5 314.531 5.1C314.031 4.7 313.311 4.5 312.371 4.5C310.071 4.5 308.621 5.76 308.021 8.28C307.601 9.94 307.241 11.62 306.941 13.32C306.861 13.72 306.821 14.12 306.821 14.52C306.821 15.42 307.051 16.08 307.511 16.5C307.971 16.9 308.661 17.1 309.581 17.1C310.521 17.1 311.331 16.9 312.011 16.5C312.711 16.1 313.281 15.42 313.721 14.46C313.861 14.16 314.011 13.96 314.171 13.86C314.331 13.74 314.551 13.68 314.831 13.68H319.151C319.331 13.68 319.471 13.74 319.571 13.86C319.671 13.98 319.701 14.13 319.661 14.31C319.081 16.61 317.881 18.4 316.061 19.68C314.241 20.96 311.941 21.6 309.161 21.6Z" transform="translate(8.28503 13.7)" fill="white"/>
<path d="M330.254 21.6C328.694 21.6 327.294 21.35 326.054 20.85C324.834 20.35 323.864 19.61 323.144 18.63C322.424 17.65 322.064 16.45 322.064 15.03C322.064 14.61 322.114 14.08 322.214 13.44C322.554 11.5 322.924 9.77 323.324 8.25C324.004 5.53 325.204 3.48 326.924 2.1C328.664 0.7 330.994 0 333.914 0C335.454 0 336.844 0.26 338.084 0.780001C339.324 1.3 340.304 2.07 341.024 3.09C341.744 4.09 342.104 5.3 342.104 6.72C342.104 7.14 342.054 7.65 341.954 8.25C341.674 9.87 341.304 11.6 340.844 13.44C340.164 16.18 338.954 18.23 337.214 19.59C335.494 20.93 333.174 21.6 330.254 21.6ZM330.704 17.1C331.784 17.1 332.694 16.79 333.434 16.17C334.194 15.53 334.734 14.56 335.054 13.26C335.494 11.44 335.844 9.8 336.104 8.34C336.184 7.94 336.224 7.53 336.224 7.11C336.224 5.37 335.314 4.5 333.494 4.5C332.414 4.5 331.494 4.82 330.734 5.46C329.994 6.08 329.464 7.04 329.144 8.34C328.804 9.6 328.444 11.24 328.064 13.26C327.984 13.66 327.944 14.07 327.944 14.49C327.944 16.23 328.864 17.1 330.704 17.1Z" transform="translate(8.28503 13.7)" fill="white"/>
<path d="M343.389 21.3C343.169 21.3 342.999 21.23 342.879 21.09C342.759 20.95 342.719 20.77 342.759 20.55L346.899 1.08C346.939 0.86 347.049 0.679999 347.229 0.54C347.409 0.38 347.609 0.3 347.829 0.3H351.249C351.529 0.3 351.739 0.37 351.879 0.510001C352.019 0.63 352.129 0.78 352.209 0.96L355.419 10.2L362.559 0.96C362.659 0.8 362.809 0.65 363.009 0.510001C363.209 0.37 363.449 0.3 363.729 0.3H367.149C367.369 0.3 367.539 0.38 367.659 0.54C367.779 0.679999 367.819 0.86 367.779 1.08L363.609 20.55C363.569 20.77 363.459 20.95 363.279 21.09C363.119 21.23 362.929 21.3 362.709 21.3H358.899C358.679 21.3 358.509 21.23 358.389 21.09C358.269 20.93 358.229 20.75 358.269 20.55L360.549 9.81L356.169 15.57C355.789 16.03 355.389 16.26 354.969 16.26H353.349C352.929 16.26 352.639 16.03 352.479 15.57L350.439 9.54L348.099 20.55C348.059 20.77 347.949 20.95 347.769 21.09C347.589 21.23 347.399 21.3 347.199 21.3H343.389Z" transform="translate(8.28503 13.7)" fill="white"/>
<path d="M0.48 14.54C0.346667 14.54 0.233333 14.4933 0.14 14.4C0.0466667 14.3067 0 14.1933 0 14.06V1.04C0 0.893334 0.0399999 0.773333 0.12 0.68C0.213333 0.586667 0.333333 0.54 0.48 0.54H5.36C9.29333 0.54 11.3 2.35333 11.38 5.98C11.4067 6.75333 11.42 7.27333 11.42 7.54C11.42 7.79333 11.4067 8.30667 11.38 9.08C11.3267 10.9467 10.82 12.3267 9.86 13.22C8.91333 14.1 7.44667 14.54 5.46 14.54H0.48ZM5.36 12.22C6.46667 12.22 7.26667 11.9733 7.76 11.48C8.25333 10.9867 8.51333 10.1667 8.54 9.02C8.56667 8.22 8.58 7.72 8.58 7.52C8.58 7.30667 8.56667 6.81333 8.54 6.04C8.51333 4.94667 8.24 4.14667 7.72 3.64C7.2 3.12 6.38 2.86 5.26 2.86H2.82V12.22H5.36Z" transform="translate(9.56006 57.46)" fill="white"/>
<path d="M18.3225 14.74C16.8292 14.74 15.6425 14.3133 14.7625 13.46C13.8958 12.6067 13.4358 11.3933 13.3825 9.82L13.3625 9.32C13.3625 7.65333 13.7958 6.34 14.6625 5.38C15.5425 4.42 16.7558 3.94 18.3025 3.94C19.8892 3.94 21.1092 4.42 21.9625 5.38C22.8292 6.34 23.2625 7.62 23.2625 9.22V9.64C23.2625 9.77333 23.2158 9.88667 23.1225 9.98C23.0292 10.0733 22.9092 10.12 22.7625 10.12H16.1225V10.28C16.1492 11.0267 16.3492 11.6467 16.7225 12.14C17.1092 12.62 17.6358 12.86 18.3025 12.86C19.0625 12.86 19.6825 12.5533 20.1625 11.94C20.2825 11.7933 20.3758 11.7067 20.4425 11.68C20.5092 11.64 20.6225 11.62 20.7825 11.62H22.5425C22.6625 11.62 22.7625 11.6533 22.8425 11.72C22.9358 11.7867 22.9825 11.88 22.9825 12C22.9825 12.32 22.7892 12.7 22.4025 13.14C22.0292 13.5667 21.4892 13.94 20.7825 14.26C20.0758 14.58 19.2558 14.74 18.3225 14.74ZM20.5025 8.42V8.38C20.5025 7.59333 20.3025 6.96667 19.9025 6.5C19.5158 6.02 18.9825 5.78 18.3025 5.78C17.6225 5.78 17.0892 6.02 16.7025 6.5C16.3158 6.96667 16.1225 7.59333 16.1225 8.38V8.42H20.5025Z" transform="translate(9.56006 57.46)" fill="white"/>
<path d="M28.6939 14.54C28.4939 14.54 28.3406 14.5 28.2339 14.42C28.1272 14.3267 28.0406 14.2 27.9739 14.04L24.2139 4.76C24.2006 4.72 24.1939 4.66 24.1939 4.58C24.1939 4.46 24.2339 4.36 24.3139 4.28C24.4072 4.18667 24.5072 4.14 24.6139 4.14H26.2739C26.5406 4.14 26.7206 4.26667 26.8139 4.52L29.4539 11.5L32.0939 4.52C32.1206 4.42667 32.1739 4.34 32.2539 4.26C32.3472 4.18 32.4672 4.14 32.6139 4.14H34.2739C34.3939 4.14 34.4939 4.18667 34.5739 4.28C34.6539 4.36 34.6939 4.46 34.6939 4.58C34.6939 4.66 34.6872 4.72 34.6739 4.76L30.9339 14.04C30.7872 14.3733 30.5472 14.54 30.2139 14.54H28.6939Z" transform="translate(9.56006 57.46)" fill="white"/>
<path d="M40.6467 14.74C39.1534 14.74 37.9667 14.3133 37.0867 13.46C36.22 12.6067 35.7601 11.3933 35.7067 9.82L35.6867 9.32C35.6867 7.65333 36.1201 6.34 36.9867 5.38C37.8667 4.42 39.08 3.94 40.6267 3.94C42.2134 3.94 43.4334 4.42 44.2867 5.38C45.1534 6.34 45.5867 7.62 45.5867 9.22V9.64C45.5867 9.77333 45.5401 9.88667 45.4467 9.98C45.3534 10.0733 45.2334 10.12 45.0867 10.12H38.4467V10.28C38.4734 11.0267 38.6734 11.6467 39.0467 12.14C39.4334 12.62 39.96 12.86 40.6267 12.86C41.3867 12.86 42.0067 12.5533 42.4867 11.94C42.6067 11.7933 42.7 11.7067 42.7667 11.68C42.8334 11.64 42.9467 11.62 43.1067 11.62H44.8667C44.9867 11.62 45.0867 11.6533 45.1667 11.72C45.2601 11.7867 45.3067 11.88 45.3067 12C45.3067 12.32 45.1134 12.7 44.7267 13.14C44.3534 13.5667 43.8134 13.94 43.1067 14.26C42.4 14.58 41.5801 14.74 40.6467 14.74ZM42.8267 8.42V8.38C42.8267 7.59333 42.6267 6.96667 42.2267 6.5C41.8401 6.02 41.3067 5.78 40.6267 5.78C39.9467 5.78 39.4134 6.02 39.0267 6.5C38.6401 6.96667 38.4467 7.59333 38.4467 8.38V8.42H42.8267Z" transform="translate(9.56006 57.46)" fill="white"/>
<path d="M48.2092 14.54C48.0759 14.54 47.9626 14.4933 47.8692 14.4C47.7759 14.3067 47.7292 14.1933 47.7292 14.06V0.82C47.7292 0.673333 47.7759 0.56 47.8692 0.48C47.9626 0.386667 48.0759 0.34 48.2092 0.34H49.8892C50.0359 0.34 50.1492 0.386667 50.2292 0.48C50.3226 0.56 50.3692 0.673333 50.3692 0.82V14.06C50.3692 14.1933 50.3226 14.3067 50.2292 14.4C50.1492 14.4933 50.0359 14.54 49.8892 14.54H48.2092Z" transform="translate(9.56006 57.46)" fill="white"/>
<path d="M57.6417 14.74C56.0684 14.74 54.855 14.34 54.0017 13.54C53.1484 12.74 52.6884 11.6333 52.6217 10.22L52.6017 9.34L52.6217 8.46C52.6884 7.06 53.1551 5.96 54.0217 5.16C54.8884 4.34667 56.095 3.94 57.6417 3.94C59.175 3.94 60.3751 4.34667 61.2417 5.16C62.1084 5.96 62.5751 7.06 62.6417 8.46C62.6551 8.62 62.6617 8.91333 62.6617 9.34C62.6617 9.76667 62.6551 10.06 62.6417 10.22C62.5751 11.6333 62.1151 12.74 61.2617 13.54C60.4084 14.34 59.2017 14.74 57.6417 14.74ZM57.6417 12.72C58.3484 12.72 58.8884 12.5 59.2617 12.06C59.6484 11.62 59.8551 10.9733 59.8817 10.12C59.8951 9.98667 59.9017 9.72667 59.9017 9.34C59.9017 8.95333 59.8951 8.69333 59.8817 8.56C59.8551 7.70667 59.6484 7.06 59.2617 6.62C58.8751 6.16667 58.335 5.94 57.6417 5.94C56.935 5.94 56.3884 6.16667 56.0017 6.62C55.615 7.06 55.4084 7.70667 55.3817 8.56L55.3617 9.34L55.3817 10.12C55.4084 10.9733 55.615 11.62 56.0017 12.06C56.3884 12.5 56.935 12.72 57.6417 12.72Z" transform="translate(9.56006 57.46)" fill="white"/>
<path d="M65.3772 18.34C65.2438 18.34 65.1305 18.2933 65.0372 18.2C64.9439 18.12 64.8972 18.0067 64.8972 17.86V4.62C64.8972 4.47333 64.9439 4.36 65.0372 4.28C65.1305 4.18667 65.2438 4.14 65.3772 4.14H66.9772C67.1238 4.14 67.2438 4.18667 67.3372 4.28C67.4305 4.37333 67.4772 4.48667 67.4772 4.62V5.42C68.1838 4.43333 69.2438 3.94 70.6572 3.94C72.0038 3.94 73.0372 4.36667 73.7572 5.22C74.4772 6.06 74.8638 7.19333 74.9172 8.62C74.9305 8.78 74.9372 9.02 74.9372 9.34C74.9372 9.66 74.9305 9.9 74.9172 10.06C74.8772 11.46 74.4905 12.5933 73.7572 13.46C73.0372 14.3133 72.0038 14.74 70.6572 14.74C69.3238 14.74 68.3039 14.2667 67.5972 13.32V17.86C67.5972 18.0067 67.5505 18.12 67.4572 18.2C67.3772 18.2933 67.2638 18.34 67.1172 18.34H65.3772ZM69.8972 12.58C71.3238 12.58 72.0839 11.7 72.1772 9.94C72.1905 9.80667 72.1972 9.60667 72.1972 9.34C72.1972 9.07333 72.1905 8.87333 72.1772 8.74C72.0839 6.98 71.3238 6.1 69.8972 6.1C69.1372 6.1 68.5705 6.34667 68.1972 6.84C67.8238 7.33333 67.6238 7.93333 67.5972 8.64C67.5838 8.8 67.5772 9.05333 67.5772 9.4C67.5772 9.74667 67.5838 10.0067 67.5972 10.18C67.6238 10.8467 67.8305 11.4133 68.2172 11.88C68.6039 12.3467 69.1638 12.58 69.8972 12.58Z" transform="translate(9.56006 57.46)" fill="white"/>
<path d="M81.6623 14.74C80.169 14.74 78.9823 14.3133 78.1023 13.46C77.2357 12.6067 76.7757 11.3933 76.7223 9.82L76.7023 9.32C76.7023 7.65333 77.1357 6.34 78.0023 5.38C78.8823 4.42 80.0957 3.94 81.6423 3.94C83.229 3.94 84.449 4.42 85.3023 5.38C86.169 6.34 86.6023 7.62 86.6023 9.22V9.64C86.6023 9.77333 86.5557 9.88667 86.4623 9.98C86.369 10.0733 86.249 10.12 86.1023 10.12H79.4623V10.28C79.489 11.0267 79.689 11.6467 80.0623 12.14C80.449 12.62 80.9757 12.86 81.6423 12.86C82.4023 12.86 83.0223 12.5533 83.5023 11.94C83.6223 11.7933 83.7157 11.7067 83.7823 11.68C83.849 11.64 83.9623 11.62 84.1223 11.62H85.8823C86.0023 11.62 86.1023 11.6533 86.1823 11.72C86.2757 11.7867 86.3223 11.88 86.3223 12C86.3223 12.32 86.129 12.7 85.7423 13.14C85.369 13.5667 84.829 13.94 84.1223 14.26C83.4157 14.58 82.5957 14.74 81.6623 14.74ZM83.8423 8.42V8.38C83.8423 7.59333 83.6423 6.96667 83.2423 6.5C82.8557 6.02 82.3223 5.78 81.6423 5.78C80.9623 5.78 80.429 6.02 80.0423 6.5C79.6557 6.96667 79.4623 7.59333 79.4623 8.38V8.42H83.8423Z" transform="translate(9.56006 57.46)" fill="white"/>
<path d="M89.2048 14.54C89.0715 14.54 88.9582 14.4933 88.8648 14.4C88.7715 14.3067 88.7248 14.1933 88.7248 14.06V4.64C88.7248 4.49333 88.7715 4.37333 88.8648 4.28C88.9582 4.18667 89.0715 4.14 89.2048 4.14H90.8448C90.9915 4.14 91.1115 4.18667 91.2048 4.28C91.2982 4.37333 91.3448 4.49333 91.3448 4.64V5.46C92.0115 4.58 92.9715 4.14 94.2248 4.14H95.0648C95.2115 4.14 95.3248 4.18667 95.4048 4.28C95.4982 4.36 95.5448 4.47333 95.5448 4.62V6.08C95.5448 6.21333 95.4982 6.32667 95.4048 6.42C95.3248 6.51333 95.2115 6.56 95.0648 6.56H93.4848C92.8582 6.56 92.3648 6.74 92.0048 7.1C91.6448 7.46 91.4648 7.95333 91.4648 8.58V14.06C91.4648 14.1933 91.4182 14.3067 91.3248 14.4C91.2315 14.4933 91.1182 14.54 90.9848 14.54H89.2048Z" transform="translate(9.56006 57.46)" fill="white"/>
<path d="M95.8895 16.04C95.7829 16.04 95.6962 16 95.6295 15.92C95.5629 15.84 95.5362 15.74 95.5495 15.62L96.0695 12.2C96.1495 11.7733 96.3695 11.56 96.7295 11.56H98.5895C98.6829 11.56 98.7629 11.6 98.8295 11.68C98.9095 11.7467 98.9495 11.8267 98.9495 11.92C98.9495 11.9867 98.9295 12.08 98.8895 12.2L97.5895 15.52C97.4562 15.8667 97.2362 16.04 96.9295 16.04H95.8895Z" transform="translate(9.56006 57.46)" fill="white"/>
<path d="M109.733 14.74C108.387 14.74 107.353 14.3133 106.633 13.46C105.913 12.5933 105.52 11.44 105.453 10L105.433 9.34L105.453 8.68C105.507 7.26667 105.893 6.12667 106.613 5.26C107.347 4.38 108.387 3.94 109.733 3.94C111.013 3.94 112.033 4.38 112.793 5.26V0.82C112.793 0.673333 112.84 0.56 112.933 0.48C113.027 0.386667 113.14 0.34 113.273 0.34H115.013C115.16 0.34 115.273 0.386667 115.353 0.48C115.447 0.56 115.493 0.673333 115.493 0.82V14.06C115.493 14.1933 115.447 14.3067 115.353 14.4C115.273 14.4933 115.16 14.54 115.013 14.54H113.393C113.26 14.54 113.147 14.4933 113.053 14.4C112.96 14.3067 112.913 14.1933 112.913 14.06V13.32C112.18 14.2667 111.12 14.74 109.733 14.74ZM110.493 12.58C111.253 12.58 111.813 12.34 112.173 11.86C112.547 11.3667 112.753 10.76 112.793 10.04C112.807 9.88 112.813 9.62667 112.813 9.28C112.813 8.92 112.807 8.66 112.793 8.5C112.767 7.83333 112.56 7.26667 112.173 6.8C111.787 6.33333 111.227 6.1 110.493 6.1C109.067 6.1 108.307 6.98 108.213 8.74L108.193 9.34L108.213 9.94C108.307 11.7 109.067 12.58 110.493 12.58Z" transform="translate(9.56006 57.46)" fill="white"/>
<path d="M122.658 14.74C121.165 14.74 119.978 14.3133 119.098 13.46C118.232 12.6067 117.772 11.3933 117.718 9.82L117.698 9.32C117.698 7.65333 118.132 6.34 118.998 5.38C119.878 4.42 121.092 3.94 122.638 3.94C124.225 3.94 125.445 4.42 126.298 5.38C127.165 6.34 127.598 7.62 127.598 9.22V9.64C127.598 9.77333 127.552 9.88667 127.458 9.98C127.365 10.0733 127.245 10.12 127.098 10.12H120.458V10.28C120.485 11.0267 120.685 11.6467 121.058 12.14C121.445 12.62 121.972 12.86 122.638 12.86C123.398 12.86 124.018 12.5533 124.498 11.94C124.618 11.7933 124.712 11.7067 124.778 11.68C124.845 11.64 124.958 11.62 125.118 11.62H126.878C126.998 11.62 127.098 11.6533 127.178 11.72C127.272 11.7867 127.318 11.88 127.318 12C127.318 12.32 127.125 12.7 126.738 13.14C126.365 13.5667 125.825 13.94 125.118 14.26C124.412 14.58 123.592 14.74 122.658 14.74ZM124.838 8.42V8.38C124.838 7.59333 124.638 6.96667 124.238 6.5C123.852 6.02 123.318 5.78 122.638 5.78C121.958 5.78 121.425 6.02 121.038 6.5C120.652 6.96667 120.458 7.59333 120.458 8.38V8.42H124.838Z" transform="translate(9.56006 57.46)" fill="white"/>
<path d="M133.681 14.74C132.668 14.74 131.821 14.5867 131.141 14.28C130.461 13.9733 129.954 13.62 129.621 13.22C129.301 12.8067 129.141 12.4533 129.141 12.16C129.141 12.0267 129.181 11.92 129.261 11.84C129.354 11.76 129.461 11.72 129.581 11.72H131.221C131.328 11.72 131.421 11.7733 131.501 11.88C131.568 11.9333 131.714 12.06 131.941 12.26C132.181 12.46 132.448 12.62 132.741 12.74C133.048 12.8467 133.381 12.9 133.741 12.9C134.274 12.9 134.708 12.8 135.041 12.6C135.374 12.3867 135.541 12.0867 135.541 11.7C135.541 11.4333 135.461 11.22 135.301 11.06C135.154 10.8867 134.881 10.7333 134.481 10.6C134.094 10.4533 133.508 10.2933 132.721 10.12C131.588 9.88 130.748 9.51333 130.201 9.02C129.668 8.52667 129.401 7.87333 129.401 7.06C129.401 6.52667 129.561 6.02667 129.881 5.56C130.201 5.08 130.674 4.69333 131.301 4.4C131.941 4.09333 132.701 3.94 133.581 3.94C134.488 3.94 135.268 4.08667 135.921 4.38C136.574 4.66 137.068 5 137.401 5.4C137.748 5.8 137.921 6.15333 137.921 6.46C137.921 6.58 137.874 6.68667 137.781 6.78C137.701 6.86 137.601 6.9 137.481 6.9H135.981C135.834 6.9 135.721 6.84667 135.641 6.74C135.548 6.67333 135.394 6.55333 135.181 6.38C134.981 6.19333 134.754 6.04667 134.501 5.94C134.248 5.83333 133.941 5.78 133.581 5.78C133.088 5.78 132.708 5.88667 132.441 6.1C132.174 6.31333 132.041 6.59333 132.041 6.94C132.041 7.18 132.101 7.38 132.221 7.54C132.354 7.7 132.614 7.85333 133.001 8C133.388 8.13333 133.968 8.27333 134.741 8.42C137.141 8.88667 138.341 9.93333 138.341 11.56C138.341 12.5067 137.928 13.2733 137.101 13.86C136.288 14.4467 135.148 14.74 133.681 14.74Z" transform="translate(9.56006 57.46)" fill="white"/>
<path d="M140.785 2.44C140.652 2.44 140.538 2.39333 140.445 2.3C140.352 2.20667 140.305 2.09333 140.305 1.96V0.5C140.305 0.353333 140.352 0.233333 140.445 0.14C140.538 0.0466666 140.652 0 140.785 0H142.625C142.772 0 142.892 0.0466666 142.985 0.14C143.078 0.233333 143.125 0.353333 143.125 0.5V1.96C143.125 2.09333 143.072 2.20667 142.965 2.3C142.872 2.39333 142.758 2.44 142.625 2.44H140.785ZM140.865 14.54C140.732 14.54 140.618 14.4933 140.525 14.4C140.432 14.3067 140.385 14.1933 140.385 14.06V4.62C140.385 4.47333 140.432 4.36 140.525 4.28C140.618 4.18667 140.732 4.14 140.865 4.14H142.565C142.698 4.14 142.812 4.18667 142.905 4.28C142.998 4.37333 143.045 4.48667 143.045 4.62V14.06C143.045 14.1933 142.998 14.3067 142.905 14.4C142.812 14.4933 142.698 14.54 142.565 14.54H140.865Z" transform="translate(9.56006 57.46)" fill="white"/>
<path d="M150.378 18.94C149.191 18.94 148.231 18.74 147.498 18.34C146.765 17.9533 146.245 17.5067 145.938 17C145.631 16.4933 145.478 16.06 145.478 15.7C145.478 15.5667 145.525 15.4533 145.618 15.36C145.711 15.28 145.825 15.24 145.958 15.24H147.738C147.858 15.24 147.958 15.2667 148.038 15.32C148.131 15.3867 148.205 15.5 148.258 15.66C148.405 16.0067 148.625 16.3 148.918 16.54C149.211 16.7933 149.665 16.92 150.278 16.92C151.078 16.92 151.665 16.74 152.038 16.38C152.411 16.0333 152.598 15.42 152.598 14.54V13.18C151.878 14.0333 150.858 14.46 149.538 14.46C148.151 14.46 147.105 14.04 146.398 13.2C145.705 12.36 145.331 11.2133 145.278 9.76L145.258 9.22L145.278 8.68C145.331 7.25333 145.711 6.10667 146.418 5.24C147.125 4.37333 148.165 3.94 149.538 3.94C150.245 3.94 150.865 4.07333 151.398 4.34C151.931 4.60667 152.371 4.96667 152.718 5.42V4.64C152.718 4.49333 152.765 4.37333 152.858 4.28C152.965 4.18667 153.085 4.14 153.218 4.14H154.858C154.991 4.14 155.105 4.18667 155.198 4.28C155.291 4.37333 155.338 4.49333 155.338 4.64L155.358 14.28C155.358 15.76 154.945 16.9067 154.118 17.72C153.291 18.5333 152.045 18.94 150.378 18.94ZM150.298 12.34C151.045 12.34 151.605 12.1 151.978 11.62C152.351 11.14 152.558 10.5533 152.598 9.86C152.611 9.75333 152.618 9.54 152.618 9.22C152.618 8.9 152.611 8.68667 152.598 8.58C152.558 7.88667 152.351 7.3 151.978 6.82C151.605 6.34 151.045 6.1 150.298 6.1C148.858 6.1 148.098 6.98 148.018 8.74L147.998 9.22C147.998 11.3 148.765 12.34 150.298 12.34Z" transform="translate(9.56006 57.46)" fill="white"/>
<path d="M158.482 14.54C158.349 14.54 158.236 14.4933 158.142 14.4C158.049 14.3067 158.002 14.1933 158.002 14.06V4.62C158.002 4.47333 158.049 4.36 158.142 4.28C158.236 4.18667 158.349 4.14 158.482 4.14H160.142C160.289 4.14 160.402 4.18667 160.482 4.28C160.576 4.36 160.622 4.47333 160.622 4.62V5.44C161.436 4.44 162.549 3.94 163.962 3.94C165.189 3.94 166.162 4.34 166.882 5.14C167.602 5.94 167.962 7.04 167.962 8.44V14.06C167.962 14.1933 167.916 14.3067 167.822 14.4C167.742 14.4933 167.629 14.54 167.482 14.54H165.682C165.549 14.54 165.436 14.4933 165.342 14.4C165.249 14.3067 165.202 14.1933 165.202 14.06V8.56C165.202 7.78667 165.009 7.18667 164.622 6.76C164.249 6.32 163.709 6.1 163.002 6.1C162.322 6.1 161.776 6.32 161.362 6.76C160.949 7.2 160.742 7.8 160.742 8.56V14.06C160.742 14.1933 160.696 14.3067 160.602 14.4C160.522 14.4933 160.409 14.54 160.262 14.54H158.482Z" transform="translate(9.56006 57.46)" fill="white"/>
<path d="M175.002 14.74C173.509 14.74 172.322 14.3133 171.442 13.46C170.576 12.6067 170.116 11.3933 170.062 9.82L170.042 9.32C170.042 7.65333 170.476 6.34 171.342 5.38C172.222 4.42 173.436 3.94 174.982 3.94C176.569 3.94 177.789 4.42 178.642 5.38C179.509 6.34 179.942 7.62 179.942 9.22V9.64C179.942 9.77333 179.896 9.88667 179.802 9.98C179.709 10.0733 179.589 10.12 179.442 10.12H172.802V10.28C172.829 11.0267 173.029 11.6467 173.402 12.14C173.789 12.62 174.316 12.86 174.982 12.86C175.742 12.86 176.362 12.5533 176.842 11.94C176.962 11.7933 177.056 11.7067 177.122 11.68C177.189 11.64 177.302 11.62 177.462 11.62H179.222C179.342 11.62 179.442 11.6533 179.522 11.72C179.616 11.7867 179.662 11.88 179.662 12C179.662 12.32 179.469 12.7 179.082 13.14C178.709 13.5667 178.169 13.94 177.462 14.26C176.756 14.58 175.936 14.74 175.002 14.74ZM177.182 8.42V8.38C177.182 7.59333 176.982 6.96667 176.582 6.5C176.196 6.02 175.662 5.78 174.982 5.78C174.302 5.78 173.769 6.02 173.382 6.5C172.996 6.96667 172.802 7.59333 172.802 8.38V8.42H177.182Z" transform="translate(9.56006 57.46)" fill="white"/>
<path d="M182.545 14.54C182.411 14.54 182.298 14.4933 182.205 14.4C182.111 14.3067 182.065 14.1933 182.065 14.06V4.64C182.065 4.49333 182.111 4.37333 182.205 4.28C182.298 4.18667 182.411 4.14 182.545 4.14H184.185C184.331 4.14 184.451 4.18667 184.545 4.28C184.638 4.37333 184.685 4.49333 184.685 4.64V5.46C185.351 4.58 186.311 4.14 187.565 4.14H188.405C188.551 4.14 188.665 4.18667 188.745 4.28C188.838 4.36 188.885 4.47333 188.885 4.62V6.08C188.885 6.21333 188.838 6.32667 188.745 6.42C188.665 6.51333 188.551 6.56 188.405 6.56H186.825C186.198 6.56 185.705 6.74 185.345 7.1C184.985 7.46 184.805 7.95333 184.805 8.58V14.06C184.805 14.1933 184.758 14.3067 184.665 14.4C184.571 14.4933 184.458 14.54 184.325 14.54H182.545Z" transform="translate(9.56006 57.46)" fill="white"/>
<path d="M197.585 14.74C196.905 14.74 196.278 14.6067 195.705 14.34C195.145 14.06 194.698 13.6867 194.365 13.22C194.045 12.7533 193.885 12.24 193.885 11.68C193.885 10.7733 194.251 10.04 194.985 9.48C195.718 8.92 196.725 8.54 198.005 8.34L200.745 7.94V7.52C200.745 6.94667 200.598 6.51333 200.305 6.22C200.011 5.92667 199.545 5.78 198.905 5.78C198.465 5.78 198.111 5.86 197.845 6.02C197.578 6.18 197.358 6.34667 197.185 6.52C197.025 6.68 196.918 6.78667 196.865 6.84C196.811 7 196.711 7.08 196.565 7.08H195.005C194.885 7.08 194.778 7.04 194.685 6.96C194.605 6.88 194.565 6.77333 194.565 6.64C194.578 6.30667 194.738 5.93333 195.045 5.52C195.365 5.09333 195.851 4.72667 196.505 4.42C197.158 4.1 197.965 3.94 198.925 3.94C200.498 3.94 201.645 4.29333 202.365 5C203.085 5.70667 203.445 6.63333 203.445 7.78V14.06C203.445 14.1933 203.398 14.3067 203.305 14.4C203.225 14.4933 203.111 14.54 202.965 14.54H201.305C201.171 14.54 201.058 14.4933 200.965 14.4C200.871 14.3067 200.825 14.1933 200.825 14.06V13.28C200.531 13.7067 200.118 14.06 199.585 14.34C199.051 14.6067 198.385 14.74 197.585 14.74ZM198.265 12.82C198.998 12.82 199.598 12.58 200.065 12.1C200.531 11.62 200.765 10.9267 200.765 10.02V9.62L198.765 9.94C197.231 10.18 196.465 10.6933 196.465 11.48C196.465 11.9067 196.638 12.24 196.985 12.48C197.345 12.7067 197.771 12.82 198.265 12.82Z" transform="translate(9.56006 57.46)" fill="white"/>
<path d="M206.49 14.54C206.357 14.54 206.243 14.4933 206.15 14.4C206.057 14.3067 206.01 14.1933 206.01 14.06V4.62C206.01 4.47333 206.057 4.36 206.15 4.28C206.243 4.18667 206.357 4.14 206.49 4.14H208.15C208.297 4.14 208.41 4.18667 208.49 4.28C208.583 4.36 208.63 4.47333 208.63 4.62V5.44C209.443 4.44 210.557 3.94 211.97 3.94C213.197 3.94 214.17 4.34 214.89 5.14C215.61 5.94 215.97 7.04 215.97 8.44V14.06C215.97 14.1933 215.923 14.3067 215.83 14.4C215.75 14.4933 215.637 14.54 215.49 14.54H213.69C213.557 14.54 213.443 14.4933 213.35 14.4C213.257 14.3067 213.21 14.1933 213.21 14.06V8.56C213.21 7.78667 213.017 7.18667 212.63 6.76C212.257 6.32 211.717 6.1 211.01 6.1C210.33 6.1 209.783 6.32 209.37 6.76C208.957 7.2 208.75 7.8 208.75 8.56V14.06C208.75 14.1933 208.703 14.3067 208.61 14.4C208.53 14.4933 208.417 14.54 208.27 14.54H206.49Z" transform="translate(9.56006 57.46)" fill="white"/>
<path d="M222.37 14.74C221.023 14.74 219.99 14.3133 219.27 13.46C218.55 12.5933 218.157 11.44 218.09 10L218.07 9.34L218.09 8.68C218.143 7.26667 218.53 6.12667 219.25 5.26C219.983 4.38 221.023 3.94 222.37 3.94C223.65 3.94 224.67 4.38 225.43 5.26V0.82C225.43 0.673333 225.477 0.56 225.57 0.48C225.663 0.386667 225.777 0.34 225.91 0.34H227.65C227.797 0.34 227.91 0.386667 227.99 0.48C228.083 0.56 228.13 0.673333 228.13 0.82V14.06C228.13 14.1933 228.083 14.3067 227.99 14.4C227.91 14.4933 227.797 14.54 227.65 14.54H226.03C225.897 14.54 225.783 14.4933 225.69 14.4C225.597 14.3067 225.55 14.1933 225.55 14.06V13.32C224.817 14.2667 223.757 14.74 222.37 14.74ZM223.13 12.58C223.89 12.58 224.45 12.34 224.81 11.86C225.183 11.3667 225.39 10.76 225.43 10.04C225.443 9.88 225.45 9.62667 225.45 9.28C225.45 8.92 225.443 8.66 225.43 8.5C225.403 7.83333 225.197 7.26667 224.81 6.8C224.423 6.33333 223.863 6.1 223.13 6.1C221.703 6.1 220.943 6.98 220.85 8.74L220.83 9.34L220.85 9.94C220.943 11.7 221.703 12.58 223.13 12.58Z" transform="translate(9.56006 57.46)" fill="white"/>
<path d="M133.869 40.74C132.376 40.74 131.189 40.3133 130.309 39.46C129.443 38.6067 128.983 37.3933 128.929 35.82L128.909 35.32C128.909 33.6533 129.343 32.34 130.209 31.38C131.089 30.42 132.303 29.94 133.849 29.94C135.436 29.94 136.656 30.42 137.509 31.38C138.376 32.34 138.809 33.62 138.809 35.22V35.64C138.809 35.7733 138.763 35.8867 138.669 35.98C138.576 36.0733 138.456 36.12 138.309 36.12H131.669V36.28C131.696 37.0267 131.896 37.6467 132.269 38.14C132.656 38.62 133.183 38.86 133.849 38.86C134.609 38.86 135.229 38.5533 135.709 37.94C135.829 37.7933 135.923 37.7067 135.989 37.68C136.056 37.64 136.169 37.62 136.329 37.62H138.089C138.209 37.62 138.309 37.6533 138.389 37.72C138.483 37.7867 138.529 37.88 138.529 38C138.529 38.32 138.336 38.7 137.949 39.14C137.576 39.5667 137.036 39.94 136.329 40.26C135.623 40.58 134.803 40.74 133.869 40.74ZM136.049 34.42V34.38C136.049 33.5933 135.849 32.9667 135.449 32.5C135.063 32.02 134.529 31.78 133.849 31.78C133.169 31.78 132.636 32.02 132.249 32.5C131.863 32.9667 131.669 33.5933 131.669 34.38V34.42H136.049Z" transform="translate(9.56006 57.46)" fill="white"/>
<path d="M141.412 40.54C141.279 40.54 141.165 40.4933 141.072 40.4C140.979 40.3067 140.932 40.1933 140.932 40.06V30.62C140.932 30.4733 140.979 30.36 141.072 30.28C141.165 30.1867 141.279 30.14 141.412 30.14H143.072C143.219 30.14 143.332 30.1867 143.412 30.28C143.505 30.36 143.552 30.4733 143.552 30.62V31.44C144.365 30.44 145.479 29.94 146.892 29.94C148.119 29.94 149.092 30.34 149.812 31.14C150.532 31.94 150.892 33.04 150.892 34.44V40.06C150.892 40.1933 150.845 40.3067 150.752 40.4C150.672 40.4933 150.559 40.54 150.412 40.54H148.612C148.479 40.54 148.365 40.4933 148.272 40.4C148.179 40.3067 148.132 40.1933 148.132 40.06V34.56C148.132 33.7867 147.939 33.1867 147.552 32.76C147.179 32.32 146.639 32.1 145.932 32.1C145.252 32.1 144.705 32.32 144.292 32.76C143.879 33.2 143.672 33.8 143.672 34.56V40.06C143.672 40.1933 143.625 40.3067 143.532 40.4C143.452 40.4933 143.339 40.54 143.192 40.54H141.412Z" transform="translate(9.56006 57.46)" fill="white"/>
<path d="M158.035 40.54C156.821 40.54 155.908 40.2267 155.295 39.6C154.681 38.96 154.375 38.0267 154.375 36.8V32.28H152.795C152.661 32.28 152.548 32.2333 152.455 32.14C152.361 32.0467 152.315 31.9333 152.315 31.8V30.62C152.315 30.4867 152.361 30.3733 152.455 30.28C152.548 30.1867 152.661 30.14 152.795 30.14H154.375V26.82C154.375 26.6733 154.421 26.56 154.515 26.48C154.608 26.3867 154.721 26.34 154.855 26.34H156.515C156.661 26.34 156.775 26.3867 156.855 26.48C156.948 26.56 156.995 26.6733 156.995 26.82V30.14H159.495C159.628 30.14 159.741 30.1867 159.835 30.28C159.928 30.3733 159.975 30.4867 159.975 30.62V31.8C159.975 31.9333 159.928 32.0467 159.835 32.14C159.741 32.2333 159.628 32.28 159.495 32.28H156.995V36.58C156.995 37.1533 157.095 37.5867 157.295 37.88C157.495 38.1733 157.821 38.32 158.275 38.32H159.675C159.821 38.32 159.935 38.3667 160.015 38.46C160.108 38.54 160.155 38.6533 160.155 38.8V40.06C160.155 40.1933 160.108 40.3067 160.015 40.4C159.935 40.4933 159.821 40.54 159.675 40.54H158.035Z" transform="translate(9.56006 57.46)" fill="white"/>
<path d="M162.428 40.54C162.295 40.54 162.181 40.4933 162.088 40.4C161.995 40.3067 161.948 40.1933 161.948 40.06V26.82C161.948 26.6733 161.995 26.56 162.088 26.48C162.181 26.3867 162.295 26.34 162.428 26.34H164.248C164.395 26.34 164.508 26.3867 164.588 26.48C164.681 26.56 164.728 26.6733 164.728 26.82V31.38C165.528 30.42 166.601 29.94 167.948 29.94C169.175 29.94 170.155 30.3467 170.888 31.16C171.621 31.96 171.988 33.0533 171.988 34.44V40.06C171.988 40.1933 171.941 40.3067 171.848 40.4C171.768 40.4933 171.655 40.54 171.508 40.54H169.688C169.541 40.54 169.421 40.4933 169.328 40.4C169.235 40.3067 169.188 40.1933 169.188 40.06V34.56C169.188 33.7867 168.995 33.1867 168.608 32.76C168.235 32.32 167.695 32.1 166.988 32.1C166.308 32.1 165.761 32.32 165.348 32.76C164.935 33.2 164.728 33.8 164.728 34.56V40.06C164.728 40.1933 164.681 40.3067 164.588 40.4C164.508 40.4933 164.395 40.54 164.248 40.54H162.428Z" transform="translate(9.56006 57.46)" fill="white"/>
<path d="M178.386 40.74C177.159 40.74 176.192 40.34 175.486 39.54C174.779 38.74 174.426 37.64 174.426 36.24V30.62C174.426 30.4733 174.472 30.36 174.566 30.28C174.659 30.1867 174.772 30.14 174.906 30.14H176.706C176.839 30.14 176.952 30.1867 177.046 30.28C177.139 30.3733 177.186 30.4867 177.186 30.62V36.12C177.186 37.76 177.899 38.58 179.326 38.58C180.019 38.58 180.566 38.36 180.966 37.92C181.379 37.48 181.586 36.88 181.586 36.12V30.62C181.586 30.4733 181.632 30.36 181.726 30.28C181.819 30.1867 181.932 30.14 182.066 30.14H183.846C183.992 30.14 184.106 30.1867 184.186 30.28C184.279 30.36 184.326 30.4733 184.326 30.62V40.06C184.326 40.1933 184.279 40.3067 184.186 40.4C184.106 40.4933 183.992 40.54 183.846 40.54H182.186C182.052 40.54 181.939 40.4933 181.846 40.4C181.752 40.3067 181.706 40.1933 181.706 40.06V39.24C180.972 40.24 179.866 40.74 178.386 40.74Z" transform="translate(9.56006 57.46)" fill="white"/>
<path d="M190.927 40.74C189.914 40.74 189.067 40.5867 188.387 40.28C187.707 39.9733 187.2 39.62 186.867 39.22C186.547 38.8067 186.387 38.4533 186.387 38.16C186.387 38.0267 186.427 37.92 186.507 37.84C186.6 37.76 186.707 37.72 186.827 37.72H188.467C188.574 37.72 188.667 37.7733 188.747 37.88C188.814 37.9333 188.96 38.06 189.187 38.26C189.427 38.46 189.694 38.62 189.987 38.74C190.294 38.8467 190.627 38.9 190.987 38.9C191.52 38.9 191.954 38.8 192.287 38.6C192.62 38.3867 192.787 38.0867 192.787 37.7C192.787 37.4333 192.707 37.22 192.547 37.06C192.4 36.8867 192.127 36.7333 191.727 36.6C191.34 36.4533 190.754 36.2933 189.967 36.12C188.834 35.88 187.994 35.5133 187.447 35.02C186.914 34.5267 186.647 33.8733 186.647 33.06C186.647 32.5267 186.807 32.0267 187.127 31.56C187.447 31.08 187.92 30.6933 188.547 30.4C189.187 30.0933 189.947 29.94 190.827 29.94C191.734 29.94 192.514 30.0867 193.167 30.38C193.82 30.66 194.314 31 194.647 31.4C194.994 31.8 195.167 32.1533 195.167 32.46C195.167 32.58 195.12 32.6867 195.027 32.78C194.947 32.86 194.847 32.9 194.727 32.9H193.227C193.08 32.9 192.967 32.8467 192.887 32.74C192.794 32.6733 192.64 32.5533 192.427 32.38C192.227 32.1933 192 32.0467 191.747 31.94C191.494 31.8333 191.187 31.78 190.827 31.78C190.334 31.78 189.954 31.8867 189.687 32.1C189.42 32.3133 189.287 32.5933 189.287 32.94C189.287 33.18 189.347 33.38 189.467 33.54C189.6 33.7 189.86 33.8533 190.247 34C190.634 34.1333 191.214 34.2733 191.987 34.42C194.387 34.8867 195.587 35.9333 195.587 37.56C195.587 38.5067 195.174 39.2733 194.347 39.86C193.534 40.4467 192.394 40.74 190.927 40.74Z" transform="translate(9.56006 57.46)" fill="white"/>
<path d="M198.031 28.44C197.898 28.44 197.784 28.3933 197.691 28.3C197.598 28.2067 197.551 28.0933 197.551 27.96V26.5C197.551 26.3533 197.598 26.2333 197.691 26.14C197.784 26.0467 197.898 26 198.031 26H199.871C200.018 26 200.138 26.0467 200.231 26.14C200.324 26.2333 200.371 26.3533 200.371 26.5V27.96C200.371 28.0933 200.318 28.2067 200.211 28.3C200.118 28.3933 200.004 28.44 199.871 28.44H198.031ZM198.111 40.54C197.978 40.54 197.864 40.4933 197.771 40.4C197.678 40.3067 197.631 40.1933 197.631 40.06V30.62C197.631 30.4733 197.678 30.36 197.771 30.28C197.864 30.1867 197.978 30.14 198.111 30.14H199.811C199.944 30.14 200.058 30.1867 200.151 30.28C200.244 30.3733 200.291 30.4867 200.291 30.62V40.06C200.291 40.1933 200.244 40.3067 200.151 40.4C200.058 40.4933 199.944 40.54 199.811 40.54H198.111Z" transform="translate(9.56006 57.46)" fill="white"/>
<path d="M205.944 40.74C205.264 40.74 204.637 40.6067 204.064 40.34C203.504 40.06 203.057 39.6867 202.724 39.22C202.404 38.7533 202.244 38.24 202.244 37.68C202.244 36.7733 202.611 36.04 203.344 35.48C204.077 34.92 205.084 34.54 206.364 34.34L209.104 33.94V33.52C209.104 32.9467 208.957 32.5133 208.664 32.22C208.371 31.9267 207.904 31.78 207.264 31.78C206.824 31.78 206.471 31.86 206.204 32.02C205.937 32.18 205.717 32.3467 205.544 32.52C205.384 32.68 205.277 32.7867 205.224 32.84C205.171 33 205.071 33.08 204.924 33.08H203.364C203.244 33.08 203.137 33.04 203.044 32.96C202.964 32.88 202.924 32.7733 202.924 32.64C202.937 32.3067 203.097 31.9333 203.404 31.52C203.724 31.0933 204.211 30.7267 204.864 30.42C205.517 30.1 206.324 29.94 207.284 29.94C208.857 29.94 210.004 30.2933 210.724 31C211.444 31.7067 211.804 32.6333 211.804 33.78V40.06C211.804 40.1933 211.757 40.3067 211.664 40.4C211.584 40.4933 211.471 40.54 211.324 40.54H209.664C209.531 40.54 209.417 40.4933 209.324 40.4C209.231 40.3067 209.184 40.1933 209.184 40.06V39.28C208.891 39.7067 208.477 40.06 207.944 40.34C207.411 40.6067 206.744 40.74 205.944 40.74ZM206.624 38.82C207.357 38.82 207.957 38.58 208.424 38.1C208.891 37.62 209.124 36.9267 209.124 36.02V35.62L207.124 35.94C205.591 36.18 204.824 36.6933 204.824 37.48C204.824 37.9067 204.997 38.24 205.344 38.48C205.704 38.7067 206.131 38.82 206.624 38.82Z" transform="translate(9.56006 57.46)" fill="white"/>
<path d="M218.329 40.74C217.316 40.74 216.469 40.5867 215.789 40.28C215.109 39.9733 214.603 39.62 214.269 39.22C213.949 38.8067 213.789 38.4533 213.789 38.16C213.789 38.0267 213.829 37.92 213.909 37.84C214.003 37.76 214.109 37.72 214.229 37.72H215.869C215.976 37.72 216.069 37.7733 216.149 37.88C216.216 37.9333 216.363 38.06 216.589 38.26C216.829 38.46 217.096 38.62 217.389 38.74C217.696 38.8467 218.029 38.9 218.389 38.9C218.923 38.9 219.356 38.8 219.689 38.6C220.023 38.3867 220.189 38.0867 220.189 37.7C220.189 37.4333 220.109 37.22 219.949 37.06C219.803 36.8867 219.529 36.7333 219.129 36.6C218.743 36.4533 218.156 36.2933 217.369 36.12C216.236 35.88 215.396 35.5133 214.849 35.02C214.316 34.5267 214.049 33.8733 214.049 33.06C214.049 32.5267 214.209 32.0267 214.529 31.56C214.849 31.08 215.323 30.6933 215.949 30.4C216.589 30.0933 217.349 29.94 218.229 29.94C219.136 29.94 219.916 30.0867 220.569 30.38C221.223 30.66 221.716 31 222.049 31.4C222.396 31.8 222.569 32.1533 222.569 32.46C222.569 32.58 222.523 32.6867 222.429 32.78C222.349 32.86 222.249 32.9 222.129 32.9H220.629C220.483 32.9 220.369 32.8467 220.289 32.74C220.196 32.6733 220.043 32.5533 219.829 32.38C219.629 32.1933 219.403 32.0467 219.149 31.94C218.896 31.8333 218.589 31.78 218.229 31.78C217.736 31.78 217.356 31.8867 217.089 32.1C216.823 32.3133 216.689 32.5933 216.689 32.94C216.689 33.18 216.749 33.38 216.869 33.54C217.003 33.7 217.263 33.8533 217.649 34C218.036 34.1333 218.616 34.2733 219.389 34.42C221.789 34.8867 222.989 35.9333 222.989 37.56C222.989 38.5067 222.576 39.2733 221.749 39.86C220.936 40.4467 219.796 40.74 218.329 40.74Z" transform="translate(9.56006 57.46)" fill="white"/>
<path d="M229.714 40.54C228.501 40.54 227.588 40.2267 226.974 39.6C226.361 38.96 226.054 38.0267 226.054 36.8V32.28H224.474C224.341 32.28 224.228 32.2333 224.134 32.14C224.041 32.0467 223.994 31.9333 223.994 31.8V30.62C223.994 30.4867 224.041 30.3733 224.134 30.28C224.228 30.1867 224.341 30.14 224.474 30.14H226.054V26.82C226.054 26.6733 226.101 26.56 226.194 26.48C226.288 26.3867 226.401 26.34 226.534 26.34H228.194C228.341 26.34 228.454 26.3867 228.534 26.48C228.628 26.56 228.674 26.6733 228.674 26.82V30.14H231.174C231.308 30.14 231.421 30.1867 231.514 30.28C231.608 30.3733 231.654 30.4867 231.654 30.62V31.8C231.654 31.9333 231.608 32.0467 231.514 32.14C231.421 32.2333 231.308 32.28 231.174 32.28H228.674V36.58C228.674 37.1533 228.774 37.5867 228.974 37.88C229.174 38.1733 229.501 38.32 229.954 38.32H231.354C231.501 38.32 231.614 38.3667 231.694 38.46C231.788 38.54 231.834 38.6533 231.834 38.8V40.06C231.834 40.1933 231.788 40.3067 231.694 40.4C231.614 40.4933 231.501 40.54 231.354 40.54H229.714Z" transform="translate(9.56006 57.46)" fill="white"/>
<path d="M233.968 40.54C233.834 40.54 233.721 40.4933 233.628 40.4C233.534 40.3067 233.488 40.1933 233.488 40.06V38.04C233.488 37.9067 233.534 37.7933 233.628 37.7C233.721 37.6067 233.834 37.56 233.968 37.56H235.988C236.121 37.56 236.234 37.6067 236.328 37.7C236.421 37.7933 236.468 37.9067 236.468 38.04V40.06C236.468 40.1933 236.421 40.3067 236.328 40.4C236.248 40.4933 236.134 40.54 235.988 40.54H233.968Z" transform="translate(9.56006 57.46)" fill="white"/>
<path d="M2.42824 8.60402C2.36451 8.60402 2.31034 8.58171 2.26572 8.5371C2.22111 8.49886 2.1988 8.44468 2.1988 8.37458V7.70537C1.73992 7.66076 1.34478 7.55241 1.01336 7.38033C0.688321 7.20188 0.439761 6.98519 0.267681 6.73025C0.101974 6.46894 0.0127467 6.1917 0 5.89853C0 5.84117 0.01912 5.79337 0.0573601 5.75513C0.101974 5.71689 0.15296 5.69777 0.21032 5.69777H1.06116C1.13127 5.69777 1.18544 5.7137 1.22368 5.74557C1.2683 5.77106 1.30972 5.81568 1.34796 5.87941C1.41807 6.0961 1.56466 6.27774 1.78772 6.42433C2.01716 6.57092 2.33264 6.64421 2.73417 6.64421C3.1803 6.64421 3.51809 6.57092 3.74753 6.42433C3.97697 6.27137 4.09169 6.06105 4.09169 5.79337C4.09169 5.61492 4.03433 5.46833 3.91961 5.35361C3.80489 5.23889 3.62962 5.1401 3.39381 5.05725C3.15799 4.96802 2.81065 4.86605 2.35176 4.75133C1.59971 4.57287 1.04842 4.33706 0.697881 4.04389C0.353721 3.74434 0.18164 3.32051 0.18164 2.7724C0.18164 2.27528 0.360094 1.85783 0.717001 1.52004C1.08028 1.17588 1.57422 0.965561 2.1988 0.889082V0.22944C2.1988 0.159333 2.22111 0.10516 2.26572 0.0669198C2.31034 0.0223066 2.36451 0 2.42824 0H3.01141C3.07514 0 3.12931 0.0223066 3.17393 0.0669198C3.21854 0.111533 3.24085 0.165707 3.24085 0.22944V0.908201C3.65511 0.965561 4.00883 1.08984 4.30201 1.28104C4.60156 1.46587 4.82781 1.68256 4.98077 1.93112C5.1401 2.17968 5.22614 2.42187 5.23889 2.65768C5.23889 2.71504 5.21977 2.76284 5.18153 2.80108C5.14329 2.83932 5.09549 2.85844 5.03813 2.85844H4.14905C4.00883 2.85844 3.91323 2.7979 3.86225 2.6768C3.83038 2.47286 3.7061 2.30396 3.48941 2.17012C3.27271 2.02991 3.00185 1.9598 2.67681 1.9598C2.32627 1.9598 2.04903 2.02672 1.84508 2.16056C1.64114 2.2944 1.53916 2.48879 1.53916 2.74372C1.53916 2.92218 1.59015 3.06877 1.69212 3.18349C1.7941 3.29821 1.95343 3.40018 2.17012 3.48941C2.39319 3.57863 2.71186 3.67742 3.12613 3.78577C3.68698 3.91323 4.13311 4.05663 4.46453 4.21597C4.80232 4.3753 5.05088 4.57606 5.21021 4.81825C5.36954 5.06044 5.44921 5.36954 5.44921 5.74557C5.44921 6.29368 5.25164 6.743 4.85649 7.09353C4.46134 7.43769 3.92279 7.64483 3.24085 7.71493V8.37458C3.24085 8.43831 3.21854 8.49248 3.17393 8.5371C3.12931 8.58171 3.07514 8.60402 3.01141 8.60402H2.42824Z" transform="translate(126.208 82.1284) rotate(-21.6179)" fill="#00FFE0"/>
<path d="M1.90523 6.75081C1.85522 6.75081 1.81272 6.73331 1.77771 6.69831C1.74271 6.66831 1.72521 6.6258 1.72521 6.57079V6.04573C1.36516 6.01073 1.05513 5.92572 0.795096 5.7907C0.540065 5.65068 0.345042 5.48066 0.210025 5.28064C0.0800097 5.07561 0.0100012 4.85809 0 4.62806C0 4.58305 0.0150018 4.54555 0.0450054 4.51554C0.0800097 4.48554 0.120015 4.47054 0.16502 4.47054H0.8326C0.887607 4.47054 0.930112 4.48304 0.960116 4.50804C0.99512 4.52805 1.02762 4.56305 1.05763 4.61306C1.11263 4.78308 1.22765 4.92559 1.40267 5.04061C1.58269 5.15562 1.83022 5.21313 2.14526 5.21313C2.4953 5.21313 2.76033 5.15562 2.94035 5.04061C3.12038 4.92059 3.21039 4.75557 3.21039 4.54555C3.21039 4.40553 3.16538 4.29052 3.07537 4.20051C2.98536 4.1105 2.84784 4.03299 2.66282 3.96798C2.4778 3.89797 2.20527 3.81796 1.84522 3.72795C1.25515 3.58793 0.822599 3.40291 0.547566 3.17288C0.277533 2.93785 0.142517 2.60531 0.142517 2.17526C0.142517 1.78522 0.282534 1.45768 0.562568 1.19264C0.847602 0.922611 1.23515 0.757591 1.72521 0.697584V0.180022C1.72521 0.125015 1.74271 0.0825096 1.77771 0.0525061C1.81272 0.017502 1.85522 0 1.90523 0H2.36279C2.41279 0 2.4553 0.017502 2.4903 0.0525061C2.5253 0.0875105 2.54281 0.130016 2.54281 0.180022V0.712586C2.86785 0.757591 3.14538 0.855103 3.37541 1.00512C3.61044 1.15014 3.78796 1.32016 3.90797 1.51518C4.03299 1.71021 4.10049 1.90023 4.1105 2.08525C4.1105 2.13026 4.09549 2.16776 4.06549 2.19777C4.03549 2.22777 3.99798 2.24277 3.95298 2.24277H3.25539C3.14538 2.24277 3.07037 2.19526 3.03037 2.10025C3.00536 1.94023 2.90785 1.80772 2.73783 1.70271C2.56781 1.59269 2.35528 1.53769 2.10025 1.53769C1.82522 1.53769 1.60769 1.59019 1.44767 1.6952C1.28766 1.80022 1.20765 1.95274 1.20765 2.15276C1.20765 2.29278 1.24765 2.40779 1.32766 2.4978C1.40767 2.58781 1.53268 2.66782 1.70271 2.73783C1.87773 2.80784 2.12776 2.88535 2.4528 2.97036C2.89285 3.07037 3.24289 3.18288 3.50292 3.3079C3.76795 3.43291 3.96298 3.59043 4.08799 3.78046C4.21301 3.97048 4.27552 4.21301 4.27552 4.50804C4.27552 4.9381 4.1205 5.29064 3.81046 5.56567C3.50042 5.8357 3.07787 5.99822 2.54281 6.05323V6.57079C2.54281 6.6208 2.5253 6.6633 2.4903 6.69831C2.4553 6.73331 2.41279 6.75081 2.36279 6.75081H1.90523Z" transform="translate(1 100.079) rotate(-14.611)" fill="#00FFE0"/>
<path d="M1.54313 5.46779C1.50263 5.46779 1.4682 5.45361 1.43985 5.42526C1.4115 5.40096 1.39732 5.36654 1.39732 5.32198V4.89671C1.10571 4.86836 0.854595 4.79951 0.643984 4.69015C0.437423 4.57674 0.279465 4.43904 0.170109 4.27703C0.0648035 4.11097 0.00810043 3.93478 0 3.74847C0 3.71202 0.0121506 3.68165 0.0364519 3.65734C0.0648034 3.63304 0.0972052 3.62089 0.133657 3.62089H0.674361C0.718913 3.62089 0.75334 3.63102 0.777641 3.65127C0.805993 3.66747 0.832319 3.69582 0.85662 3.73632C0.901173 3.87403 0.994328 3.98946 1.13609 4.08262C1.28189 4.17577 1.48238 4.22235 1.73754 4.22235C2.02106 4.22235 2.23572 4.17577 2.38153 4.08262C2.52733 3.98541 2.60024 3.85175 2.60024 3.68165C2.60024 3.56824 2.56379 3.47508 2.49088 3.40218C2.41798 3.32928 2.3066 3.2665 2.15674 3.21385C2.00688 3.15714 1.78614 3.09234 1.49453 3.01944C1.0166 2.90603 0.66626 2.75617 0.443499 2.56986C0.224787 2.3795 0.115431 2.11016 0.115431 1.76184C0.115431 1.44593 0.228837 1.18064 0.455649 0.965976C0.686512 0.747265 1.0004 0.613607 1.39732 0.565005V0.145808C1.39732 0.101255 1.4115 0.0668283 1.43985 0.0425271C1.4682 0.0141757 1.50263 0 1.54313 0H1.91373C1.95423 0 1.98866 0.0141757 2.01701 0.0425271C2.04536 0.0708787 2.05953 0.105306 2.05953 0.145808V0.577155C2.3228 0.613607 2.54759 0.692587 2.7339 0.814093C2.92426 0.931549 3.06804 1.06926 3.16524 1.22721C3.2665 1.38517 3.32118 1.53908 3.32928 1.68894C3.32928 1.72539 3.31713 1.75577 3.29282 1.78007C3.26852 1.80437 3.23815 1.81652 3.20169 1.81652H2.63669C2.54759 1.81652 2.48683 1.77804 2.45443 1.70109C2.43418 1.57148 2.3552 1.46415 2.21749 1.3791C2.07979 1.28999 1.90765 1.24544 1.70109 1.24544C1.47833 1.24544 1.30214 1.28797 1.17254 1.37302C1.04293 1.45808 0.978127 1.58161 0.978127 1.74362C0.978127 1.85702 1.01053 1.95018 1.07533 2.02308C1.14014 2.09599 1.24139 2.16079 1.3791 2.21749C1.52086 2.2742 1.72337 2.33697 1.98663 2.40583C2.34305 2.48683 2.62656 2.57796 2.83718 2.67922C3.05184 2.78047 3.2098 2.90805 3.31105 3.06196C3.41231 3.21587 3.46293 3.41231 3.46293 3.65127C3.46293 3.99959 3.33738 4.28513 3.08626 4.50789C2.83515 4.7266 2.49291 4.85823 2.05953 4.90279V5.32198C2.05953 5.36249 2.04536 5.39691 2.01701 5.42526C1.98866 5.45361 1.95423 5.46779 1.91373 5.46779H1.54313Z" transform="translate(30.4263 80.7241) rotate(-8.83865)" fill="#00FFE0"/>
<path d="M1.45206 5.14509C1.41395 5.14509 1.38155 5.13175 1.35487 5.10508C1.3282 5.08221 1.31486 5.04981 1.31486 5.00789V4.60772C1.04045 4.58104 0.804159 4.51625 0.605978 4.41335C0.411607 4.30663 0.262971 4.17705 0.16007 4.02461C0.0609789 3.86835 0.00762236 3.70256 0 3.52725C0 3.49295 0.0114335 3.46436 0.0343006 3.4415C0.0609789 3.41863 0.0914683 3.40719 0.125769 3.40719H0.634561C0.676484 3.40719 0.70888 3.41672 0.731747 3.43578C0.758425 3.45102 0.783197 3.4777 0.806065 3.51581C0.847988 3.64539 0.935645 3.75401 1.06904 3.84167C1.20624 3.92933 1.39489 3.97315 1.635 3.97315C1.90178 3.97315 2.10377 3.92933 2.24097 3.84167C2.37818 3.7502 2.44678 3.62443 2.44678 3.46436C2.44678 3.35765 2.41248 3.26999 2.34388 3.20139C2.27527 3.13279 2.17047 3.07372 2.02945 3.02417C1.88844 2.97081 1.68073 2.90984 1.40633 2.84123C0.956606 2.73452 0.626939 2.59351 0.417324 2.41819C0.21152 2.23907 0.108619 1.98562 0.108619 1.65786C0.108619 1.36059 0.215332 1.11096 0.428758 0.908966C0.645995 0.703162 0.941362 0.577394 1.31486 0.53166V0.137202C1.31486 0.0952793 1.3282 0.0628842 1.35487 0.0400172C1.38155 0.0133391 1.41395 0 1.45206 0H1.80078C1.83889 0 1.87129 0.0133391 1.89797 0.0400172C1.92465 0.0666956 1.93799 0.0990906 1.93799 0.137202V0.543093C2.18571 0.577394 2.39723 0.651712 2.57255 0.766047C2.75167 0.876571 2.88697 1.00615 2.97844 1.15479C3.07372 1.30342 3.12517 1.44825 3.13279 1.58926C3.13279 1.62356 3.12136 1.65215 3.09849 1.67501C3.07562 1.69788 3.04704 1.70931 3.01274 1.70931H2.48108C2.39723 1.70931 2.34006 1.67311 2.30958 1.6007C2.29052 1.47874 2.2162 1.37774 2.08662 1.29771C1.95704 1.21386 1.79507 1.17194 1.6007 1.17194C1.39108 1.17194 1.22529 1.21196 1.10334 1.29199C0.981379 1.37202 0.9204 1.48827 0.9204 1.64071C0.9204 1.74743 0.950889 1.83508 1.01187 1.90368C1.07285 1.97229 1.16813 2.03326 1.29771 2.08662C1.4311 2.13998 1.62166 2.19905 1.86938 2.26384C2.20477 2.34006 2.47155 2.42582 2.66973 2.5211C2.87172 2.61637 3.02036 2.73643 3.11564 2.88125C3.21092 3.02608 3.25856 3.21092 3.25856 3.43578C3.25856 3.76354 3.14041 4.03223 2.90412 4.24184C2.66783 4.44765 2.34578 4.57151 1.93799 4.61343V5.00789C1.93799 5.046 1.92465 5.0784 1.89797 5.10508C1.87129 5.13175 1.83889 5.14509 1.80078 5.14509H1.45206Z" transform="translate(74.5132 100.277) rotate(21.5173)" fill="#00FFE0"/>
<path d="M1.03425 3.66467C1.0071 3.66467 0.984031 3.65517 0.965029 3.63616C0.946027 3.61988 0.936526 3.5968 0.936526 3.56694V3.28191C0.741077 3.26291 0.572774 3.21676 0.431616 3.14347C0.293173 3.06746 0.187305 2.97517 0.114012 2.86658C0.0434331 2.75529 0.00542914 2.6372 0 2.51233C0 2.4879 0.0081437 2.46754 0.0244311 2.45126C0.0434331 2.43497 0.0651497 2.42682 0.0895808 2.42682H0.451976C0.481836 2.42682 0.50491 2.43361 0.521197 2.44718C0.540199 2.45804 0.557844 2.47704 0.574131 2.50419C0.603992 2.59648 0.666427 2.67385 0.761437 2.73628C0.859161 2.79872 0.993532 2.82994 1.16455 2.82994C1.35457 2.82994 1.49844 2.79872 1.59617 2.73628C1.69389 2.67114 1.74275 2.58155 1.74275 2.46754C1.74275 2.39153 1.71832 2.3291 1.66946 2.28024C1.6206 2.23138 1.54595 2.1893 1.44551 2.15401C1.34507 2.11601 1.19712 2.07257 1.00168 2.02371C0.681357 1.9477 0.446547 1.84726 0.297245 1.72239C0.150659 1.59481 0.0773652 1.41429 0.0773652 1.18084C0.0773652 0.969101 0.153373 0.791297 0.305389 0.647425C0.460119 0.500838 0.670499 0.411257 0.936526 0.378682V0.0977244C0.936526 0.0678641 0.946027 0.0447902 0.965029 0.0285028C0.984031 0.00950095 1.0071 0 1.03425 0H1.28263C1.30978 0 1.33285 0.00950095 1.35186 0.0285028C1.37086 0.0475049 1.38036 0.0705788 1.38036 0.0977244V0.386826C1.55681 0.411257 1.70746 0.464191 1.83233 0.545628C1.95992 0.624351 2.05629 0.716646 2.12144 0.822514C2.1893 0.928382 2.22595 1.03154 2.23138 1.13198C2.23138 1.15641 2.22323 1.17677 2.20694 1.19305C2.19066 1.20934 2.1703 1.21748 2.14587 1.21748H1.76718C1.70746 1.21748 1.66675 1.1917 1.64503 1.14012C1.63146 1.05325 1.57852 0.981316 1.48623 0.924311C1.39393 0.86459 1.27856 0.83473 1.14012 0.83473C0.990818 0.83473 0.872734 0.863233 0.785868 0.920239C0.699002 0.977245 0.655568 1.06004 0.655568 1.16862C0.655568 1.24463 0.677285 1.30706 0.720718 1.35593C0.764151 1.40479 0.832015 1.44822 0.924311 1.48623C1.01932 1.52423 1.15505 1.56631 1.3315 1.61245C1.57038 1.66675 1.7604 1.72782 1.90156 1.79569C2.04543 1.86355 2.1513 1.94906 2.21916 2.05221C2.28702 2.15537 2.32096 2.28702 2.32096 2.44718C2.32096 2.68064 2.2368 2.87201 2.0685 3.02131C1.9002 3.1679 1.67082 3.25612 1.38036 3.28599V3.56694C1.38036 3.59409 1.37086 3.61716 1.35186 3.63616C1.33285 3.65517 1.30978 3.66467 1.28263 3.66467H1.03425Z" transform="translate(44.5226 101.68) rotate(-24.7241)" fill="#00FFE0"/>
<path d="M1.03425 3.66467C1.0071 3.66467 0.984031 3.65517 0.965029 3.63616C0.946027 3.61988 0.936526 3.5968 0.936526 3.56694V3.28191C0.741077 3.26291 0.572774 3.21676 0.431616 3.14347C0.293173 3.06746 0.187305 2.97517 0.114012 2.86658C0.0434331 2.75529 0.00542914 2.6372 0 2.51233C0 2.4879 0.0081437 2.46754 0.0244311 2.45126C0.0434331 2.43497 0.0651497 2.42682 0.0895808 2.42682H0.451976C0.481836 2.42682 0.50491 2.43361 0.521197 2.44718C0.540199 2.45804 0.557844 2.47704 0.574131 2.50419C0.603992 2.59648 0.666427 2.67385 0.761437 2.73628C0.859161 2.79872 0.993532 2.82994 1.16455 2.82994C1.35457 2.82994 1.49844 2.79872 1.59617 2.73628C1.69389 2.67114 1.74275 2.58155 1.74275 2.46754C1.74275 2.39153 1.71832 2.3291 1.66946 2.28024C1.6206 2.23138 1.54595 2.1893 1.44551 2.15401C1.34507 2.11601 1.19712 2.07257 1.00168 2.02371C0.681357 1.9477 0.446547 1.84726 0.297245 1.72239C0.150659 1.59481 0.0773652 1.41429 0.0773652 1.18084C0.0773652 0.969101 0.153373 0.791297 0.305389 0.647425C0.460119 0.500838 0.670499 0.411257 0.936526 0.378682V0.0977244C0.936526 0.0678641 0.946027 0.0447902 0.965029 0.0285028C0.984031 0.00950095 1.0071 0 1.03425 0H1.28263C1.30978 0 1.33285 0.00950095 1.35186 0.0285028C1.37086 0.0475049 1.38036 0.0705788 1.38036 0.0977244V0.386826C1.55681 0.411257 1.70746 0.464191 1.83233 0.545628C1.95992 0.624351 2.05629 0.716646 2.12144 0.822514C2.1893 0.928382 2.22595 1.03154 2.23138 1.13198C2.23138 1.15641 2.22323 1.17677 2.20694 1.19305C2.19066 1.20934 2.1703 1.21748 2.14587 1.21748H1.76718C1.70746 1.21748 1.66675 1.1917 1.64503 1.14012C1.63146 1.05325 1.57852 0.981316 1.48623 0.924311C1.39393 0.86459 1.27856 0.83473 1.14012 0.83473C0.990818 0.83473 0.872734 0.863233 0.785868 0.920239C0.699002 0.977245 0.655568 1.06004 0.655568 1.16862C0.655568 1.24463 0.677285 1.30706 0.720718 1.35593C0.764151 1.40479 0.832015 1.44822 0.924311 1.48623C1.01932 1.52423 1.15505 1.56631 1.3315 1.61245C1.57038 1.66675 1.7604 1.72782 1.90156 1.79569C2.04543 1.86355 2.1513 1.94906 2.21916 2.05221C2.28702 2.15537 2.32096 2.28702 2.32096 2.44718C2.32096 2.68064 2.2368 2.87201 2.0685 3.02131C1.9002 3.1679 1.67082 3.25612 1.38036 3.28599V3.56694C1.38036 3.59409 1.37086 3.61716 1.35186 3.63616C1.33285 3.65517 1.30978 3.66467 1.28263 3.66467H1.03425Z" transform="translate(4.06177 84.1179) rotate(11.8715)" fill="#00FFE0"/>
<path d="M0.841953 2.9833C0.819854 2.9833 0.801071 2.97556 0.785602 2.96009C0.770133 2.94684 0.762399 2.92805 0.762399 2.90374V2.67171C0.603289 2.65624 0.466278 2.61867 0.351366 2.55901C0.238664 2.49713 0.15248 2.422 0.0928137 2.3336C0.0353576 2.243 0.0044197 2.14687 0 2.04522C0 2.02533 0.00662955 2.00875 0.0198887 1.99549C0.0353576 1.98224 0.0530364 1.97561 0.0729251 1.97561H0.36794C0.392249 1.97561 0.411032 1.98113 0.424291 1.99218C0.43976 2.00102 0.454124 2.01649 0.467383 2.03859C0.491692 2.11372 0.542518 2.1767 0.619863 2.22753C0.699418 2.27836 0.808805 2.30377 0.948026 2.30377C1.10272 2.30377 1.21984 2.27836 1.29939 2.22753C1.37895 2.17449 1.41872 2.10157 1.41872 2.00875C1.41872 1.94688 1.39884 1.89605 1.35906 1.85627C1.31928 1.8165 1.25851 1.78224 1.17675 1.75352C1.09498 1.72258 0.974544 1.68722 0.815435 1.64744C0.554673 1.58557 0.36352 1.5038 0.241979 1.40215C0.122647 1.29829 0.0629807 1.15133 0.0629807 0.961285C0.0629807 0.788917 0.124857 0.644171 0.248608 0.527049C0.37457 0.407717 0.545833 0.334792 0.762399 0.308274V0.0795546C0.762399 0.0552461 0.770133 0.0364624 0.785602 0.0232033C0.801071 0.00773444 0.819854 0 0.841953 0H1.04415C1.06625 0 1.08504 0.00773444 1.10051 0.0232033C1.11597 0.0386723 1.12371 0.0574561 1.12371 0.0795546V0.314904C1.26735 0.334792 1.39 0.377884 1.49165 0.44418C1.59551 0.508266 1.67396 0.5834 1.727 0.669585C1.78224 0.755769 1.81208 0.839743 1.8165 0.921508C1.8165 0.941396 1.80987 0.95797 1.79661 0.971229C1.78335 0.984488 1.76678 0.991118 1.74689 0.991118H1.43861C1.39 0.991118 1.35685 0.970124 1.33917 0.928137C1.32812 0.857422 1.28503 0.798861 1.20989 0.752454C1.13476 0.703837 1.04084 0.679529 0.928137 0.679529C0.806596 0.679529 0.710467 0.702732 0.639752 0.749139C0.569037 0.795546 0.533679 0.862946 0.533679 0.951341C0.533679 1.01322 0.551358 1.06404 0.586715 1.10382C0.622073 1.1436 0.677319 1.17896 0.752454 1.20989C0.829799 1.24083 0.940291 1.27508 1.08393 1.31265C1.2784 1.35685 1.43309 1.40657 1.548 1.46182C1.66512 1.51706 1.75131 1.58667 1.80655 1.67065C1.8618 1.75462 1.88942 1.8618 1.88942 1.99218C1.88942 2.18223 1.82092 2.33802 1.68391 2.45956C1.5469 2.5789 1.36016 2.65072 1.12371 2.67502V2.90374C1.12371 2.92584 1.11597 2.94463 1.10051 2.96009C1.08504 2.97556 1.06625 2.9833 1.04415 2.9833H0.841953Z" transform="translate(122.939 101.589) rotate(-29.0598)" fill="#00FFE0"/>
<path d="M1.28028 4.53643C1.24668 4.53643 1.21811 4.52467 1.19459 4.50114C1.17107 4.48098 1.15931 4.45242 1.15931 4.41546V4.06262C0.917366 4.0391 0.709027 3.98197 0.53429 3.89125C0.362914 3.79716 0.231862 3.68291 0.141133 3.54849C0.0537651 3.41072 0.00672063 3.26455 0 3.10997C0 3.07973 0.0100809 3.05453 0.0302428 3.03437C0.0537651 3.0142 0.0806476 3.00412 0.11089 3.00412H0.559493C0.596456 3.00412 0.625019 3.01252 0.645181 3.02932C0.668703 3.04277 0.690545 3.06629 0.710707 3.09989C0.74767 3.21414 0.824958 3.30991 0.942569 3.3872C1.06354 3.46449 1.22988 3.50313 1.44158 3.50313C1.6768 3.50313 1.85489 3.46449 1.97587 3.3872C2.09684 3.30655 2.15732 3.19566 2.15732 3.05453C2.15732 2.96044 2.12708 2.88315 2.06659 2.82267C2.00611 2.76218 1.9137 2.71009 1.78937 2.66641C1.66504 2.61937 1.4819 2.5656 1.23996 2.50512C0.843439 2.41103 0.552772 2.28669 0.367955 2.13212C0.186498 1.97419 0.095769 1.75072 0.095769 1.46174C0.095769 1.19963 0.189858 0.979532 0.378036 0.801435C0.569574 0.619978 0.829998 0.509088 1.15931 0.468764V0.120971C1.15931 0.0840077 1.17107 0.055445 1.19459 0.0352832C1.21811 0.0117611 1.24668 0 1.28028 0H1.58775C1.62135 0 1.64992 0.0117611 1.67344 0.0352832C1.69696 0.0588055 1.70872 0.0873682 1.70872 0.120971V0.478845C1.92714 0.509088 2.11364 0.574614 2.26821 0.675424C2.42615 0.772873 2.54544 0.887123 2.62609 1.01818C2.7101 1.14923 2.75546 1.27692 2.76218 1.40125C2.76218 1.43149 2.7521 1.4567 2.73194 1.47686C2.71178 1.49702 2.68657 1.5071 2.65633 1.5071H2.18757C2.11364 1.5071 2.06323 1.47518 2.03635 1.41133C2.01955 1.3038 1.95402 1.21475 1.83977 1.14419C1.72552 1.07026 1.58271 1.0333 1.41133 1.0333C1.22652 1.0333 1.08034 1.06858 0.972812 1.13915C0.865282 1.20971 0.811516 1.3122 0.811516 1.44662C0.811516 1.5407 0.838399 1.61799 0.892164 1.67848C0.945929 1.73896 1.02994 1.79273 1.14419 1.83977C1.2618 1.88682 1.42981 1.9389 1.64824 1.99603C1.94394 2.06323 2.17917 2.13884 2.3539 2.22285C2.532 2.30686 2.66305 2.41271 2.74706 2.5404C2.83107 2.66809 2.87307 2.83107 2.87307 3.02932C2.87307 3.31831 2.7689 3.55521 2.56056 3.74003C2.35222 3.92149 2.06827 4.0307 1.70872 4.06766V4.41546C1.70872 4.44906 1.69696 4.47762 1.67344 4.50114C1.64992 4.52467 1.62135 4.53643 1.58775 4.53643H1.28028Z" transform="translate(82.0822 82.0632) rotate(-29.0019)" fill="#00FFE0"/>
<path d="M5.12 19.2C3.93333 19.2 2.97333 19 2.24 18.6C1.50667 18.2133 0.986667 17.7667 0.68 17.26C0.373333 16.7533 0.22 16.32 0.22 15.96C0.22 15.8267 0.266667 15.7133 0.36 15.62C0.453333 15.54 0.566667 15.5 0.7 15.5H2.48C2.6 15.5 2.7 15.5267 2.78 15.58C2.87333 15.6467 2.94667 15.76 3 15.92C3.14667 16.2667 3.36667 16.56 3.66 16.8C3.95333 17.0533 4.40667 17.18 5.02 17.18C5.82 17.18 6.40667 17 6.78 16.64C7.15333 16.2933 7.34 15.68 7.34 14.8V13.44C6.62 14.2933 5.6 14.72 4.28 14.72C2.89333 14.72 1.84667 14.3 1.14 13.46C0.446667 12.62 0.0733333 11.4733 0.02 10.02L0 9.48L0.02 8.94C0.0733333 7.51333 0.453333 6.36667 1.16 5.5C1.86667 4.63333 2.90667 4.2 4.28 4.2C4.98667 4.2 5.60667 4.33333 6.14 4.6C6.67333 4.86667 7.11333 5.22667 7.46 5.68V4.9C7.46 4.75333 7.50667 4.63333 7.6 4.54C7.70667 4.44666 7.82667 4.4 7.96 4.4H9.6C9.73333 4.4 9.84667 4.44666 9.94 4.54C10.0333 4.63333 10.08 4.75333 10.08 4.9L10.1 14.54C10.1 16.02 9.68667 17.1667 8.86 17.98C8.03333 18.7933 6.78667 19.2 5.12 19.2ZM5.04 12.6C5.78667 12.6 6.34667 12.36 6.72 11.88C7.09333 11.4 7.3 10.8133 7.34 10.12C7.35333 10.0133 7.36 9.8 7.36 9.48C7.36 9.16 7.35333 8.94667 7.34 8.84C7.3 8.14667 7.09333 7.56 6.72 7.08C6.34667 6.6 5.78667 6.36 5.04 6.36C3.6 6.36 2.84 7.24 2.76 9L2.74 9.48C2.74 11.56 3.50667 12.6 5.04 12.6Z" transform="translate(8.90002 83.2)" fill="#00FFE0"/>
<path d="M15.7642 15C15.0842 15 14.4576 14.8667 13.8842 14.6C13.3242 14.32 12.8776 13.9467 12.5442 13.48C12.2242 13.0133 12.0642 12.5 12.0642 11.94C12.0642 11.0333 12.4309 10.3 13.1642 9.74C13.8976 9.18 14.9042 8.8 16.1842 8.6L18.9242 8.2V7.78C18.9242 7.20667 18.7776 6.77333 18.4842 6.48C18.1909 6.18667 17.7242 6.04 17.0842 6.04C16.6442 6.04 16.2909 6.12 16.0242 6.28C15.7576 6.44 15.5376 6.60667 15.3642 6.78C15.2042 6.94 15.0976 7.04667 15.0442 7.1C14.9909 7.26 14.8909 7.34 14.7442 7.34H13.1842C13.0642 7.34 12.9576 7.3 12.8642 7.22C12.7842 7.14 12.7442 7.03333 12.7442 6.9C12.7576 6.56666 12.9176 6.19333 13.2242 5.78C13.5442 5.35333 14.0309 4.98666 14.6842 4.68C15.3376 4.36 16.1442 4.2 17.1042 4.2C18.6776 4.2 19.8242 4.55333 20.5442 5.26C21.2642 5.96667 21.6242 6.89333 21.6242 8.04V14.32C21.6242 14.4533 21.5776 14.5667 21.4842 14.66C21.4042 14.7533 21.2909 14.8 21.1442 14.8H19.4842C19.3509 14.8 19.2376 14.7533 19.1442 14.66C19.0509 14.5667 19.0042 14.4533 19.0042 14.32V13.54C18.7109 13.9667 18.2976 14.32 17.7642 14.6C17.2309 14.8667 16.5642 15 15.7642 15ZM16.4442 13.08C17.1776 13.08 17.7776 12.84 18.2442 12.36C18.7109 11.88 18.9442 11.1867 18.9442 10.28V9.88L16.9442 10.2C15.4109 10.44 14.6442 10.9533 14.6442 11.74C14.6442 12.1667 14.8176 12.5 15.1642 12.74C15.5242 12.9667 15.9509 13.08 16.4442 13.08Z" transform="translate(8.90002 83.2)" fill="#00FFE0"/>
<path d="M24.6695 14.8C24.5362 14.8 24.4229 14.7533 24.3295 14.66C24.2362 14.5667 24.1895 14.4533 24.1895 14.32V4.88C24.1895 4.73333 24.2362 4.62 24.3295 4.54C24.4229 4.44666 24.5362 4.4 24.6695 4.4H26.2495C26.3962 4.4 26.5095 4.44666 26.5895 4.54C26.6829 4.62 26.7295 4.73333 26.7295 4.88V5.56C27.4495 4.65333 28.4162 4.2 29.6295 4.2C31.1095 4.2 32.1429 4.79333 32.7295 5.98C33.0495 5.44667 33.5029 5.02 34.0895 4.7C34.6762 4.36667 35.3095 4.2 35.9895 4.2C37.0829 4.2 37.9762 4.57333 38.6695 5.32C39.3629 6.06667 39.7095 7.15333 39.7095 8.58V14.32C39.7095 14.4533 39.6629 14.5667 39.5695 14.66C39.4895 14.7533 39.3762 14.8 39.2295 14.8H37.5695C37.4362 14.8 37.3229 14.7533 37.2295 14.66C37.1362 14.5667 37.0895 14.4533 37.0895 14.32V8.74C37.0895 7.9 36.9095 7.29333 36.5495 6.92C36.2029 6.54666 35.7429 6.36 35.1695 6.36C34.6495 6.36 34.2029 6.55333 33.8295 6.94C33.4695 7.31333 33.2895 7.91333 33.2895 8.74V14.32C33.2895 14.4533 33.2429 14.5667 33.1495 14.66C33.0695 14.7533 32.9562 14.8 32.8095 14.8H31.1295C30.9962 14.8 30.8829 14.7533 30.7895 14.66C30.6962 14.5667 30.6495 14.4533 30.6495 14.32V8.74C30.6495 7.91333 30.4695 7.31333 30.1095 6.94C29.7495 6.55333 29.2895 6.36 28.7295 6.36C28.2095 6.36 27.7629 6.55333 27.3895 6.94C27.0295 7.31333 26.8495 7.91333 26.8495 8.74V14.32C26.8495 14.4533 26.8029 14.5667 26.7095 14.66C26.6295 14.7533 26.5162 14.8 26.3695 14.8H24.6695Z" transform="translate(8.90002 83.2)" fill="#00FFE0"/>
<path d="M42.6559 2.7C42.5226 2.7 42.4093 2.65333 42.3159 2.56C42.2226 2.46666 42.1759 2.35333 42.1759 2.22V0.759998C42.1759 0.613331 42.2226 0.493331 42.3159 0.399998C42.4093 0.306664 42.5226 0.259998 42.6559 0.259998H44.4959C44.6426 0.259998 44.7626 0.306664 44.8559 0.399998C44.9493 0.493331 44.9959 0.613331 44.9959 0.759998V2.22C44.9959 2.35333 44.9426 2.46666 44.8359 2.56C44.7426 2.65333 44.6293 2.7 44.4959 2.7H42.6559ZM42.7359 14.8C42.6026 14.8 42.4893 14.7533 42.3959 14.66C42.3026 14.5667 42.2559 14.4533 42.2559 14.32V4.88C42.2559 4.73333 42.3026 4.62 42.3959 4.54C42.4893 4.44666 42.6026 4.4 42.7359 4.4H44.4359C44.5693 4.4 44.6826 4.44666 44.7759 4.54C44.8693 4.63333 44.9159 4.74666 44.9159 4.88V14.32C44.9159 14.4533 44.8693 14.5667 44.7759 14.66C44.6826 14.7533 44.5693 14.8 44.4359 14.8H42.7359Z" transform="translate(8.90002 83.2)" fill="#00FFE0"/>
<path d="M49.1489 14.8C49.0156 14.8 48.9022 14.7533 48.8089 14.66C48.7156 14.5667 48.6689 14.4533 48.6689 14.32V6.54H47.0489C46.9156 6.54 46.8022 6.49333 46.7089 6.4C46.6156 6.30666 46.5689 6.19333 46.5689 6.06V4.88C46.5689 4.74666 46.6156 4.63333 46.7089 4.54C46.8022 4.44666 46.9156 4.4 47.0489 4.4H48.6689V3.6C48.6689 2.38666 48.9956 1.48666 49.6489 0.899998C50.3022 0.299998 51.2889 0 52.6089 0H56.7489C56.8956 0 57.0089 0.0466665 57.0889 0.139999C57.1822 0.219999 57.2289 0.333332 57.2289 0.48V1.66C57.2289 1.79333 57.1822 1.90667 57.0889 2C56.9956 2.09333 56.8822 2.14 56.7489 2.14H52.7089C52.1889 2.14 51.8222 2.26667 51.6089 2.52C51.3956 2.77333 51.2889 3.16667 51.2889 3.7V4.4H56.7489C56.8956 4.4 57.0089 4.44666 57.0889 4.54C57.1822 4.62 57.2289 4.73333 57.2289 4.88V14.32C57.2289 14.4533 57.1822 14.5667 57.0889 14.66C57.0089 14.7533 56.8956 14.8 56.7489 14.8H55.0889C54.9556 14.8 54.8422 14.7533 54.7489 14.66C54.6556 14.5667 54.6089 14.4533 54.6089 14.32V6.54H51.2889V14.32C51.2889 14.4533 51.2422 14.5667 51.1489 14.66C51.0689 14.7533 50.9556 14.8 50.8089 14.8H49.1489Z" transform="translate(8.90002 83.2)" fill="#00FFE0"/>
<path d="M64.3731 15C62.9065 15 61.7331 14.5933 60.8531 13.78C59.9865 12.9667 59.5265 11.84 59.4731 10.4L59.4531 9.6L59.4731 8.8C59.5265 7.36 59.9865 6.23333 60.8531 5.42C61.7331 4.60666 62.9065 4.2 64.3731 4.2C65.4265 4.2 66.3131 4.38667 67.0331 4.76C67.7665 5.13333 68.3065 5.59333 68.6531 6.14C69.0131 6.67333 69.2065 7.18667 69.2331 7.68C69.2465 7.81333 69.1998 7.92667 69.0931 8.02C68.9998 8.11333 68.8865 8.16 68.7531 8.16H66.9731C66.8265 8.16 66.7198 8.13333 66.6531 8.08C66.5865 8.01333 66.5198 7.9 66.4531 7.74C66.2531 7.23333 65.9865 6.86667 65.6531 6.64C65.3331 6.41333 64.9198 6.3 64.4131 6.3C63.7331 6.3 63.1998 6.51333 62.8131 6.94C62.4398 7.36666 62.2398 8.02 62.2131 8.9L62.1931 9.64L62.2131 10.3C62.2931 12.0333 63.0265 12.9 64.4131 12.9C64.9331 12.9 65.3531 12.7933 65.6731 12.58C65.9931 12.3533 66.2531 11.98 66.4531 11.46C66.5065 11.3133 66.5665 11.2067 66.6331 11.14C66.7131 11.0733 66.8265 11.04 66.9731 11.04H68.7531C68.8865 11.04 68.9998 11.0867 69.0931 11.18C69.1998 11.2733 69.2465 11.3867 69.2331 11.52C69.2065 11.9867 69.0198 12.4933 68.6731 13.04C68.3265 13.5733 67.7931 14.0333 67.0731 14.42C66.3531 14.8067 65.4531 15 64.3731 15Z" transform="translate(8.90002 83.2)" fill="#00FFE0"/>
<path d="M74.3384 15C73.6584 15 73.0318 14.8667 72.4584 14.6C71.8984 14.32 71.4518 13.9467 71.1184 13.48C70.7984 13.0133 70.6384 12.5 70.6384 11.94C70.6384 11.0333 71.0051 10.3 71.7384 9.74C72.4718 9.18 73.4784 8.8 74.7584 8.6L77.4984 8.2V7.78C77.4984 7.20667 77.3518 6.77333 77.0584 6.48C76.7651 6.18667 76.2984 6.04 75.6584 6.04C75.2184 6.04 74.8651 6.12 74.5984 6.28C74.3318 6.44 74.1118 6.60667 73.9384 6.78C73.7784 6.94 73.6718 7.04667 73.6184 7.1C73.5651 7.26 73.4651 7.34 73.3184 7.34H71.7584C71.6384 7.34 71.5318 7.3 71.4384 7.22C71.3584 7.14 71.3184 7.03333 71.3184 6.9C71.3318 6.56666 71.4918 6.19333 71.7984 5.78C72.1184 5.35333 72.6051 4.98666 73.2584 4.68C73.9118 4.36 74.7184 4.2 75.6784 4.2C77.2518 4.2 78.3984 4.55333 79.1184 5.26C79.8384 5.96667 80.1984 6.89333 80.1984 8.04V14.32C80.1984 14.4533 80.1518 14.5667 80.0584 14.66C79.9784 14.7533 79.8651 14.8 79.7184 14.8H78.0584C77.9251 14.8 77.8118 14.7533 77.7184 14.66C77.6251 14.5667 77.5784 14.4533 77.5784 14.32V13.54C77.2851 13.9667 76.8718 14.32 76.3384 14.6C75.8051 14.8667 75.1384 15 74.3384 15ZM75.0184 13.08C75.7518 13.08 76.3518 12.84 76.8184 12.36C77.2851 11.88 77.5184 11.1867 77.5184 10.28V9.88L75.5184 10.2C73.9851 10.44 73.2184 10.9533 73.2184 11.74C73.2184 12.1667 73.3918 12.5 73.7384 12.74C74.0984 12.9667 74.5251 13.08 75.0184 13.08Z" transform="translate(8.90002 83.2)" fill="#00FFE0"/>
<path d="M87.3861 14.8C86.1728 14.8 85.2594 14.4867 84.6461 13.86C84.0328 13.22 83.7261 12.2867 83.7261 11.06V6.54H82.1461C82.0128 6.54 81.8994 6.49333 81.8061 6.4C81.7128 6.30666 81.6661 6.19333 81.6661 6.06V4.88C81.6661 4.74666 81.7128 4.63333 81.8061 4.54C81.8994 4.44666 82.0128 4.4 82.1461 4.4H83.7261V1.08C83.7261 0.933332 83.7728 0.82 83.8661 0.74C83.9594 0.646666 84.0728 0.599998 84.2061 0.599998H85.8661C86.0128 0.599998 86.1261 0.646666 86.2061 0.74C86.2994 0.82 86.3461 0.933332 86.3461 1.08V4.4H88.8461C88.9794 4.4 89.0928 4.44666 89.1861 4.54C89.2794 4.63333 89.3261 4.74666 89.3261 4.88V6.06C89.3261 6.19333 89.2794 6.30666 89.1861 6.4C89.0928 6.49333 88.9794 6.54 88.8461 6.54H86.3461V10.84C86.3461 11.4133 86.4461 11.8467 86.6461 12.14C86.8461 12.4333 87.1728 12.58 87.6261 12.58H89.0261C89.1728 12.58 89.2861 12.6267 89.3661 12.72C89.4594 12.8 89.5061 12.9133 89.5061 13.06V14.32C89.5061 14.4533 89.4594 14.5667 89.3661 14.66C89.2861 14.7533 89.1728 14.8 89.0261 14.8H87.3861Z" transform="translate(8.90002 83.2)" fill="#00FFE0"/>
<path d="M91.6794 2.7C91.546 2.7 91.4327 2.65333 91.3394 2.56C91.246 2.46666 91.1994 2.35333 91.1994 2.22V0.759998C91.1994 0.613331 91.246 0.493331 91.3394 0.399998C91.4327 0.306664 91.546 0.259998 91.6794 0.259998H93.5194C93.666 0.259998 93.786 0.306664 93.8794 0.399998C93.9727 0.493331 94.0194 0.613331 94.0194 0.759998V2.22C94.0194 2.35333 93.966 2.46666 93.8594 2.56C93.766 2.65333 93.6527 2.7 93.5194 2.7H91.6794ZM91.7594 14.8C91.626 14.8 91.5127 14.7533 91.4194 14.66C91.326 14.5667 91.2794 14.4533 91.2794 14.32V4.88C91.2794 4.73333 91.326 4.62 91.4194 4.54C91.5127 4.44666 91.626 4.4 91.7594 4.4H93.4594C93.5927 4.4 93.706 4.44666 93.7994 4.54C93.8927 4.63333 93.9394 4.74666 93.9394 4.88V14.32C93.9394 14.4533 93.8927 14.5667 93.7994 14.66C93.706 14.7533 93.5927 14.8 93.4594 14.8H91.7594Z" transform="translate(8.90002 83.2)" fill="#00FFE0"/>
<path d="M101.192 15C99.619 15 98.4057 14.6 97.5523 13.8C96.699 13 96.239 11.8933 96.1723 10.48L96.1523 9.6L96.1723 8.72C96.239 7.32 96.7057 6.22 97.5723 5.42C98.439 4.60666 99.6457 4.2 101.192 4.2C102.726 4.2 103.926 4.60666 104.792 5.42C105.659 6.22 106.126 7.32 106.192 8.72C106.206 8.88 106.212 9.17333 106.212 9.6C106.212 10.0267 106.206 10.32 106.192 10.48C106.126 11.8933 105.666 13 104.812 13.8C103.959 14.6 102.752 15 101.192 15ZM101.192 12.98C101.899 12.98 102.439 12.76 102.812 12.32C103.199 11.88 103.406 11.2333 103.432 10.38C103.446 10.2467 103.452 9.98667 103.452 9.6C103.452 9.21333 103.446 8.95333 103.432 8.82C103.406 7.96667 103.199 7.32 102.812 6.88C102.426 6.42666 101.886 6.2 101.192 6.2C100.486 6.2 99.939 6.42666 99.5523 6.88C99.1657 7.32 98.959 7.96667 98.9323 8.82L98.9123 9.6L98.9323 10.38C98.959 11.2333 99.1657 11.88 99.5523 12.32C99.939 12.76 100.486 12.98 101.192 12.98Z" transform="translate(8.90002 83.2)" fill="#00FFE0"/>
<path d="M108.908 14.8C108.774 14.8 108.661 14.7533 108.568 14.66C108.474 14.5667 108.428 14.4533 108.428 14.32V4.88C108.428 4.73333 108.474 4.62 108.568 4.54C108.661 4.44666 108.774 4.4 108.908 4.4H110.568C110.714 4.4 110.828 4.44666 110.908 4.54C111.001 4.62 111.048 4.73333 111.048 4.88V5.7C111.861 4.7 112.974 4.2 114.388 4.2C115.614 4.2 116.588 4.6 117.308 5.4C118.028 6.2 118.388 7.3 118.388 8.7V14.32C118.388 14.4533 118.341 14.5667 118.248 14.66C118.168 14.7533 118.054 14.8 117.908 14.8H116.108C115.974 14.8 115.861 14.7533 115.768 14.66C115.674 14.5667 115.628 14.4533 115.628 14.32V8.82C115.628 8.04667 115.434 7.44667 115.048 7.02C114.674 6.58 114.134 6.36 113.428 6.36C112.748 6.36 112.201 6.58 111.788 7.02C111.374 7.46 111.168 8.06 111.168 8.82V14.32C111.168 14.4533 111.121 14.5667 111.028 14.66C110.948 14.7533 110.834 14.8 110.688 14.8H108.908Z" transform="translate(8.90002 83.2)" fill="#00FFE0"/>
</g>
<defs>
<clipPath id="clip0">
<rect width="439" height="115" fill="white"/>
</clipPath>
</defs>
</svg>
