<svg width="193" height="102" viewBox="0 0 193 102" fill="none" xmlns="http://www.w3.org/2000/svg">
<mask id="mask0" mask-type="alpha" maskUnits="userSpaceOnUse" x="0" y="0" width="193" height="102">
<rect x="1" y="1" width="191" height="100" fill="url(#paint0_linear)" stroke="black" stroke-width="2"/>
</mask>
<g mask="url(#mask0)">
<rect width="193" height="102" fill="url(#paint1_linear)"/>
<g style="mix-blend-mode:soft-light">
<path d="M12.1943 0C12.1943 0 13.3447 5.93054 15.9021 8.48853C18.4595 11.0465 24.3887 12.1971 24.3887 12.1971C24.3887 12.1971 18.4595 13.3478 15.9021 15.9058C13.3447 18.4638 12.1943 24.3943 12.1943 24.3943C12.1943 24.3943 11.044 18.4638 8.48657 15.9058C5.92917 13.3478 0 12.1971 0 12.1971C0 12.1971 5.92917 11.0465 8.48657 8.48853C11.044 5.93054 12.1943 0 12.1943 0Z" transform="translate(-21.3463 91.8584) rotate(-15)" fill="white"/>
<path d="M12.1943 0C12.1943 0 13.3447 5.93054 15.9021 8.48853C18.4595 11.0465 24.3887 12.1971 24.3887 12.1971C24.3887 12.1971 18.4595 13.3478 15.9021 15.9058C13.3447 18.4638 12.1943 24.3943 12.1943 24.3943C12.1943 24.3943 11.044 18.4638 8.48657 15.9058C5.92917 13.3478 0 12.1971 0 12.1971C0 12.1971 5.92917 11.0465 8.48657 8.48853C11.044 5.93054 12.1943 0 12.1943 0Z" transform="translate(-1.9762 65.2066) rotate(-15)" fill="white"/>
<path d="M12.1943 0C12.1943 0 13.3447 5.93054 15.9021 8.48853C18.4595 11.0465 24.3887 12.1971 24.3887 12.1971C24.3887 12.1971 18.4595 13.3478 15.9021 15.9058C13.3447 18.4638 12.1943 24.3943 12.1943 24.3943C12.1943 24.3943 11.044 18.4638 8.48657 15.9058C5.92917 13.3478 0 12.1971 0 12.1971C0 12.1971 5.92917 11.0465 8.48657 8.48853C11.044 5.93054 12.1943 0 12.1943 0Z" transform="translate(71.9827 100.937) rotate(-15)" fill="white"/>
<path d="M12.1943 0C12.1943 0 13.3447 5.93054 15.9021 8.48853C18.4595 11.0465 24.3887 12.1971 24.3887 12.1971C24.3887 12.1971 18.4595 13.3478 15.9021 15.9058C13.3447 18.4638 12.1943 24.3943 12.1943 24.3943C12.1943 24.3943 11.044 18.4638 8.48657 15.9058C5.92917 13.3478 0 12.1971 0 12.1971C0 12.1971 5.92917 11.0465 8.48657 8.48853C11.044 5.93054 12.1943 0 12.1943 0Z" transform="translate(35.6768 87.9412) rotate(-15)" fill="white"/>
<path d="M12.1943 0C12.1943 0 13.3447 5.93054 15.9021 8.48853C18.4595 11.0465 24.3887 12.1971 24.3887 12.1971C24.3887 12.1971 18.4595 13.3478 15.9021 15.9058C13.3447 18.4638 12.1943 24.3943 12.1943 24.3943C12.1943 24.3943 11.044 18.4638 8.48657 15.9058C5.92917 13.3478 0 12.1971 0 12.1971C0 12.1971 5.92917 11.0465 8.48657 8.48853C11.044 5.93054 12.1943 0 12.1943 0Z" transform="translate(85.3561 51.9055) rotate(-15)" fill="white"/>
<path d="M12.1943 0C12.1943 0 13.3447 5.93054 15.9021 8.48853C18.4595 11.0465 24.3887 12.1971 24.3887 12.1971C24.3887 12.1971 18.4595 13.3478 15.9021 15.9058C13.3447 18.4638 12.1943 24.3943 12.1943 24.3943C12.1943 24.3943 11.044 18.4638 8.48657 15.9058C5.92917 13.3478 0 12.1971 0 12.1971C0 12.1971 5.92917 11.0465 8.48657 8.48853C11.044 5.93054 12.1943 0 12.1943 0Z" transform="translate(43.1608 40.4877) rotate(-15)" fill="white"/>
<path d="M12.1943 0C12.1943 0 13.3447 5.93054 15.9021 8.48853C18.4595 11.0465 24.3887 12.1971 24.3887 12.1971C24.3887 12.1971 18.4595 13.3478 15.9021 15.9058C13.3447 18.4638 12.1943 24.3943 12.1943 24.3943C12.1943 24.3943 11.044 18.4638 8.48657 15.9058C5.92917 13.3478 0 12.1971 0 12.1971C0 12.1971 5.92917 11.0465 8.48657 8.48853C11.044 5.93054 12.1943 0 12.1943 0Z" transform="translate(-1.87512 18.4689) rotate(-15)" fill="white"/>
<path d="M12.1943 0C12.1943 0 13.3447 5.93054 15.9021 8.48853C18.4595 11.0465 24.3887 12.1971 24.3887 12.1971C24.3887 12.1971 18.4595 13.3478 15.9021 15.9058C13.3447 18.4638 12.1943 24.3943 12.1943 24.3943C12.1943 24.3943 11.044 18.4638 8.48657 15.9058C5.92917 13.3478 0 12.1971 0 12.1971C0 12.1971 5.92917 11.0465 8.48657 8.48853C11.044 5.93054 12.1943 0 12.1943 0Z" transform="translate(103.926 12.8436) rotate(-15)" fill="white"/>
<path d="M12.1943 0C12.1943 0 13.3447 5.93054 15.9021 8.48853C18.4595 11.0465 24.3887 12.1971 24.3887 12.1971C24.3887 12.1971 18.4595 13.3478 15.9021 15.9058C13.3447 18.4638 12.1943 24.3943 12.1943 24.3943C12.1943 24.3943 11.044 18.4638 8.48657 15.9058C5.92917 13.3478 0 12.1971 0 12.1971C0 12.1971 5.92917 11.0465 8.48657 8.48853C11.044 5.93054 12.1943 0 12.1943 0Z" transform="translate(53.2543 7.48431) rotate(-15)" fill="white"/>
<path d="M12.1943 0C12.1943 0 13.3447 5.93054 15.9021 8.48853C18.4595 11.0465 24.3887 12.1971 24.3887 12.1971C24.3887 12.1971 18.4595 13.3478 15.9021 15.9058C13.3447 18.4638 12.1943 24.3943 12.1943 24.3943C12.1943 24.3943 11.044 18.4638 8.48657 15.9058C5.92917 13.3478 0 12.1971 0 12.1971C0 12.1971 5.92917 11.0465 8.48657 8.48853C11.044 5.93054 12.1943 0 12.1943 0Z" transform="translate(10.4277 -6.28931) rotate(-15)" fill="white"/>
<path d="M12.1943 0C12.1943 0 13.3447 5.93054 15.9021 8.48853C18.4595 11.0465 24.3887 12.1971 24.3887 12.1971C24.3887 12.1971 18.4595 13.3478 15.9021 15.9058C13.3447 18.4638 12.1943 24.3943 12.1943 24.3943C12.1943 24.3943 11.044 18.4638 8.48657 15.9058C5.92917 13.3478 0 12.1971 0 12.1971C0 12.1971 5.92917 11.0465 8.48657 8.48853C11.044 5.93054 12.1943 0 12.1943 0Z" transform="translate(164.674 36.9645) rotate(-15)" fill="white"/>
<path d="M12.1943 0C12.1943 0 13.3447 5.93054 15.9021 8.48853C18.4595 11.0465 24.3887 12.1971 24.3887 12.1971C24.3887 12.1971 18.4595 13.3478 15.9021 15.9058C13.3447 18.4638 12.1943 24.3943 12.1943 24.3943C12.1943 24.3943 11.044 18.4638 8.48657 15.9058C5.92917 13.3478 0 12.1971 0 12.1971C0 12.1971 5.92917 11.0465 8.48657 8.48853C11.044 5.93054 12.1943 0 12.1943 0Z" transform="translate(170.665 -11.3513) rotate(-15)" fill="white"/>
<path d="M12.1943 0C12.1943 0 13.3447 5.93054 15.9021 8.48853C18.4595 11.0465 24.3887 12.1971 24.3887 12.1971C24.3887 12.1971 18.4595 13.3478 15.9021 15.9058C13.3447 18.4638 12.1943 24.3943 12.1943 24.3943C12.1943 24.3943 11.044 18.4638 8.48657 15.9058C5.92917 13.3478 0 12.1971 0 12.1971C0 12.1971 5.92917 11.0465 8.48657 8.48853C11.044 5.93054 12.1943 0 12.1943 0Z" transform="translate(137.775 73.2086) rotate(-15)" fill="white"/>
</g>
<path d="M8.74391 13C8.65991 13 8.58991 12.972 8.53391 12.916C8.47791 12.86 8.44991 12.79 8.44991 12.706L8.47791 12.58L11.8379 3.55C11.9312 3.31667 12.0992 3.2 12.3419 3.2H13.8819C14.1246 3.2 14.2926 3.31667 14.3859 3.55L17.7459 12.58L17.7739 12.706C17.7739 12.79 17.7412 12.86 17.6759 12.916C17.6199 12.972 17.5546 13 17.4799 13H16.2339C16.0379 13 15.9026 12.9113 15.8279 12.734L15.1839 11.04H11.0399L10.3959 12.734C10.3212 12.9113 10.1859 13 9.98991 13H8.74391ZM11.5299 9.416H14.6939L13.1119 5.104L11.5299 9.416ZM19.2346 13C19.1413 13 19.0619 12.9673 18.9966 12.902C18.9313 12.8367 18.8986 12.7573 18.8986 12.664V6.056C18.8986 5.95333 18.9313 5.874 18.9966 5.818C19.0619 5.75267 19.1413 5.72 19.2346 5.72H20.3966C20.4993 5.72 20.5786 5.75267 20.6346 5.818C20.6999 5.874 20.7326 5.95333 20.7326 6.056V6.63C21.3019 5.93 22.0813 5.58 23.0706 5.58C23.9293 5.58 24.6106 5.86 25.1146 6.42C25.6186 6.98 25.8706 7.75 25.8706 8.73V12.664C25.8706 12.7573 25.8379 12.8367 25.7726 12.902C25.7166 12.9673 25.6373 13 25.5346 13H24.2746C24.1813 13 24.1019 12.9673 24.0366 12.902C23.9713 12.8367 23.9386 12.7573 23.9386 12.664V8.814C23.9386 8.27267 23.8033 7.85267 23.5326 7.554C23.2713 7.246 22.8933 7.092 22.3986 7.092C21.9226 7.092 21.5399 7.246 21.2506 7.554C20.9613 7.862 20.8166 8.282 20.8166 8.814V12.664C20.8166 12.7573 20.7839 12.8367 20.7186 12.902C20.6626 12.9673 20.5833 13 20.4806 13H19.2346ZM34.0682 13.14C32.9668 13.14 32.1175 12.86 31.5202 12.3C30.9228 11.74 30.6008 10.9653 30.5542 9.976L30.5402 9.36L30.5542 8.744C30.6008 7.764 30.9275 6.994 31.5342 6.434C32.1408 5.86467 32.9855 5.58 34.0682 5.58C35.1415 5.58 35.9815 5.86467 36.5882 6.434C37.1948 6.994 37.5215 7.764 37.5682 8.744C37.5775 8.856 37.5822 9.06133 37.5822 9.36C37.5822 9.65867 37.5775 9.864 37.5682 9.976C37.5215 10.9653 37.1995 11.74 36.6022 12.3C36.0048 12.86 35.1602 13.14 34.0682 13.14ZM34.0682 11.726C34.5628 11.726 34.9408 11.572 35.2022 11.264C35.4728 10.956 35.6175 10.5033 35.6362 9.906C35.6455 9.81267 35.6502 9.63067 35.6502 9.36C35.6502 9.08933 35.6455 8.90733 35.6362 8.814C35.6175 8.21667 35.4728 7.764 35.2022 7.456C34.9315 7.13867 34.5535 6.98 34.0682 6.98C33.5735 6.98 33.1908 7.13867 32.9202 7.456C32.6495 7.764 32.5048 8.21667 32.4862 8.814L32.4722 9.36L32.4862 9.906C32.5048 10.5033 32.6495 10.956 32.9202 11.264C33.1908 11.572 33.5735 11.726 34.0682 11.726ZM39.469 13C39.3757 13 39.2963 12.9673 39.231 12.902C39.1657 12.8367 39.133 12.7573 39.133 12.664V6.056C39.133 5.95333 39.1657 5.874 39.231 5.818C39.2963 5.75267 39.3757 5.72 39.469 5.72H40.631C40.7337 5.72 40.813 5.75267 40.869 5.818C40.9343 5.874 40.967 5.95333 40.967 6.056V6.63C41.5363 5.93 42.3157 5.58 43.305 5.58C44.1637 5.58 44.845 5.86 45.349 6.42C45.853 6.98 46.105 7.75 46.105 8.73V12.664C46.105 12.7573 46.0723 12.8367 46.007 12.902C45.951 12.9673 45.8717 13 45.769 13H44.509C44.4157 13 44.3363 12.9673 44.271 12.902C44.2057 12.8367 44.173 12.7573 44.173 12.664V8.814C44.173 8.27267 44.0377 7.85267 43.767 7.554C43.5057 7.246 43.1277 7.092 42.633 7.092C42.157 7.092 41.7743 7.246 41.485 7.554C41.1957 7.862 41.051 8.282 41.051 8.814V12.664C41.051 12.7573 41.0183 12.8367 40.953 12.902C40.897 12.9673 40.8177 13 40.715 13H39.469ZM48.233 13C48.1397 13 48.0603 12.9673 47.995 12.902C47.9297 12.8367 47.897 12.7573 47.897 12.664V3.396C47.897 3.29333 47.9297 3.214 47.995 3.158C48.0603 3.09267 48.1397 3.06 48.233 3.06H49.409C49.5117 3.06 49.591 3.09267 49.647 3.158C49.7123 3.214 49.745 3.29333 49.745 3.396V12.664C49.745 12.7573 49.7123 12.8367 49.647 12.902C49.591 12.9673 49.5117 13 49.409 13H48.233ZM51.8817 4.53C51.7884 4.53 51.7091 4.49733 51.6437 4.432C51.5784 4.36667 51.5457 4.28733 51.5457 4.194V3.172C51.5457 3.06933 51.5784 2.98533 51.6437 2.92C51.7091 2.85467 51.7884 2.822 51.8817 2.822H53.1697C53.2724 2.822 53.3564 2.85467 53.4217 2.92C53.4871 2.98533 53.5197 3.06933 53.5197 3.172V4.194C53.5197 4.28733 53.4824 4.36667 53.4077 4.432C53.3424 4.49733 53.2631 4.53 53.1697 4.53H51.8817ZM51.9377 13C51.8444 13 51.7651 12.9673 51.6997 12.902C51.6344 12.8367 51.6017 12.7573 51.6017 12.664V6.056C51.6017 5.95333 51.6344 5.874 51.6997 5.818C51.7651 5.75267 51.8444 5.72 51.9377 5.72H53.1277C53.2211 5.72 53.3004 5.75267 53.3657 5.818C53.4311 5.88333 53.4637 5.96267 53.4637 6.056V12.664C53.4637 12.7573 53.4311 12.8367 53.3657 12.902C53.3004 12.9673 53.2211 13 53.1277 13H51.9377ZM55.6428 13C55.5495 13 55.4701 12.9673 55.4048 12.902C55.3395 12.8367 55.3068 12.7573 55.3068 12.664V6.056C55.3068 5.95333 55.3395 5.874 55.4048 5.818C55.4701 5.75267 55.5495 5.72 55.6428 5.72H56.8048C56.9075 5.72 56.9868 5.75267 57.0428 5.818C57.1081 5.874 57.1408 5.95333 57.1408 6.056V6.63C57.7101 5.93 58.4895 5.58 59.4788 5.58C60.3375 5.58 61.0188 5.86 61.5228 6.42C62.0268 6.98 62.2788 7.75 62.2788 8.73V12.664C62.2788 12.7573 62.2461 12.8367 62.1808 12.902C62.1248 12.9673 62.0455 13 61.9428 13H60.6828C60.5895 13 60.5101 12.9673 60.4448 12.902C60.3795 12.8367 60.3468 12.7573 60.3468 12.664V8.814C60.3468 8.27267 60.2115 7.85267 59.9408 7.554C59.6795 7.246 59.3015 7.092 58.8068 7.092C58.3308 7.092 57.9481 7.246 57.6588 7.554C57.3695 7.862 57.2248 8.282 57.2248 8.814V12.664C57.2248 12.7573 57.1921 12.8367 57.1268 12.902C57.0708 12.9673 56.9915 13 56.8888 13H55.6428ZM67.2068 13.14C66.1615 13.14 65.3308 12.8413 64.7148 12.244C64.1081 11.6467 63.7861 10.7973 63.7488 9.696L63.7348 9.346C63.7348 8.17933 64.0381 7.26 64.6448 6.588C65.2608 5.916 66.1101 5.58 67.1928 5.58C68.3035 5.58 69.1575 5.916 69.7548 6.588C70.3615 7.26 70.6648 8.156 70.6648 9.276V9.57C70.6648 9.66333 70.6321 9.74267 70.5668 9.808C70.5015 9.87333 70.4175 9.906 70.3148 9.906H65.6668V10.018C65.6855 10.5407 65.8255 10.9747 66.0868 11.32C66.3575 11.656 66.7261 11.824 67.1928 11.824C67.7248 11.824 68.1588 11.6093 68.4948 11.18C68.5788 11.0773 68.6441 11.0167 68.6908 10.998C68.7375 10.97 68.8168 10.956 68.9288 10.956H70.1608C70.2448 10.956 70.3148 10.9793 70.3708 11.026C70.4361 11.0727 70.4688 11.138 70.4688 11.222C70.4688 11.446 70.3335 11.712 70.0628 12.02C69.8015 12.3187 69.4235 12.58 68.9288 12.804C68.4341 13.028 67.8601 13.14 67.2068 13.14ZM68.7328 8.716V8.688C68.7328 8.13733 68.5928 7.69867 68.3128 7.372C68.0421 7.036 67.6688 6.868 67.1928 6.868C66.7168 6.868 66.3435 7.036 66.0728 7.372C65.8021 7.69867 65.6668 8.13733 65.6668 8.688V8.716H68.7328ZM77.543 13C77.403 13 77.2956 12.972 77.221 12.916C77.1463 12.8507 77.0856 12.762 77.039 12.65L74.407 6.154C74.3976 6.126 74.393 6.084 74.393 6.028C74.393 5.944 74.421 5.874 74.477 5.818C74.5423 5.75267 74.6123 5.72 74.687 5.72H75.849C76.0356 5.72 76.1616 5.80867 76.227 5.986L78.075 10.872L79.923 5.986C79.9416 5.92067 79.979 5.86 80.035 5.804C80.1003 5.748 80.1843 5.72 80.287 5.72H81.449C81.533 5.72 81.603 5.75267 81.659 5.818C81.715 5.874 81.743 5.944 81.743 6.028C81.743 6.084 81.7383 6.126 81.729 6.154L79.111 12.65C79.0083 12.8833 78.8403 13 78.607 13H77.543ZM85.9939 13.14C84.8926 13.14 84.0433 12.86 83.4459 12.3C82.8486 11.74 82.5266 10.9653 82.4799 9.976L82.4659 9.36L82.4799 8.744C82.5266 7.764 82.8533 6.994 83.4599 6.434C84.0666 5.86467 84.9113 5.58 85.9939 5.58C87.0673 5.58 87.9073 5.86467 88.5139 6.434C89.1206 6.994 89.4473 7.764 89.4939 8.744C89.5033 8.856 89.5079 9.06133 89.5079 9.36C89.5079 9.65867 89.5033 9.864 89.4939 9.976C89.4473 10.9653 89.1253 11.74 88.5279 12.3C87.9306 12.86 87.0859 13.14 85.9939 13.14ZM85.9939 11.726C86.4886 11.726 86.8666 11.572 87.1279 11.264C87.3986 10.956 87.5433 10.5033 87.5619 9.906C87.5713 9.81267 87.5759 9.63067 87.5759 9.36C87.5759 9.08933 87.5713 8.90733 87.5619 8.814C87.5433 8.21667 87.3986 7.764 87.1279 7.456C86.8573 7.13867 86.4793 6.98 85.9939 6.98C85.4993 6.98 85.1166 7.13867 84.8459 7.456C84.5753 7.764 84.4306 8.21667 84.4119 8.814L84.3979 9.36L84.4119 9.906C84.4306 10.5033 84.5753 10.956 84.8459 11.264C85.1166 11.572 85.4993 11.726 85.9939 11.726ZM94.2088 13.14C93.1821 13.14 92.3608 12.8553 91.7448 12.286C91.1381 11.7167 90.8161 10.928 90.7788 9.92L90.7648 9.36L90.7788 8.8C90.8161 7.792 91.1381 7.00333 91.7448 6.434C92.3608 5.86467 93.1821 5.58 94.2088 5.58C94.9461 5.58 95.5668 5.71067 96.0708 5.972C96.5841 6.23333 96.9621 6.55533 97.2048 6.938C97.4568 7.31133 97.5921 7.67067 97.6108 8.016C97.6201 8.10933 97.5874 8.18867 97.5128 8.254C97.4474 8.31933 97.3681 8.352 97.2748 8.352H96.0288C95.9261 8.352 95.8514 8.33333 95.8048 8.296C95.7581 8.24933 95.7114 8.17 95.6648 8.058C95.5248 7.70333 95.3381 7.44667 95.1048 7.288C94.8808 7.12933 94.5914 7.05 94.2368 7.05C93.7608 7.05 93.3874 7.19933 93.1168 7.498C92.8554 7.79667 92.7154 8.254 92.6968 8.87L92.6828 9.388L92.6968 9.85C92.7528 11.0633 93.2661 11.67 94.2368 11.67C94.6008 11.67 94.8948 11.5953 95.1188 11.446C95.3428 11.2873 95.5248 11.026 95.6648 10.662C95.7021 10.5593 95.7441 10.4847 95.7908 10.438C95.8468 10.3913 95.9261 10.368 96.0288 10.368H97.2748C97.3681 10.368 97.4474 10.4007 97.5128 10.466C97.5874 10.5313 97.6201 10.6107 97.6108 10.704C97.5921 11.0307 97.4614 11.3853 97.2188 11.768C96.9761 12.1413 96.6028 12.4633 96.0988 12.734C95.5948 13.0047 94.9648 13.14 94.2088 13.14ZM101.184 13.14C100.708 13.14 100.27 13.0467 99.8685 12.86C99.4765 12.664 99.1638 12.4027 98.9305 12.076C98.7065 11.7493 98.5945 11.39 98.5945 10.998C98.5945 10.3633 98.8512 9.85 99.3645 9.458C99.8778 9.066 100.582 8.8 101.478 8.66L103.396 8.38V8.086C103.396 7.68467 103.294 7.38133 103.088 7.176C102.883 6.97067 102.556 6.868 102.108 6.868C101.8 6.868 101.553 6.924 101.366 7.036C101.18 7.148 101.026 7.26467 100.904 7.386C100.792 7.498 100.718 7.57267 100.68 7.61C100.643 7.722 100.573 7.778 100.47 7.778H99.3785C99.2945 7.778 99.2198 7.75 99.1545 7.694C99.0985 7.638 99.0705 7.56333 99.0705 7.47C99.0798 7.23667 99.1918 6.97533 99.4065 6.686C99.6305 6.38733 99.9712 6.13067 100.428 5.916C100.886 5.692 101.45 5.58 102.122 5.58C103.224 5.58 104.026 5.82733 104.53 6.322C105.034 6.81667 105.286 7.46533 105.286 8.268V12.664C105.286 12.7573 105.254 12.8367 105.188 12.902C105.132 12.9673 105.053 13 104.95 13H103.788C103.695 13 103.616 12.9673 103.55 12.902C103.485 12.8367 103.452 12.7573 103.452 12.664V12.118C103.247 12.4167 102.958 12.664 102.584 12.86C102.211 13.0467 101.744 13.14 101.184 13.14ZM101.66 11.796C102.174 11.796 102.594 11.628 102.92 11.292C103.247 10.956 103.41 10.4707 103.41 9.836V9.556L102.01 9.78C100.937 9.948 100.4 10.3073 100.4 10.858C100.4 11.1567 100.522 11.39 100.764 11.558C101.016 11.7167 101.315 11.796 101.66 11.796ZM111.128 13.14C110.158 13.14 109.416 12.8087 108.902 12.146V12.664C108.902 12.7573 108.87 12.8367 108.804 12.902C108.739 12.9673 108.655 13 108.552 13H107.432C107.339 13 107.26 12.9673 107.194 12.902C107.129 12.8367 107.096 12.7573 107.096 12.664V3.396C107.096 3.29333 107.129 3.214 107.194 3.158C107.26 3.09267 107.339 3.06 107.432 3.06H108.65C108.753 3.06 108.832 3.09267 108.888 3.158C108.954 3.214 108.986 3.29333 108.986 3.396V6.504C109.509 5.888 110.223 5.58 111.128 5.58C112.071 5.58 112.794 5.888 113.298 6.504C113.812 7.11067 114.082 7.90867 114.11 8.898C114.12 9.01 114.124 9.164 114.124 9.36C114.124 9.54667 114.12 9.70067 114.11 9.822C114.073 10.83 113.802 11.6373 113.298 12.244C112.794 12.8413 112.071 13.14 111.128 13.14ZM110.596 11.628C111.595 11.628 112.127 11.012 112.192 9.78C112.202 9.68667 112.206 9.54667 112.206 9.36C112.206 9.17333 112.202 9.03333 112.192 8.94C112.127 7.708 111.595 7.092 110.596 7.092C110.083 7.092 109.691 7.25533 109.42 7.582C109.15 7.90867 109.005 8.30533 108.986 8.772C108.977 8.884 108.972 9.066 108.972 9.318C108.972 9.56067 108.977 9.738 108.986 9.85C109.005 10.3447 109.145 10.7647 109.406 11.11C109.668 11.4553 110.064 11.628 110.596 11.628ZM118.384 13.14C117.525 13.14 116.848 12.86 116.354 12.3C115.859 11.74 115.612 10.97 115.612 9.99V6.056C115.612 5.95333 115.644 5.874 115.71 5.818C115.775 5.75267 115.854 5.72 115.948 5.72H117.208C117.301 5.72 117.38 5.75267 117.446 5.818C117.511 5.88333 117.544 5.96267 117.544 6.056V9.906C117.544 11.054 118.043 11.628 119.042 11.628C119.527 11.628 119.91 11.474 120.19 11.166C120.479 10.858 120.624 10.438 120.624 9.906V6.056C120.624 5.95333 120.656 5.874 120.722 5.818C120.787 5.75267 120.866 5.72 120.96 5.72H122.206C122.308 5.72 122.388 5.75267 122.444 5.818C122.509 5.874 122.542 5.95333 122.542 6.056V12.664C122.542 12.7573 122.509 12.8367 122.444 12.902C122.388 12.9673 122.308 13 122.206 13H121.044C120.95 13 120.871 12.9673 120.806 12.902C120.74 12.8367 120.708 12.7573 120.708 12.664V12.09C120.194 12.79 119.42 13.14 118.384 13.14ZM124.741 13C124.647 13 124.568 12.9673 124.503 12.902C124.437 12.8367 124.405 12.7573 124.405 12.664V3.396C124.405 3.29333 124.437 3.214 124.503 3.158C124.568 3.09267 124.647 3.06 124.741 3.06H125.917C126.019 3.06 126.099 3.09267 126.155 3.158C126.22 3.214 126.253 3.29333 126.253 3.396V12.664C126.253 12.7573 126.22 12.8367 126.155 12.902C126.099 12.9673 126.019 13 125.917 13H124.741ZM130.224 13.14C129.748 13.14 129.309 13.0467 128.908 12.86C128.516 12.664 128.203 12.4027 127.97 12.076C127.746 11.7493 127.634 11.39 127.634 10.998C127.634 10.3633 127.89 9.85 128.404 9.458C128.917 9.066 129.622 8.8 130.518 8.66L132.436 8.38V8.086C132.436 7.68467 132.333 7.38133 132.128 7.176C131.922 6.97067 131.596 6.868 131.148 6.868C130.84 6.868 130.592 6.924 130.406 7.036C130.219 7.148 130.065 7.26467 129.944 7.386C129.832 7.498 129.757 7.57267 129.72 7.61C129.682 7.722 129.612 7.778 129.51 7.778H128.418C128.334 7.778 128.259 7.75 128.194 7.694C128.138 7.638 128.11 7.56333 128.11 7.47C128.119 7.23667 128.231 6.97533 128.446 6.686C128.67 6.38733 129.01 6.13067 129.468 5.916C129.925 5.692 130.49 5.58 131.162 5.58C132.263 5.58 133.066 5.82733 133.57 6.322C134.074 6.81667 134.326 7.46533 134.326 8.268V12.664C134.326 12.7573 134.293 12.8367 134.228 12.902C134.172 12.9673 134.092 13 133.99 13H132.828C132.734 13 132.655 12.9673 132.59 12.902C132.524 12.8367 132.492 12.7573 132.492 12.664V12.118C132.286 12.4167 131.997 12.664 131.624 12.86C131.25 13.0467 130.784 13.14 130.224 13.14ZM130.7 11.796C131.213 11.796 131.633 11.628 131.96 11.292C132.286 10.956 132.45 10.4707 132.45 9.836V9.556L131.05 9.78C129.976 9.948 129.44 10.3073 129.44 10.858C129.44 11.1567 129.561 11.39 129.804 11.558C130.056 11.7167 130.354 11.796 130.7 11.796ZM136.457 13C136.364 13 136.285 12.9673 136.219 12.902C136.154 12.8367 136.121 12.7573 136.121 12.664V6.07C136.121 5.96733 136.154 5.88333 136.219 5.818C136.285 5.75267 136.364 5.72 136.457 5.72H137.605C137.708 5.72 137.792 5.75267 137.857 5.818C137.923 5.88333 137.955 5.96733 137.955 6.07V6.644C138.422 6.028 139.094 5.72 139.971 5.72H140.559C140.662 5.72 140.741 5.75267 140.797 5.818C140.863 5.874 140.895 5.95333 140.895 6.056V7.078C140.895 7.17133 140.863 7.25067 140.797 7.316C140.741 7.38133 140.662 7.414 140.559 7.414H139.453C139.015 7.414 138.669 7.54 138.417 7.792C138.165 8.044 138.039 8.38933 138.039 8.828V12.664C138.039 12.7573 138.007 12.8367 137.941 12.902C137.876 12.9673 137.797 13 137.703 13H136.457ZM143.303 15.66C143.228 15.66 143.158 15.632 143.093 15.576C143.037 15.52 143.009 15.4547 143.009 15.38C143.009 15.3147 143.027 15.24 143.065 15.156L144.171 12.566L141.483 6.224C141.445 6.14 141.427 6.07467 141.427 6.028C141.436 5.944 141.469 5.874 141.524 5.818C141.581 5.75267 141.651 5.72 141.735 5.72H142.897C143.065 5.72 143.186 5.80867 143.261 5.986L145.123 10.55L147.013 5.986C147.106 5.80867 147.237 5.72 147.405 5.72H148.539C148.623 5.72 148.693 5.748 148.749 5.804C148.805 5.86 148.833 5.92533 148.833 6C148.833 6.06533 148.814 6.14 148.776 6.224L144.815 15.394C144.74 15.5713 144.609 15.66 144.423 15.66H143.303ZM16.3134 30C16.08 30 15.926 29.8833 15.8514 29.65L13.8494 23.154C13.84 23.126 13.8354 23.084 13.8354 23.028C13.8354 22.944 13.8634 22.874 13.9194 22.818C13.9754 22.7527 14.0454 22.72 14.1294 22.72H15.1934C15.2867 22.72 15.366 22.748 15.4314 22.804C15.506 22.86 15.5527 22.9207 15.5714 22.986L16.9294 27.592L18.3714 23.028C18.3994 22.944 18.446 22.874 18.5114 22.818C18.586 22.7527 18.6794 22.72 18.7914 22.72H19.5054C19.6174 22.72 19.706 22.7527 19.7714 22.818C19.846 22.874 19.8927 22.944 19.9114 23.028L21.3674 27.592L22.7254 22.986C22.744 22.9207 22.786 22.86 22.8514 22.804C22.9167 22.748 23.0007 22.72 23.1034 22.72H24.1534C24.2374 22.72 24.3074 22.7527 24.3634 22.818C24.4287 22.874 24.4614 22.944 24.4614 23.028L24.4334 23.154L22.4314 29.65C22.394 29.762 22.338 29.8507 22.2634 29.916C22.198 29.972 22.1047 30 21.9834 30H21.0594C20.8167 30 20.6627 29.8833 20.5974 29.65L19.1554 25.254L17.6994 29.65C17.6247 29.8833 17.466 30 17.2234 30H16.3134ZM28.8523 30.14C27.751 30.14 26.9017 29.86 26.3043 29.3C25.707 28.74 25.385 27.9653 25.3383 26.976L25.3243 26.36L25.3383 25.744C25.385 24.764 25.7117 23.994 26.3183 23.434C26.925 22.8647 27.7697 22.58 28.8523 22.58C29.9257 22.58 30.7657 22.8647 31.3723 23.434C31.979 23.994 32.3057 24.764 32.3523 25.744C32.3617 25.856 32.3663 26.0613 32.3663 26.36C32.3663 26.6587 32.3617 26.864 32.3523 26.976C32.3057 27.9653 31.9837 28.74 31.3863 29.3C30.789 29.86 29.9443 30.14 28.8523 30.14ZM28.8523 28.726C29.347 28.726 29.725 28.572 29.9863 28.264C30.257 27.956 30.4017 27.5033 30.4203 26.906C30.4297 26.8127 30.4343 26.6307 30.4343 26.36C30.4343 26.0893 30.4297 25.9073 30.4203 25.814C30.4017 25.2167 30.257 24.764 29.9863 24.456C29.7157 24.1387 29.3377 23.98 28.8523 23.98C28.3577 23.98 27.975 24.1387 27.7043 24.456C27.4337 24.764 27.289 25.2167 27.2703 25.814L27.2563 26.36L27.2703 26.906C27.289 27.5033 27.4337 27.956 27.7043 28.264C27.975 28.572 28.3577 28.726 28.8523 28.726ZM34.2532 30C34.1598 30 34.0805 29.9673 34.0152 29.902C33.9498 29.8367 33.9172 29.7573 33.9172 29.664V23.07C33.9172 22.9673 33.9498 22.8833 34.0152 22.818C34.0805 22.7527 34.1598 22.72 34.2532 22.72H35.4012C35.5038 22.72 35.5878 22.7527 35.6532 22.818C35.7185 22.8833 35.7512 22.9673 35.7512 23.07V23.644C36.2178 23.028 36.8898 22.72 37.7672 22.72H38.3552C38.4578 22.72 38.5372 22.7527 38.5932 22.818C38.6585 22.874 38.6912 22.9533 38.6912 23.056V24.078C38.6912 24.1713 38.6585 24.2507 38.5932 24.316C38.5372 24.3813 38.4578 24.414 38.3552 24.414H37.2492C36.8105 24.414 36.4652 24.54 36.2132 24.792C35.9612 25.044 35.8352 25.3893 35.8352 25.828V29.664C35.8352 29.7573 35.8025 29.8367 35.7372 29.902C35.6718 29.9673 35.5925 30 35.4992 30H34.2532ZM40.1324 30C40.0391 30 39.9597 29.9673 39.8944 29.902C39.8291 29.8367 39.7964 29.7573 39.7964 29.664V20.396C39.7964 20.2933 39.8291 20.214 39.8944 20.158C39.9597 20.0927 40.0391 20.06 40.1324 20.06H41.2944C41.3877 20.06 41.4671 20.0927 41.5324 20.158C41.5977 20.2233 41.6304 20.3027 41.6304 20.396V25.184L43.9544 22.958C43.9824 22.9393 44.0244 22.9067 44.0804 22.86C44.1457 22.804 44.2064 22.7667 44.2624 22.748C44.3184 22.7293 44.3884 22.72 44.4724 22.72H45.8024C45.8957 22.72 45.9704 22.748 46.0264 22.804C46.0824 22.86 46.1104 22.9347 46.1104 23.028C46.1104 23.112 46.0637 23.196 45.9704 23.28L43.1144 25.982L46.3204 29.454C46.4044 29.538 46.4464 29.6173 46.4464 29.692C46.4464 29.7853 46.4184 29.86 46.3624 29.916C46.3064 29.972 46.2364 30 46.1524 30H44.7944C44.6637 30 44.5657 29.986 44.5004 29.958C44.4444 29.9207 44.3697 29.8553 44.2764 29.762L41.6304 26.948V29.664C41.6304 29.7573 41.5977 29.8367 41.5324 29.902C41.4671 29.9673 41.3877 30 41.2944 30H40.1324ZM51.553 30.14C50.5823 30.14 49.8403 29.8087 49.327 29.146V29.664C49.327 29.7573 49.2943 29.8367 49.229 29.902C49.1637 29.9673 49.0797 30 48.977 30H47.857C47.7637 30 47.6843 29.9673 47.619 29.902C47.5537 29.8367 47.521 29.7573 47.521 29.664V20.396C47.521 20.2933 47.5537 20.214 47.619 20.158C47.6843 20.0927 47.7637 20.06 47.857 20.06H49.075C49.1777 20.06 49.257 20.0927 49.313 20.158C49.3783 20.214 49.411 20.2933 49.411 20.396V23.504C49.9337 22.888 50.6477 22.58 51.553 22.58C52.4957 22.58 53.219 22.888 53.723 23.504C54.2363 24.1107 54.507 24.9087 54.535 25.898C54.5443 26.01 54.549 26.164 54.549 26.36C54.549 26.5467 54.5443 26.7007 54.535 26.822C54.4977 27.83 54.227 28.6373 53.723 29.244C53.219 29.8413 52.4957 30.14 51.553 30.14ZM51.021 28.628C52.0197 28.628 52.5517 28.012 52.617 26.78C52.6263 26.6867 52.631 26.5467 52.631 26.36C52.631 26.1733 52.6263 26.0333 52.617 25.94C52.5517 24.708 52.0197 24.092 51.021 24.092C50.5077 24.092 50.1157 24.2553 49.845 24.582C49.5743 24.9087 49.4297 25.3053 49.411 25.772C49.4017 25.884 49.397 26.066 49.397 26.318C49.397 26.5607 49.4017 26.738 49.411 26.85C49.4297 27.3447 49.5697 27.7647 49.831 28.11C50.0923 28.4553 50.489 28.628 51.021 28.628ZM59.3406 30.14C58.2393 30.14 57.39 29.86 56.7926 29.3C56.1953 28.74 55.8733 27.9653 55.8266 26.976L55.8126 26.36L55.8266 25.744C55.8733 24.764 56.2 23.994 56.8066 23.434C57.4133 22.8647 58.258 22.58 59.3406 22.58C60.414 22.58 61.254 22.8647 61.8606 23.434C62.4673 23.994 62.794 24.764 62.8406 25.744C62.85 25.856 62.8546 26.0613 62.8546 26.36C62.8546 26.6587 62.85 26.864 62.8406 26.976C62.794 27.9653 62.472 28.74 61.8746 29.3C61.2773 29.86 60.4326 30.14 59.3406 30.14ZM59.3406 28.726C59.8353 28.726 60.2133 28.572 60.4746 28.264C60.7453 27.956 60.89 27.5033 60.9086 26.906C60.918 26.8127 60.9226 26.6307 60.9226 26.36C60.9226 26.0893 60.918 25.9073 60.9086 25.814C60.89 25.2167 60.7453 24.764 60.4746 24.456C60.204 24.1387 59.826 23.98 59.3406 23.98C58.846 23.98 58.4633 24.1387 58.1926 24.456C57.922 24.764 57.7773 25.2167 57.7586 25.814L57.7446 26.36L57.7586 26.906C57.7773 27.5033 57.922 27.956 58.1926 28.264C58.4633 28.572 58.846 28.726 59.3406 28.726ZM67.6394 30.14C66.5381 30.14 65.6888 29.86 65.0914 29.3C64.4941 28.74 64.1721 27.9653 64.1254 26.976L64.1114 26.36L64.1254 25.744C64.1721 24.764 64.4988 23.994 65.1054 23.434C65.7121 22.8647 66.5568 22.58 67.6394 22.58C68.7128 22.58 69.5528 22.8647 70.1594 23.434C70.7661 23.994 71.0928 24.764 71.1394 25.744C71.1488 25.856 71.1534 26.0613 71.1534 26.36C71.1534 26.6587 71.1488 26.864 71.1394 26.976C71.0928 27.9653 70.7708 28.74 70.1734 29.3C69.5761 29.86 68.7314 30.14 67.6394 30.14ZM67.6394 28.726C68.1341 28.726 68.5121 28.572 68.7734 28.264C69.0441 27.956 69.1888 27.5033 69.2074 26.906C69.2168 26.8127 69.2214 26.6307 69.2214 26.36C69.2214 26.0893 69.2168 25.9073 69.2074 25.814C69.1888 25.2167 69.0441 24.764 68.7734 24.456C68.5028 24.1387 68.1248 23.98 67.6394 23.98C67.1448 23.98 66.7621 24.1387 66.4914 24.456C66.2208 24.764 66.0761 25.2167 66.0574 25.814L66.0434 26.36L66.0574 26.906C66.0761 27.5033 66.2208 27.956 66.4914 28.264C66.7621 28.572 67.1448 28.726 67.6394 28.726ZM73.0543 30C72.9609 30 72.8816 29.9673 72.8163 29.902C72.7509 29.8367 72.7183 29.7573 72.7183 29.664V20.396C72.7183 20.2933 72.7509 20.214 72.8163 20.158C72.8816 20.0927 72.9609 20.06 73.0543 20.06H74.2163C74.3096 20.06 74.3889 20.0927 74.4543 20.158C74.5196 20.2233 74.5523 20.3027 74.5523 20.396V25.184L76.8763 22.958C76.9043 22.9393 76.9463 22.9067 77.0023 22.86C77.0676 22.804 77.1283 22.7667 77.1843 22.748C77.2403 22.7293 77.3103 22.72 77.3943 22.72H78.7243C78.8176 22.72 78.8923 22.748 78.9483 22.804C79.0043 22.86 79.0323 22.9347 79.0323 23.028C79.0323 23.112 78.9856 23.196 78.8923 23.28L76.0363 25.982L79.2423 29.454C79.3263 29.538 79.3683 29.6173 79.3683 29.692C79.3683 29.7853 79.3403 29.86 79.2843 29.916C79.2283 29.972 79.1583 30 79.0743 30H77.7163C77.5856 30 77.4876 29.986 77.4223 29.958C77.3663 29.9207 77.2916 29.8553 77.1983 29.762L74.5523 26.948V29.664C74.5523 29.7573 74.5196 29.8367 74.4543 29.902C74.3889 29.9673 74.3096 30 74.2163 30H73.0543ZM87.5647 30.14C86.5941 30.14 85.8521 29.8087 85.3387 29.146V29.664C85.3387 29.7573 85.3061 29.8367 85.2407 29.902C85.1754 29.9673 85.0914 30 84.9887 30H83.8687C83.7754 30 83.6961 29.9673 83.6307 29.902C83.5654 29.8367 83.5327 29.7573 83.5327 29.664V20.396C83.5327 20.2933 83.5654 20.214 83.6307 20.158C83.6961 20.0927 83.7754 20.06 83.8687 20.06H85.0867C85.1894 20.06 85.2687 20.0927 85.3247 20.158C85.3901 20.214 85.4227 20.2933 85.4227 20.396V23.504C85.9454 22.888 86.6594 22.58 87.5647 22.58C88.5074 22.58 89.2307 22.888 89.7347 23.504C90.2481 24.1107 90.5187 24.9087 90.5467 25.898C90.5561 26.01 90.5607 26.164 90.5607 26.36C90.5607 26.5467 90.5561 26.7007 90.5467 26.822C90.5094 27.83 90.2387 28.6373 89.7347 29.244C89.2307 29.8413 88.5074 30.14 87.5647 30.14ZM87.0327 28.628C88.0314 28.628 88.5634 28.012 88.6287 26.78C88.6381 26.6867 88.6427 26.5467 88.6427 26.36C88.6427 26.1733 88.6381 26.0333 88.6287 25.94C88.5634 24.708 88.0314 24.092 87.0327 24.092C86.5194 24.092 86.1274 24.2553 85.8567 24.582C85.5861 24.9087 85.4414 25.3053 85.4227 25.772C85.4134 25.884 85.4087 26.066 85.4087 26.318C85.4087 26.5607 85.4134 26.738 85.4227 26.85C85.4414 27.3447 85.5814 27.7647 85.8427 28.11C86.1041 28.4553 86.5007 28.628 87.0327 28.628ZM94.2323 30.14C93.7563 30.14 93.3177 30.0467 92.9163 29.86C92.5243 29.664 92.2117 29.4027 91.9783 29.076C91.7543 28.7493 91.6423 28.39 91.6423 27.998C91.6423 27.3633 91.899 26.85 92.4123 26.458C92.9257 26.066 93.6303 25.8 94.5263 25.66L96.4443 25.38V25.086C96.4443 24.6847 96.3417 24.3813 96.1363 24.176C95.931 23.9707 95.6043 23.868 95.1563 23.868C94.8483 23.868 94.601 23.924 94.4143 24.036C94.2277 24.148 94.0737 24.2647 93.9523 24.386C93.8403 24.498 93.7657 24.5727 93.7283 24.61C93.691 24.722 93.621 24.778 93.5183 24.778H92.4263C92.3423 24.778 92.2677 24.75 92.2023 24.694C92.1463 24.638 92.1183 24.5633 92.1183 24.47C92.1277 24.2367 92.2397 23.9753 92.4543 23.686C92.6783 23.3873 93.019 23.1307 93.4763 22.916C93.9337 22.692 94.4983 22.58 95.1703 22.58C96.2717 22.58 97.0743 22.8273 97.5783 23.322C98.0823 23.8167 98.3343 24.4653 98.3343 25.268V29.664C98.3343 29.7573 98.3017 29.8367 98.2363 29.902C98.1803 29.9673 98.101 30 97.9983 30H96.8363C96.743 30 96.6637 29.9673 96.5983 29.902C96.533 29.8367 96.5003 29.7573 96.5003 29.664V29.118C96.295 29.4167 96.0057 29.664 95.6323 29.86C95.259 30.0467 94.7923 30.14 94.2323 30.14ZM94.7083 28.796C95.2217 28.796 95.6417 28.628 95.9683 28.292C96.295 27.956 96.4583 27.4707 96.4583 26.836V26.556L95.0583 26.78C93.985 26.948 93.4483 27.3073 93.4483 27.858C93.4483 28.1567 93.5697 28.39 93.8123 28.558C94.0643 28.7167 94.363 28.796 94.7083 28.796ZM102.902 30.14C102.193 30.14 101.6 30.0327 101.124 29.818C100.648 29.6033 100.293 29.356 100.06 29.076C99.8361 28.7867 99.7241 28.5393 99.7241 28.334C99.7241 28.2407 99.7521 28.166 99.8081 28.11C99.8734 28.054 99.9481 28.026 100.032 28.026H101.18C101.255 28.026 101.32 28.0633 101.376 28.138C101.423 28.1753 101.525 28.264 101.684 28.404C101.852 28.544 102.039 28.656 102.244 28.74C102.459 28.8147 102.692 28.852 102.944 28.852C103.317 28.852 103.621 28.782 103.854 28.642C104.087 28.4927 104.204 28.2827 104.204 28.012C104.204 27.8253 104.148 27.676 104.036 27.564C103.933 27.4427 103.742 27.3353 103.462 27.242C103.191 27.1393 102.781 27.0273 102.23 26.906C101.437 26.738 100.849 26.4813 100.466 26.136C100.093 25.7907 99.9061 25.3333 99.9061 24.764C99.9061 24.3907 100.018 24.0407 100.242 23.714C100.466 23.378 100.797 23.1073 101.236 22.902C101.684 22.6873 102.216 22.58 102.832 22.58C103.467 22.58 104.013 22.6827 104.47 22.888C104.927 23.084 105.273 23.322 105.506 23.602C105.749 23.882 105.87 24.1293 105.87 24.344C105.87 24.428 105.837 24.5027 105.772 24.568C105.716 24.624 105.646 24.652 105.562 24.652H104.512C104.409 24.652 104.33 24.6147 104.274 24.54C104.209 24.4933 104.101 24.4093 103.952 24.288C103.812 24.1573 103.653 24.0547 103.476 23.98C103.299 23.9053 103.084 23.868 102.832 23.868C102.487 23.868 102.221 23.9427 102.034 24.092C101.847 24.2413 101.754 24.4373 101.754 24.68C101.754 24.848 101.796 24.988 101.88 25.1C101.973 25.212 102.155 25.3193 102.426 25.422C102.697 25.5153 103.103 25.6133 103.644 25.716C105.324 26.0427 106.164 26.7753 106.164 27.914C106.164 28.5767 105.875 29.1133 105.296 29.524C104.727 29.9347 103.929 30.14 102.902 30.14ZM110.745 30.14C109.7 30.14 108.869 29.8413 108.253 29.244C107.646 28.6467 107.324 27.7973 107.287 26.696L107.273 26.346C107.273 25.1793 107.576 24.26 108.183 23.588C108.799 22.916 109.648 22.58 110.731 22.58C111.842 22.58 112.696 22.916 113.293 23.588C113.9 24.26 114.203 25.156 114.203 26.276V26.57C114.203 26.6633 114.17 26.7427 114.105 26.808C114.04 26.8733 113.956 26.906 113.853 26.906H109.205V27.018C109.224 27.5407 109.364 27.9747 109.625 28.32C109.896 28.656 110.264 28.824 110.731 28.824C111.263 28.824 111.697 28.6093 112.033 28.18C112.117 28.0773 112.182 28.0167 112.229 27.998C112.276 27.97 112.355 27.956 112.467 27.956H113.699C113.783 27.956 113.853 27.9793 113.909 28.026C113.974 28.0727 114.007 28.138 114.007 28.222C114.007 28.446 113.872 28.712 113.601 29.02C113.34 29.3187 112.962 29.58 112.467 29.804C111.972 30.028 111.398 30.14 110.745 30.14ZM112.271 25.716V25.688C112.271 25.1373 112.131 24.6987 111.851 24.372C111.58 24.036 111.207 23.868 110.731 23.868C110.255 23.868 109.882 24.036 109.611 24.372C109.34 24.6987 109.205 25.1373 109.205 25.688V25.716H112.271ZM118.391 30.14C117.448 30.14 116.725 29.8413 116.221 29.244C115.717 28.6373 115.441 27.83 115.395 26.822L115.381 26.36L115.395 25.898C115.432 24.9087 115.703 24.1107 116.207 23.504C116.72 22.888 117.448 22.58 118.391 22.58C119.287 22.58 120.001 22.888 120.533 23.504V20.396C120.533 20.2933 120.565 20.214 120.631 20.158C120.696 20.0927 120.775 20.06 120.869 20.06H122.087C122.189 20.06 122.269 20.0927 122.325 20.158C122.39 20.214 122.423 20.2933 122.423 20.396V29.664C122.423 29.7573 122.39 29.8367 122.325 29.902C122.269 29.9673 122.189 30 122.087 30H120.953C120.859 30 120.78 29.9673 120.715 29.902C120.649 29.8367 120.617 29.7573 120.617 29.664V29.146C120.103 29.8087 119.361 30.14 118.391 30.14ZM118.923 28.628C119.455 28.628 119.847 28.46 120.099 28.124C120.36 27.7787 120.505 27.354 120.533 26.85C120.542 26.738 120.547 26.5607 120.547 26.318C120.547 26.066 120.542 25.884 120.533 25.772C120.514 25.3053 120.369 24.9087 120.099 24.582C119.828 24.2553 119.436 24.092 118.923 24.092C117.924 24.092 117.392 24.708 117.327 25.94L117.313 26.36L117.327 26.78C117.392 28.012 117.924 28.628 118.923 28.628ZM130.708 30.14C129.606 30.14 128.757 29.86 128.16 29.3C127.562 28.74 127.24 27.9653 127.194 26.976L127.18 26.36L127.194 25.744C127.24 24.764 127.567 23.994 128.174 23.434C128.78 22.8647 129.625 22.58 130.708 22.58C131.781 22.58 132.621 22.8647 133.228 23.434C133.834 23.994 134.161 24.764 134.208 25.744C134.217 25.856 134.222 26.0613 134.222 26.36C134.222 26.6587 134.217 26.864 134.208 26.976C134.161 27.9653 133.839 28.74 133.242 29.3C132.644 29.86 131.8 30.14 130.708 30.14ZM130.708 28.726C131.202 28.726 131.58 28.572 131.842 28.264C132.112 27.956 132.257 27.5033 132.276 26.906C132.285 26.8127 132.29 26.6307 132.29 26.36C132.29 26.0893 132.285 25.9073 132.276 25.814C132.257 25.2167 132.112 24.764 131.842 24.456C131.571 24.1387 131.193 23.98 130.708 23.98C130.213 23.98 129.83 24.1387 129.56 24.456C129.289 24.764 129.144 25.2167 129.126 25.814L129.112 26.36L129.126 26.906C129.144 27.5033 129.289 27.956 129.56 28.264C129.83 28.572 130.213 28.726 130.708 28.726ZM136.109 30C136.015 30 135.936 29.9673 135.871 29.902C135.805 29.8367 135.773 29.7573 135.773 29.664V23.056C135.773 22.9533 135.805 22.874 135.871 22.818C135.936 22.7527 136.015 22.72 136.109 22.72H137.271C137.373 22.72 137.453 22.7527 137.509 22.818C137.574 22.874 137.607 22.9533 137.607 23.056V23.63C138.176 22.93 138.955 22.58 139.945 22.58C140.803 22.58 141.485 22.86 141.989 23.42C142.493 23.98 142.745 24.75 142.745 25.73V29.664C142.745 29.7573 142.712 29.8367 142.647 29.902C142.591 29.9673 142.511 30 142.409 30H141.149C141.055 30 140.976 29.9673 140.911 29.902C140.845 29.8367 140.813 29.7573 140.813 29.664V25.814C140.813 25.2727 140.677 24.8527 140.407 24.554C140.145 24.246 139.767 24.092 139.273 24.092C138.797 24.092 138.414 24.246 138.125 24.554C137.835 24.862 137.691 25.282 137.691 25.814V29.664C137.691 29.7573 137.658 29.8367 137.593 29.902C137.537 29.9673 137.457 30 137.355 30H136.109ZM32.9888 46C32.8955 46 32.8162 45.9673 32.7508 45.902C32.6855 45.8367 32.6528 45.7573 32.6528 45.664V36.396C32.6528 36.2933 32.6855 36.214 32.7508 36.158C32.8162 36.0927 32.8955 36.06 32.9888 36.06H34.2628C34.3655 36.06 34.4448 36.0927 34.5008 36.158C34.5662 36.214 34.5988 36.2933 34.5988 36.396V39.588C35.1588 38.916 35.9102 38.58 36.8528 38.58C37.7115 38.58 38.3975 38.8647 38.9108 39.434C39.4242 39.994 39.6808 40.7593 39.6808 41.73V45.664C39.6808 45.7573 39.6482 45.8367 39.5828 45.902C39.5268 45.9673 39.4475 46 39.3448 46H38.0708C37.9682 46 37.8842 45.9673 37.8188 45.902C37.7535 45.8367 37.7208 45.7573 37.7208 45.664V41.814C37.7208 41.2727 37.5855 40.8527 37.3148 40.554C37.0535 40.246 36.6755 40.092 36.1808 40.092C35.7048 40.092 35.3222 40.246 35.0328 40.554C34.7435 40.862 34.5988 41.282 34.5988 41.814V45.664C34.5988 45.7573 34.5662 45.8367 34.5008 45.902C34.4448 45.9673 34.3655 46 34.2628 46H32.9888ZM41.7372 37.53C41.6439 37.53 41.5645 37.4973 41.4992 37.432C41.4339 37.3667 41.4012 37.2873 41.4012 37.194V36.172C41.4012 36.0693 41.4339 35.9853 41.4992 35.92C41.5645 35.8547 41.6439 35.822 41.7372 35.822H43.0252C43.1279 35.822 43.2119 35.8547 43.2772 35.92C43.3425 35.9853 43.3752 36.0693 43.3752 36.172V37.194C43.3752 37.2873 43.3379 37.3667 43.2632 37.432C43.1979 37.4973 43.1185 37.53 43.0252 37.53H41.7372ZM41.7932 46C41.6999 46 41.6205 45.9673 41.5552 45.902C41.4899 45.8367 41.4572 45.7573 41.4572 45.664V39.056C41.4572 38.9533 41.4899 38.874 41.5552 38.818C41.6205 38.7527 41.6999 38.72 41.7932 38.72H42.9832C43.0765 38.72 43.1559 38.7527 43.2212 38.818C43.2865 38.8833 43.3192 38.9627 43.3192 39.056V45.664C43.3192 45.7573 43.2865 45.8367 43.2212 45.902C43.1559 45.9673 43.0765 46 42.9832 46H41.7932ZM45.5123 48.66C45.4189 48.66 45.3396 48.6273 45.2743 48.562C45.2089 48.506 45.1763 48.4267 45.1763 48.324V39.056C45.1763 38.9533 45.2089 38.874 45.2743 38.818C45.3396 38.7527 45.4189 38.72 45.5123 38.72H46.6323C46.7349 38.72 46.8189 38.7527 46.8843 38.818C46.9496 38.8833 46.9823 38.9627 46.9823 39.056V39.616C47.4769 38.9253 48.2189 38.58 49.2083 38.58C50.1509 38.58 50.8743 38.8787 51.3783 39.476C51.8823 40.064 52.1529 40.8573 52.1903 41.856C52.1996 41.968 52.2043 42.136 52.2043 42.36C52.2043 42.584 52.1996 42.752 52.1903 42.864C52.1623 43.844 51.8916 44.6373 51.3783 45.244C50.8743 45.8413 50.1509 46.14 49.2083 46.14C48.2749 46.14 47.5609 45.8087 47.0663 45.146V48.324C47.0663 48.4267 47.0336 48.506 46.9683 48.562C46.9123 48.6273 46.8329 48.66 46.7303 48.66H45.5123ZM48.6763 44.628C49.6749 44.628 50.2069 44.012 50.2723 42.78C50.2816 42.6867 50.2863 42.5467 50.2863 42.36C50.2863 42.1733 50.2816 42.0333 50.2723 41.94C50.2069 40.708 49.6749 40.092 48.6763 40.092C48.1443 40.092 47.7476 40.2647 47.4863 40.61C47.2249 40.9553 47.0849 41.3753 47.0663 41.87C47.0569 41.982 47.0523 42.1593 47.0523 42.402C47.0523 42.6447 47.0569 42.8267 47.0663 42.948C47.0849 43.4147 47.2296 43.8113 47.5003 44.138C47.7709 44.4647 48.1629 44.628 48.6763 44.628ZM54.0419 42.612C53.9486 42.612 53.8692 42.5793 53.8039 42.514C53.7386 42.4487 53.7059 42.3693 53.7059 42.276V41.324C53.7059 41.2307 53.7386 41.1513 53.8039 41.086C53.8692 41.0207 53.9486 40.988 54.0419 40.988H58.3539C58.4566 40.988 58.5359 41.0207 58.5919 41.086C58.6572 41.142 58.6899 41.2213 58.6899 41.324V42.276C58.6899 42.3693 58.6572 42.4487 58.5919 42.514C58.5266 42.5793 58.4472 42.612 58.3539 42.612H54.0419ZM60.8385 46C60.7451 46 60.6658 45.9673 60.6005 45.902C60.5351 45.8367 60.5025 45.7573 60.5025 45.664V36.396C60.5025 36.2933 60.5351 36.214 60.6005 36.158C60.6658 36.0927 60.7451 36.06 60.8385 36.06H62.1125C62.2151 36.06 62.2945 36.0927 62.3505 36.158C62.4158 36.214 62.4485 36.2933 62.4485 36.396V39.588C63.0085 38.916 63.7598 38.58 64.7025 38.58C65.5611 38.58 66.2471 38.8647 66.7605 39.434C67.2738 39.994 67.5305 40.7593 67.5305 41.73V45.664C67.5305 45.7573 67.4978 45.8367 67.4325 45.902C67.3765 45.9673 67.2971 46 67.1945 46H65.9205C65.8178 46 65.7338 45.9673 65.6685 45.902C65.6031 45.8367 65.5705 45.7573 65.5705 45.664V41.814C65.5705 41.2727 65.4351 40.8527 65.1645 40.554C64.9031 40.246 64.5251 40.092 64.0305 40.092C63.5545 40.092 63.1718 40.246 62.8825 40.554C62.5931 40.862 62.4485 41.282 62.4485 41.814V45.664C62.4485 45.7573 62.4158 45.8367 62.3505 45.902C62.2945 45.9673 62.2151 46 62.1125 46H60.8385ZM72.5408 46.14C71.4395 46.14 70.5901 45.86 69.9928 45.3C69.3955 44.74 69.0735 43.9653 69.0268 42.976L69.0128 42.36L69.0268 41.744C69.0735 40.764 69.4001 39.994 70.0068 39.434C70.6135 38.8647 71.4581 38.58 72.5408 38.58C73.6141 38.58 74.4541 38.8647 75.0608 39.434C75.6675 39.994 75.9941 40.764 76.0408 41.744C76.0501 41.856 76.0548 42.0613 76.0548 42.36C76.0548 42.6587 76.0501 42.864 76.0408 42.976C75.9941 43.9653 75.6721 44.74 75.0748 45.3C74.4775 45.86 73.6328 46.14 72.5408 46.14ZM72.5408 44.726C73.0355 44.726 73.4135 44.572 73.6748 44.264C73.9455 43.956 74.0901 43.5033 74.1088 42.906C74.1181 42.8127 74.1228 42.6307 74.1228 42.36C74.1228 42.0893 74.1181 41.9073 74.1088 41.814C74.0901 41.2167 73.9455 40.764 73.6748 40.456C73.4041 40.1387 73.0261 39.98 72.5408 39.98C72.0461 39.98 71.6635 40.1387 71.3928 40.456C71.1221 40.764 70.9775 41.2167 70.9588 41.814L70.9448 42.36L70.9588 42.906C70.9775 43.5033 71.1221 43.956 71.3928 44.264C71.6635 44.572 72.0461 44.726 72.5408 44.726ZM77.9556 48.66C77.8623 48.66 77.783 48.6273 77.7176 48.562C77.6523 48.506 77.6196 48.4267 77.6196 48.324V39.056C77.6196 38.9533 77.6523 38.874 77.7176 38.818C77.783 38.7527 77.8623 38.72 77.9556 38.72H79.0756C79.1783 38.72 79.2623 38.7527 79.3276 38.818C79.393 38.8833 79.4256 38.9627 79.4256 39.056V39.616C79.9203 38.9253 80.6623 38.58 81.6516 38.58C82.5943 38.58 83.3176 38.8787 83.8216 39.476C84.3256 40.064 84.5963 40.8573 84.6336 41.856C84.643 41.968 84.6476 42.136 84.6476 42.36C84.6476 42.584 84.643 42.752 84.6336 42.864C84.6056 43.844 84.335 44.6373 83.8216 45.244C83.3176 45.8413 82.5943 46.14 81.6516 46.14C80.7183 46.14 80.0043 45.8087 79.5096 45.146V48.324C79.5096 48.4267 79.477 48.506 79.4116 48.562C79.3556 48.6273 79.2763 48.66 79.1736 48.66H77.9556ZM81.1196 44.628C82.1183 44.628 82.6503 44.012 82.7156 42.78C82.725 42.6867 82.7296 42.5467 82.7296 42.36C82.7296 42.1733 82.725 42.0333 82.7156 41.94C82.6503 40.708 82.1183 40.092 81.1196 40.092C80.5876 40.092 80.191 40.2647 79.9296 40.61C79.6683 40.9553 79.5283 41.3753 79.5096 41.87C79.5003 41.982 79.4956 42.1593 79.4956 42.402C79.4956 42.6447 79.5003 42.8267 79.5096 42.948C79.5283 43.4147 79.673 43.8113 79.9436 44.138C80.2143 44.4647 80.6063 44.628 81.1196 44.628ZM89.7408 46C89.6475 46 89.5681 45.9673 89.5028 45.902C89.4375 45.8367 89.4048 45.7573 89.4048 45.664V36.396C89.4048 36.2933 89.4375 36.214 89.5028 36.158C89.5681 36.0927 89.6475 36.06 89.7408 36.06H90.9168C91.0195 36.06 91.0988 36.0927 91.1548 36.158C91.2201 36.214 91.2528 36.2933 91.2528 36.396V45.664C91.2528 45.7573 91.2201 45.8367 91.1548 45.902C91.0988 45.9673 91.0195 46 90.9168 46H89.7408ZM94.4255 48.66C94.3509 48.66 94.2809 48.632 94.2155 48.576C94.1595 48.52 94.1315 48.4547 94.1315 48.38C94.1315 48.3147 94.1502 48.24 94.1875 48.156L95.2935 45.566L92.6055 39.224C92.5682 39.14 92.5495 39.0747 92.5495 39.028C92.5589 38.944 92.5915 38.874 92.6475 38.818C92.7035 38.7527 92.7735 38.72 92.8575 38.72H94.0195C94.1875 38.72 94.3089 38.8087 94.3835 38.986L96.2455 43.55L98.1355 38.986C98.2289 38.8087 98.3595 38.72 98.5275 38.72H99.6615C99.7455 38.72 99.8155 38.748 99.8715 38.804C99.9275 38.86 99.9555 38.9253 99.9555 39C99.9555 39.0653 99.9369 39.14 99.8995 39.224L95.9375 48.394C95.8629 48.5713 95.7322 48.66 95.5455 48.66H94.4255ZM101.498 46C101.405 46 101.326 45.9673 101.26 45.902C101.195 45.8367 101.162 45.7573 101.162 45.664V39.07C101.162 38.9673 101.195 38.8833 101.26 38.818C101.326 38.7527 101.405 38.72 101.498 38.72H102.646C102.749 38.72 102.833 38.7527 102.898 38.818C102.964 38.8833 102.996 38.9673 102.996 39.07V39.644C103.463 39.028 104.135 38.72 105.012 38.72H105.6C105.703 38.72 105.782 38.7527 105.838 38.818C105.904 38.874 105.936 38.9533 105.936 39.056V40.078C105.936 40.1713 105.904 40.2507 105.838 40.316C105.782 40.3813 105.703 40.414 105.6 40.414H104.494C104.056 40.414 103.71 40.54 103.458 40.792C103.206 41.044 103.08 41.3893 103.08 41.828V45.664C103.08 45.7573 103.048 45.8367 102.982 45.902C102.917 45.9673 102.838 46 102.744 46H101.498ZM107.308 37.53C107.214 37.53 107.135 37.4973 107.07 37.432C107.004 37.3667 106.972 37.2873 106.972 37.194V36.172C106.972 36.0693 107.004 35.9853 107.07 35.92C107.135 35.8547 107.214 35.822 107.308 35.822H108.596C108.698 35.822 108.782 35.8547 108.848 35.92C108.913 35.9853 108.946 36.0693 108.946 36.172V37.194C108.946 37.2873 108.908 37.3667 108.834 37.432C108.768 37.4973 108.689 37.53 108.596 37.53H107.308ZM107.364 46C107.27 46 107.191 45.9673 107.126 45.902C107.06 45.8367 107.028 45.7573 107.028 45.664V39.056C107.028 38.9533 107.06 38.874 107.126 38.818C107.191 38.7527 107.27 38.72 107.364 38.72H108.554C108.647 38.72 108.726 38.7527 108.792 38.818C108.857 38.8833 108.89 38.9627 108.89 39.056V45.664C108.89 45.7573 108.857 45.8367 108.792 45.902C108.726 45.9673 108.647 46 108.554 46H107.364ZM113.883 46.14C112.856 46.14 112.035 45.8553 111.419 45.286C110.812 44.7167 110.49 43.928 110.453 42.92L110.439 42.36L110.453 41.8C110.49 40.792 110.812 40.0033 111.419 39.434C112.035 38.8647 112.856 38.58 113.883 38.58C114.62 38.58 115.241 38.7107 115.745 38.972C116.258 39.2333 116.636 39.5553 116.879 39.938C117.131 40.3113 117.266 40.6707 117.285 41.016C117.294 41.1093 117.261 41.1887 117.187 41.254C117.121 41.3193 117.042 41.352 116.949 41.352H115.703C115.6 41.352 115.525 41.3333 115.479 41.296C115.432 41.2493 115.385 41.17 115.339 41.058C115.199 40.7033 115.012 40.4467 114.779 40.288C114.555 40.1293 114.265 40.05 113.911 40.05C113.435 40.05 113.061 40.1993 112.791 40.498C112.529 40.7967 112.389 41.254 112.371 41.87L112.357 42.388L112.371 42.85C112.427 44.0633 112.94 44.67 113.911 44.67C114.275 44.67 114.569 44.5953 114.793 44.446C115.017 44.2873 115.199 44.026 115.339 43.662C115.376 43.5593 115.418 43.4847 115.465 43.438C115.521 43.3913 115.6 43.368 115.703 43.368H116.949C117.042 43.368 117.121 43.4007 117.187 43.466C117.261 43.5313 117.294 43.6107 117.285 43.704C117.266 44.0307 117.135 44.3853 116.893 44.768C116.65 45.1413 116.277 45.4633 115.773 45.734C115.269 46.0047 114.639 46.14 113.883 46.14ZM121.516 46.14C120.807 46.14 120.214 46.0327 119.738 45.818C119.262 45.6033 118.908 45.356 118.674 45.076C118.45 44.7867 118.338 44.5393 118.338 44.334C118.338 44.2407 118.366 44.166 118.422 44.11C118.488 44.054 118.562 44.026 118.646 44.026H119.794C119.869 44.026 119.934 44.0633 119.99 44.138C120.037 44.1753 120.14 44.264 120.298 44.404C120.466 44.544 120.653 44.656 120.858 44.74C121.073 44.8147 121.306 44.852 121.558 44.852C121.932 44.852 122.235 44.782 122.468 44.642C122.702 44.4927 122.818 44.2827 122.818 44.012C122.818 43.8253 122.762 43.676 122.65 43.564C122.548 43.4427 122.356 43.3353 122.076 43.242C121.806 43.1393 121.395 43.0273 120.844 42.906C120.051 42.738 119.463 42.4813 119.08 42.136C118.707 41.7907 118.52 41.3333 118.52 40.764C118.52 40.3907 118.632 40.0407 118.856 39.714C119.08 39.378 119.412 39.1073 119.85 38.902C120.298 38.6873 120.83 38.58 121.446 38.58C122.081 38.58 122.627 38.6827 123.084 38.888C123.542 39.084 123.887 39.322 124.12 39.602C124.363 39.882 124.484 40.1293 124.484 40.344C124.484 40.428 124.452 40.5027 124.386 40.568C124.33 40.624 124.26 40.652 124.176 40.652H123.126C123.024 40.652 122.944 40.6147 122.888 40.54C122.823 40.4933 122.716 40.4093 122.566 40.288C122.426 40.1573 122.268 40.0547 122.09 39.98C121.913 39.9053 121.698 39.868 121.446 39.868C121.101 39.868 120.835 39.9427 120.648 40.092C120.462 40.2413 120.368 40.4373 120.368 40.68C120.368 40.848 120.41 40.988 120.494 41.1C120.588 41.212 120.77 41.3193 121.04 41.422C121.311 41.5153 121.717 41.6133 122.258 41.716C123.938 42.0427 124.778 42.7753 124.778 43.914C124.778 44.5767 124.489 45.1133 123.91 45.524C123.341 45.9347 122.543 46.14 121.516 46.14Z" transform="translate(18 26)" fill="black"/>
</g>
<defs>
<linearGradient id="paint0_linear" x2="1" gradientUnits="userSpaceOnUse" gradientTransform="matrix(66.5 140.5 -265.848 125.828 216.424 -82.4142)">
<stop stop-color="#E9EAED"/>
<stop offset="1" stop-color="#3342B1"/>
</linearGradient>
<linearGradient id="paint1_linear" x2="1" gradientUnits="userSpaceOnUse" gradientTransform="matrix(66.5 140.5 -265.848 125.828 216.424 -82.4142)">
<stop stop-color="white"/>
<stop offset="1" stop-color="#3DFEE9"/>
</linearGradient>
</defs>
</svg>
