<svg width="193" height="102" viewBox="0 0 193 102" fill="none" xmlns="http://www.w3.org/2000/svg">
<mask id="mask0" mask-type="alpha" maskUnits="userSpaceOnUse" x="0" y="0" width="193" height="102">
<rect x="1" y="1" width="191" height="100" fill="url(#paint0_linear)" stroke="black" stroke-width="2"/>
</mask>
<g mask="url(#mask0)">
<rect width="193" height="102" fill="url(#paint1_linear)"/>
<g opacity="0.5">
<g style="mix-blend-mode:difference">
<g style="mix-blend-mode:difference">
<g style="mix-blend-mode:difference" transform="translate(167.497 35.1741)">
<path fill-rule="evenodd" clip-rule="evenodd" d="M9.573 0.675308C8.93674 -0.103015 7.78189 -0.227362 6.99135 0.400515C5.49649 1.58431 2.74267 0.234549 2.69248 0.209146C1.80084 -0.253459 0.690464 0.0798536 0.215534 0.959989C-0.260702 1.84141 0.0785068 2.93624 0.97446 3.40527C1.10215 3.47229 3.09704 4.49575 5.41326 4.49575C6.69581 4.49575 8.07743 4.18221 9.29392 3.21736C10.0845 2.59156 10.2092 1.45294 9.573 0.675308Z" fill="white"/>
</g>
<g style="mix-blend-mode:difference" transform="translate(179.882 35.1741)">
<path fill-rule="evenodd" clip-rule="evenodd" d="M0.974504 3.40525C1.1022 3.47237 3.09708 4.49583 5.41331 4.49583C6.69585 4.49583 8.07738 4.18219 9.29396 3.21734C10.0845 2.59154 10.2093 1.45302 9.57304 0.675291C8.93679 -0.103032 7.78184 -0.227382 6.99139 0.400595C5.49723 1.58439 2.74342 0.234631 2.69252 0.209129C1.79938 -0.253476 0.691111 0.0799354 0.215578 0.959972C-0.260757 1.84149 0.0785512 2.93622 0.974504 3.40525Z" fill="white"/>
</g>
<g style="mix-blend-mode:difference" transform="translate(176.469 42.5253)">
<path fill-rule="evenodd" clip-rule="evenodd" d="M5.16802 2.54433C5.16802 1.13912 4.01116 0 2.58396 0C1.15696 0 0 1.13912 0 2.54433C0 3.94954 1.15696 5.08865 2.58396 5.08865C4.01116 5.08865 5.16802 3.94954 5.16802 2.54433Z" fill="white"/>
</g>
<g style="mix-blend-mode:difference" transform="translate(147 12)">
<path fill-rule="evenodd" clip-rule="evenodd" d="M26.1015 47.955C26.1087 48.0241 26.1236 48.0907 26.1332 48.1591C26.1518 48.2899 26.1689 48.4212 26.1961 48.549C26.2134 48.6308 26.2383 48.7096 26.2591 48.7901C26.2878 48.9014 26.3142 49.0136 26.3493 49.1222C26.3761 49.2053 26.41 49.2852 26.4404 49.3667C26.4786 49.4693 26.5149 49.5725 26.5587 49.6723C26.5643 49.685 26.5682 49.6987 26.5738 49.7113C24.8846 50.7716 20.9242 52.6369 16.1002 50.7433C17.674 48.9252 20.9357 46.2172 26.137 46.4524C26.1321 46.4839 26.134 46.5173 26.1296 46.5489C26.0938 46.8091 26.0689 47.0726 26.0689 47.3424C26.0689 47.5492 26.0802 47.7536 26.1015 47.955ZM37.9742 46.5386C37.9696 46.5051 37.9715 46.4695 37.9663 46.4361C42.7465 46.4609 45.7643 49.0156 47.2592 50.7433C42.9237 52.4455 39.284 51.1099 37.3652 50.0525C37.3883 50.009 37.4047 49.9617 37.4265 49.9175C37.4924 49.7851 37.5548 49.651 37.6105 49.5132C37.6402 49.4401 37.6666 49.3659 37.6932 49.2914C37.7399 49.1606 37.7819 49.028 37.8195 48.8932C37.8408 48.8158 37.862 48.7387 37.8804 48.6602C37.9141 48.5157 37.94 48.3688 37.9627 48.2205C37.9734 48.1503 37.9871 48.0814 37.9953 48.0105C38.0206 47.7908 38.0366 47.5685 38.0366 47.3424C38.0366 47.069 38.011 46.8022 37.9742 46.5386ZM59.4496 69.055C59.3771 69.0532 59.3015 69.0508 59.2228 69.0479C59.1742 69.046 59.1293 69.0449 59.0783 69.0427C58.9272 69.036 58.766 69.0275 58.5953 69.0164C58.5415 69.0129 58.4818 69.0078 58.4261 69.0037C58.3022 68.9949 58.1759 68.9852 58.0431 68.9737C57.964 68.9668 57.8806 68.9583 57.7984 68.9503C57.6797 68.9388 57.5583 68.9262 57.4333 68.9124C57.3411 68.902 57.2467 68.8909 57.1512 68.8793C57.0236 68.8637 56.892 68.8462 56.7588 68.8279C56.6607 68.8144 56.563 68.8013 56.4619 68.7863C56.3122 68.7641 56.1568 68.7386 56.001 68.7128C55.9097 68.6977 55.8211 68.6843 55.7277 68.6678C55.4865 68.6255 55.2387 68.5786 54.9849 68.527C54.8909 68.5078 54.7929 68.4853 54.6973 68.4648C54.5251 68.4279 54.352 68.3903 54.1748 68.3489C54.0568 68.3212 53.9361 68.2909 53.8159 68.2612C53.6527 68.2209 53.4878 68.1787 53.3209 68.1344C53.1947 68.1008 53.0676 68.0659 52.9395 68.0299C52.7684 67.9818 52.5948 67.9303 52.4203 67.8778C52.2938 67.8396 52.1679 67.8022 52.0398 67.7616C51.8361 67.6972 51.6291 67.6271 51.4215 67.5561C51.3197 67.5212 51.2196 67.4894 51.1169 67.453C50.8159 67.3463 50.5111 67.2319 50.2033 67.1107C50.0902 67.0662 49.9754 67.0169 49.8616 66.9703C49.6551 66.8859 49.448 66.8001 49.2391 66.7089C49.1041 66.6499 48.9681 66.5874 48.8322 66.5254C48.6382 66.4371 48.4436 66.3459 48.248 66.2513C48.1091 66.1841 47.97 66.1157 47.8302 66.0452C47.6284 65.9434 47.4255 65.8365 47.2223 65.7277C47.09 65.657 46.958 65.5877 46.8253 65.5138C46.5768 65.3756 46.3274 65.2294 46.0779 65.0804C45.9909 65.0284 45.9044 64.9806 45.8175 64.9274C45.4892 64.7264 45.1605 64.5144 44.8317 64.2937C44.7155 64.2157 44.5994 64.1315 44.4831 64.051C44.2616 63.8974 44.04 63.7413 43.8187 63.5781C43.6844 63.4792 43.5503 63.3761 43.4163 63.2735C43.2103 63.1157 43.0045 62.954 42.7992 62.7876C42.6636 62.6778 42.5283 62.567 42.3932 62.4533C42.181 62.2747 41.9696 62.0892 41.7587 61.9009C41.6359 61.7911 41.5126 61.6841 41.3903 61.571C41.1134 61.3152 40.8384 61.0492 40.5648 60.7757C40.5115 60.7225 40.4574 60.6734 40.4043 60.6195C40.0834 60.2938 39.7657 59.953 39.4504 59.6019C39.343 59.4821 39.2374 59.3554 39.1307 59.2327C38.9185 58.9885 38.7073 58.741 38.4985 58.4847C38.3773 58.3359 38.2572 58.1829 38.1373 58.0301C37.9426 57.7821 37.7497 57.5284 37.5583 57.2691C37.4398 57.1084 37.3214 56.947 37.2042 56.7819C37.0056 56.502 36.8101 56.2128 36.6157 55.9201C36.5138 55.7666 36.4106 55.6168 36.3099 55.4597C36.0337 55.0284 35.7617 54.5853 35.4956 54.1263C35.4693 54.0811 35.4432 54.0355 35.417 53.9899C35.1822 53.581 34.954 53.1551 34.728 52.7238C38.0076 54.8248 44.2926 56.8075 50.929 52.9872L52.4627 52.1036L51.6162 50.5653C49.9068 47.4575 44.5061 42.0372 36.0045 42.9215C35.9758 42.8966 35.9449 42.8745 35.9158 42.8501C35.8712 42.813 35.826 42.7769 35.7803 42.741C35.7415 42.7105 35.7048 42.6777 35.6652 42.6482C35.7083 42.6388 35.7495 42.6245 35.7925 42.6149C36.2181 42.5192 36.6392 42.4122 37.0519 42.2852C37.0563 42.284 37.0606 42.2823 37.065 42.2809C37.4783 42.1535 37.8828 42.0069 38.2817 41.8495C38.3398 41.8266 38.3985 41.8051 38.4562 41.7816C38.8382 41.626 39.2121 41.4556 39.5792 41.2735C39.6471 41.2399 39.7143 41.2059 39.7815 41.1714C40.1476 40.9838 40.5068 40.7853 40.8565 40.5726C40.9034 40.544 40.9489 40.5137 40.9956 40.4847C41.3479 40.2657 41.6927 40.0362 42.0268 39.7927C42.0421 39.7815 42.0581 39.7713 42.0733 39.7601C42.4109 39.5123 42.736 39.2493 43.0534 38.9779C43.1049 38.9339 43.157 38.8907 43.2078 38.8461C43.511 38.5805 43.8037 38.3041 44.0867 38.0178C44.1382 37.9657 44.1885 37.9128 44.2394 37.8601C44.523 37.5655 44.7979 37.2629 45.0593 36.9484C45.0869 36.9151 45.1128 36.8806 45.1402 36.847C45.3947 36.5358 45.6382 36.2154 45.8698 35.8864C45.8934 35.8529 45.9183 35.8205 45.9417 35.7868C46.1746 35.4505 46.3925 35.1036 46.6003 34.7501C46.6377 34.6863 46.6757 34.6228 46.7123 34.5585C46.9115 34.209 47.0983 33.8522 47.2719 33.4877C47.3025 33.4234 47.3314 33.3583 47.3612 33.2934C47.5354 32.9149 47.6991 32.5309 47.8445 32.138C47.854 32.1125 47.8619 32.0862 47.8712 32.0606C48.0113 31.6759 48.1354 31.2838 48.2468 30.8865C48.2623 30.8312 48.2797 30.7768 48.2946 30.7213C48.4018 30.3225 48.4917 29.9171 48.5688 29.5073C48.5834 29.4296 48.5977 29.3519 48.6112 29.2737C48.682 28.8639 48.7389 28.4495 48.7785 28.0301C48.7848 27.9628 48.7886 27.8949 48.7941 27.8274C48.8303 27.3859 48.8538 26.941 48.8538 26.4904C48.8538 17.3683 41.3169 9.94709 32.0527 9.94709C22.7885 9.94709 15.2517 17.3683 15.2517 26.4904C15.2517 26.941 15.2752 27.3859 15.3113 27.8274C15.3168 27.8949 15.3206 27.9628 15.327 28.0301C15.3665 28.4495 15.4234 28.8639 15.4942 29.2737C15.5078 29.3519 15.522 29.4296 15.5367 29.5073C15.6138 29.9171 15.7036 30.3225 15.8108 30.7213C15.8258 30.7768 15.8432 30.8312 15.8586 30.8865C15.97 31.2838 16.0941 31.6759 16.2343 32.0606C16.2436 32.0862 16.2514 32.1125 16.261 32.138C16.4063 32.5309 16.5701 32.9149 16.7442 33.2934C16.774 33.3583 16.803 33.4234 16.8337 33.4877C17.0071 33.8522 17.194 34.209 17.3931 34.5585C17.4298 34.6228 17.4677 34.6863 17.5053 34.7501C17.7131 35.1036 17.9308 35.4505 18.1638 35.7868C18.1872 35.8205 18.2122 35.8529 18.2357 35.8864C18.4674 36.2154 18.7107 36.5358 18.9653 36.847C18.9927 36.8806 19.0186 36.9151 19.0462 36.9484C19.3075 37.2629 19.5825 37.5655 19.8661 37.8601C19.917 37.9128 19.9673 37.9657 20.0187 38.0178C20.3017 38.3041 20.5945 38.5805 20.8976 38.8461C20.9485 38.8907 21.0005 38.9339 21.052 38.9779C21.3695 39.2493 21.6945 39.5123 22.0321 39.7601C22.0475 39.7713 22.0633 39.7815 22.0787 39.7927C22.4128 40.0362 22.7576 40.2657 23.1099 40.4847C23.1565 40.5137 23.202 40.544 23.249 40.5726C23.5986 40.7853 23.9578 40.9838 24.3239 41.1714C24.3912 41.2059 24.4585 41.2399 24.5262 41.2735C24.8934 41.4556 25.2674 41.626 25.6493 41.7816C25.707 41.8051 25.7657 41.8266 25.8237 41.8495C26.2227 42.0069 26.6271 42.1535 27.0404 42.2809C27.0448 42.2823 27.0491 42.284 27.0536 42.2852C27.4663 42.4122 27.8874 42.5192 28.3129 42.6149C28.356 42.6245 28.3971 42.6388 28.4403 42.6482C28.4081 42.6722 28.3791 42.6998 28.3474 42.7245C28.2742 42.7816 28.2031 42.8408 28.1327 42.9012C28.0925 42.9356 28.0492 42.9666 28.0099 43.0021C19.1295 41.7561 13.4957 47.3784 11.7426 50.5653L10.8961 52.1036L12.4297 52.9872C19.364 56.9807 25.9161 54.6351 29.0551 52.4406C29.0738 52.4514 29.095 52.4586 29.1141 52.4693C29.3231 52.5859 29.5383 52.6922 29.7619 52.7838C29.7699 52.7871 29.7772 52.7918 29.7851 52.7951C29.7596 52.8685 29.7338 52.9421 29.7055 53.0195C29.6909 53.0593 29.6778 53.0971 29.6626 53.1379C29.6054 53.2906 29.5431 53.4501 29.4749 53.6165C29.4617 53.6485 29.4465 53.6829 29.4328 53.7155C29.3758 53.8522 29.3151 53.993 29.2501 54.1378C29.2251 54.1936 29.1985 54.2507 29.1724 54.3076C29.1114 54.4401 29.0466 54.5758 28.9789 54.7141C28.9506 54.7716 28.9229 54.8287 28.8935 54.8873C28.8027 55.0676 28.7067 55.2517 28.6039 55.4402C28.5954 55.4557 28.5881 55.4705 28.5795 55.4861C28.4668 55.6916 28.3451 55.9025 28.2172 56.1165C28.1853 56.1698 28.1508 56.2245 28.118 56.2783C28.0186 56.441 27.915 56.6057 27.8065 56.7724C27.7626 56.8398 27.7179 56.9075 27.6724 56.9756C27.5591 57.1452 27.4402 57.3169 27.317 57.4899C27.2769 57.5461 27.2389 57.6016 27.1978 57.658C27.0305 57.8882 26.8554 58.1203 26.6699 58.3546C26.6509 58.3785 26.6299 58.4029 26.6108 58.4269C26.4454 58.6338 26.2719 58.842 26.0918 59.0512C26.0326 59.1199 25.9709 59.1888 25.9101 59.2576C25.7583 59.4294 25.601 59.6016 25.4386 59.7742C25.3713 59.8458 25.3044 59.9173 25.2352 59.989C25.0418 60.1892 24.8407 60.3896 24.6324 60.5899C24.5939 60.627 24.558 60.6641 24.5189 60.7012C24.2688 60.9384 24.0069 61.1752 23.7352 61.4111C23.6706 61.467 23.6023 61.5226 23.5365 61.5783C23.3252 61.7578 23.1078 61.9367 22.8832 62.1147C22.7904 62.1881 22.696 62.2614 22.6009 62.3344C22.3808 62.5038 22.1533 62.6721 21.9204 62.8394C21.8301 62.9042 21.742 62.9694 21.6498 63.0339C21.3241 63.2617 20.989 63.4877 20.6384 63.71C20.6233 63.7196 20.6068 63.7288 20.5917 63.7384C20.2588 63.9486 19.9121 64.1553 19.5563 64.3593C19.4439 64.4237 19.3275 64.4869 19.2128 64.5507C18.9401 64.7022 18.6609 64.8518 18.3747 64.9991C18.2436 65.0667 18.1122 65.1342 17.9782 65.2008C17.6627 65.3576 17.3376 65.5112 17.0059 65.6623C16.9047 65.7084 16.8076 65.7559 16.7049 65.8014C16.2708 65.9938 15.8229 66.181 15.361 66.3627C15.2519 66.4056 15.137 66.4462 15.0263 66.4885C14.6657 66.6262 14.2979 66.7607 13.9202 66.8912C13.7545 66.9484 13.5855 67.0042 13.4164 67.06C13.0658 67.1757 12.707 67.2878 12.3418 67.3969C12.1724 67.4475 12.005 67.4989 11.8325 67.548C11.3472 67.6861 10.8505 67.8187 10.3396 67.9444C10.2885 67.957 10.2402 67.9711 10.1888 67.9835C9.63122 68.1185 9.05419 68.2439 8.46552 68.363C8.2779 68.401 8.08415 68.4357 7.89332 68.4718C7.4726 68.5519 7.04495 68.6281 6.60837 68.6996C6.38651 68.7359 6.16315 68.7713 5.93708 68.8053C5.78991 68.8275 5.63542 68.8457 5.48644 68.8668C5.11712 67.9029 4.80743 66.9426 4.56359 65.9984C3.97251 63.7113 3.67265 61.3479 3.67265 58.9733C3.67265 55.7486 4.21836 52.615 5.28437 49.6194L5.28386 49.6181C5.28386 49.6181 6.64109 45.1754 8.45197 43.0393L8.45117 43.0331C8.45117 43.0331 9.60863 41.3552 10.1774 39.8693C11.3208 36.6029 11.7662 33.4116 11.8909 30.7541C11.9229 29.4877 11.7352 27.0673 11.6528 26.0838C11.6493 26.0456 11.6465 26.0079 11.6432 25.9698C11.6263 25.7718 11.6153 25.6495 11.6153 25.6495L11.6298 25.6792C11.5942 25.194 11.5632 24.7091 11.5632 24.2317C11.5632 12.8642 20.9551 3.61632 32.4996 3.61632C44.0441 3.61632 53.436 12.8642 53.436 24.2317C53.436 24.9913 53.3869 25.7495 53.3024 26.5032L53.3104 26.4902C53.3104 26.4902 53.2988 26.5811 53.2809 26.7312C53.278 26.7547 53.2755 26.7782 53.2726 26.8015C53.1698 27.6762 52.8923 30.2369 52.8934 32.3336C53.1076 34.6933 53.5565 36.949 54.2334 39.0798C54.3505 39.3404 55.2392 41.2946 56.3469 43.0331C56.3574 43.0496 56.3632 43.0634 56.3726 43.0793C59.6175 47.7792 61.3272 53.2326 61.3272 58.9733C61.3272 62.4488 60.696 65.8346 59.4496 69.055ZM18.9243 26.4904C18.9243 19.3623 24.8135 13.5634 32.0527 13.5634C39.2919 13.5634 45.1811 19.3623 45.1811 26.4904C45.1811 33.6179 39.2919 39.4168 32.0527 39.4168C24.8135 39.4168 18.9243 33.6179 18.9243 26.4904ZM32.0527 45.0666C33.3274 45.0666 34.3639 46.0872 34.3639 47.3424C34.3639 48.2307 33.8396 48.9934 33.0842 49.3681C32.9525 49.4323 32.8141 49.4843 32.6708 49.525C32.6434 49.5326 32.6174 49.5433 32.5895 49.5499C32.4173 49.5921 32.2386 49.6181 32.0527 49.6181C31.9018 49.6181 31.755 49.6016 31.6121 49.5743C31.5488 49.5621 31.4894 49.5403 31.428 49.523C31.3528 49.5021 31.277 49.4828 31.2051 49.4547C31.1348 49.427 31.0687 49.3918 31.002 49.3578C30.9428 49.3277 30.8831 49.2989 30.8271 49.2642C30.7703 49.2292 30.7173 49.189 30.6636 49.1496C30.107 48.7337 29.7415 48.082 29.7415 47.3424C29.7415 46.0872 30.778 45.0666 32.0527 45.0666ZM57.1855 73.6386L57.0893 73.7947L57.027 73.9663C55.1827 79.0525 52.9834 86.4596 52.9834 92.8667C52.9834 94.4121 52.4354 95.6581 51.3084 96.6744C47.8094 99.8295 39.3587 100.33 32.6158 99.7427L32.4545 99.7286L32.2931 99.7427C25.551 100.329 17.0995 99.8295 13.5997 96.6744C12.4728 95.6581 11.9248 94.4121 11.9248 92.8667C11.9248 86.329 9.64156 78.7488 7.72557 73.5404L7.58493 73.2452C7.40494 72.9407 7.22705 72.625 7.05268 72.2994C7.19192 72.2772 7.32463 72.2513 7.46246 72.2283C7.7063 72.1876 7.94823 72.1458 8.18765 72.1025C8.46281 72.0528 8.73446 72.0012 9.0039 71.9483C9.23549 71.9028 9.46588 71.8567 9.69316 71.8089C9.96039 71.7527 10.2236 71.6942 10.485 71.6349C10.7051 71.5849 10.9247 71.5349 11.1407 71.4828C11.4007 71.42 11.6561 71.3549 11.9103 71.2891C12.1172 71.2356 12.3244 71.1823 12.5273 71.127C12.7818 71.0574 13.0307 70.9852 13.2793 70.9128C13.4736 70.856 13.669 70.8 13.8597 70.7416C14.1085 70.6653 14.3511 70.5863 14.5938 70.5071C14.7744 70.4483 14.9568 70.3903 15.134 70.3299C15.3816 70.2454 15.6222 70.1581 15.8632 70.0708C16.0269 70.0115 16.1932 69.9534 16.354 69.8928C16.6019 69.7994 16.8423 69.703 17.0832 69.6066C17.2291 69.5482 17.3783 69.4912 17.5217 69.4318C17.7778 69.3258 18.0258 69.2164 18.274 69.1072C18.3942 69.0543 18.5181 69.0028 18.6364 68.9493C18.9291 68.8166 19.2131 68.6809 19.4947 68.5441C19.5622 68.5113 19.6329 68.4797 19.6997 68.4467C20.3969 68.1026 21.0599 67.746 21.6909 67.3796C21.7725 67.3322 21.8496 67.2835 21.9301 67.2357C22.1588 67.1001 22.3867 66.9643 22.6068 66.8262C22.7111 66.7608 22.8104 66.6941 22.9128 66.6281C23.1025 66.5061 23.2926 66.384 23.4759 66.2602C23.5863 66.1856 23.6919 66.11 23.8 66.0349C23.9686 65.9177 24.1375 65.8007 24.3006 65.6823C24.4103 65.6025 24.5159 65.5219 24.6232 65.4417C24.7776 65.3263 24.932 65.211 25.0813 65.0946C25.1885 65.0111 25.2919 64.9269 25.3967 64.8429C25.5386 64.7289 25.6803 64.615 25.8176 64.5003C25.9219 64.4132 26.023 64.3257 26.1247 64.2381C26.2558 64.1253 26.3863 64.0126 26.5131 63.8993C26.6133 63.8097 26.7108 63.7199 26.8083 63.6301C26.9295 63.5185 27.0496 63.407 27.1667 63.2952C27.2629 63.2032 27.3568 63.1112 27.4504 63.0192C27.5626 62.9086 27.6737 62.7982 27.7821 62.6875C27.8732 62.5945 27.9626 62.5017 28.051 62.4086C28.1556 62.2986 28.2586 62.1887 28.3596 62.0787C28.4455 61.9851 28.5303 61.8916 28.6137 61.798C28.7103 61.6893 28.8052 61.581 28.8985 61.4727C28.9803 61.3777 29.0612 61.2829 29.1404 61.1881C29.2295 61.0814 29.3164 60.9752 29.4021 60.8689C29.4789 60.7739 29.5552 60.679 29.6294 60.5843C29.7125 60.4783 29.793 60.3728 29.873 60.2672C29.9443 60.1731 30.0156 60.0791 30.0844 59.9856C30.161 59.8813 30.2348 59.7779 30.3085 59.6743C30.3754 59.5804 30.4425 59.4864 30.507 59.3931C30.578 59.29 30.6459 59.1881 30.7142 59.086C30.7751 58.9946 30.8369 58.903 30.8956 58.8125C30.9629 58.7085 31.0268 58.606 31.0911 58.5032C31.146 58.4155 31.202 58.3275 31.2549 58.2407C31.3168 58.1387 31.3751 58.0385 31.4342 57.9379C31.4848 57.8516 31.5369 57.7648 31.5856 57.6796C31.6432 57.5785 31.6971 57.4795 31.7519 57.38C31.7968 57.2982 31.8436 57.2158 31.8867 57.1351C31.9467 57.0229 32.0025 56.9133 32.0592 56.8033C32.0926 56.7382 32.1281 56.6717 32.1604 56.6075C32.2475 56.434 32.3305 56.2632 32.4092 56.0958C32.7005 56.591 32.9996 57.0667 33.3022 57.533C33.3935 57.6734 33.486 57.8098 33.5781 57.9477C33.8013 58.2815 34.0269 58.608 34.2555 58.9269C34.352 59.0614 34.448 59.197 34.5453 59.329C34.8391 59.7271 35.1359 60.1159 35.4373 60.4907C35.4596 60.5184 35.4811 60.548 35.5034 60.5756C35.8245 60.9725 36.1505 61.3525 36.4791 61.7238C36.5856 61.8442 36.693 61.9605 36.8002 62.0782C37.0345 62.3356 37.2703 62.587 37.5077 62.832C37.6219 62.9498 37.7357 63.0683 37.8505 63.1833C38.1358 63.469 38.4227 63.7463 38.7115 64.0151C38.7672 64.0669 38.8221 64.1223 38.8778 64.1735C39.2114 64.4797 39.5475 64.7719 39.8847 65.0566C40.0102 65.1623 40.136 65.264 40.2618 65.3669C40.49 65.5538 40.7187 65.7361 40.948 65.9136C41.082 66.0172 41.2157 66.1209 41.3501 66.2214C41.6086 66.4149 41.8676 66.6013 42.1269 66.7834C42.233 66.858 42.3389 66.9352 42.4451 67.0079C42.7622 67.225 43.0796 67.4326 43.3968 67.6333C43.5436 67.7262 43.69 67.8146 43.8365 67.9041C44.0425 68.0298 44.2481 68.1527 44.4537 68.2721C44.6083 68.3616 44.7625 68.4508 44.9167 68.5369C45.131 68.6565 45.3447 68.7706 45.5582 68.8834C45.7534 68.9866 45.9481 69.0883 46.1423 69.186C46.3932 69.312 46.6436 69.4355 46.8925 69.5526C47.0608 69.6319 47.2273 69.7063 47.3945 69.7816C47.5648 69.8582 47.7345 69.9335 47.9036 70.0061C48.0779 70.0812 48.2515 70.1549 48.4244 70.2257C48.5856 70.2917 48.7453 70.3541 48.9052 70.4166C49.2104 70.536 49.5121 70.6489 49.8117 70.7561C49.9575 70.8083 50.1043 70.8622 50.2487 70.9116C50.4366 70.9759 50.6213 71.0355 50.8065 71.0952C50.9322 71.1358 51.0574 71.1759 51.1817 71.2143C51.3685 71.2722 51.5537 71.3284 51.7373 71.3818C51.8448 71.4131 51.9505 71.4421 52.0569 71.4719C52.7061 71.6536 53.3324 71.8089 53.9329 71.9401C54.0115 71.9573 54.0901 71.9747 54.1678 71.9911C54.3582 72.0313 54.5456 72.0697 54.7302 72.1053C54.7852 72.1159 54.8388 72.1255 54.8934 72.1358C55.5145 72.2525 56.099 72.3452 56.6425 72.4169C56.6747 72.4213 56.7072 72.4257 56.7392 72.4298C56.9197 72.4531 57.095 72.4746 57.2658 72.4937C57.2808 72.4954 57.2951 72.4969 57.31 72.4985C57.4832 72.5176 57.6558 72.5367 57.8183 72.5518C57.614 72.9216 57.4026 73.2843 57.1855 73.6386ZM60.0103 41.947C59.9755 41.8422 59.877 41.6829 59.6912 41.4503C59.6741 41.4287 59.6586 41.406 59.6417 41.3843C59.4311 41.0712 59.2171 40.7595 58.9947 40.4523C57.9639 38.7852 57.4393 36.9938 57.2761 36.3659C57.023 35.3408 56.8244 34.2852 56.6829 33.2009C56.5361 31.3064 56.7045 29.0689 56.8525 27.6545C56.9102 27.2552 56.9573 26.855 56.9947 26.4532C57.0119 26.3253 57.0226 26.2518 57.0226 26.2518L57.0117 26.2645C57.0693 25.5885 57.1087 24.9109 57.1087 24.2317C57.1087 10.8702 46.0691 0 32.4996 0C18.9301 0 7.89051 10.8702 7.89051 24.2317C7.89051 25.5864 8.01248 26.9721 8.2521 28.3523C8.31264 31.0358 8.06107 34.8221 6.70875 38.6857C6.62282 38.9117 6.20802 39.9795 5.75257 40.8162C5.54959 41.1055 5.34711 41.3951 5.15396 41.6908C5.15145 41.6932 5.14874 41.6968 5.14613 41.6992C5.09544 41.7472 5.07938 41.7819 5.07907 41.8104C4.33511 42.9599 3.66262 44.1514 3.07877 45.3739C1.03579 49.6513 0 54.2269 0 58.9733C0 61.6481 0.337902 64.3116 1.00427 66.8897C1.21257 67.6964 1.46414 68.5118 1.75225 69.3293L1.6613 69.3399L2.63255 71.5649C2.63445 71.5692 2.63656 71.5731 2.63847 71.5774L3.17484 72.8051L3.21288 72.8007C3.57046 73.5395 3.93888 74.2574 4.32758 74.9227C6.13163 79.8521 8.2521 86.9145 8.2521 92.8667C8.2521 95.4475 9.21682 97.6258 11.1192 99.3415C12.8761 100.925 15.2921 101.936 17.9055 102.576L17.8818 102.578C17.8818 102.578 18.0166 102.609 18.2659 102.66C19.5969 102.966 20.9684 103.183 22.3335 103.324C27.0623 103.945 35.0507 104.529 43.7955 103.182C47.581 102.668 51.3276 101.56 53.789 99.3415C55.6913 97.6258 56.656 95.4475 56.656 92.8667C56.656 87.0459 58.6904 80.1607 60.4249 75.3507C60.9578 74.4711 61.4408 73.5369 61.8959 72.5827L61.9377 72.5798L62.3796 71.5649L62.5956 71.0658C62.6342 70.965 62.6711 70.8551 62.7093 70.7515C64.2231 66.9959 65 63.0404 65 58.9733C65 52.8614 63.2808 47.0386 60.0103 41.947Z" fill="white"/>
</g>
</g>
</g>
</g>
<path d="M1.38844 13C1.30444 13 1.23444 12.972 1.17844 12.916C1.12244 12.86 1.09444 12.79 1.09444 12.706L1.12244 12.58L4.48244 3.55C4.57577 3.31667 4.74377 3.2 4.98644 3.2H6.52644C6.7691 3.2 6.9371 3.31667 7.03044 3.55L10.3904 12.58L10.4184 12.706C10.4184 12.79 10.3858 12.86 10.3204 12.916C10.2644 12.972 10.1991 13 10.1244 13H8.87844C8.68244 13 8.5471 12.9113 8.47244 12.734L7.82844 11.04H3.68444L3.04044 12.734C2.96577 12.9113 2.83044 13 2.63444 13H1.38844ZM4.17444 9.416H7.33844L5.75644 5.104L4.17444 9.416ZM11.8791 13C11.7858 13 11.7065 12.9673 11.6411 12.902C11.5758 12.8367 11.5431 12.7573 11.5431 12.664V6.056C11.5431 5.95333 11.5758 5.874 11.6411 5.818C11.7065 5.75267 11.7858 5.72 11.8791 5.72H13.0411C13.1438 5.72 13.2231 5.75267 13.2791 5.818C13.3445 5.874 13.3771 5.95333 13.3771 6.056V6.63C13.9465 5.93 14.7258 5.58 15.7151 5.58C16.5738 5.58 17.2551 5.86 17.7591 6.42C18.2631 6.98 18.5151 7.75 18.5151 8.73V12.664C18.5151 12.7573 18.4825 12.8367 18.4171 12.902C18.3611 12.9673 18.2818 13 18.1791 13H16.9191C16.8258 13 16.7465 12.9673 16.6811 12.902C16.6158 12.8367 16.5831 12.7573 16.5831 12.664V8.814C16.5831 8.27267 16.4478 7.85267 16.1771 7.554C15.9158 7.246 15.5378 7.092 15.0431 7.092C14.5671 7.092 14.1845 7.246 13.8951 7.554C13.6058 7.862 13.4611 8.282 13.4611 8.814V12.664C13.4611 12.7573 13.4285 12.8367 13.3631 12.902C13.3071 12.9673 13.2278 13 13.1251 13H11.8791ZM25.5927 13.14C25.1167 13.14 24.678 13.0467 24.2767 12.86C23.8847 12.664 23.572 12.4027 23.3387 12.076C23.1147 11.7493 23.0027 11.39 23.0027 10.998C23.0027 10.3633 23.2594 9.85 23.7727 9.458C24.286 9.066 24.9907 8.8 25.8867 8.66L27.8047 8.38V8.086C27.8047 7.68467 27.702 7.38133 27.4967 7.176C27.2914 6.97067 26.9647 6.868 26.5167 6.868C26.2087 6.868 25.9614 6.924 25.7747 7.036C25.588 7.148 25.434 7.26467 25.3127 7.386C25.2007 7.498 25.126 7.57267 25.0887 7.61C25.0514 7.722 24.9814 7.778 24.8787 7.778H23.7867C23.7027 7.778 23.628 7.75 23.5627 7.694C23.5067 7.638 23.4787 7.56333 23.4787 7.47C23.488 7.23667 23.6 6.97533 23.8147 6.686C24.0387 6.38733 24.3794 6.13067 24.8367 5.916C25.294 5.692 25.8587 5.58 26.5307 5.58C27.632 5.58 28.4347 5.82733 28.9387 6.322C29.4427 6.81667 29.6947 7.46533 29.6947 8.268V12.664C29.6947 12.7573 29.662 12.8367 29.5967 12.902C29.5407 12.9673 29.4614 13 29.3587 13H28.1967C28.1034 13 28.024 12.9673 27.9587 12.902C27.8934 12.8367 27.8607 12.7573 27.8607 12.664V12.118C27.6554 12.4167 27.366 12.664 26.9927 12.86C26.6194 13.0467 26.1527 13.14 25.5927 13.14ZM26.0687 11.796C26.582 11.796 27.002 11.628 27.3287 11.292C27.6554 10.956 27.8187 10.4707 27.8187 9.836V9.556L26.4187 9.78C25.3454 9.948 24.8087 10.3073 24.8087 10.858C24.8087 11.1567 24.93 11.39 25.1727 11.558C25.4247 11.7167 25.7234 11.796 26.0687 11.796ZM31.8404 15.66C31.7471 15.66 31.6677 15.6273 31.6024 15.562C31.5371 15.506 31.5044 15.4267 31.5044 15.324V6.056C31.5044 5.95333 31.5371 5.874 31.6024 5.818C31.6677 5.75267 31.7471 5.72 31.8404 5.72H32.9604C33.0631 5.72 33.1471 5.75267 33.2124 5.818C33.2777 5.88333 33.3104 5.96267 33.3104 6.056V6.616C33.8051 5.92533 34.5471 5.58 35.5364 5.58C36.4791 5.58 37.2024 5.87867 37.7064 6.476C38.2104 7.064 38.4811 7.85733 38.5184 8.856C38.5277 8.968 38.5324 9.136 38.5324 9.36C38.5324 9.584 38.5277 9.752 38.5184 9.864C38.4904 10.844 38.2197 11.6373 37.7064 12.244C37.2024 12.8413 36.4791 13.14 35.5364 13.14C34.6031 13.14 33.8891 12.8087 33.3944 12.146V15.324C33.3944 15.4267 33.3617 15.506 33.2964 15.562C33.2404 15.6273 33.1611 15.66 33.0584 15.66H31.8404ZM35.0044 11.628C36.0031 11.628 36.5351 11.012 36.6004 9.78C36.6097 9.68667 36.6144 9.54667 36.6144 9.36C36.6144 9.17333 36.6097 9.03333 36.6004 8.94C36.5351 7.708 36.0031 7.092 35.0044 7.092C34.4724 7.092 34.0757 7.26467 33.8144 7.61C33.5531 7.95533 33.4131 8.37533 33.3944 8.87C33.3851 8.982 33.3804 9.15933 33.3804 9.402C33.3804 9.64467 33.3851 9.82667 33.3944 9.948C33.4131 10.4147 33.5577 10.8113 33.8284 11.138C34.0991 11.4647 34.4911 11.628 35.0044 11.628ZM40.44 15.66C40.3467 15.66 40.2673 15.6273 40.202 15.562C40.1367 15.506 40.104 15.4267 40.104 15.324V6.056C40.104 5.95333 40.1367 5.874 40.202 5.818C40.2673 5.75267 40.3467 5.72 40.44 5.72H41.56C41.6627 5.72 41.7467 5.75267 41.812 5.818C41.8773 5.88333 41.91 5.96267 41.91 6.056V6.616C42.4047 5.92533 43.1467 5.58 44.136 5.58C45.0787 5.58 45.802 5.87867 46.306 6.476C46.81 7.064 47.0807 7.85733 47.118 8.856C47.1273 8.968 47.132 9.136 47.132 9.36C47.132 9.584 47.1273 9.752 47.118 9.864C47.09 10.844 46.8193 11.6373 46.306 12.244C45.802 12.8413 45.0787 13.14 44.136 13.14C43.2027 13.14 42.4887 12.8087 41.994 12.146V15.324C41.994 15.4267 41.9613 15.506 41.896 15.562C41.84 15.6273 41.7607 15.66 41.658 15.66H40.44ZM43.604 11.628C44.6027 11.628 45.1347 11.012 45.2 9.78C45.2093 9.68667 45.214 9.54667 45.214 9.36C45.214 9.17333 45.2093 9.03333 45.2 8.94C45.1347 7.708 44.6027 7.092 43.604 7.092C43.072 7.092 42.6753 7.26467 42.414 7.61C42.1527 7.95533 42.0127 8.37533 41.994 8.87C41.9847 8.982 41.98 9.15933 41.98 9.402C41.98 9.64467 41.9847 9.82667 41.994 9.948C42.0127 10.4147 42.1573 10.8113 42.428 11.138C42.6987 11.4647 43.0907 11.628 43.604 11.628ZM52.7491 13C52.6557 13 52.5764 12.9673 52.5111 12.902C52.4457 12.8367 52.4131 12.7573 52.4131 12.664V7.218H51.2791C51.1857 7.218 51.1064 7.18533 51.0411 7.12C50.9757 7.05467 50.9431 6.97533 50.9431 6.882V6.056C50.9431 5.96267 50.9757 5.88333 51.0411 5.818C51.1064 5.75267 51.1857 5.72 51.2791 5.72H52.4131V5.16C52.4131 4.31067 52.6417 3.68067 53.0991 3.27C53.5564 2.85 54.2471 2.64 55.1711 2.64H56.1371C56.2304 2.64 56.3097 2.67267 56.3751 2.738C56.4404 2.80333 56.4731 2.88267 56.4731 2.976V3.802C56.4731 3.89533 56.4404 3.97467 56.3751 4.04C56.3097 4.10533 56.2304 4.138 56.1371 4.138H55.2411C54.8771 4.138 54.6204 4.22667 54.4711 4.404C54.3217 4.58133 54.2471 4.85667 54.2471 5.23V5.72H55.9971C56.0904 5.72 56.1697 5.75267 56.2351 5.818C56.3004 5.88333 56.3331 5.96267 56.3331 6.056V6.882C56.3331 6.97533 56.3004 7.05467 56.2351 7.12C56.1697 7.18533 56.0904 7.218 55.9971 7.218H54.2471V12.664C54.2471 12.7573 54.2144 12.8367 54.1491 12.902C54.0931 12.9673 54.0137 13 53.9111 13H52.7491ZM60.5643 13.14C59.4629 13.14 58.6136 12.86 58.0163 12.3C57.4189 11.74 57.0969 10.9653 57.0503 9.976L57.0363 9.36L57.0503 8.744C57.0969 7.764 57.4236 6.994 58.0303 6.434C58.6369 5.86467 59.4816 5.58 60.5643 5.58C61.6376 5.58 62.4776 5.86467 63.0843 6.434C63.6909 6.994 64.0176 7.764 64.0643 8.744C64.0736 8.856 64.0783 9.06133 64.0783 9.36C64.0783 9.65867 64.0736 9.864 64.0643 9.976C64.0176 10.9653 63.6956 11.74 63.0983 12.3C62.5009 12.86 61.6563 13.14 60.5643 13.14ZM60.5643 11.726C61.0589 11.726 61.4369 11.572 61.6983 11.264C61.9689 10.956 62.1136 10.5033 62.1323 9.906C62.1416 9.81267 62.1463 9.63067 62.1463 9.36C62.1463 9.08933 62.1416 8.90733 62.1323 8.814C62.1136 8.21667 61.9689 7.764 61.6983 7.456C61.4276 7.13867 61.0496 6.98 60.5643 6.98C60.0696 6.98 59.6869 7.13867 59.4163 7.456C59.1456 7.764 59.0009 8.21667 58.9823 8.814L58.9683 9.36L58.9823 9.906C59.0009 10.5033 59.1456 10.956 59.4163 11.264C59.6869 11.572 60.0696 11.726 60.5643 11.726ZM65.9651 13C65.8717 13 65.7924 12.9673 65.7271 12.902C65.6617 12.8367 65.6291 12.7573 65.6291 12.664V6.07C65.6291 5.96733 65.6617 5.88333 65.7271 5.818C65.7924 5.75267 65.8717 5.72 65.9651 5.72H67.1131C67.2157 5.72 67.2997 5.75267 67.3651 5.818C67.4304 5.88333 67.4631 5.96733 67.4631 6.07V6.644C67.9297 6.028 68.6017 5.72 69.4791 5.72H70.0671C70.1697 5.72 70.2491 5.75267 70.3051 5.818C70.3704 5.874 70.4031 5.95333 70.4031 6.056V7.078C70.4031 7.17133 70.3704 7.25067 70.3051 7.316C70.2491 7.38133 70.1697 7.414 70.0671 7.414H68.9611C68.5224 7.414 68.1771 7.54 67.9251 7.792C67.6731 8.044 67.5471 8.38933 67.5471 8.828V12.664C67.5471 12.7573 67.5144 12.8367 67.4491 12.902C67.3837 12.9673 67.3044 13 67.2111 13H65.9651ZM74.7151 13C74.6217 13 74.5424 12.9673 74.4771 12.902C74.4117 12.8367 74.3791 12.7573 74.3791 12.664V6.056C74.3791 5.95333 74.4117 5.874 74.4771 5.818C74.5424 5.75267 74.6217 5.72 74.7151 5.72H75.8211C75.9237 5.72 76.0031 5.75267 76.0591 5.818C76.1244 5.874 76.1571 5.95333 76.1571 6.056V6.532C76.6611 5.89733 77.3377 5.58 78.1871 5.58C79.2231 5.58 79.9464 5.99533 80.3571 6.826C80.5811 6.45267 80.8984 6.154 81.3091 5.93C81.7197 5.69667 82.1631 5.58 82.6391 5.58C83.4044 5.58 84.0297 5.84133 84.5151 6.364C85.0004 6.88667 85.2431 7.64733 85.2431 8.646V12.664C85.2431 12.7573 85.2104 12.8367 85.1451 12.902C85.0891 12.9673 85.0097 13 84.9071 13H83.7451C83.6517 13 83.5724 12.9673 83.5071 12.902C83.4417 12.8367 83.4091 12.7573 83.4091 12.664V8.758C83.4091 8.17 83.2831 7.74533 83.0311 7.484C82.7884 7.22267 82.4664 7.092 82.0651 7.092C81.7011 7.092 81.3884 7.22733 81.1271 7.498C80.8751 7.75933 80.7491 8.17933 80.7491 8.758V12.664C80.7491 12.7573 80.7164 12.8367 80.6511 12.902C80.5951 12.9673 80.5157 13 80.4131 13H79.2371C79.1437 13 79.0644 12.9673 78.9991 12.902C78.9337 12.8367 78.9011 12.7573 78.9011 12.664V8.758C78.9011 8.17933 78.7751 7.75933 78.5231 7.498C78.2711 7.22733 77.9491 7.092 77.5571 7.092C77.1931 7.092 76.8804 7.22733 76.6191 7.498C76.3671 7.75933 76.2411 8.17933 76.2411 8.758V12.664C76.2411 12.7573 76.2084 12.8367 76.1431 12.902C76.0871 12.9673 76.0077 13 75.9051 13H74.7151ZM89.1396 13.14C88.6636 13.14 88.2249 13.0467 87.8236 12.86C87.4316 12.664 87.1189 12.4027 86.8856 12.076C86.6616 11.7493 86.5496 11.39 86.5496 10.998C86.5496 10.3633 86.8062 9.85 87.3196 9.458C87.8329 9.066 88.5376 8.8 89.4336 8.66L91.3516 8.38V8.086C91.3516 7.68467 91.2489 7.38133 91.0436 7.176C90.8382 6.97067 90.5116 6.868 90.0636 6.868C89.7556 6.868 89.5082 6.924 89.3216 7.036C89.1349 7.148 88.9809 7.26467 88.8596 7.386C88.7476 7.498 88.6729 7.57267 88.6356 7.61C88.5982 7.722 88.5282 7.778 88.4256 7.778H87.3336C87.2496 7.778 87.1749 7.75 87.1096 7.694C87.0536 7.638 87.0256 7.56333 87.0256 7.47C87.0349 7.23667 87.1469 6.97533 87.3616 6.686C87.5856 6.38733 87.9262 6.13067 88.3836 5.916C88.8409 5.692 89.4056 5.58 90.0776 5.58C91.1789 5.58 91.9816 5.82733 92.4856 6.322C92.9896 6.81667 93.2416 7.46533 93.2416 8.268V12.664C93.2416 12.7573 93.2089 12.8367 93.1436 12.902C93.0876 12.9673 93.0082 13 92.9056 13H91.7436C91.6502 13 91.5709 12.9673 91.5056 12.902C91.4402 12.8367 91.4076 12.7573 91.4076 12.664V12.118C91.2022 12.4167 90.9129 12.664 90.5396 12.86C90.1662 13.0467 89.6996 13.14 89.1396 13.14ZM89.6156 11.796C90.1289 11.796 90.5489 11.628 90.8756 11.292C91.2022 10.956 91.3656 10.4707 91.3656 9.836V9.556L89.9656 9.78C88.8922 9.948 88.3556 10.3073 88.3556 10.858C88.3556 11.1567 88.4769 11.39 88.7196 11.558C88.9716 11.7167 89.2702 11.796 89.6156 11.796ZM95.3873 13C95.2939 13 95.2146 12.9673 95.1493 12.902C95.0839 12.8367 95.0513 12.7573 95.0513 12.664V3.396C95.0513 3.29333 95.0839 3.214 95.1493 3.158C95.2146 3.09267 95.2939 3.06 95.3873 3.06H96.5493C96.6426 3.06 96.7219 3.09267 96.7873 3.158C96.8526 3.22333 96.8853 3.30267 96.8853 3.396V8.184L99.2093 5.958C99.2373 5.93933 99.2793 5.90667 99.3353 5.86C99.4006 5.804 99.4613 5.76667 99.5173 5.748C99.5733 5.72933 99.6433 5.72 99.7273 5.72H101.057C101.151 5.72 101.225 5.748 101.281 5.804C101.337 5.86 101.365 5.93467 101.365 6.028C101.365 6.112 101.319 6.196 101.225 6.28L98.3693 8.982L101.575 12.454C101.659 12.538 101.701 12.6173 101.701 12.692C101.701 12.7853 101.673 12.86 101.617 12.916C101.561 12.972 101.491 13 101.407 13H100.049C99.9186 13 99.8206 12.986 99.7553 12.958C99.6993 12.9207 99.6246 12.8553 99.5313 12.762L96.8853 9.948V12.664C96.8853 12.7573 96.8526 12.8367 96.7873 12.902C96.7219 12.9673 96.6426 13 96.5493 13H95.3873ZM103.042 4.53C102.949 4.53 102.869 4.49733 102.804 4.432C102.739 4.36667 102.706 4.28733 102.706 4.194V3.172C102.706 3.06933 102.739 2.98533 102.804 2.92C102.869 2.85467 102.949 2.822 103.042 2.822H104.33C104.433 2.822 104.517 2.85467 104.582 2.92C104.647 2.98533 104.68 3.06933 104.68 3.172V4.194C104.68 4.28733 104.643 4.36667 104.568 4.432C104.503 4.49733 104.423 4.53 104.33 4.53H103.042ZM103.098 13C103.005 13 102.925 12.9673 102.86 12.902C102.795 12.8367 102.762 12.7573 102.762 12.664V6.056C102.762 5.95333 102.795 5.874 102.86 5.818C102.925 5.75267 103.005 5.72 103.098 5.72H104.288C104.381 5.72 104.461 5.75267 104.526 5.818C104.591 5.88333 104.624 5.96267 104.624 6.056V12.664C104.624 12.7573 104.591 12.8367 104.526 12.902C104.461 12.9673 104.381 13 104.288 13H103.098ZM106.803 13C106.71 13 106.63 12.9673 106.565 12.902C106.5 12.8367 106.467 12.7573 106.467 12.664V6.056C106.467 5.95333 106.5 5.874 106.565 5.818C106.63 5.75267 106.71 5.72 106.803 5.72H107.965C108.068 5.72 108.147 5.75267 108.203 5.818C108.268 5.874 108.301 5.95333 108.301 6.056V6.63C108.87 5.93 109.65 5.58 110.639 5.58C111.498 5.58 112.179 5.86 112.683 6.42C113.187 6.98 113.439 7.75 113.439 8.73V12.664C113.439 12.7573 113.406 12.8367 113.341 12.902C113.285 12.9673 113.206 13 113.103 13H111.843C111.75 13 111.67 12.9673 111.605 12.902C111.54 12.8367 111.507 12.7573 111.507 12.664V8.814C111.507 8.27267 111.372 7.85267 111.101 7.554C110.84 7.246 110.462 7.092 109.967 7.092C109.491 7.092 109.108 7.246 108.819 7.554C108.53 7.862 108.385 8.282 108.385 8.814V12.664C108.385 12.7573 108.352 12.8367 108.287 12.902C108.231 12.9673 108.152 13 108.049 13H106.803ZM118.507 16.08C117.676 16.08 117.004 15.94 116.491 15.66C115.978 15.3893 115.614 15.0767 115.399 14.722C115.184 14.3673 115.077 14.064 115.077 13.812C115.077 13.7187 115.11 13.6393 115.175 13.574C115.24 13.518 115.32 13.49 115.413 13.49H116.659C116.743 13.49 116.813 13.5087 116.869 13.546C116.934 13.5927 116.986 13.672 117.023 13.784C117.126 14.0267 117.28 14.232 117.485 14.4C117.69 14.5773 118.008 14.666 118.437 14.666C118.997 14.666 119.408 14.54 119.669 14.288C119.93 14.0453 120.061 13.616 120.061 13V12.048C119.557 12.6453 118.843 12.944 117.919 12.944C116.948 12.944 116.216 12.65 115.721 12.062C115.236 11.474 114.974 10.6713 114.937 9.654L114.923 9.276L114.937 8.898C114.974 7.89933 115.24 7.09667 115.735 6.49C116.23 5.88333 116.958 5.58 117.919 5.58C118.414 5.58 118.848 5.67333 119.221 5.86C119.594 6.04667 119.902 6.29867 120.145 6.616V6.07C120.145 5.96733 120.178 5.88333 120.243 5.818C120.318 5.75267 120.402 5.72 120.495 5.72H121.643C121.736 5.72 121.816 5.75267 121.881 5.818C121.946 5.88333 121.979 5.96733 121.979 6.07L121.993 12.818C121.993 13.854 121.704 14.6567 121.125 15.226C120.546 15.7953 119.674 16.08 118.507 16.08ZM118.451 11.46C118.974 11.46 119.366 11.292 119.627 10.956C119.888 10.62 120.033 10.2093 120.061 9.724C120.07 9.64933 120.075 9.5 120.075 9.276C120.075 9.052 120.07 8.90267 120.061 8.828C120.033 8.34267 119.888 7.932 119.627 7.596C119.366 7.26 118.974 7.092 118.451 7.092C117.443 7.092 116.911 7.708 116.855 8.94L116.841 9.276C116.841 10.732 117.378 11.46 118.451 11.46ZM127.976 15.66C127.902 15.66 127.832 15.632 127.766 15.576C127.71 15.52 127.682 15.4547 127.682 15.38C127.682 15.3147 127.701 15.24 127.738 15.156L128.844 12.566L126.156 6.224C126.119 6.14 126.1 6.07467 126.1 6.028C126.11 5.944 126.142 5.874 126.198 5.818C126.254 5.75267 126.324 5.72 126.408 5.72H127.57C127.738 5.72 127.86 5.80867 127.934 5.986L129.796 10.55L131.686 5.986C131.78 5.80867 131.91 5.72 132.078 5.72H133.212C133.296 5.72 133.366 5.748 133.422 5.804C133.478 5.86 133.506 5.92533 133.506 6C133.506 6.06533 133.488 6.14 133.45 6.224L129.488 15.394C129.414 15.5713 129.283 15.66 129.096 15.66H127.976ZM137.687 13.14C136.586 13.14 135.737 12.86 135.139 12.3C134.542 11.74 134.22 10.9653 134.173 9.976L134.159 9.36L134.173 8.744C134.22 7.764 134.547 6.994 135.153 6.434C135.76 5.86467 136.605 5.58 137.687 5.58C138.761 5.58 139.601 5.86467 140.207 6.434C140.814 6.994 141.141 7.764 141.187 8.744C141.197 8.856 141.201 9.06133 141.201 9.36C141.201 9.65867 141.197 9.864 141.187 9.976C141.141 10.9653 140.819 11.74 140.221 12.3C139.624 12.86 138.779 13.14 137.687 13.14ZM137.687 11.726C138.182 11.726 138.56 11.572 138.821 11.264C139.092 10.956 139.237 10.5033 139.255 9.906C139.265 9.81267 139.269 9.63067 139.269 9.36C139.269 9.08933 139.265 8.90733 139.255 8.814C139.237 8.21667 139.092 7.764 138.821 7.456C138.551 7.13867 138.173 6.98 137.687 6.98C137.193 6.98 136.81 7.13867 136.539 7.456C136.269 7.764 136.124 8.21667 136.105 8.814L136.091 9.36L136.105 9.906C136.124 10.5033 136.269 10.956 136.539 11.264C136.81 11.572 137.193 11.726 137.687 11.726ZM145.454 13.14C144.595 13.14 143.919 12.86 143.424 12.3C142.929 11.74 142.682 10.97 142.682 9.99V6.056C142.682 5.95333 142.715 5.874 142.78 5.818C142.845 5.75267 142.925 5.72 143.018 5.72H144.278C144.371 5.72 144.451 5.75267 144.516 5.818C144.581 5.88333 144.614 5.96267 144.614 6.056V9.906C144.614 11.054 145.113 11.628 146.112 11.628C146.597 11.628 146.98 11.474 147.26 11.166C147.549 10.858 147.694 10.438 147.694 9.906V6.056C147.694 5.95333 147.727 5.874 147.792 5.818C147.857 5.75267 147.937 5.72 148.03 5.72H149.276C149.379 5.72 149.458 5.75267 149.514 5.818C149.579 5.874 149.612 5.95333 149.612 6.056V12.664C149.612 12.7573 149.579 12.8367 149.514 12.902C149.458 12.9673 149.379 13 149.276 13H148.114C148.021 13 147.941 12.9673 147.876 12.902C147.811 12.8367 147.778 12.7573 147.778 12.664V12.09C147.265 12.79 146.49 13.14 145.454 13.14ZM151.797 13C151.704 13 151.624 12.9673 151.559 12.902C151.494 12.8367 151.461 12.7573 151.461 12.664V6.07C151.461 5.96733 151.494 5.88333 151.559 5.818C151.624 5.75267 151.704 5.72 151.797 5.72H152.945C153.048 5.72 153.132 5.75267 153.197 5.818C153.262 5.88333 153.295 5.96733 153.295 6.07V6.644C153.762 6.028 154.434 5.72 155.311 5.72H155.899C156.002 5.72 156.081 5.75267 156.137 5.818C156.202 5.874 156.235 5.95333 156.235 6.056V7.078C156.235 7.17133 156.202 7.25067 156.137 7.316C156.081 7.38133 156.002 7.414 155.899 7.414H154.793C154.354 7.414 154.009 7.54 153.757 7.792C153.505 8.044 153.379 8.38933 153.379 8.828V12.664C153.379 12.7573 153.346 12.8367 153.281 12.902C153.216 12.9673 153.136 13 153.043 13H151.797ZM17.6824 30.14C16.5811 30.14 15.7317 29.86 15.1344 29.3C14.5371 28.74 14.2151 27.9653 14.1684 26.976L14.1544 26.36L14.1684 25.744C14.2151 24.764 14.5417 23.994 15.1484 23.434C15.7551 22.8647 16.5997 22.58 17.6824 22.58C18.7557 22.58 19.5957 22.8647 20.2024 23.434C20.8091 23.994 21.1357 24.764 21.1824 25.744C21.1917 25.856 21.1964 26.0613 21.1964 26.36C21.1964 26.6587 21.1917 26.864 21.1824 26.976C21.1357 27.9653 20.8137 28.74 20.2164 29.3C19.6191 29.86 18.7744 30.14 17.6824 30.14ZM17.6824 28.726C18.1771 28.726 18.5551 28.572 18.8164 28.264C19.0871 27.956 19.2317 27.5033 19.2504 26.906C19.2597 26.8127 19.2644 26.6307 19.2644 26.36C19.2644 26.0893 19.2597 25.9073 19.2504 25.814C19.2317 25.2167 19.0871 24.764 18.8164 24.456C18.5457 24.1387 18.1677 23.98 17.6824 23.98C17.1877 23.98 16.8051 24.1387 16.5344 24.456C16.2637 24.764 16.1191 25.2167 16.1004 25.814L16.0864 26.36L16.1004 26.906C16.1191 27.5033 16.2637 27.956 16.5344 28.264C16.8051 28.572 17.1877 28.726 17.6824 28.726ZM24.5302 30C24.2968 30 24.1428 29.8833 24.0682 29.65L22.0662 23.154C22.0568 23.126 22.0522 23.084 22.0522 23.028C22.0522 22.944 22.0802 22.874 22.1362 22.818C22.1922 22.7527 22.2622 22.72 22.3462 22.72H23.4102C23.5035 22.72 23.5828 22.748 23.6482 22.804C23.7228 22.86 23.7695 22.9207 23.7882 22.986L25.1462 27.592L26.5882 23.028C26.6162 22.944 26.6628 22.874 26.7282 22.818C26.8028 22.7527 26.8962 22.72 27.0082 22.72H27.7222C27.8342 22.72 27.9228 22.7527 27.9882 22.818C28.0628 22.874 28.1095 22.944 28.1282 23.028L29.5842 27.592L30.9422 22.986C30.9608 22.9207 31.0028 22.86 31.0682 22.804C31.1335 22.748 31.2175 22.72 31.3202 22.72H32.3702C32.4542 22.72 32.5242 22.7527 32.5802 22.818C32.6455 22.874 32.6782 22.944 32.6782 23.028L32.6502 23.154L30.6482 29.65C30.6108 29.762 30.5548 29.8507 30.4802 29.916C30.4148 29.972 30.3215 30 30.2002 30H29.2762C29.0335 30 28.8795 29.8833 28.8142 29.65L27.3722 25.254L25.9162 29.65C25.8415 29.8833 25.6828 30 25.4402 30H24.5302ZM34.3762 30C34.2829 30 34.2035 29.9673 34.1382 29.902C34.0729 29.8367 34.0402 29.7573 34.0402 29.664V23.056C34.0402 22.9533 34.0729 22.874 34.1382 22.818C34.2035 22.7527 34.2829 22.72 34.3762 22.72H35.5382C35.6409 22.72 35.7202 22.7527 35.7762 22.818C35.8415 22.874 35.8742 22.9533 35.8742 23.056V23.63C36.4435 22.93 37.2229 22.58 38.2122 22.58C39.0709 22.58 39.7522 22.86 40.2562 23.42C40.7602 23.98 41.0122 24.75 41.0122 25.73V29.664C41.0122 29.7573 40.9795 29.8367 40.9142 29.902C40.8582 29.9673 40.7789 30 40.6762 30H39.4162C39.3229 30 39.2435 29.9673 39.1782 29.902C39.1129 29.8367 39.0802 29.7573 39.0802 29.664V25.814C39.0802 25.2727 38.9449 24.8527 38.6742 24.554C38.4129 24.246 38.0349 24.092 37.5402 24.092C37.0642 24.092 36.6815 24.246 36.3922 24.554C36.1029 24.862 35.9582 25.282 35.9582 25.814V29.664C35.9582 29.7573 35.9255 29.8367 35.8602 29.902C35.8042 29.9673 35.7249 30 35.6222 30H34.3762ZM48.7478 30.14C48.0384 30.14 47.4458 30.0327 46.9698 29.818C46.4938 29.6033 46.1391 29.356 45.9058 29.076C45.6818 28.7867 45.5698 28.5393 45.5698 28.334C45.5698 28.2407 45.5978 28.166 45.6538 28.11C45.7191 28.054 45.7938 28.026 45.8778 28.026H47.0258C47.1004 28.026 47.1658 28.0633 47.2218 28.138C47.2684 28.1753 47.3711 28.264 47.5298 28.404C47.6978 28.544 47.8844 28.656 48.0898 28.74C48.3044 28.8147 48.5378 28.852 48.7898 28.852C49.1631 28.852 49.4664 28.782 49.6998 28.642C49.9331 28.4927 50.0498 28.2827 50.0498 28.012C50.0498 27.8253 49.9938 27.676 49.8818 27.564C49.7791 27.4427 49.5878 27.3353 49.3078 27.242C49.0371 27.1393 48.6264 27.0273 48.0758 26.906C47.2824 26.738 46.6944 26.4813 46.3118 26.136C45.9384 25.7907 45.7518 25.3333 45.7518 24.764C45.7518 24.3907 45.8638 24.0407 46.0878 23.714C46.3118 23.378 46.6431 23.1073 47.0818 22.902C47.5298 22.6873 48.0618 22.58 48.6778 22.58C49.3124 22.58 49.8584 22.6827 50.3158 22.888C50.7731 23.084 51.1184 23.322 51.3518 23.602C51.5944 23.882 51.7158 24.1293 51.7158 24.344C51.7158 24.428 51.6831 24.5027 51.6178 24.568C51.5618 24.624 51.4918 24.652 51.4078 24.652H50.3578C50.2551 24.652 50.1758 24.6147 50.1198 24.54C50.0544 24.4933 49.9471 24.4093 49.7978 24.288C49.6578 24.1573 49.4991 24.0547 49.3218 23.98C49.1444 23.9053 48.9298 23.868 48.6778 23.868C48.3324 23.868 48.0664 23.9427 47.8798 24.092C47.6931 24.2413 47.5998 24.4373 47.5998 24.68C47.5998 24.848 47.6418 24.988 47.7258 25.1C47.8191 25.212 48.0011 25.3193 48.2718 25.422C48.5424 25.5153 48.9484 25.6133 49.4898 25.716C51.1698 26.0427 52.0098 26.7753 52.0098 27.914C52.0098 28.5767 51.7204 29.1133 51.1418 29.524C50.5724 29.9347 49.7744 30.14 48.7478 30.14ZM56.6746 30.14C55.5733 30.14 54.7239 29.86 54.1266 29.3C53.5293 28.74 53.2073 27.9653 53.1606 26.976L53.1466 26.36L53.1606 25.744C53.2073 24.764 53.5339 23.994 54.1406 23.434C54.7473 22.8647 55.5919 22.58 56.6746 22.58C57.7479 22.58 58.5879 22.8647 59.1946 23.434C59.8013 23.994 60.1279 24.764 60.1746 25.744C60.1839 25.856 60.1886 26.0613 60.1886 26.36C60.1886 26.6587 60.1839 26.864 60.1746 26.976C60.1279 27.9653 59.8059 28.74 59.2086 29.3C58.6113 29.86 57.7666 30.14 56.6746 30.14ZM56.6746 28.726C57.1693 28.726 57.5473 28.572 57.8086 28.264C58.0793 27.956 58.2239 27.5033 58.2426 26.906C58.2519 26.8127 58.2566 26.6307 58.2566 26.36C58.2566 26.0893 58.2519 25.9073 58.2426 25.814C58.2239 25.2167 58.0793 24.764 57.8086 24.456C57.5379 24.1387 57.1599 23.98 56.6746 23.98C56.1799 23.98 55.7973 24.1387 55.5266 24.456C55.2559 24.764 55.1113 25.2167 55.0926 25.814L55.0786 26.36L55.0926 26.906C55.1113 27.5033 55.2559 27.956 55.5266 28.264C55.7973 28.572 56.1799 28.726 56.6746 28.726ZM64.8894 30.14C63.8628 30.14 63.0414 29.8553 62.4254 29.286C61.8188 28.7167 61.4968 27.928 61.4594 26.92L61.4454 26.36L61.4594 25.8C61.4968 24.792 61.8188 24.0033 62.4254 23.434C63.0414 22.8647 63.8628 22.58 64.8894 22.58C65.6268 22.58 66.2474 22.7107 66.7514 22.972C67.2648 23.2333 67.6428 23.5553 67.8854 23.938C68.1374 24.3113 68.2728 24.6707 68.2914 25.016C68.3008 25.1093 68.2681 25.1887 68.1934 25.254C68.1281 25.3193 68.0488 25.352 67.9554 25.352H66.7094C66.6068 25.352 66.5321 25.3333 66.4854 25.296C66.4388 25.2493 66.3921 25.17 66.3454 25.058C66.2054 24.7033 66.0188 24.4467 65.7854 24.288C65.5614 24.1293 65.2721 24.05 64.9174 24.05C64.4414 24.05 64.0681 24.1993 63.7974 24.498C63.5361 24.7967 63.3961 25.254 63.3774 25.87L63.3634 26.388L63.3774 26.85C63.4334 28.0633 63.9468 28.67 64.9174 28.67C65.2814 28.67 65.5754 28.5953 65.7994 28.446C66.0234 28.2873 66.2054 28.026 66.3454 27.662C66.3828 27.5593 66.4248 27.4847 66.4714 27.438C66.5274 27.3913 66.6068 27.368 66.7094 27.368H67.9554C68.0488 27.368 68.1281 27.4007 68.1934 27.466C68.2681 27.5313 68.3008 27.6107 68.2914 27.704C68.2728 28.0307 68.1421 28.3853 67.8994 28.768C67.6568 29.1413 67.2834 29.4633 66.7794 29.734C66.2754 30.0047 65.6454 30.14 64.8894 30.14ZM70.0311 21.53C69.9378 21.53 69.8585 21.4973 69.7931 21.432C69.7278 21.3667 69.6951 21.2873 69.6951 21.194V20.172C69.6951 20.0693 69.7278 19.9853 69.7931 19.92C69.8585 19.8547 69.9378 19.822 70.0311 19.822H71.3191C71.4218 19.822 71.5058 19.8547 71.5711 19.92C71.6365 19.9853 71.6691 20.0693 71.6691 20.172V21.194C71.6691 21.2873 71.6318 21.3667 71.5571 21.432C71.4918 21.4973 71.4125 21.53 71.3191 21.53H70.0311ZM70.0871 30C69.9938 30 69.9145 29.9673 69.8491 29.902C69.7838 29.8367 69.7511 29.7573 69.7511 29.664V23.056C69.7511 22.9533 69.7838 22.874 69.8491 22.818C69.9145 22.7527 69.9938 22.72 70.0871 22.72H71.2771C71.3705 22.72 71.4498 22.7527 71.5151 22.818C71.5805 22.8833 71.6131 22.9627 71.6131 23.056V29.664C71.6131 29.7573 71.5805 29.8367 71.5151 29.902C71.4498 29.9673 71.3705 30 71.2771 30H70.0871ZM75.5702 30.14C75.0942 30.14 74.6556 30.0467 74.2542 29.86C73.8622 29.664 73.5496 29.4027 73.3162 29.076C73.0922 28.7493 72.9802 28.39 72.9802 27.998C72.9802 27.3633 73.2369 26.85 73.7502 26.458C74.2636 26.066 74.9682 25.8 75.8642 25.66L77.7822 25.38V25.086C77.7822 24.6847 77.6796 24.3813 77.4742 24.176C77.2689 23.9707 76.9422 23.868 76.4942 23.868C76.1862 23.868 75.9389 23.924 75.7522 24.036C75.5656 24.148 75.4116 24.2647 75.2902 24.386C75.1782 24.498 75.1036 24.5727 75.0662 24.61C75.0289 24.722 74.9589 24.778 74.8562 24.778H73.7642C73.6802 24.778 73.6056 24.75 73.5402 24.694C73.4842 24.638 73.4562 24.5633 73.4562 24.47C73.4656 24.2367 73.5776 23.9753 73.7922 23.686C74.0162 23.3873 74.3569 23.1307 74.8142 22.916C75.2716 22.692 75.8362 22.58 76.5082 22.58C77.6096 22.58 78.4122 22.8273 78.9162 23.322C79.4202 23.8167 79.6722 24.4653 79.6722 25.268V29.664C79.6722 29.7573 79.6396 29.8367 79.5742 29.902C79.5182 29.9673 79.4389 30 79.3362 30H78.1742C78.0809 30 78.0016 29.9673 77.9362 29.902C77.8709 29.8367 77.8382 29.7573 77.8382 29.664V29.118C77.6329 29.4167 77.3436 29.664 76.9702 29.86C76.5969 30.0467 76.1302 30.14 75.5702 30.14ZM76.0462 28.796C76.5596 28.796 76.9796 28.628 77.3062 28.292C77.6329 27.956 77.7962 27.4707 77.7962 26.836V26.556L76.3962 26.78C75.3229 26.948 74.7862 27.3073 74.7862 27.858C74.7862 28.1567 74.9076 28.39 75.1502 28.558C75.4022 28.7167 75.7009 28.796 76.0462 28.796ZM81.8179 30C81.7246 30 81.6453 29.9673 81.5799 29.902C81.5146 29.8367 81.4819 29.7573 81.4819 29.664V20.396C81.4819 20.2933 81.5146 20.214 81.5799 20.158C81.6453 20.0927 81.7246 20.06 81.8179 20.06H82.9939C83.0966 20.06 83.1759 20.0927 83.2319 20.158C83.2973 20.214 83.3299 20.2933 83.3299 20.396V29.664C83.3299 29.7573 83.2973 29.8367 83.2319 29.902C83.1759 29.9673 83.0966 30 82.9939 30H81.8179ZM88.7082 30C88.6149 30 88.5356 29.9673 88.4702 29.902C88.4049 29.8367 88.3722 29.7573 88.3722 29.664V23.056C88.3722 22.9533 88.4049 22.874 88.4702 22.818C88.5356 22.7527 88.6149 22.72 88.7082 22.72H89.8702C89.9729 22.72 90.0522 22.7527 90.1082 22.818C90.1736 22.874 90.2062 22.9533 90.2062 23.056V23.63C90.7756 22.93 91.5549 22.58 92.5442 22.58C93.4029 22.58 94.0842 22.86 94.5882 23.42C95.0922 23.98 95.3442 24.75 95.3442 25.73V29.664C95.3442 29.7573 95.3116 29.8367 95.2462 29.902C95.1902 29.9673 95.1109 30 95.0082 30H93.7482C93.6549 30 93.5756 29.9673 93.5102 29.902C93.4449 29.8367 93.4122 29.7573 93.4122 29.664V25.814C93.4122 25.2727 93.2769 24.8527 93.0062 24.554C92.7449 24.246 92.3669 24.092 91.8722 24.092C91.3962 24.092 91.0136 24.246 90.7242 24.554C90.4349 24.862 90.2902 25.282 90.2902 25.814V29.664C90.2902 29.7573 90.2576 29.8367 90.1922 29.902C90.1362 29.9673 90.0569 30 89.9542 30H88.7082ZM100.272 30.14C99.2269 30.14 98.3962 29.8413 97.7802 29.244C97.1736 28.6467 96.8516 27.7973 96.8142 26.696L96.8002 26.346C96.8002 25.1793 97.1036 24.26 97.7102 23.588C98.3262 22.916 99.1756 22.58 100.258 22.58C101.369 22.58 102.223 22.916 102.82 23.588C103.427 24.26 103.73 25.156 103.73 26.276V26.57C103.73 26.6633 103.698 26.7427 103.632 26.808C103.567 26.8733 103.483 26.906 103.38 26.906H98.7322V27.018C98.7509 27.5407 98.8909 27.9747 99.1522 28.32C99.4229 28.656 99.7916 28.824 100.258 28.824C100.79 28.824 101.224 28.6093 101.56 28.18C101.644 28.0773 101.71 28.0167 101.756 27.998C101.803 27.97 101.882 27.956 101.994 27.956H103.226C103.31 27.956 103.38 27.9793 103.436 28.026C103.502 28.0727 103.534 28.138 103.534 28.222C103.534 28.446 103.399 28.712 103.128 29.02C102.867 29.3187 102.489 29.58 101.994 29.804C101.5 30.028 100.926 30.14 100.272 30.14ZM101.798 25.716V25.688C101.798 25.1373 101.658 24.6987 101.378 24.372C101.108 24.036 100.734 23.868 100.258 23.868C99.7822 23.868 99.4089 24.036 99.1382 24.372C98.8676 24.6987 98.7322 25.1373 98.7322 25.688V25.716H101.798ZM108.493 30C107.643 30 107.004 29.7807 106.575 29.342C106.145 28.894 105.931 28.2407 105.931 27.382V24.218H104.825C104.731 24.218 104.652 24.1853 104.587 24.12C104.521 24.0547 104.489 23.9753 104.489 23.882V23.056C104.489 22.9627 104.521 22.8833 104.587 22.818C104.652 22.7527 104.731 22.72 104.825 22.72H105.931V20.396C105.931 20.2933 105.963 20.214 106.029 20.158C106.094 20.0927 106.173 20.06 106.267 20.06H107.429C107.531 20.06 107.611 20.0927 107.667 20.158C107.732 20.214 107.765 20.2933 107.765 20.396V22.72H109.515C109.608 22.72 109.687 22.7527 109.753 22.818C109.818 22.8833 109.851 22.9627 109.851 23.056V23.882C109.851 23.9753 109.818 24.0547 109.753 24.12C109.687 24.1853 109.608 24.218 109.515 24.218H107.765V27.228C107.765 27.6293 107.835 27.9327 107.975 28.138C108.115 28.3433 108.343 28.446 108.661 28.446H109.641C109.743 28.446 109.823 28.4787 109.879 28.544C109.944 28.6 109.977 28.6793 109.977 28.782V29.664C109.977 29.7573 109.944 29.8367 109.879 29.902C109.823 29.9673 109.743 30 109.641 30H108.493ZM113.206 30C112.973 30 112.819 29.8833 112.744 29.65L110.742 23.154C110.733 23.126 110.728 23.084 110.728 23.028C110.728 22.944 110.756 22.874 110.812 22.818C110.868 22.7527 110.938 22.72 111.022 22.72H112.086C112.179 22.72 112.259 22.748 112.324 22.804C112.399 22.86 112.445 22.9207 112.464 22.986L113.822 27.592L115.264 23.028C115.292 22.944 115.339 22.874 115.404 22.818C115.479 22.7527 115.572 22.72 115.684 22.72H116.398C116.51 22.72 116.599 22.7527 116.664 22.818C116.739 22.874 116.785 22.944 116.804 23.028L118.26 27.592L119.618 22.986C119.637 22.9207 119.679 22.86 119.744 22.804C119.809 22.748 119.893 22.72 119.996 22.72H121.046C121.13 22.72 121.2 22.7527 121.256 22.818C121.321 22.874 121.354 22.944 121.354 23.028L121.326 23.154L119.324 29.65C119.287 29.762 119.231 29.8507 119.156 29.916C119.091 29.972 118.997 30 118.876 30H117.952C117.709 30 117.555 29.8833 117.49 29.65L116.048 25.254L114.592 29.65C114.517 29.8833 114.359 30 114.116 30H113.206ZM125.745 30.14C124.644 30.14 123.794 29.86 123.197 29.3C122.6 28.74 122.278 27.9653 122.231 26.976L122.217 26.36L122.231 25.744C122.278 24.764 122.604 23.994 123.211 23.434C123.818 22.8647 124.662 22.58 125.745 22.58C126.818 22.58 127.658 22.8647 128.265 23.434C128.872 23.994 129.198 24.764 129.245 25.744C129.254 25.856 129.259 26.0613 129.259 26.36C129.259 26.6587 129.254 26.864 129.245 26.976C129.198 27.9653 128.876 28.74 128.279 29.3C127.682 29.86 126.837 30.14 125.745 30.14ZM125.745 28.726C126.24 28.726 126.618 28.572 126.879 28.264C127.15 27.956 127.294 27.5033 127.313 26.906C127.322 26.8127 127.327 26.6307 127.327 26.36C127.327 26.0893 127.322 25.9073 127.313 25.814C127.294 25.2167 127.15 24.764 126.879 24.456C126.608 24.1387 126.23 23.98 125.745 23.98C125.25 23.98 124.868 24.1387 124.597 24.456C124.326 24.764 124.182 25.2167 124.163 25.814L124.149 26.36L124.163 26.906C124.182 27.5033 124.326 27.956 124.597 28.264C124.868 28.572 125.25 28.726 125.745 28.726ZM131.146 30C131.052 30 130.973 29.9673 130.908 29.902C130.842 29.8367 130.81 29.7573 130.81 29.664V23.07C130.81 22.9673 130.842 22.8833 130.908 22.818C130.973 22.7527 131.052 22.72 131.146 22.72H132.294C132.396 22.72 132.48 22.7527 132.546 22.818C132.611 22.8833 132.644 22.9673 132.644 23.07V23.644C133.11 23.028 133.782 22.72 134.66 22.72H135.248C135.35 22.72 135.43 22.7527 135.486 22.818C135.551 22.874 135.584 22.9533 135.584 23.056V24.078C135.584 24.1713 135.551 24.2507 135.486 24.316C135.43 24.3813 135.35 24.414 135.248 24.414H134.142C133.703 24.414 133.358 24.54 133.106 24.792C132.854 25.044 132.728 25.3893 132.728 25.828V29.664C132.728 29.7573 132.695 29.8367 132.63 29.902C132.564 29.9673 132.485 30 132.392 30H131.146ZM137.025 30C136.932 30 136.852 29.9673 136.787 29.902C136.722 29.8367 136.689 29.7573 136.689 29.664V20.396C136.689 20.2933 136.722 20.214 136.787 20.158C136.852 20.0927 136.932 20.06 137.025 20.06H138.187C138.28 20.06 138.36 20.0927 138.425 20.158C138.49 20.2233 138.523 20.3027 138.523 20.396V25.184L140.847 22.958C140.875 22.9393 140.917 22.9067 140.973 22.86C141.038 22.804 141.099 22.7667 141.155 22.748C141.211 22.7293 141.281 22.72 141.365 22.72H142.695C142.788 22.72 142.863 22.748 142.919 22.804C142.975 22.86 143.003 22.9347 143.003 23.028C143.003 23.112 142.956 23.196 142.863 23.28L140.007 25.982L143.213 29.454C143.297 29.538 143.339 29.6173 143.339 29.692C143.339 29.7853 143.311 29.86 143.255 29.916C143.199 29.972 143.129 30 143.045 30H141.687C141.556 30 141.458 29.986 141.393 29.958C141.337 29.9207 141.262 29.8553 141.169 29.762L138.523 26.948V29.664C138.523 29.7573 138.49 29.8367 138.425 29.902C138.36 29.9673 138.28 30 138.187 30H137.025Z" transform="translate(18 34)" fill="black"/>
</g>
<defs>
<linearGradient id="paint0_linear" x2="1" gradientUnits="userSpaceOnUse" gradientTransform="matrix(96.5 159.5 -301.799 182.593 218.4 -119.797)">
<stop stop-color="#CDFD46"/>
<stop offset="1" stop-color="#3DFEE9"/>
</linearGradient>
<linearGradient id="paint1_linear" x2="1" gradientUnits="userSpaceOnUse" gradientTransform="matrix(96.5 159.5 -301.799 182.593 218.4 -119.797)">
<stop stop-color="#CDFD46"/>
<stop offset="1" stop-color="#3DFEE9"/>
</linearGradient>
</defs>
</svg>
